<svg id="art" xmlns="http://www.w3.org/2000/svg" width="488.35" height="244.35" viewBox="0 0 488.35 244.35">
  <defs>
    <style>
      .cls-1 {
        fill: #d4d7dc;
      }

      .cls-2 {
        fill: #dca174;
      }

      .cls-3 {
        fill: #1877bd;
      }

      .cls-4 {
        fill: #393a3d;
      }

      .cls-5 {
        fill: #6b6d73;
      }

      .cls-6 {
        fill: #00a6a4;
      }

      .cls-7 {
        fill: #22bcbc;
      }

      .cls-8 {
        fill: #49c2c9;
      }

      .cls-9 {
        fill: #3093d1;
      }

      .cls-10 {
        fill: #43a6dd;
      }

      .cls-11 {
        fill: #f9cfae;
      }

      .cls-12 {
        fill: #f15922;
      }

      .cls-13 {
        fill: #178140;
      }

      .cls-14 {
        fill: #2ca048;
      }

      .cls-15 {
        fill: #854c20;
      }

      .cls-16 {
        fill: #babec5;
      }

      .cls-17 {
        fill: #eceef0;
      }

      .cls-18 {
        fill: #b07242;
      }

      .cls-19 {
        fill: #f57f20;
      }

      .cls-20 {
        fill: #fbad18;
      }

      .cls-21 {
        fill: #ffcb06;
      }
    </style>
  </defs>
  <g>
    <path class="cls-1" d="M251.82,214.59c-8.78,1.13-29.77-2.69-32.18-.57s22.08,23.21,34.82,20a3.15,3.15,0,0,0,2.11-1.93l4.57-10.34S254,215.32,251.82,214.59Z"/>
    <path class="cls-1" d="M369.56,194.74l12,5.12a4.3,4.3,0,0,1,3.28,4.3c-.37,12.59-13.29,31.37-16.63,30.44-3.65-1,.06-24-3.6-31A80.74,80.74,0,0,1,369.56,194.74Z"/>
    <path class="cls-2" d="M304.58,39.65c7.17-5.22,31.23,19.58,38.8,31.24s7.93,33.54,9.07,40.42c-.74,4.22-5.58,5.91-6.85,3.73-5.25-8.91-16-33.38-18.51-35.63C324,76.63,297.41,44.87,304.58,39.65Z"/>
    <path class="cls-3" d="M304.58,39.06C313.8,32.38,335,58.39,335,58.39L315.42,72.73S295.36,45.75,304.58,39.06Z"/>
    <path class="cls-4" d="M294.06,108.61C243.6,143.28,256.75,161.77,251.63,215c.8,2.38,9.57,7.17,9.57,7.17,14-25,14.83-56.82,17.35-60.81S307.87,144.41,318,128.9,296.66,107.57,294.06,108.61Z"/>
    <path class="cls-5" d="M298.1,107.78c.21,27.66-2.43,48.1,6.67,62.84,16.74,27.12,59.81,33.19,59.81,33.19s6.15-5.33,7.13-8.41c-20.72-23.94-42.7-27-45.8-33.8s7.61-24.52,3.38-39.18S298,99,298.1,107.78Z"/>
    <g>
      <path class="cls-5" d="M178.43,208.45s-10.21,23.6-8.38,25c1.38,1,17.4-11.25,22.92-16.91,1.85-1.89,2.76-4.43,1-6.44L185.8,205Z"/>
      <path d="M88.07,120.2c-8.66,10.19-21.22,20.72-22.74,41.64-1,13.13,2.71,19.24,10,53.87l12,2.14c1.17-43.88-2.93-52.07-1.78-55s29.6-26.46,31.76-38.61S103.55,102,88.07,120.2Z"/>
      <path class="cls-4" d="M100.3,117.88a71.14,71.14,0,0,0,5.6,20c15.68,34.24,43.15,39.49,70.72,74,3,.11,9.15-4,9.15-7.43a159.17,159.17,0,0,0-29.07-44.51c-9.29-11-18.23-23-24.4-33.71-.85-8.7-1.23-13.2-3.78-17.45S99.51,111.58,100.3,117.88Z"/>
      <path class="cls-6" d="M71.18,54.05C65,51.37,58.66,84.82,58.66,84.82S38.32,63.44,30,63.44s21,49.23,39.73,46.1S74.83,55.61,71.18,54.05Z"/>
      <path class="cls-7" d="M67.2,64.11c3,18.2,18.44,31.26,19.61,34.59s-.2,16.5,2.41,19.58c5.63,6.67,42.37,8,41.9-3.38-.58-14-3.44-50.36-15.66-70.08C105,27.91,63.59,42.19,67.2,64.11Z"/>
      <path class="cls-8" d="M110.29,40.89C115.2,37.62,143.47,61,143.47,61s36.77,13.68,37.75,21.32-25.43,7.53-39.54,1.06c-8-3.66-21.35-16.06-27.47-26C109.5,49.62,108.93,41.8,110.29,40.89Z"/>
      <path class="cls-2" d="M71,28.86c3,7.25,9.08,5.87,9.49,8.09s.68,4.88,1,6.9c.38,2.61,4.79,8.12,7.15,7.69S98,40.33,96.73,38.76c-6.49-7.9-10-18.84-15.45-22.28S66.92,19,71,28.86Z"/>
      <path class="cls-4" d="M85.6,16.38s-2-8.31-11.73-6.77C69.73,6,63.78,9.44,65.55,13.75c2.43,5.89,6.7,7.09,6.7,7.09S77.82,15,82.64,18C84.52,19.18,85.77,18.94,85.6,16.38Z"/>
      <path class="cls-4" d="M86.68,16.38c-1.77-.87-4.26.18-3.55,2.92s2.34,6.45,4.07,5.57S89.61,17.83,86.68,16.38Z"/>
      <circle class="cls-2" cx="90.21" cy="23.88" r="4.08"/>
      <path class="cls-5" d="M87.35,217.85l.31,8.58a4.27,4.27,0,0,1-5.55,4.24c-9.58-3-32.12-10-32.63-12.09C48.79,215.8,78,215.24,78,215.24Z"/>
      <path class="cls-2" d="M34,63.48c-6.58-12-25.16-7.3-31.17-7.65,1.26,2.34,12.76,4.55,12.76,4.55s-.3,6.85,2.94,8.73,13.7,6.32,15.27,5S36.42,67.86,34,63.48Z"/>
    </g>
    <path class="cls-9" d="M278.53,54.1c-5.06,23.95,15.81,45.45,15.81,50.56s-10.73,12.07-10.73,12.07l6,3.83,6.66-5-2.38,8,37.41,5.6s7.28-45.24-6.77-78S281.55,39.87,278.53,54.1Z"/>
    <path class="cls-10" d="M285.81,39.66c-5.29,4.61-6.41,13.72-6.41,13.72l5-5.71L286,54.09a41.59,41.59,0,0,0,16-20,21.57,21.57,0,0,1-5.1-3.86Z"/>
    <path class="cls-11" d="M305.09,47.49c-8-4.12-22.59,45.62-22.59,45.62S245,115.94,247.06,121.19s40.1-7.09,50.53-18S313.07,51.61,305.09,47.49Z"/>
    <path class="cls-11" d="M249.63,117.34c-20.77,13.45-7.18,29.26-7.34,33.79,4.72-3.09,1.39-12.2,2.61-13,0,0,3.67,5.17,4.11,7.73,2.68-3.34-.59-8.41-.46-11.39s5.2-8.24,7-12.46S254.48,114,249.63,117.34Z"/>
    <path class="cls-2" d="M345.79,113.72c.77,5.24,3.16,17.55,9.26,20.12s9.09,2.86,16.26,3.8c-1.9-6.15-9.41-5-9.4-8.35,0,0,5.32.76,8.7,4.08.43-3.47-6.77-7.81-8.45-9.44s-3.16-6.62-6.65-10.11S345,108.48,345.79,113.72Z"/>
    <path class="cls-11" d="M277.5,16.51c-4.94,13.35,5.17,15,6.08,15.51s1.35,13.51,1.35,13.51a38.86,38.86,0,0,0,11.95-14.27A43.47,43.47,0,0,1,293.13,25c-1.54-3-1.34-4.72-1.53-7.41C291.17,11.81,281.47,5.8,277.5,16.51Z"/>
    <path class="cls-12" d="M289.35,24.25c2.87.58,9.29-4.87,7.87-10.49S282.14,5.89,282.57,2.61c-3.71,2-6.15,6.68-4,8.84s9,1.45,9.39,3.62S285,23.38,289.35,24.25Z"/>
    <path class="cls-12" d="M290,20.32c-1.1,0-3.72,6.56-3.72,6.56-1.75-6.13-7.73-6.17-10.38-6.29,0,0-2.18,8.55,1,11.1s8.74,3.49,10.93,0S291.1,20.32,290,20.32Z"/>
    <circle class="cls-11" cx="293.43" cy="21.37" r="4.21"/>
    <g>
      <path class="cls-5" d="M344,208.23c-4.75,10.21-20.66,22.85-20.21,24.13s13.89-.5,16.63-.9,8.3-10.22,10.26-10.2c0,0,1.39,9.87,2.47,9.84s4.67-12.77,1-21.1C354.14,210,347.6,205.75,344,208.23Z"/>
      <path class="cls-5" d="M447.64,192.19c10,2.69,24,15.13,25.1,14.52s-2.65-12.52-3.45-15-10.59-5.9-10.88-7.69c0,0,8.74-2.82,8.53-3.8s-12.32-2.21-19.3,2.43C447.64,182.7,444.82,189.31,447.64,192.19Z"/>
      <path class="cls-13" d="M389.92,123.22c-7.06,29.06,8.8,57.65,12.51,61.12s32.75,6.86,45.65,8.45c0,0,2.75-6.7,1.06-10-12-6.34-27.87-7.09-28.9-9.81s2.56-22.46,4.32-44.24C425.71,114.57,394.42,104.69,389.92,123.22Z"/>
      <path class="cls-14" d="M394.17,122.08c-39.12,30.73-41.78,56.44-50.45,86.06,0,0,5.41,5.81,11.38,4.88,12.77-18.73,19.8-39.37,24.57-43.25s40.07-15.81,47.74-41.39C434,106.54,406.36,115.76,394.17,122.08Z"/>
      <path class="cls-15" d="M382.52,62.55c-8.51,4-9,36-11.5,38.18-2.14,1.85-19.95,20.54-24.33,29.31-.72,1.44,3.26,1.71,5.68,2,11.28-9,28.7-12.79,36.24-22.12S388,60,382.52,62.55Z"/>
      <path class="cls-16" d="M381,62c7.68-4.36,12.41,41.71,11.66,46.7s-19.2,17.85-19.2,17.85l-12.12-16.13,10.5-11.33S373.16,66.47,381,62Z"/>
      <path class="cls-1" d="M376.26,77.22c-1.3-8.39,1.54-13.92,6.35-19.42,5.29-6,13.86-8.87,19.8-7.9,28.2,4.62,37.83,46.35,31.74,71.08,0,0-22.23,13.57-45.66,5.14,0,0-1.61-16.07-3.24-23.78S377.55,85.61,376.26,77.22Z"/>
      <path class="cls-17" d="M399.65,47.12s3.5,3.32,6.19,3.58c0,0,.45,3.17-9.35,13L388.12,59l-3.67,4.4S382.84,50.31,399.65,47.12Z"/>
      <path class="cls-15" d="M458.3,132c.9,6.52,4.71,13.23,8.81,15.6s12.49,2.31,17.12,3.24c-1.62-7.87-9-4.82-9.77-7.86a24.38,24.38,0,0,1,8.29,0c-1.43-3.29-9.28-1.67-10.18-3.25s-3.63-8.67-9-13.28C460.93,124.16,457.28,124.53,458.3,132Z"/>
      <path class="cls-15" d="M347.91,127.57c-12.79,16.87-5,23.17-4.44,29.92,7.84-2.39,1.86-15.67,6.22-16.29,0,0-1.09,10,1.4,9.77.11-4.95,4.68-12.42,3.57-18.5S350.72,123.62,347.91,127.57Z"/>
      <path class="cls-15" d="M384.21,30.6c-1.55,6.75,1.27,10.59,3.58,11.92s-.09,13.76.3,15.22,10.73-6.42,12-9.09c.59-1.28-.88-3.67-.78-8.42.11-5.2,2.89-9.65,2.27-11.93C400.39,23.93,387.46,16.46,384.21,30.6Z"/>
      <path class="cls-15" d="M411.61,58.4c3.2-4.41,28.22,11.22,40,24.87s7.85,32.48,11.32,44.44c1.33,4.58-2.55,7.67-4.38,5.14-6.76-9.29-17.86-36-20.61-39.69C434.47,88.43,408.42,62.81,411.61,58.4Z"/>
      <circle class="cls-15" cx="398.22" cy="32.62" r="4.9"/>
      <path class="cls-4" d="M387.22,24.33c11.4,1.81,12.69,15.2,16.84,16.05s14.7-6.65,14.65-9.76C409.16,28.49,395.84,15.76,387.22,24.33Z"/>
      <path class="cls-17" d="M386.81,59.06C382.22,73.7,388.09,81,388.09,81l4.3.15s-5.94-11.17-1-21Z"/>
      <path class="cls-17" d="M410,56.88c5.93-6.81,33.73,10.46,44.38,25.63,6.41,9.13,10.51,23.36,10.51,23.36L448,120.3S436.9,99,435.27,95.05,402.18,65.91,410,56.88Z"/>
    </g>
    <path class="cls-10" d="M307.59,44.91C319.06,48.33,311.81,81,311.81,81l-25.08-5.36S298.12,42.09,307.59,44.91Z"/>
    <ellipse class="cls-16" cx="303.04" cy="72.45" rx="2.56" ry="7.16" transform="translate(153.87 346) rotate(-74.84)"/>
    <g>
      <path class="cls-4" d="M189.12,35c-9.81-2.84-13.07,4.46-17.43,4.52s-8.78-5-14.84-1.87-3.44,8-10.75,8.57c-9.41.36-9.44,6.73-4.73,12.54,3.49,4.32-2.71,4.56-2.22,11s16.63,15.83,43.56,11.1,25.06-15.47,19.08-23.06c-2.8-3.57-.08-4.56,1.86-7.51,1.37-2.07-1.4-4.57-4.7-6.27S196.39,37.12,189.12,35Z"/>
      <g>
        <path class="cls-18" d="M244.22,220.45c-.39-3.46-4-4.44-6.14-7.87-1.56-2.46-.72-18.16-7.28-28.86-2.62-4.26-10.23-8.67-11.58-11.55s-1.17-34.16-6.9-43.55-37.29-16.11-29.17,5c18.32,47.6,47.45,80.5,49.17,83s-8.24,20.33-8.24,20.33S244.6,223.9,244.22,220.45Z"/>
        <path class="cls-2" d="M200.83,130.24c-20.82,29.49-36.72,82.37-39.11,86.94s-23.27,12.23-23.27,12.23,23.81,1.14,25.77-.91,1.95-6.72,3.95-9.6c5.22-9.8,17.19-17.42,23.3-27.27,2.72-4.4,1.39-11.38,3.54-14.94s26.37-24.81,29.88-38.91S214.25,111.24,200.83,130.24Z"/>
        <path class="cls-19" d="M183,124.4a57.86,57.86,0,0,0,3.85,23.41c.41,1.23-5.35,16.62-5.35,16.62s26,13.91,39.87,5.88c1.81-18.46,11.88-30.53,6.72-45.53C221.91,106.94,183.34,110.78,183,124.4Z"/>
        <path class="cls-17" d="M180.7,131.07s20,14.9,40.45-6l-31.79-15.75Z"/>
        <g>
          <path class="cls-16" d="M143.51,227.53s-11.44,2.42-11.14,4.23,8.63,4.23,11.7,4,11.32-5.56,15.92-5.37c0,0-.19,7.68.77,7.68s6.14-7.49,5.18-13.24C165.94,224.86,144.15,232.71,143.51,227.53Z"/>
          <path class="cls-16" d="M226.57,231.76c2.61,3.13,15.73-15.34,15.73-15.34C247.86,219.1,250.55,231,249,231s-5.37-6.53-5.37-6.53c-5.95,2.11-6.14,8.45-8.06,10.56s-12.28,7.84-13,6.52S226.57,231.76,226.57,231.76Z"/>
          <path class="cls-20" d="M170.4,75.58c-4.2-2.1-9.24,25.58-9.24,25.58A71,71,0,0,1,148.08,95c-6.63-4.15-9.13-3.84-4.43,6.07s15.14,23.17,25.88,19.71S175.62,78.19,170.4,75.58Z"/>
          <path class="cls-18" d="M147.65,94.71c-13.68-17-26.37-7.45-29.8-8,3,4.77,13.77,3.27,12,5.48,0,0-6-.41-7.39-1.17.15,3.14,4.31,2.29,7.42,3.61,3.13,3.29,9.57,6.55,13.95,4.8S147.65,94.71,147.65,94.71Z"/>
        </g>
        <path class="cls-21" d="M169,75.43c-2.33,6.2-2.8,14.13-1.58,19s12.4,11,14.12,16.63-2.22,13.51-.49,23l14,5.82-.84-18,11,17.18s21.29-5.49,24.7-15.28c0,0-3.41-13.18-13.51-22.12-5.64-5,0-18.31-2.55-29.81S176.68,55,169,75.43Z"/>
        <path class="cls-17" d="M182,62.53c-4.76,6.33-6,20.86,3,31.93,0,0,14.9-19.59,14.47-27.25S185.81,57.42,182,62.53Z"/>
        <path class="cls-2" d="M194.68,44c4.65,10.8-2.69,11.71-2.26,13.84s4.09,7.64,4,9.36c-2.67,7.11-11.57,5.39-13.32,2.53s-2.48-7-4.33-18.4S190,33.19,194.68,44Z"/>
        <path class="cls-21" d="M202.68,64.39C206.78,59.6,234,81.48,236.56,81s5.37-22.21,5.89-29.52,5.21-6.26,9.39,9.39,1.09,41.46-14.56,43S199.55,68,202.68,64.39Z"/>
        <path class="cls-18" d="M249.81,53.5c-.67-5.77-6.79-13.66-12.76-15.92-2.4-.91-5.19.89-3.74,2.77,4.26,5.51,5.26,8.51,5.26,8.51-1.35,1.29-5.09-6-11-2.2,2.35.2,5.73,3.47,7.69,6.05,4.53,5.49,7.51,5.65,9.18,6.16S250.47,59.26,249.81,53.5Z"/>
        <path class="cls-2" d="M228.82,35.38c-.73.6,6.68,12.1,16.8,9.46C239.3,35.12,231.83,37.51,228.82,35.38Z"/>
        <path class="cls-2" d="M147.77,94.8C143.64,85,132.25,87.28,129,86c.78,4.45,6.83,1.73,8.83,5.49C142.55,100.47,148.14,97.57,147.77,94.8Z"/>
        <path class="cls-4" d="M178.15,49.59c6.4,1.42,7-9.7,10.35-9.88s6.39,3.68,7,5.83c-2-5.16-3.53-9.33-10.46-7.73S178.15,49.59,178.15,49.59Z"/>
        <circle class="cls-16" cx="190.64" cy="107.87" r="2.66"/>
      </g>
      <circle class="cls-2" cx="178.62" cy="51.49" r="4.12"/>
    </g>
    <circle class="cls-16" cx="283.15" cy="58.19" r="1.43"/>
    <circle class="cls-16" cx="284.93" cy="72.29" r="1.43"/>
    <circle class="cls-16" cx="300.27" cy="105.29" r="1.43"/>
  </g>
</svg>
