<svg width="122" height="122" viewBox="0 0 122 122" fill="none" xmlns="http://www.w3.org/2000/svg">
<path d="M28.27 51.6904V85.0904H27.46C26.8762 85.0851 26.2971 85.1956 25.7563 85.4153C25.2154 85.6351 24.7234 85.9598 24.3087 86.3708C23.894 86.7818 23.5649 87.2708 23.3402 87.8097C23.1156 88.3486 23 88.9266 23 89.5104V100.75H98V89.5104C98 88.9291 97.8853 88.3536 97.6626 87.8167C97.4398 87.2797 97.1134 86.792 96.7019 86.3815C96.2904 85.9709 95.8019 85.6455 95.2645 85.424C94.7271 85.2025 94.1513 85.0891 93.57 85.0904H92.77V51.6904H28.27Z" fill="white"/>
<path fill-rule="evenodd" clip-rule="evenodd" d="M26.0598 51.6905C26.0598 50.4699 27.0492 49.4805 28.2698 49.4805H92.7698C93.9903 49.4805 94.9798 50.4699 94.9798 51.6905V83.03C95.3642 83.113 95.7413 83.2303 96.1066 83.3808C96.9127 83.7132 97.6454 84.2012 98.2626 84.817C98.8799 85.4329 99.3696 86.1644 99.7037 86.9698C100.038 87.7752 100.21 88.6385 100.21 89.5105V100.75C100.21 101.971 99.2203 102.96 97.9998 102.96H22.9998C21.7792 102.96 20.7898 101.971 20.7898 100.75V89.5106C20.7898 89.5105 20.7898 89.5106 20.7898 89.5106C20.7898 88.6349 20.9632 87.7677 21.3002 86.9594C21.6371 86.1511 22.1308 85.4175 22.7528 84.8011C23.3749 84.1847 24.1128 83.6976 24.9242 83.3679C25.2925 83.2183 25.6726 83.1024 26.0598 83.0213V51.6905ZM93.5666 82.8805H93.5698V85.0905L93.5648 82.8805C93.5654 82.8805 93.566 82.8805 93.5666 82.8805ZM93.5666 82.8805H92.7698V85.0905H93.5698M30.4798 53.9005V85.0905C30.4798 86.311 29.4903 87.3005 28.2698 87.3005H27.4598L27.4398 87.3004C27.1479 87.2977 26.8584 87.3529 26.5879 87.4628C26.3175 87.5727 26.0715 87.7351 25.8641 87.9406C25.6568 88.146 25.4922 88.3906 25.3799 88.66C25.2676 88.9294 25.2098 89.2185 25.2098 89.5104V98.5405H95.7898V89.5105C95.7898 89.2198 95.7325 88.932 95.6211 88.6636C95.5097 88.3951 95.3465 88.1513 95.1407 87.946C94.935 87.7407 94.6908 87.578 94.4221 87.4673C94.1534 87.3565 93.8654 87.2998 93.5748 87.3005L92.7698 87.3005C91.5492 87.3005 90.5598 86.311 90.5598 85.0905V53.9005H30.4798Z" fill="#008481"/>
<path d="M22.9998 51.6701C22.5273 51.6841 22.0627 51.5461 21.6744 51.2766C21.2861 51.007 20.9944 50.62 20.8422 50.1725C20.6901 49.7249 20.6854 49.2404 20.829 48.79C20.9725 48.3396 21.2567 47.9471 21.6398 47.6701L59.1898 18.5901C59.5738 18.2855 60.0496 18.1198 60.5398 18.1201C61.0327 18.1214 61.5112 18.2868 61.8998 18.5901L99.4098 47.7101C99.7862 47.9906 100.064 48.3831 100.203 48.8314C100.343 49.2797 100.336 49.7606 100.185 50.205C100.034 50.6494 99.7461 51.0345 99.3624 51.305C98.9787 51.5754 98.5192 51.7172 98.0498 51.7101L22.9998 51.6701Z" fill="white"/>
<path d="M60.5399 20.3302L98.0499 49.4502H22.9999L60.4999 20.3302H60.5399ZM60.4999 15.9102C59.5182 15.9099 58.5645 16.2372 57.7899 16.8402L20.3199 46.0002C19.6121 46.5698 19.0966 47.3433 18.8432 48.2157C18.5899 49.0882 18.6109 50.0175 18.9034 50.8776C19.1959 51.7378 19.7459 52.4872 20.4786 53.0243C21.2114 53.5613 22.0916 53.8601 22.9999 53.8802H97.9999C98.915 53.8763 99.8064 53.5891 100.552 53.0581C101.297 52.527 101.859 51.7783 102.162 50.9146C102.464 50.0509 102.492 49.1148 102.241 48.2348C101.99 47.3548 101.473 46.5742 100.76 46.0002L63.2599 16.8402C62.4818 16.2364 61.5247 15.9092 60.5399 15.9102H60.4999Z" fill="#008481"/>
<g style="mix-blend-mode:multiply" opacity="0.2">
<path d="M35.95 45.0304L60.54 25.9404L85.1299 45.0304H35.95Z" fill="#00C1BF"/>
</g>
<path fill-rule="evenodd" clip-rule="evenodd" d="M38.385 85.0905V54.7705H40.595V85.0905H38.385Z" fill="#00C1BF"/>
<path fill-rule="evenodd" clip-rule="evenodd" d="M53.825 85.0905V54.7705H56.035V85.0905H53.825Z" fill="#00C1BF"/>
<path fill-rule="evenodd" clip-rule="evenodd" d="M65.0449 85.0905V54.7705H67.2549V85.0905H65.0449Z" fill="#00C1BF"/>
<path fill-rule="evenodd" clip-rule="evenodd" d="M80.4949 85.0905V54.7705H82.7049V85.0905H80.4949Z" fill="#00C1BF"/>
<path fill-rule="evenodd" clip-rule="evenodd" d="M34.0649 92.1499C34.0649 91.5396 34.5597 91.0449 35.1699 91.0449H86.3799C86.9902 91.0449 87.4849 91.5396 87.4849 92.1499C87.4849 92.7602 86.9902 93.2549 86.3799 93.2549H35.1699C34.5597 93.2549 34.0649 92.7602 34.0649 92.1499Z" fill="#00C1BF"/>
<path fill-rule="evenodd" clip-rule="evenodd" d="M34.0649 85.0904C34.0649 84.4801 34.5597 83.9854 35.1699 83.9854H86.3799C86.9902 83.9854 87.4849 84.4801 87.4849 85.0904C87.4849 85.7006 86.9902 86.1954 86.3799 86.1954H35.1699C34.5597 86.1954 34.0649 85.7006 34.0649 85.0904Z" fill="#00C1BF"/>
<path d="M50.8998 45.37C50.5658 45.3684 50.2365 45.2915 49.9363 45.1449C49.6362 44.9984 49.373 44.786 49.1664 44.5236C48.9597 44.2612 48.8149 43.9555 48.7428 43.6294C48.6707 43.3033 48.6731 42.9651 48.7498 42.64C49.3881 39.9369 50.9203 37.5285 53.0983 35.8049C55.2763 34.0813 57.9724 33.1436 60.7498 33.1436C63.5273 33.1436 66.2234 34.0813 68.4013 35.8049C70.5793 37.5285 72.1115 39.9369 72.7498 42.64C72.8267 42.9659 72.8289 43.305 72.7563 43.6318C72.6836 43.9587 72.5379 44.2649 72.3302 44.5275C72.1224 44.7901 71.8579 45.0023 71.5565 45.1482C71.2551 45.2941 70.9247 45.3699 70.5898 45.37H50.8998Z" fill="#57B520"/>
<g style="mix-blend-mode:multiply" opacity="0.15">
<path d="M92.8199 89.5104H88.3899V56.1104L48.1799 96.3304H93.6199V90.3304C93.6226 90.2236 93.6039 90.1174 93.5649 90.0181C93.5259 89.9187 93.4674 89.8281 93.3928 89.7517C93.3183 89.6753 93.2292 89.6146 93.1308 89.5731C93.0324 89.5317 92.9267 89.5103 92.8199 89.5104V89.5104Z" fill="#00C1BF"/>
</g>
</svg>
