<svg width="56" height="56" viewBox="0 0 56 56" fill="none" xmlns="http://www.w3.org/2000/svg">
<rect width="56" height="56" transform="translate(0 -0.5)" fill="white"/>
<path d="M36.0234 23.4937L20.0234 23.4697C19.7582 23.4697 19.5039 23.3644 19.3163 23.1768C19.1288 22.9893 19.0234 22.7349 19.0234 22.4697C19.0234 22.2045 19.1288 21.9502 19.3163 21.7626C19.5039 21.5751 19.7582 21.4697 20.0234 21.4697V21.4697L36.0234 21.4937C36.2887 21.4937 36.543 21.5991 36.7305 21.7866C36.9181 21.9742 37.0234 22.2285 37.0234 22.4937C37.0234 22.7589 36.9181 23.0133 36.7305 23.2008C36.543 23.3884 36.2887 23.4937 36.0234 23.4937Z" fill="#6B6C72"/>
<path d="M36.0195 28.4937L20.0195 28.4697C19.7543 28.4697 19.5 28.3644 19.3124 28.1768C19.1249 27.9893 19.0195 27.7349 19.0195 27.4697C19.0195 27.2045 19.1249 26.9502 19.3124 26.7626C19.5 26.5751 19.7543 26.4697 20.0195 26.4697V26.4697L36.0195 26.4937C36.2847 26.4937 36.5391 26.5991 36.7266 26.7866C36.9142 26.9742 37.0195 27.2285 37.0195 27.4937C37.0195 27.7589 36.9142 28.0133 36.7266 28.2008C36.5391 28.3884 36.2847 28.4937 36.0195 28.4937Z" fill="#6B6C72"/>
<path d="M36.0117 33.4937L20.0117 33.4697C19.7465 33.4697 19.4921 33.3644 19.3046 33.1768C19.1171 32.9893 19.0117 32.7349 19.0117 32.4697C19.0117 32.2045 19.1171 31.9502 19.3046 31.7626C19.4921 31.5751 19.7465 31.4697 20.0117 31.4697V31.4697L36.0117 31.4937C36.2769 31.4937 36.5313 31.5991 36.7188 31.7866C36.9064 31.9742 37.0117 32.2285 37.0117 32.4937C37.0117 32.7589 36.9064 33.0133 36.7188 33.2008C36.5313 33.3884 36.2769 33.4937 36.0117 33.4937Z" fill="#6B6C72"/>
</svg>
