<svg id="art" xmlns="http://www.w3.org/2000/svg" width="245.99" height="245.99" viewBox="0 0 245.99 245.99">
  <defs>
    <style>
      .cls-1 {
        fill: #fbad18;
      }

      .cls-2 {
        fill: #393a3d;
      }

      .cls-3 {
        fill: #f9cfae;
      }

      .cls-4 {
        fill: #f15c53;
      }

      .cls-5 {
        fill: #babec5;
      }

      .cls-6 {
        fill: #d4d7dc;
      }

      .cls-12, .cls-7 {
        fill: none;
        stroke-linecap: round;
        stroke-linejoin: round;
        stroke-width: 1.08px;
      }

      .cls-7 {
        stroke: #50baea;
      }

      .cls-8 {
        fill: #f57f20;
      }

      .cls-9 {
        fill: #6b6d73;
      }

      .cls-10 {
        fill: #8d9096;
      }

      .cls-11 {
        fill: #64c8d0;
      }

      .cls-12 {
        stroke: #f15c53;
      }
    </style>
  </defs>
  <g>
    <path class="cls-1" d="M76.26,49c-.22-2,1.34-4.3,1.61-6.73.25-2.19-.83-4.71-.34-6.9s2.57-4.18,3.2-6.12c1-3.15.92-6.29,1.66-6.88h0a3.82,3.82,0,0,1,5.87-2.07v0a3.75,3.75,0,0,1,2.95-4.39,3.8,3.8,0,0,1,2.39.26c1.39-.15,3.29,1.17,5.45,1.4,1.66.18,3.79-.93,5.73-.35,1.66.5,2.86,2.55,4.63,3.41,1.58.77,4,.41,5.54,1.53s2,3.33,3.37,4.66c.75.71,2.74.49,3.76,1.47.87.82.71,2.76,1.56,3.7s2.84,1,3.49,2-.08,2.83.13,3.95,1.49,4.23-1.31,6.36-4.46,1.59-7.48,3.44c-2.82,1.75-4,3.55-7.29,4.62s-7.87.23-11.18.74c-3.61.55-6.68,3.22-9.79,3.26-2.16,0-3.69-1.93-5.32-2.45s-3.57.28-4.61-.08A5.57,5.57,0,0,1,76.26,49Z"/>
    <path class="cls-2" d="M92.56,64.54c-6.34.32-3.47,23.55-3.47,23.55a75.63,75.63,0,0,1-6.57-5.84c-1.73-2-8.29,1-5.07,6.07s17,29,29.59,24.55C122.16,107.58,95.17,64.4,92.56,64.54Z"/>
    <g>
      <path class="cls-3" d="M91.51,199.63s-5.75,10.69-9.84,13.16S57.76,212.45,57,213c-.42.29,6.36,5.48,12.52,10.27,1.28,1,16-2.43,19.36-3.7,0,0,12.5-15.78,12.25-16.52S94.61,197.15,91.51,199.63Z"/>
      <polygon class="cls-4" points="85.21 208.19 93.92 212.95 93.12 213.75 84.57 209.15 85.21 208.19"/>
      <path class="cls-4" d="M86.86,219.37,70,222.74l-4.36-3.26L67,213.69c-5.36-.63-11.35-1.08-11.61-.42s12.68,11.39,13.8,11.39,14.28-2.88,14.28-2.88l-3.78,5.27a1.07,1.07,0,0,0,.35,1.57L82.58,230a1.1,1.1,0,0,0,1.33-.22C85.52,228.05,90,223.07,91,221a65.75,65.75,0,0,0,2.89-8A8.25,8.25,0,0,0,86.86,219.37Z"/>
    </g>
    <g>
      <path class="cls-3" d="M152.27,191s7.58,8.13,8.22,12.71-8,20.55-7.76,21.35c.11.46,6.77-3.74,12.88-7.52,1.26-.79,3-14.57,3-17.91,0,0-9.62-15.85-10.35-15.87S151.12,187.57,152.27,191Z"/>
      <polygon class="cls-4" points="157.65 199.22 164.55 193.22 164.98 194.17 158.27 200.08 157.65 199.22"/>
      <path class="cls-4" d="M167.83,201.37,165.35,217l-4.22,2.72-5-3.2c-1.49,4.67-4.08,9.62-3.59,10.06s13.89-7.31,14.25-8.27,2.08-13.26,2.08-13.26l3.29,4.87a1.08,1.08,0,0,0,1.6.22l1.9-1.63a1.07,1.07,0,0,0,.25-1.31c-1-2-3.86-7.36-5.32-8.93a62.43,62.43,0,0,0-6-5.06A7.58,7.58,0,0,0,167.83,201.37Z"/>
    </g>
    <path class="cls-5" d="M107.67,106.52c-1.39,8.2-.87,17.13,5.44,23.86s32.33-5,32.21-9.86-5.58-19-7.19-21.06S107.67,106.52,107.67,106.52Z"/>
    <path class="cls-5" d="M109.4,123.24C107.33,136.61,138.85,177,155.11,197l8.52-6.56s-6.42-18.11-14.6-24.92-12.42-33.59-18.2-44.59S110.76,114.45,109.4,123.24Z"/>
    <path class="cls-6" d="M114.3,106.52s-.16,15.57,5.77,21.83c0,0,23.27,1.12,24.88-1.61s-.65-24.71-4.66-27.6C129.06,104.44,114.3,106.52,114.3,106.52Z"/>
    <ellipse class="cls-7" cx="92.54" cy="38.49" rx="8.12" ry="9.74" transform="translate(-6.57 23.55) rotate(-14.01)"/>
    <path class="cls-3" d="M92,66.65c-4.49,11.92,13.24,38.54,28.35,36.71S135.73,65.88,130,59,97.2,52.94,92,66.65Z"/>
    <path class="cls-3" d="M82.9,39.39c.37,6.2,8.29,11.29,11.53,10.44,5.53-1.44,3.08,8.51,5.19,11.36s16.18-1.7,14.95-4.79-8.39-14-12.23-20.35S94.54,25.65,88,28.37,82.9,39.39,82.9,39.39Z"/>
    <path class="cls-8" d="M124.83,53.66c8.34-2.31,27.62,7.85,39,19l-4.88,2.84S147.62,62.18,132.6,57.34C132.6,57.34,130.54,55.08,124.83,53.66Z"/>
    <path class="cls-9" d="M96.52,59.33a13.31,13.31,0,0,0,12.26,4.34c7.93-1.24,11.52-9.78,11.52-9.78s9.53-1.23,12.87,2.73,12.15,39.5,8.06,43-25.37,13.56-37.9,5.82C98,102.09,81.78,65.9,96.52,59.33Z"/>
    <path class="cls-3" d="M76.21,69.52c-.73.7-13-5.35-17-3.9,1.73,1.63.86,5.63,2.56,7.14s6.1,4.33,7.62,5.36,6.39,11,10.29,9.45c6.51-2.64,3.61-10.77,3-13.95-1.14-6.09-7.27-9.54-8.24-13.87C72,63.41,76.94,68.83,76.21,69.52Z"/>
    <path class="cls-8" d="M129.22,88.56s-8-25.26-4.83-34.92l5.49.24c-7.36-1.54-.91,24.53,3.8,32.58Z"/>
    <path class="cls-6" d="M127.24,115.94c-16.95,13.21-15.32,45.48-39.1,85.62,0,0,9.52,5.84,11.66,5.49,8.31-9.52,19-28.85,27.24-44.69,8.06-15.46,18.13-30.73,19.79-36.85C150.21,113.11,140.69,105.45,127.24,115.94Z"/>
    <path class="cls-8" d="M172.25,67l16.43,33.75a4.16,4.16,0,0,1-2.06,5.66l-45.53,20.29a4.64,4.64,0,0,1-5.93-2.1L118.8,92.56"/>
    <path class="cls-10" d="M130.65,55.74c5.16-3,48.36,28,38.2,44.47s-37.65-19.7-37.65-19.7l5.08-5.32,3.46,1.61S127.36,57.63,130.65,55.74Z"/>
    <path class="cls-3" d="M135.92,73.91c-6-9-14.49-9.52-17-13.21-.12,6.17,4.42,6,4.12,7.12s-2,.06-4.36.18c1.13,4.84-1.24,8.22,1.36,11.38,1.17,1.43,5.89,4,11.45,2.64S137.73,76.64,135.92,73.91Z"/>
    <path class="cls-2" d="M78.2,77.23a1.34,1.34,0,0,1-.5,1.58l-5.82,3.73a.87.87,0,0,1-1.33-.41L61.87,61.25a.77.77,0,0,1,.66-1.12l7.15-.77a1.54,1.54,0,0,1,1.49.89Z"/>
    <polygon class="cls-11" points="77.8 76.25 69.98 80.75 62.45 62.64 71.58 61.23 77.8 76.25"/>
    <g>
      <path class="cls-12" d="M79.93,39.28l5.89-1.34.58,1.8a3.13,3.13,0,0,1-2,4.11h0a2.31,2.31,0,0,1-2.55-1.48l-1.28-2.81"/>
      <path class="cls-12" d="M96.83,35.45l-7.94,1.8,1.17,2.81A3.23,3.23,0,0,0,93.77,42l.51-.11a3.25,3.25,0,0,0,2.42-4l-.58-2"/>
      <path class="cls-12" d="M86,38.29s.79-1.86,3.06-.61"/>
    </g>
    <path class="cls-1" d="M85,29.35c-2.8,2.72,3.82,0,5.66.14s3.26,3,5,3.12S99,32.33,101,33s1.41,3.54,4.39,2.13S94.74,19.87,85,29.35Z"/>
    <circle class="cls-3" cx="103.73" cy="36.82" r="4.51"/>
  </g>
</svg>
