<svg width="24" height="24" viewBox="0 0 24 24" fill="none" xmlns="http://www.w3.org/2000/svg">
<path d="M12.0144 16.0182C11.8828 16.0182 11.7526 15.9922 11.6311 15.9418C11.5096 15.8913 11.3993 15.8174 11.3064 15.7242L5.31439 9.71525C5.22148 9.62227 5.1478 9.5119 5.09754 9.39045C5.04728 9.269 5.02144 9.13883 5.02148 9.00739C5.02153 8.87595 5.04747 8.74581 5.09781 8.62439C5.14815 8.50297 5.22192 8.39266 5.31489 8.29975C5.40787 8.20684 5.51824 8.13315 5.63969 8.08289C5.76114 8.03263 5.89131 8.00679 6.02275 8.00684C6.15419 8.00688 6.28433 8.03282 6.40575 8.08316C6.52717 8.1335 6.63748 8.20727 6.73039 8.30025L12.0164 13.6002L17.3164 8.31525C17.5042 8.12787 17.7587 8.02276 18.024 8.02304C18.2892 8.02333 18.5435 8.12897 18.7309 8.31675C18.9183 8.50452 19.0234 8.75904 19.0231 9.02431C19.0228 9.28958 18.9172 9.54387 18.7294 9.73125L12.7204 15.7262C12.533 15.9132 12.2791 16.0182 12.0144 16.0182Z" fill="#6B6C72"/>
</svg>
