<svg width="6" height="8" viewBox="0 0 6 8" fill="none" xmlns="http://www.w3.org/2000/svg">
<path d="M4.01658 8.00022C3.75409 7.99885 3.50267 7.89433 3.31658 7.70922L0.301576 4.71822C0.114105 4.53069 0.00878906 4.27638 0.00878906 4.01122C0.00878906 3.74605 0.114105 3.49175 0.301576 3.30422L3.28858 0.300218C3.38026 0.204307 3.49011 0.1276 3.61173 0.0745664C3.73336 0.0215327 3.86432 -0.00676736 3.99699 -0.00868465C4.12966 -0.0106019 4.26138 0.0139019 4.38448 0.0633988C4.50759 0.112896 4.61961 0.186396 4.71403 0.279618C4.80845 0.37284 4.88337 0.483918 4.93443 0.606383C4.98549 0.728847 5.01166 0.860249 5.01144 0.992932C5.01121 1.12561 4.98458 1.25692 4.9331 1.37921C4.88161 1.5015 4.80631 1.61232 4.71158 1.70522L2.42558 4.00522L4.72558 6.29122C4.86565 6.43054 4.96132 6.60824 5.00051 6.80188C5.0397 6.99553 5.02065 7.19644 4.94576 7.37926C4.87088 7.56209 4.74352 7.71864 4.57975 7.82915C4.41598 7.93967 4.22314 7.99919 4.02558 8.00022H4.01658Z" fill="white"/>
</svg>
