<svg width="5" height="8" viewBox="0 0 5 8" fill="none" xmlns="http://www.w3.org/2000/svg">
<path d="M4.00486 8.00022C3.74238 7.99885 3.49096 7.89433 3.30486 7.70922L0.289857 4.71822C0.102386 4.53069 -0.00292969 4.27638 -0.00292969 4.01122C-0.00292969 3.74605 0.102386 3.49175 0.289857 3.30422L3.27686 0.300218C3.36854 0.204307 3.47839 0.1276 3.60002 0.0745664C3.72164 0.0215327 3.8526 -0.00676736 3.98527 -0.00868465C4.11794 -0.0106019 4.24966 0.0139019 4.37277 0.0633988C4.49587 0.112896 4.60789 0.186396 4.70231 0.279618C4.79673 0.37284 4.87165 0.483918 4.92271 0.606383C4.97377 0.728847 4.99995 0.860249 4.99972 0.992932C4.99949 1.12561 4.97286 1.25692 4.92138 1.37921C4.8699 1.5015 4.79459 1.61232 4.69986 1.70522L2.41386 4.00522L4.71386 6.29122C4.85394 6.43054 4.94961 6.60824 4.98879 6.80188C5.02798 6.99553 5.00893 7.19644 4.93404 7.37926C4.85916 7.56209 4.7318 7.71864 4.56803 7.82915C4.40426 7.93967 4.21142 7.99919 4.01386 8.00022H4.00486Z" fill="#6B6C72"/>
</svg>
