<svg width="122" height="122" viewBox="0 0 122 122" fill="none" xmlns="http://www.w3.org/2000/svg">
<path fill-rule="evenodd" clip-rule="evenodd" d="M49.76 29C48.9998 29 48.2472 29.1499 47.545 29.4412C46.8429 29.7325 46.2052 30.1595 45.6683 30.6976C45.1314 31.2357 44.7059 31.8744 44.4162 32.5772C44.1265 33.28 43.9783 34.033 43.98 34.7932L43.98 34.8L43.98 40.3C43.98 41.9569 42.6369 43.3 40.98 43.3C39.3231 43.3 37.98 41.9569 37.98 40.3V34.8032C37.9769 33.2552 38.279 31.7218 38.869 30.2906C39.4594 28.8583 40.3266 27.5565 41.4208 26.4598C42.515 25.363 43.8148 24.4929 45.2458 23.8993C46.6768 23.3056 48.2108 23 49.76 23H71.64C74.7646 23 77.7614 24.2403 79.972 26.4485C82.1827 28.6566 83.4264 31.652 83.43 34.7766L83.43 34.78L83.43 40.28C83.43 41.9369 82.0869 43.28 80.43 43.28C78.7731 43.28 77.43 41.9369 77.43 40.28L77.43 34.7834C77.43 34.7825 77.43 34.7816 77.43 34.7806C77.4275 33.2472 76.8168 31.7773 75.7318 30.6935C74.6462 29.6091 73.1745 29 71.64 29H49.76Z" fill="#008481"/>
<path d="M29.3501 40.46H92.0501C93.6414 40.46 95.1675 41.0921 96.2927 42.2173C97.418 43.3425 98.0501 44.8687 98.0501 46.46V95.06H23.3501V46.46C23.3501 44.8687 23.9822 43.3425 25.1075 42.2173C26.2327 41.0921 27.7588 40.46 29.3501 40.46V40.46Z" fill="white"/>
<path fill-rule="evenodd" clip-rule="evenodd" d="M29.3501 42.46C28.2892 42.46 27.2718 42.8814 26.5217 43.6315C25.7715 44.3817 25.3501 45.3991 25.3501 46.46V93.06H96.0501V46.46C96.0501 45.3991 95.6287 44.3817 94.8785 43.6315C94.1284 42.8814 93.111 42.46 92.0501 42.46H29.3501ZM29.3501 38.46H92.0501C94.1718 38.46 96.2067 39.3028 97.7069 40.8031C99.2072 42.3034 100.05 44.3382 100.05 46.46V95.06C100.05 96.1645 99.1547 97.06 98.0501 97.06H23.3501C22.2455 97.06 21.3501 96.1645 21.3501 95.06V46.46C21.3501 44.3382 22.193 42.3034 23.6932 40.8031C25.1935 39.3028 27.2284 38.46 29.3501 38.46Z" fill="#008481"/>
<path fill-rule="evenodd" clip-rule="evenodd" d="M55.6499 55.4102C54.2581 55.4102 53.1299 56.5384 53.1299 57.9302V68.0402C53.1299 69.4319 54.2581 70.5602 55.6499 70.5602H65.7599C67.1516 70.5602 68.2799 69.4319 68.2799 68.0402V57.9302C68.2799 56.5384 67.1516 55.4102 65.7599 55.4102H55.6499ZM51.1299 57.9302C51.1299 55.4338 53.1536 53.4102 55.6499 53.4102H65.7599C68.2562 53.4102 70.2799 55.4338 70.2799 57.9302V68.0402C70.2799 70.5365 68.2562 72.5602 65.7599 72.5602H55.6499C53.1536 72.5602 51.1299 70.5365 51.1299 68.0402V57.9302Z" fill="#57B520"/>
<path fill-rule="evenodd" clip-rule="evenodd" d="M21.3501 63.4004C21.3501 62.2958 22.2455 61.4004 23.3501 61.4004H98.0501C99.1547 61.4004 100.05 62.2958 100.05 63.4004C100.05 64.505 99.1547 65.4004 98.0501 65.4004H23.3501C22.2455 65.4004 21.3501 64.505 21.3501 63.4004Z" fill="#008481"/>
<g style="mix-blend-mode:multiply" opacity="0.15">
<path d="M94.0502 48.9199V91.0699H51.9102L94.0502 48.9199Z" fill="#00C1BF"/>
</g>
</svg>
