<svg width="24" height="24" viewBox="0 0 24 24" fill="none" xmlns="http://www.w3.org/2000/svg">
<path d="M20.9112 4.52746L19.4992 3.11146C19.2216 2.83183 18.8913 2.61006 18.5274 2.459C18.1635 2.30794 17.7732 2.23061 17.3792 2.23146V2.23146C16.986 2.23006 16.5965 2.30648 16.233 2.45631C15.8695 2.60614 15.5392 2.82642 15.2612 3.10446L3.92621 14.4005C3.8454 14.4851 3.78008 14.5833 3.73321 14.6905C3.72042 14.7182 3.70907 14.7466 3.69921 14.7755C3.68921 14.8045 3.67321 14.8305 3.66521 14.8605L2.23921 20.5205C2.20209 20.668 2.19912 20.822 2.23052 20.9709C2.26191 21.1197 2.32685 21.2594 2.42038 21.3794C2.51392 21.4993 2.63359 21.5964 2.77028 21.6631C2.90698 21.7298 3.0571 21.7645 3.20921 21.7645C3.2904 21.7642 3.37128 21.7545 3.45021 21.7355L9.10921 20.3295C9.14221 20.3215 9.17121 20.3035 9.20321 20.2925C9.23521 20.2815 9.25721 20.2725 9.28321 20.2605C9.38921 20.2139 9.48632 20.1493 9.57021 20.0695V20.0695L20.9012 8.76946C21.465 8.20821 21.7827 7.44603 21.7846 6.65054C21.7864 5.85504 21.4723 5.09137 20.9112 4.52746V4.52746ZM5.17021 17.0665L6.83221 18.7335L6.91321 18.8135L4.58521 19.3915L5.17021 17.0665ZM8.87021 17.9445L7.45821 16.5285L6.04621 15.1115L14.5462 6.63946L15.9582 8.05546L17.3702 9.47146L8.87021 17.9445ZM19.4932 7.35346L18.7842 8.05946L17.3722 6.64346L15.9602 5.22646L16.6682 4.52046C16.8561 4.33463 17.1099 4.23072 17.3742 4.23146C17.5054 4.23078 17.6354 4.25625 17.7566 4.30638C17.8778 4.35652 17.9878 4.43032 18.0802 4.52346L19.4992 5.93946C19.6859 6.12779 19.7901 6.38254 19.789 6.64771C19.7879 6.91287 19.6815 7.16673 19.4932 7.35346V7.35346Z" fill="#393A3D"/>
</svg>
