<svg width="122" height="122" viewBox="0 0 122 122" fill="none" xmlns="http://www.w3.org/2000/svg">
<path d="M95.4302 54.5606H59.0802C57.7939 54.5606 56.5603 55.0715 55.6508 55.9811C54.7412 56.8906 54.2302 58.1243 54.2302 59.4106V86.6506C54.2302 87.9369 54.7412 89.1705 55.6508 90.08C56.5603 90.9896 57.7939 91.5006 59.0802 91.5006H85.4902L94.0802 100.071V91.5006H95.4502C96.7348 91.4979 97.9658 90.9858 98.8732 90.0765C99.7806 89.1672 100.29 87.9351 100.29 86.6506V59.4106C100.29 58.7728 100.164 58.1413 99.9201 57.5522C99.6757 56.9631 99.3176 56.428 98.8662 55.9775C98.4147 55.5271 97.8789 55.17 97.2893 54.9269C96.6997 54.6837 96.068 54.5592 95.4302 54.5606V54.5606Z" fill="white" stroke="#008481" stroke-width="3.96" stroke-linecap="round" stroke-linejoin="round"/>
<path d="M71.3702 20.6104H27.1702C26.3881 20.6143 25.6144 20.7728 24.8938 21.077C24.1732 21.3811 23.5199 21.8248 22.9715 22.3825C22.4232 22.9402 21.9905 23.6009 21.6985 24.3265C21.4065 25.0521 21.2609 25.8283 21.2702 26.6104V60.1003C21.2609 60.8824 21.4065 61.6586 21.6985 62.3842C21.9905 63.1098 22.4232 63.7705 22.9715 64.3282C23.5199 64.8859 24.1732 65.3296 24.8938 65.6337C25.6144 65.9379 26.3881 66.0964 27.1702 66.1003H28.8402V76.6104L39.2702 66.0603H71.3702C72.1523 66.0564 72.926 65.8979 73.6465 65.5937C74.3671 65.2896 75.0204 64.8459 75.5688 64.2882C76.1172 63.7305 76.5499 63.0698 76.8419 62.3442C77.1339 61.6186 77.2794 60.8424 77.2702 60.0604V26.5704C77.2741 25.7916 77.1247 25.0197 76.8303 24.2987C76.5359 23.5778 76.1024 22.9218 75.5546 22.3684C75.0067 21.815 74.3552 21.3749 73.6372 21.0732C72.9193 20.7716 72.1489 20.6143 71.3702 20.6104V20.6104Z" fill="white" stroke="#008481" stroke-width="3.99" stroke-linecap="round" stroke-linejoin="round"/>
<g style="mix-blend-mode:multiply" opacity="0.15">
<path d="M73.2703 24.6104V62.0604H35.8203L73.2703 24.6104Z" fill="#00C1BF"/>
</g>
<path d="M35.5901 47.1699C37.7992 47.1699 39.5901 45.3791 39.5901 43.1699C39.5901 40.9608 37.7992 39.1699 35.5901 39.1699C33.3809 39.1699 31.5901 40.9608 31.5901 43.1699C31.5901 45.3791 33.3809 47.1699 35.5901 47.1699Z" fill="#57B520"/>
<path d="M49.27 47.1699C51.4792 47.1699 53.27 45.3791 53.27 43.1699C53.27 40.9608 51.4792 39.1699 49.27 39.1699C47.0609 39.1699 45.27 40.9608 45.27 43.1699C45.27 45.3791 47.0609 47.1699 49.27 47.1699Z" fill="#57B520"/>
<path d="M62.9502 47.1699C65.1593 47.1699 66.9502 45.3791 66.9502 43.1699C66.9502 40.9608 65.1593 39.1699 62.9502 39.1699C60.7411 39.1699 58.9502 40.9608 58.9502 43.1699C58.9502 45.3791 60.7411 47.1699 62.9502 47.1699Z" fill="#57B520"/>
<g style="mix-blend-mode:multiply" opacity="0.15">
<path d="M96.2701 58.5605V87.5005H67.3301L96.2701 58.5605Z" fill="#00C1BF"/>
</g>
</svg>
