<svg width="122" height="122" viewBox="0 0 122 122" fill="none" xmlns="http://www.w3.org/2000/svg">
<path d="M87.7302 20.4992C84.0172 20.4992 80.4563 21.9741 77.8307 24.5997C75.2052 27.2252 73.7302 30.7861 73.7302 34.4992V41.8292C72.0802 42.9992 71.9402 44.2192 71.9402 46.4592C72.0152 47.6584 72.3665 48.824 72.9667 49.8648C73.567 50.9057 74.3999 51.7936 75.4002 52.4592C76.0702 54.4592 78.7402 59.5492 79.1402 61.7092C79.4502 63.3592 76.7202 65.4792 75.2102 66.4992C71.9702 68.6992 68.6102 69.6792 66.2702 73.0392C64.1877 76.2581 63.1407 80.0375 63.2702 83.8692C70.1687 89.5724 78.8296 92.7103 87.7802 92.7492C96.7369 92.7618 105.412 89.6176 112.28 83.8692C112.405 80.038 111.359 76.2599 109.28 73.0392C106.93 69.6792 103.58 68.6992 100.28 66.4992C98.7702 65.4992 96.0402 63.3592 96.3502 61.7092C96.7502 59.5492 99.4202 54.4992 100.09 52.4592C101.091 51.7936 101.923 50.9057 102.524 49.8648C103.124 48.824 103.475 47.6584 103.55 46.4592C103.55 44.2192 103.39 43.0091 101.79 41.8491V34.5192C101.793 32.6739 101.431 30.8463 100.725 29.1415C100.018 27.4367 98.9823 25.8884 97.6756 24.5854C96.369 23.2825 94.8177 22.2507 93.1109 21.5495C91.4041 20.8482 89.5755 20.4912 87.7302 20.4992V20.4992Z" fill="white" stroke="#008481" stroke-width="4" stroke-linecap="round" stroke-linejoin="round"/>
<g style="mix-blend-mode:multiply" opacity="0.2">
<path d="M100.16 74.2589C100.152 77.2134 99.4272 80.1218 98.0477 82.7344C96.6682 85.347 94.6754 87.586 92.2402 89.2589C98.361 88.4801 104.169 86.1038 109.08 82.3689C108.974 79.6515 108.13 77.0141 106.64 74.7389C105.41 72.9689 103.76 72.0489 101.64 70.8889C100.96 70.4989 100.25 70.1089 99.5402 69.6689C99.9401 71.1666 100.148 72.7089 100.16 74.2589V74.2589Z" fill="#00C1BF"/>
</g>
<path d="M80.3103 28.9395C85.1628 30.2793 90.2878 30.2793 95.1403 28.9395" stroke="#00C1BF" stroke-width="2" stroke-miterlimit="10" stroke-linecap="round"/>
<path d="M97.2702 68.499C94.7097 70.9753 91.2872 72.3596 87.7252 72.3596C84.1632 72.3596 80.7406 70.9753 78.1802 68.499" stroke="#00C1BF" stroke-width="2" stroke-miterlimit="10" stroke-linecap="round"/>
<path d="M60.8101 83.3596C60.9251 79.3107 59.8017 75.3231 57.5901 71.9296C55.1101 68.3696 51.5901 67.3296 48.1301 65.0096C46.5401 63.9396 46.4701 61.6896 46.8001 59.9496C47.2301 57.6696 48.1701 52.3296 48.8701 50.1796C49.9264 49.4752 50.8061 48.5367 51.4409 47.4372C52.0756 46.3376 52.4484 45.1066 52.5301 43.8396C52.5301 41.4596 51.4201 40.1896 49.7301 38.9596V36.6296C49.7301 28.4496 51.0001 18.5596 34.9101 18.5596C31.0001 18.5596 24.5801 19.9696 24.5801 24.2796C24.5801 24.5296 19.4701 23.6796 20.0901 36.6296V38.9996C18.4001 40.2296 17.2901 41.4996 17.2901 43.8796C17.3704 45.1469 17.7425 46.3786 18.3774 47.4783C19.0123 48.5781 19.8928 49.5163 20.9501 50.2196C21.6501 52.3696 22.5901 57.7096 23.0201 59.9896C23.3401 61.7296 23.2801 63.9896 21.6901 65.0496C18.2501 67.3696 14.6901 68.4096 12.2301 71.9696C10.0264 75.3518 8.90337 79.3242 9.01014 83.3596C16.2974 89.3913 25.4506 92.7097 34.9101 92.7496C44.3788 92.761 53.5488 89.4365 60.8101 83.3596V83.3596Z" fill="white" stroke="#008481" stroke-width="4" stroke-linecap="round" stroke-linejoin="round"/>
<path d="M28.0801 26.5596C28.0801 26.5596 34.6601 28.8596 43.7501 26.5596" stroke="#00C1BF" stroke-width="2" stroke-miterlimit="10" stroke-linecap="round"/>
<g style="mix-blend-mode:multiply" opacity="0.2">
<path d="M48.0802 73.2094C48.0757 76.3438 47.3086 79.43 45.8452 82.2018C44.3817 84.9736 42.2659 87.3478 39.6802 89.1194C46.1607 88.2765 52.306 85.7453 57.5002 81.7794C57.3866 78.9085 56.4948 76.1226 54.9202 73.7194C53.6202 71.8494 51.8702 70.8794 49.6602 69.6494C48.9402 69.2394 48.1902 68.8194 47.4302 68.3594C47.855 69.9413 48.0735 71.5714 48.0802 73.2094V73.2094Z" fill="#00C1BF"/>
</g>
<path d="M44.9901 68.3594C42.2873 70.9767 38.6724 72.4401 34.9101 72.4401C31.1477 72.4401 27.5329 70.9767 24.8301 68.3594" stroke="#00C1BF" stroke-width="2" stroke-miterlimit="10" stroke-linecap="round"/>
<path d="M64.1301 30.7898C57.9601 25.9698 42.1301 35.5898 42.1301 49.3398V89.1198H80.4901V49.3398C80.4901 41.4898 75.5201 30.7898 64.1301 30.7898Z" fill="white" stroke="#008481" stroke-width="4" stroke-linecap="round" stroke-linejoin="round"/>
<path d="M71.8703 76.0001C69.7403 74.5901 67.6203 72.7801 68.3003 70.3201C69.2103 66.9701 73.7303 62.9701 73.7303 59.4201V53.0801" stroke="#00C1BF" stroke-width="2" stroke-linecap="round" stroke-linejoin="round"/>
<path d="M46.8302 78.3896C43.3702 80.6796 40.9502 80.0996 38.4502 83.6096C36.1102 86.8996 35.2102 88.3696 35.2102 92.3396C42.2102 98.0196 51.4702 102.53 61.3202 102.53C71.1702 102.53 80.3202 98.1196 87.4302 92.3396C87.4302 88.3396 86.5302 86.8996 84.1802 83.6096C81.6802 80.0996 79.6502 81.0296 76.1802 78.7396" fill="white"/>
<path d="M46.8302 78.3896C43.3702 80.6796 40.9502 80.0996 38.4502 83.6096C36.1102 86.8996 35.2102 88.3696 35.2102 92.3396C42.2102 98.0196 51.4702 102.53 61.3202 102.53C71.1702 102.53 80.3202 98.1196 87.4302 92.3396C87.4302 88.3396 86.5302 86.8996 84.1802 83.6096C81.6802 80.0996 79.6502 81.0296 76.1802 78.7396" stroke="#008481" stroke-width="4" stroke-linecap="round" stroke-linejoin="round"/>
<path d="M48.9102 54.6396V59.4096C48.9102 62.9596 53.4202 66.9596 54.3402 70.3096C55.0102 72.7696 52.8902 74.5796 50.7602 75.9896" stroke="#00C1BF" stroke-width="2" stroke-linecap="round" stroke-linejoin="round"/>
<path d="M73.2102 48.5396C72.6351 46.4541 71.5962 44.5254 70.1711 42.8977C68.746 41.27 66.9715 39.9853 64.9802 39.1396C63.2902 45.5196 56.2602 50.2197 49.2102 50.2197" stroke="#00C1BF" stroke-width="2" stroke-linecap="round" stroke-linejoin="round"/>
<g style="mix-blend-mode:multiply" opacity="0.15">
<path d="M74.6403 85.7402C74.6424 88.138 74.0977 90.5047 73.0476 92.6603C71.9975 94.816 70.4697 96.7038 68.5803 98.1802C74.111 96.793 79.2936 94.2732 83.8003 90.7802C83.5803 89.1502 82.9403 88.1802 81.3103 85.9002C80.3103 84.4602 78.0903 83.4702 75.7803 82.4302L74.0803 81.6602C74.4454 82.9896 74.6337 84.3615 74.6403 85.7402Z" fill="#00C1BF"/>
</g>
<path d="M72.3303 80.8701C70.5603 82.6001 67.1403 85.3201 64.5803 87.3001C63.6461 88.0202 62.4998 88.4107 61.3203 88.4107C60.1408 88.4107 58.9945 88.0202 58.0603 87.3001C55.4903 85.3001 52.0603 82.6001 50.3103 80.8701" stroke="#00C1BF" stroke-width="2" stroke-miterlimit="10" stroke-linecap="round"/>
</svg>
