<svg width="734" height="187" viewBox="0 0 734 187" fill="none" xmlns="http://www.w3.org/2000/svg">
<path d="M368.098 40.2599C368.098 44.1536 371.424 47 375.652 47C379.88 47 383.212 44.1536 383.212 40.2599V31.3142H379.118V39.7978C379.118 41.8987 377.62 43.3157 375.639 43.3157C373.659 43.3157 372.161 41.9049 372.161 39.7978V31.3142H368.066L368.092 40.2599H368.098ZM394.143 34.8937H399.024V46.7104H403.119V34.8937H408V31.308H394.143V34.8937V34.8937ZM391.496 31.308H387.402V46.7104H391.496V31.308ZM351.562 34.8937H356.444V46.7104H360.538V34.8937H365.419V31.308H351.562V34.8937ZM330.094 31.308H326V46.7104H330.094V31.308ZM349.41 37.7401C349.41 33.8464 346.078 31 341.85 31C337.623 31 334.296 33.8464 334.296 37.7401V46.7104H338.391V38.2206C338.391 36.1198 339.889 34.7027 341.869 34.7027C343.85 34.7027 345.348 36.1136 345.348 38.2206V46.7043H349.442L349.417 37.7339L349.41 37.7401Z" fill="white"/>
<path d="M6.916 80.04L6.118 80.684C5.698 80.082 5.012 79.69 4.074 79.69C3.094 79.69 1.96 80.278 1.96 81.552C1.96 82.812 3.01 83.134 4.116 83.498C5.516 83.96 7.056 84.408 7.056 86.396C7.056 88.384 5.39 89.252 3.822 89.252C2.618 89.252 1.414 88.762 0.7 87.782L1.568 87.138C2.002 87.838 2.8 88.384 3.836 88.384C4.858 88.384 6.034 87.74 6.034 86.466C6.034 85.08 4.872 84.73 3.612 84.338C2.296 83.932 0.952 83.358 0.952 81.566C0.952 79.648 2.66 78.836 4.116 78.836C5.446 78.836 6.44 79.396 6.916 80.04ZM15.6723 85.724C15.6723 87.698 14.2163 89.168 12.1723 89.168C10.1423 89.168 8.68634 87.698 8.68634 85.724C8.68634 83.75 10.1423 82.28 12.1723 82.28C14.2163 82.28 15.6723 83.75 15.6723 85.724ZM14.6643 85.724C14.6643 84.254 13.6983 83.078 12.1723 83.078C10.6603 83.078 9.69434 84.254 9.69434 85.724C9.69434 87.194 10.6603 88.356 12.1723 88.356C13.6983 88.356 14.6643 87.194 14.6643 85.724ZM20.4929 82.448V83.246H18.9529V89H18.0009V83.246H16.6289V82.448H18.0009V80.656C18.0009 79.172 18.7289 78.248 20.2269 78.248C20.4649 78.248 20.7729 78.276 21.0109 78.346L20.8429 79.186C20.6469 79.13 20.4369 79.088 20.1849 79.088C19.1629 79.088 18.9529 79.816 18.9529 80.768V82.448H20.4929ZM24.6398 82.448V83.246H22.7918V87.068C22.7918 88.048 23.1978 88.272 23.7718 88.272C24.0378 88.272 24.3458 88.188 24.5978 88.062L24.6398 88.888C24.3038 89.014 23.9538 89.084 23.5198 89.084C22.8198 89.084 21.8398 88.776 21.8398 87.334V83.246H20.4818V82.448H21.8398V80.6H22.7918V82.448H24.6398ZM25.2331 82.448H26.2551L27.8371 87.768H27.8651L29.6291 82.448H30.5531L32.3451 87.768H32.3731L33.9411 82.448H34.9491L32.8771 89H31.8411L30.0911 83.694H30.0631L28.3411 89H27.3051L25.2331 82.448ZM40.7045 84.982V84.772C40.7045 83.638 40.0885 83.078 38.9545 83.078C38.1845 83.078 37.4705 83.386 37.0085 83.848L36.4765 83.218C37.0085 82.686 37.9325 82.28 39.0525 82.28C40.4665 82.28 41.6005 83.064 41.6005 84.66V87.53C41.6005 88.034 41.6425 88.636 41.7125 89H40.8585C40.8025 88.678 40.7605 88.286 40.7605 87.936H40.7325C40.1305 88.804 39.4025 89.168 38.3525 89.168C37.3585 89.168 36.0845 88.636 36.0845 87.18C36.0845 85.164 38.3105 84.982 40.7045 84.982ZM40.7045 85.724H40.4245C38.8705 85.724 37.0645 85.892 37.0645 87.138C37.0645 88.076 37.8625 88.384 38.6045 88.384C39.9485 88.384 40.7045 87.376 40.7045 86.214V85.724ZM44.053 83.89C44.053 83.54 44.039 82.896 43.997 82.448H44.907C44.935 82.798 44.963 83.288 44.963 83.568H44.991C45.355 82.812 46.167 82.28 47.091 82.28C47.329 82.28 47.525 82.294 47.721 82.35L47.595 83.246C47.483 83.204 47.175 83.162 46.923 83.162C45.915 83.162 45.005 83.89 45.005 85.64V89H44.053V83.89ZM49.3838 85.22H53.8498C53.7938 83.988 53.0378 83.078 51.6798 83.078C50.4058 83.078 49.4678 84.1 49.3838 85.22ZM54.8158 85.528C54.8158 85.654 54.8158 85.808 54.8018 85.976H49.3698C49.3978 87.292 50.4198 88.356 51.7638 88.356C52.7438 88.356 53.4998 87.81 53.8638 87.222L54.5778 87.782C53.8078 88.762 52.8418 89.168 51.7638 89.168C49.8178 89.168 48.3758 87.698 48.3758 85.724C48.3758 83.75 49.8178 82.28 51.6798 82.28C53.7378 82.28 54.8158 83.736 54.8158 85.528ZM61.4275 79.088V88.104H66.0475V89H60.4195V79.088H61.4275ZM68.4662 82.448V89H67.5142V82.448H68.4662ZM68.6622 79.928C68.6622 80.32 68.3262 80.6 67.9902 80.6C67.6542 80.6 67.3182 80.32 67.3182 79.928C67.3182 79.536 67.6542 79.256 67.9902 79.256C68.3262 79.256 68.6622 79.536 68.6622 79.928ZM76.4602 83.414L75.7182 83.946C75.4102 83.442 74.7522 83.078 74.0382 83.078C72.5122 83.078 71.5322 84.226 71.5322 85.724C71.5322 87.208 72.4982 88.356 74.0242 88.356C74.8502 88.356 75.4242 88.006 75.8022 87.502L76.5162 88.034C75.9562 88.72 75.1582 89.168 74.0242 89.168C71.9102 89.168 70.5242 87.698 70.5242 85.724C70.5242 83.75 71.9102 82.28 74.0242 82.28C74.9062 82.28 75.9002 82.658 76.4602 83.414ZM78.5322 85.22H82.9982C82.9422 83.988 82.1862 83.078 80.8282 83.078C79.5542 83.078 78.6162 84.1 78.5322 85.22ZM83.9642 85.528C83.9642 85.654 83.9642 85.808 83.9502 85.976H78.5182C78.5462 87.292 79.5682 88.356 80.9122 88.356C81.8922 88.356 82.6482 87.81 83.0122 87.222L83.7262 87.782C82.9562 88.762 81.9902 89.168 80.9122 89.168C78.9662 89.168 77.5242 87.698 77.5242 85.724C77.5242 83.75 78.9662 82.28 80.8282 82.28C82.8862 82.28 83.9642 83.736 83.9642 85.528ZM85.956 82.448H86.866C86.894 82.798 86.922 83.288 86.922 83.568H86.95C87.314 82.812 88.266 82.28 89.19 82.28C90.856 82.28 91.682 83.358 91.682 84.982V89H90.73V85.374C90.73 84.002 90.324 83.078 88.952 83.078C87.944 83.078 86.964 83.89 86.964 85.64V89H86.012V83.89C86.012 83.54 85.998 82.896 85.956 82.448ZM98.3607 83.456L97.6327 84.002C97.3527 83.456 96.7507 83.078 96.0227 83.078C95.3367 83.078 94.6367 83.372 94.6367 84.1C94.6367 84.716 95.1267 84.996 96.2047 85.22C97.7447 85.542 98.4727 86.116 98.4727 87.138C98.4727 88.636 97.2127 89.168 96.0087 89.168C95.0147 89.168 94.0207 88.776 93.4187 87.894L94.1747 87.334C94.5107 87.908 95.2247 88.356 95.9947 88.356C96.8067 88.356 97.5347 88.062 97.5347 87.208C97.5347 86.522 96.8487 86.242 95.6027 85.948C94.8327 85.766 93.7267 85.43 93.7267 84.184C93.7267 82.854 94.8747 82.28 96.0647 82.28C96.9747 82.28 97.9407 82.714 98.3607 83.456ZM100.899 85.22H105.365C105.309 83.988 104.553 83.078 103.195 83.078C101.921 83.078 100.983 84.1 100.899 85.22ZM106.331 85.528C106.331 85.654 106.331 85.808 106.317 85.976H100.885C100.913 87.292 101.935 88.356 103.279 88.356C104.259 88.356 105.015 87.81 105.379 87.222L106.093 87.782C105.323 88.762 104.357 89.168 103.279 89.168C101.333 89.168 99.8914 87.698 99.8914 85.724C99.8914 83.75 101.333 82.28 103.195 82.28C105.253 82.28 106.331 83.736 106.331 85.528ZM112.697 86.396L111.619 89H110.513L114.797 79.088H115.777L120.033 89H118.913L117.821 86.396H112.697ZM115.259 80.208L113.075 85.472H117.443L115.259 80.208ZM121.1 91.044L121.786 90.316C122.304 90.988 123.298 91.52 124.292 91.52C126.168 91.52 126.854 90.358 126.854 88.944V87.712H126.826C126.322 88.524 125.3 89 124.348 89C122.304 89 120.96 87.586 120.96 85.668C120.96 83.806 122.304 82.28 124.348 82.28C125.3 82.28 126.308 82.742 126.826 83.582H126.854V82.448H127.806V88.944C127.806 90.372 127.148 92.36 124.25 92.36C123.046 92.36 121.87 91.856 121.1 91.044ZM121.968 85.64C121.968 87.012 122.864 88.188 124.446 88.188C125.916 88.188 126.966 87.152 126.966 85.64C126.966 84.268 125.916 83.078 124.446 83.078C122.864 83.078 121.968 84.268 121.968 85.64ZM130.281 83.89C130.281 83.54 130.267 82.896 130.225 82.448H131.135C131.163 82.798 131.191 83.288 131.191 83.568H131.219C131.583 82.812 132.395 82.28 133.319 82.28C133.557 82.28 133.753 82.294 133.949 82.35L133.823 83.246C133.711 83.204 133.403 83.162 133.151 83.162C132.143 83.162 131.233 83.89 131.233 85.64V89H130.281V83.89ZM135.612 85.22H140.078C140.022 83.988 139.266 83.078 137.908 83.078C136.634 83.078 135.696 84.1 135.612 85.22ZM141.044 85.528C141.044 85.654 141.044 85.808 141.03 85.976H135.598C135.626 87.292 136.648 88.356 137.992 88.356C138.972 88.356 139.728 87.81 140.092 87.222L140.806 87.782C140.036 88.762 139.07 89.168 137.992 89.168C136.046 89.168 134.604 87.698 134.604 85.724C134.604 83.75 136.046 82.28 137.908 82.28C139.966 82.28 141.044 83.736 141.044 85.528ZM143.624 85.22H148.09C148.034 83.988 147.278 83.078 145.92 83.078C144.646 83.078 143.708 84.1 143.624 85.22ZM149.056 85.528C149.056 85.654 149.056 85.808 149.042 85.976H143.61C143.638 87.292 144.66 88.356 146.004 88.356C146.984 88.356 147.74 87.81 148.104 87.222L148.818 87.782C148.048 88.762 147.082 89.168 146.004 89.168C144.058 89.168 142.616 87.698 142.616 85.724C142.616 83.75 144.058 82.28 145.92 82.28C147.978 82.28 149.056 83.736 149.056 85.528ZM152.042 83.568C152.42 82.812 153.26 82.28 154.198 82.28C154.912 82.28 155.78 82.546 156.214 83.666C156.662 82.77 157.46 82.28 158.51 82.28C160.176 82.28 161.002 83.358 161.002 84.982V89H160.05V85.374C160.05 84.002 159.588 83.078 158.356 83.078C156.984 83.078 156.494 84.296 156.494 85.514V89H155.542V85.178C155.542 83.904 155.234 83.078 153.96 83.078C153.05 83.078 152.056 83.89 152.056 85.64V89H151.104V83.89C151.104 83.54 151.09 82.896 151.048 82.448H151.958C151.986 82.798 152.014 83.288 152.014 83.568H152.042ZM163.995 85.22H168.461C168.405 83.988 167.649 83.078 166.291 83.078C165.017 83.078 164.079 84.1 163.995 85.22ZM169.427 85.528C169.427 85.654 169.427 85.808 169.413 85.976H163.981C164.009 87.292 165.031 88.356 166.375 88.356C167.355 88.356 168.111 87.81 168.475 87.222L169.189 87.782C168.419 88.762 167.453 89.168 166.375 89.168C164.429 89.168 162.987 87.698 162.987 85.724C162.987 83.75 164.429 82.28 166.291 82.28C168.349 82.28 169.427 83.736 169.427 85.528ZM171.419 82.448H172.329C172.357 82.798 172.385 83.288 172.385 83.568H172.413C172.777 82.812 173.729 82.28 174.653 82.28C176.319 82.28 177.145 83.358 177.145 84.982V89H176.193V85.374C176.193 84.002 175.787 83.078 174.415 83.078C173.407 83.078 172.427 83.89 172.427 85.64V89H171.475V83.89C171.475 83.54 171.461 82.896 171.419 82.448ZM182.564 82.448V83.246H180.716V87.068C180.716 88.048 181.122 88.272 181.696 88.272C181.962 88.272 182.27 88.188 182.522 88.062L182.564 88.888C182.228 89.014 181.878 89.084 181.444 89.084C180.744 89.084 179.764 88.776 179.764 87.334V83.246H178.406V82.448H179.764V80.6H180.716V82.448H182.564ZM190.927 78.5H191.767V92.5H190.927V78.5ZM201.212 89V79.088H204.012C206.028 79.088 207.358 79.956 207.358 81.734C207.358 83.512 206 84.394 203.984 84.394H202.22V89H201.212ZM202.22 79.956V83.54H203.928C205.496 83.54 206.35 82.91 206.35 81.734C206.35 80.516 205.454 79.956 203.928 79.956H202.22ZM208.608 83.89C208.608 83.54 208.594 82.896 208.552 82.448H209.462C209.49 82.798 209.518 83.288 209.518 83.568H209.546C209.91 82.812 210.722 82.28 211.646 82.28C211.884 82.28 212.08 82.294 212.276 82.35L212.15 83.246C212.038 83.204 211.73 83.162 211.478 83.162C210.47 83.162 209.56 83.89 209.56 85.64V89H208.608V83.89ZM214.619 82.448V89H213.667V82.448H214.619ZM214.815 79.928C214.815 80.32 214.479 80.6 214.143 80.6C213.807 80.6 213.471 80.32 213.471 79.928C213.471 79.536 213.807 79.256 214.143 79.256C214.479 79.256 214.815 79.536 214.815 79.928ZM222.501 82.448L219.841 89H218.791L216.117 82.448H217.181L219.309 87.992H219.337L221.479 82.448H222.501ZM228.119 84.982V84.772C228.119 83.638 227.503 83.078 226.369 83.078C225.599 83.078 224.885 83.386 224.423 83.848L223.891 83.218C224.423 82.686 225.347 82.28 226.467 82.28C227.881 82.28 229.015 83.064 229.015 84.66V87.53C229.015 88.034 229.057 88.636 229.127 89H228.273C228.217 88.678 228.175 88.286 228.175 87.936H228.147C227.545 88.804 226.817 89.168 225.767 89.168C224.773 89.168 223.499 88.636 223.499 87.18C223.499 85.164 225.725 84.982 228.119 84.982ZM228.119 85.724H227.839C226.285 85.724 224.479 85.892 224.479 87.138C224.479 88.076 225.277 88.384 226.019 88.384C227.363 88.384 228.119 87.376 228.119 86.214V85.724ZM236.927 83.414L236.185 83.946C235.877 83.442 235.219 83.078 234.505 83.078C232.979 83.078 231.999 84.226 231.999 85.724C231.999 87.208 232.965 88.356 234.491 88.356C235.317 88.356 235.891 88.006 236.269 87.502L236.983 88.034C236.423 88.72 235.625 89.168 234.491 89.168C232.377 89.168 230.991 87.698 230.991 85.724C230.991 83.75 232.377 82.28 234.491 82.28C235.373 82.28 236.367 82.658 236.927 83.414ZM238.495 82.448L240.721 87.978H240.749L242.779 82.448H243.815L240.553 90.694C240.161 91.702 239.629 92.36 238.495 92.36C238.215 92.36 237.921 92.332 237.641 92.276L237.739 91.408C237.949 91.478 238.187 91.52 238.439 91.52C239.083 91.52 239.419 91.1 239.699 90.358L240.231 88.986L237.431 82.448H238.495ZM254.459 80.04L253.661 80.684C253.241 80.082 252.555 79.69 251.617 79.69C250.637 79.69 249.503 80.278 249.503 81.552C249.503 82.812 250.553 83.134 251.659 83.498C253.059 83.96 254.599 84.408 254.599 86.396C254.599 88.384 252.933 89.252 251.365 89.252C250.161 89.252 248.957 88.762 248.243 87.782L249.111 87.138C249.545 87.838 250.343 88.384 251.379 88.384C252.401 88.384 253.577 87.74 253.577 86.466C253.577 85.08 252.415 84.73 251.155 84.338C249.839 83.932 248.495 83.358 248.495 81.566C248.495 79.648 250.203 78.836 251.659 78.836C252.989 78.836 253.983 79.396 254.459 80.04ZM259.577 82.448V83.246H257.729V87.068C257.729 88.048 258.135 88.272 258.709 88.272C258.975 88.272 259.283 88.188 259.535 88.062L259.577 88.888C259.241 89.014 258.891 89.084 258.457 89.084C257.757 89.084 256.777 88.776 256.777 87.334V83.246H255.419V82.448H256.777V80.6H257.729V82.448H259.577ZM265.197 84.982V84.772C265.197 83.638 264.581 83.078 263.447 83.078C262.677 83.078 261.963 83.386 261.501 83.848L260.969 83.218C261.501 82.686 262.425 82.28 263.545 82.28C264.959 82.28 266.093 83.064 266.093 84.66V87.53C266.093 88.034 266.135 88.636 266.205 89H265.351C265.295 88.678 265.253 88.286 265.253 87.936H265.225C264.623 88.804 263.895 89.168 262.845 89.168C261.851 89.168 260.577 88.636 260.577 87.18C260.577 85.164 262.803 84.982 265.197 84.982ZM265.197 85.724H264.917C263.363 85.724 261.557 85.892 261.557 87.138C261.557 88.076 262.355 88.384 263.097 88.384C264.441 88.384 265.197 87.376 265.197 86.214V85.724ZM271.362 82.448V83.246H269.514V87.068C269.514 88.048 269.92 88.272 270.494 88.272C270.76 88.272 271.068 88.188 271.32 88.062L271.362 88.888C271.026 89.014 270.676 89.084 270.242 89.084C269.542 89.084 268.562 88.776 268.562 87.334V83.246H267.204V82.448H268.562V80.6H269.514V82.448H271.362ZM273.384 85.22H277.85C277.794 83.988 277.038 83.078 275.68 83.078C274.406 83.078 273.468 84.1 273.384 85.22ZM278.816 85.528C278.816 85.654 278.816 85.808 278.802 85.976H273.37C273.398 87.292 274.42 88.356 275.764 88.356C276.744 88.356 277.5 87.81 277.864 87.222L278.578 87.782C277.808 88.762 276.842 89.168 275.764 89.168C273.818 89.168 272.376 87.698 272.376 85.724C272.376 83.75 273.818 82.28 275.68 82.28C277.738 82.28 278.816 83.736 278.816 85.528ZM281.802 83.568C282.18 82.812 283.02 82.28 283.958 82.28C284.672 82.28 285.54 82.546 285.974 83.666C286.422 82.77 287.22 82.28 288.27 82.28C289.936 82.28 290.762 83.358 290.762 84.982V89H289.81V85.374C289.81 84.002 289.348 83.078 288.116 83.078C286.744 83.078 286.254 84.296 286.254 85.514V89H285.302V85.178C285.302 83.904 284.994 83.078 283.72 83.078C282.81 83.078 281.816 83.89 281.816 85.64V89H280.864V83.89C280.864 83.54 280.85 82.896 280.808 82.448H281.718C281.746 82.798 281.774 83.288 281.774 83.568H281.802ZM293.755 85.22H298.221C298.165 83.988 297.409 83.078 296.051 83.078C294.777 83.078 293.839 84.1 293.755 85.22ZM299.187 85.528C299.187 85.654 299.187 85.808 299.173 85.976H293.741C293.769 87.292 294.791 88.356 296.135 88.356C297.115 88.356 297.871 87.81 298.235 87.222L298.949 87.782C298.179 88.762 297.213 89.168 296.135 89.168C294.189 89.168 292.747 87.698 292.747 85.724C292.747 83.75 294.189 82.28 296.051 82.28C298.109 82.28 299.187 83.736 299.187 85.528ZM301.179 82.448H302.089C302.117 82.798 302.145 83.288 302.145 83.568H302.173C302.537 82.812 303.489 82.28 304.413 82.28C306.079 82.28 306.905 83.358 306.905 84.982V89H305.953V85.374C305.953 84.002 305.547 83.078 304.175 83.078C303.167 83.078 302.187 83.89 302.187 85.64V89H301.235V83.89C301.235 83.54 301.221 82.896 301.179 82.448ZM312.323 82.448V83.246H310.475V87.068C310.475 88.048 310.881 88.272 311.455 88.272C311.721 88.272 312.029 88.188 312.281 88.062L312.323 88.888C311.987 89.014 311.637 89.084 311.203 89.084C310.503 89.084 309.523 88.776 309.523 87.334V83.246H308.165V82.448H309.523V80.6H310.475V82.448H312.323ZM320.687 78.5H321.527V92.5H320.687V78.5ZM331.734 86.396L330.656 89H329.55L333.834 79.088H334.814L339.07 89H337.95L336.858 86.396H331.734ZM334.296 80.208L332.112 85.472H336.48L334.296 80.208ZM341.481 87.894H341.453V89H340.501V78.416H341.453V83.582H341.481C342.041 82.728 343.021 82.28 343.959 82.28C346.003 82.28 347.347 83.792 347.347 85.724C347.347 87.656 346.003 89.168 343.959 89.168C343.021 89.168 342.041 88.72 341.481 87.894ZM346.339 85.724C346.339 84.268 345.443 83.078 343.861 83.078C342.391 83.078 341.341 84.226 341.341 85.724C341.341 87.222 342.391 88.356 343.861 88.356C345.443 88.356 346.339 87.18 346.339 85.724ZM355.897 85.724C355.897 87.698 354.441 89.168 352.397 89.168C350.367 89.168 348.911 87.698 348.911 85.724C348.911 83.75 350.367 82.28 352.397 82.28C354.441 82.28 355.897 83.75 355.897 85.724ZM354.889 85.724C354.889 84.254 353.923 83.078 352.397 83.078C350.885 83.078 349.919 84.254 349.919 85.724C349.919 87.194 350.885 88.356 352.397 88.356C353.923 88.356 354.889 87.194 354.889 85.724ZM363.616 89H362.706C362.678 88.65 362.65 88.16 362.65 87.88H362.622C362.258 88.636 361.306 89.168 360.382 89.168C358.716 89.168 357.89 88.09 357.89 86.466V82.448H358.842V86.074C358.842 87.446 359.248 88.37 360.62 88.37C361.628 88.37 362.608 87.558 362.608 85.808V82.448H363.56V87.558C363.56 87.908 363.574 88.552 363.616 89ZM369.034 82.448V83.246H367.186V87.068C367.186 88.048 367.592 88.272 368.166 88.272C368.432 88.272 368.74 88.188 368.992 88.062L369.034 88.888C368.698 89.014 368.348 89.084 367.914 89.084C367.214 89.084 366.234 88.776 366.234 87.334V83.246H364.876V82.448H366.234V80.6H367.186V82.448H369.034ZM381.64 86.9L382.424 87.404C381.766 88.398 380.492 89.252 378.714 89.252C375.718 89.252 373.548 87.054 373.548 84.044C373.548 81.034 375.76 78.836 378.714 78.836C380.17 78.836 381.556 79.438 382.242 80.404L381.402 81.02C380.982 80.376 379.988 79.718 378.728 79.718C376.166 79.718 374.612 81.734 374.612 84.044C374.612 86.354 376.18 88.37 378.728 88.37C379.862 88.37 380.954 87.922 381.64 86.9ZM390.446 85.724C390.446 87.698 388.99 89.168 386.946 89.168C384.916 89.168 383.46 87.698 383.46 85.724C383.46 83.75 384.916 82.28 386.946 82.28C388.99 82.28 390.446 83.75 390.446 85.724ZM389.438 85.724C389.438 84.254 388.472 83.078 386.946 83.078C385.434 83.078 384.468 84.254 384.468 85.724C384.468 87.194 385.434 88.356 386.946 88.356C388.472 88.356 389.438 87.194 389.438 85.724ZM399.004 85.724C399.004 87.698 397.548 89.168 395.504 89.168C393.474 89.168 392.018 87.698 392.018 85.724C392.018 83.75 393.474 82.28 395.504 82.28C397.548 82.28 399.004 83.75 399.004 85.724ZM397.996 85.724C397.996 84.254 397.03 83.078 395.504 83.078C393.992 83.078 393.026 84.254 393.026 85.724C393.026 87.194 393.992 88.356 395.504 88.356C397.03 88.356 397.996 87.194 397.996 85.724ZM402.033 78.416V85.402H402.075L405.099 82.448H406.471L403.167 85.444L406.807 89H405.407L402.075 85.556H402.033V89H401.081V78.416H402.033ZM409.156 82.448V89H408.204V82.448H409.156ZM409.352 79.928C409.352 80.32 409.016 80.6 408.68 80.6C408.344 80.6 408.008 80.32 408.008 79.928C408.008 79.536 408.344 79.256 408.68 79.256C409.016 79.256 409.352 79.536 409.352 79.928ZM412.222 85.22H416.688C416.632 83.988 415.876 83.078 414.518 83.078C413.244 83.078 412.306 84.1 412.222 85.22ZM417.654 85.528C417.654 85.654 417.654 85.808 417.64 85.976H412.208C412.236 87.292 413.258 88.356 414.602 88.356C415.582 88.356 416.338 87.81 416.702 87.222L417.416 87.782C416.646 88.762 415.68 89.168 414.602 89.168C412.656 89.168 411.214 87.698 411.214 85.724C411.214 83.75 412.656 82.28 414.518 82.28C416.576 82.28 417.654 83.736 417.654 85.528ZM423.915 83.456L423.187 84.002C422.907 83.456 422.305 83.078 421.577 83.078C420.891 83.078 420.191 83.372 420.191 84.1C420.191 84.716 420.681 84.996 421.759 85.22C423.299 85.542 424.027 86.116 424.027 87.138C424.027 88.636 422.767 89.168 421.563 89.168C420.569 89.168 419.575 88.776 418.973 87.894L419.729 87.334C420.065 87.908 420.779 88.356 421.549 88.356C422.361 88.356 423.089 88.062 423.089 87.208C423.089 86.522 422.403 86.242 421.157 85.948C420.387 85.766 419.281 85.43 419.281 84.184C419.281 82.854 420.429 82.28 421.619 82.28C422.529 82.28 423.495 82.714 423.915 83.456ZM436.296 78.5H437.136V92.5H436.296V78.5ZM450.082 89V79.088H453.372C455.85 79.088 458.58 80.74 458.58 84.044C458.58 87.348 455.85 89 453.372 89H450.082ZM451.09 79.984V88.104H453.092C456.074 88.104 457.516 86.088 457.516 84.044C457.516 82 456.074 79.984 453.092 79.984H451.09ZM467.131 85.724C467.131 87.698 465.675 89.168 463.631 89.168C461.601 89.168 460.145 87.698 460.145 85.724C460.145 83.75 461.601 82.28 463.631 82.28C465.675 82.28 467.131 83.75 467.131 85.724ZM466.123 85.724C466.123 84.254 465.157 83.078 463.631 83.078C462.119 83.078 461.153 84.254 461.153 85.724C461.153 87.194 462.119 88.356 463.631 88.356C465.157 88.356 466.123 87.194 466.123 85.724ZM472.624 82.448H473.534C473.562 82.798 473.59 83.288 473.59 83.568H473.618C473.982 82.812 474.934 82.28 475.858 82.28C477.524 82.28 478.35 83.358 478.35 84.982V89H477.398V85.374C477.398 84.002 476.992 83.078 475.62 83.078C474.612 83.078 473.632 83.89 473.632 85.64V89H472.68V83.89C472.68 83.54 472.666 82.896 472.624 82.448ZM487.325 85.724C487.325 87.698 485.869 89.168 483.825 89.168C481.795 89.168 480.339 87.698 480.339 85.724C480.339 83.75 481.795 82.28 483.825 82.28C485.869 82.28 487.325 83.75 487.325 85.724ZM486.317 85.724C486.317 84.254 485.351 83.078 483.825 83.078C482.313 83.078 481.347 84.254 481.347 85.724C481.347 87.194 482.313 88.356 483.825 88.356C485.351 88.356 486.317 87.194 486.317 85.724ZM492.327 82.448V83.246H490.479V87.068C490.479 88.048 490.885 88.272 491.459 88.272C491.725 88.272 492.033 88.188 492.285 88.062L492.327 88.888C491.991 89.014 491.641 89.084 491.207 89.084C490.507 89.084 489.527 88.776 489.527 87.334V83.246H488.169V82.448H489.527V80.6H490.479V82.448H492.327ZM502.973 80.04L502.175 80.684C501.755 80.082 501.069 79.69 500.131 79.69C499.151 79.69 498.017 80.278 498.017 81.552C498.017 82.812 499.067 83.134 500.173 83.498C501.573 83.96 503.113 84.408 503.113 86.396C503.113 88.384 501.447 89.252 499.879 89.252C498.675 89.252 497.471 88.762 496.757 87.782L497.625 87.138C498.059 87.838 498.857 88.384 499.893 88.384C500.915 88.384 502.091 87.74 502.091 86.466C502.091 85.08 500.929 84.73 499.669 84.338C498.353 83.932 497.009 83.358 497.009 81.566C497.009 79.648 498.717 78.836 500.173 78.836C501.503 78.836 502.497 79.396 502.973 80.04ZM505.751 85.22H510.217C510.161 83.988 509.405 83.078 508.047 83.078C506.773 83.078 505.835 84.1 505.751 85.22ZM511.183 85.528C511.183 85.654 511.183 85.808 511.169 85.976H505.737C505.765 87.292 506.787 88.356 508.131 88.356C509.111 88.356 509.867 87.81 510.231 87.222L510.945 87.782C510.175 88.762 509.209 89.168 508.131 89.168C506.185 89.168 504.743 87.698 504.743 85.724C504.743 83.75 506.185 82.28 508.047 82.28C510.105 82.28 511.183 83.736 511.183 85.528ZM514.211 78.416V89H513.259V78.416H514.211ZM517.738 78.416V89H516.786V78.416H517.738ZM530.295 85.724C530.295 87.698 528.839 89.168 526.795 89.168C524.765 89.168 523.309 87.698 523.309 85.724C523.309 83.75 524.765 82.28 526.795 82.28C528.839 82.28 530.295 83.75 530.295 85.724ZM529.287 85.724C529.287 84.254 528.321 83.078 526.795 83.078C525.283 83.078 524.317 84.254 524.317 85.724C524.317 87.194 525.283 88.356 526.795 88.356C528.321 88.356 529.287 87.194 529.287 85.724ZM532.344 83.89C532.344 83.54 532.33 82.896 532.288 82.448H533.198C533.226 82.798 533.254 83.288 533.254 83.568H533.282C533.646 82.812 534.458 82.28 535.382 82.28C535.62 82.28 535.816 82.294 536.012 82.35L535.886 83.246C535.774 83.204 535.466 83.162 535.214 83.162C534.206 83.162 533.296 83.89 533.296 85.64V89H532.344V83.89ZM546.545 80.04L545.747 80.684C545.327 80.082 544.641 79.69 543.703 79.69C542.723 79.69 541.589 80.278 541.589 81.552C541.589 82.812 542.639 83.134 543.745 83.498C545.145 83.96 546.685 84.408 546.685 86.396C546.685 88.384 545.019 89.252 543.451 89.252C542.247 89.252 541.043 88.762 540.329 87.782L541.197 87.138C541.631 87.838 542.429 88.384 543.465 88.384C544.487 88.384 545.663 87.74 545.663 86.466C545.663 85.08 544.501 84.73 543.241 84.338C541.925 83.932 540.581 83.358 540.581 81.566C540.581 79.648 542.289 78.836 543.745 78.836C545.075 78.836 546.069 79.396 546.545 80.04ZM549.771 83.526H549.799C550.149 82.77 551.073 82.28 551.997 82.28C553.663 82.28 554.489 83.358 554.489 84.982V89H553.537V85.374C553.537 84.002 553.131 83.078 551.759 83.078C550.751 83.078 549.771 83.89 549.771 85.64V89H548.819V78.416H549.771V83.526ZM561.083 84.982V84.772C561.083 83.638 560.467 83.078 559.333 83.078C558.563 83.078 557.849 83.386 557.387 83.848L556.855 83.218C557.387 82.686 558.311 82.28 559.431 82.28C560.845 82.28 561.979 83.064 561.979 84.66V87.53C561.979 88.034 562.021 88.636 562.091 89H561.237C561.181 88.678 561.139 88.286 561.139 87.936H561.111C560.509 88.804 559.781 89.168 558.731 89.168C557.737 89.168 556.463 88.636 556.463 87.18C556.463 85.164 558.689 84.982 561.083 84.982ZM561.083 85.724H560.803C559.249 85.724 557.443 85.892 557.443 87.138C557.443 88.076 558.241 88.384 558.983 88.384C560.327 88.384 561.083 87.376 561.083 86.214V85.724ZM564.432 83.89C564.432 83.54 564.418 82.896 564.376 82.448H565.286C565.314 82.798 565.342 83.288 565.342 83.568H565.37C565.734 82.812 566.546 82.28 567.47 82.28C567.708 82.28 567.904 82.294 568.1 82.35L567.974 83.246C567.862 83.204 567.554 83.162 567.302 83.162C566.294 83.162 565.384 83.89 565.384 85.64V89H564.432V83.89ZM569.763 85.22H574.229C574.173 83.988 573.417 83.078 572.059 83.078C570.785 83.078 569.847 84.1 569.763 85.22ZM575.195 85.528C575.195 85.654 575.195 85.808 575.181 85.976H569.749C569.777 87.292 570.799 88.356 572.143 88.356C573.123 88.356 573.879 87.81 574.243 87.222L574.957 87.782C574.187 88.762 573.221 89.168 572.143 89.168C570.197 89.168 568.755 87.698 568.755 85.724C568.755 83.75 570.197 82.28 572.059 82.28C574.117 82.28 575.195 83.736 575.195 85.528ZM582.338 79.088L585.698 87.292H585.712L589.03 79.088H590.57V89H589.562V80.39H589.534L585.95 89H585.418L581.834 80.39H581.806V89H580.798V79.088H582.338ZM593.171 82.448L595.397 87.978H595.425L597.455 82.448H598.491L595.229 90.694C594.837 91.702 594.305 92.36 593.171 92.36C592.891 92.36 592.597 92.332 592.317 92.276L592.415 91.408C592.625 91.478 592.863 91.52 593.115 91.52C593.759 91.52 594.095 91.1 594.375 90.358L594.907 88.986L592.107 82.448H593.171ZM603.535 89V79.088H606.335C608.351 79.088 609.681 79.956 609.681 81.734C609.681 83.512 608.323 84.394 606.307 84.394H604.543V89H603.535ZM604.543 79.956V83.54H606.251C607.819 83.54 608.673 82.91 608.673 81.734C608.673 80.516 607.777 79.956 606.251 79.956H604.543ZM611.12 85.22H615.586C615.53 83.988 614.774 83.078 613.416 83.078C612.142 83.078 611.204 84.1 611.12 85.22ZM616.552 85.528C616.552 85.654 616.552 85.808 616.538 85.976H611.106C611.134 87.292 612.156 88.356 613.5 88.356C614.48 88.356 615.236 87.81 615.6 87.222L616.314 87.782C615.544 88.762 614.578 89.168 613.5 89.168C611.554 89.168 610.112 87.698 610.112 85.724C610.112 83.75 611.554 82.28 613.416 82.28C615.474 82.28 616.552 83.736 616.552 85.528ZM618.6 83.89C618.6 83.54 618.586 82.896 618.544 82.448H619.454C619.482 82.798 619.51 83.288 619.51 83.568H619.538C619.902 82.812 620.714 82.28 621.638 82.28C621.876 82.28 622.072 82.294 622.268 82.35L622.142 83.246C622.03 83.204 621.722 83.162 621.47 83.162C620.462 83.162 619.552 83.89 619.552 85.64V89H618.6V83.89ZM627.859 83.456L627.131 84.002C626.851 83.456 626.249 83.078 625.521 83.078C624.835 83.078 624.135 83.372 624.135 84.1C624.135 84.716 624.625 84.996 625.703 85.22C627.243 85.542 627.971 86.116 627.971 87.138C627.971 88.636 626.711 89.168 625.507 89.168C624.513 89.168 623.519 88.776 622.917 87.894L623.673 87.334C624.009 87.908 624.723 88.356 625.493 88.356C626.305 88.356 627.033 88.062 627.033 87.208C627.033 86.522 626.347 86.242 625.101 85.948C624.331 85.766 623.225 85.43 623.225 84.184C623.225 82.854 624.373 82.28 625.563 82.28C626.473 82.28 627.439 82.714 627.859 83.456ZM636.375 85.724C636.375 87.698 634.919 89.168 632.875 89.168C630.845 89.168 629.389 87.698 629.389 85.724C629.389 83.75 630.845 82.28 632.875 82.28C634.919 82.28 636.375 83.75 636.375 85.724ZM635.367 85.724C635.367 84.254 634.401 83.078 632.875 83.078C631.363 83.078 630.397 84.254 630.397 85.724C630.397 87.194 631.363 88.356 632.875 88.356C634.401 88.356 635.367 87.194 635.367 85.724ZM638.368 82.448H639.278C639.306 82.798 639.334 83.288 639.334 83.568H639.362C639.726 82.812 640.678 82.28 641.602 82.28C643.268 82.28 644.094 83.358 644.094 84.982V89H643.142V85.374C643.142 84.002 642.736 83.078 641.364 83.078C640.356 83.078 639.376 83.89 639.376 85.64V89H638.424V83.89C638.424 83.54 638.41 82.896 638.368 82.448ZM650.689 84.982V84.772C650.689 83.638 650.073 83.078 648.939 83.078C648.169 83.078 647.455 83.386 646.993 83.848L646.461 83.218C646.993 82.686 647.917 82.28 649.037 82.28C650.451 82.28 651.585 83.064 651.585 84.66V87.53C651.585 88.034 651.627 88.636 651.697 89H650.843C650.787 88.678 650.745 88.286 650.745 87.936H650.717C650.115 88.804 649.387 89.168 648.337 89.168C647.343 89.168 646.069 88.636 646.069 87.18C646.069 85.164 648.295 84.982 650.689 84.982ZM650.689 85.724H650.409C648.855 85.724 647.049 85.892 647.049 87.138C647.049 88.076 647.847 88.384 648.589 88.384C649.933 88.384 650.689 87.376 650.689 86.214V85.724ZM655.017 78.416V89H654.065V78.416H655.017ZM662.129 79.088V89H661.121V79.088H662.129ZM664.645 82.448H665.555C665.583 82.798 665.611 83.288 665.611 83.568H665.639C666.003 82.812 666.955 82.28 667.879 82.28C669.545 82.28 670.371 83.358 670.371 84.982V89H669.419V85.374C669.419 84.002 669.013 83.078 667.641 83.078C666.633 83.078 665.653 83.89 665.653 85.64V89H664.701V83.89C664.701 83.54 664.687 82.896 664.645 82.448ZM675.608 82.448V83.246H674.068V89H673.116V83.246H671.744V82.448H673.116V80.656C673.116 79.172 673.844 78.248 675.342 78.248C675.58 78.248 675.888 78.276 676.126 78.346L675.958 79.186C675.762 79.13 675.552 79.088 675.3 79.088C674.278 79.088 674.068 79.816 674.068 80.768V82.448H675.608ZM683.475 85.724C683.475 87.698 682.019 89.168 679.975 89.168C677.945 89.168 676.489 87.698 676.489 85.724C676.489 83.75 677.945 82.28 679.975 82.28C682.019 82.28 683.475 83.75 683.475 85.724ZM682.467 85.724C682.467 84.254 681.501 83.078 679.975 83.078C678.463 83.078 677.497 84.254 677.497 85.724C677.497 87.194 678.463 88.356 679.975 88.356C681.501 88.356 682.467 87.194 682.467 85.724ZM685.524 83.89C685.524 83.54 685.51 82.896 685.468 82.448H686.378C686.406 82.798 686.434 83.288 686.434 83.568H686.462C686.826 82.812 687.638 82.28 688.562 82.28C688.8 82.28 688.996 82.294 689.192 82.35L689.066 83.246C688.954 83.204 688.646 83.162 688.394 83.162C687.386 83.162 686.476 83.89 686.476 85.64V89H685.524V83.89ZM691.507 83.568C691.885 82.812 692.725 82.28 693.663 82.28C694.377 82.28 695.245 82.546 695.679 83.666C696.127 82.77 696.925 82.28 697.975 82.28C699.641 82.28 700.467 83.358 700.467 84.982V89H699.515V85.374C699.515 84.002 699.053 83.078 697.821 83.078C696.449 83.078 695.959 84.296 695.959 85.514V89H695.007V85.178C695.007 83.904 694.699 83.078 693.425 83.078C692.515 83.078 691.521 83.89 691.521 85.64V89H690.569V83.89C690.569 83.54 690.555 82.896 690.513 82.448H691.423C691.451 82.798 691.479 83.288 691.479 83.568H691.507ZM707.058 84.982V84.772C707.058 83.638 706.442 83.078 705.308 83.078C704.538 83.078 703.824 83.386 703.362 83.848L702.83 83.218C703.362 82.686 704.286 82.28 705.406 82.28C706.82 82.28 707.954 83.064 707.954 84.66V87.53C707.954 88.034 707.996 88.636 708.066 89H707.212C707.156 88.678 707.114 88.286 707.114 87.936H707.086C706.484 88.804 705.756 89.168 704.706 89.168C703.712 89.168 702.438 88.636 702.438 87.18C702.438 85.164 704.664 84.982 707.058 84.982ZM707.058 85.724H706.778C705.224 85.724 703.418 85.892 703.418 87.138C703.418 88.076 704.216 88.384 704.958 88.384C706.302 88.384 707.058 87.376 707.058 86.214V85.724ZM713.224 82.448V83.246H711.376V87.068C711.376 88.048 711.782 88.272 712.356 88.272C712.622 88.272 712.93 88.188 713.182 88.062L713.224 88.888C712.888 89.014 712.538 89.084 712.104 89.084C711.404 89.084 710.424 88.776 710.424 87.334V83.246H709.066V82.448H710.424V80.6H711.376V82.448H713.224ZM715.679 82.448V89H714.727V82.448H715.679ZM715.875 79.928C715.875 80.32 715.539 80.6 715.203 80.6C714.867 80.6 714.531 80.32 714.531 79.928C714.531 79.536 714.867 79.256 715.203 79.256C715.539 79.256 715.875 79.536 715.875 79.928ZM724.723 85.724C724.723 87.698 723.267 89.168 721.223 89.168C719.193 89.168 717.737 87.698 717.737 85.724C717.737 83.75 719.193 82.28 721.223 82.28C723.267 82.28 724.723 83.75 724.723 85.724ZM723.715 85.724C723.715 84.254 722.749 83.078 721.223 83.078C719.711 83.078 718.745 84.254 718.745 85.724C718.745 87.194 719.711 88.356 721.223 88.356C722.749 88.356 723.715 87.194 723.715 85.724ZM726.716 82.448H727.626C727.654 82.798 727.682 83.288 727.682 83.568H727.71C728.074 82.812 729.026 82.28 729.95 82.28C731.616 82.28 732.442 83.358 732.442 84.982V89H731.49V85.374C731.49 84.002 731.084 83.078 729.712 83.078C728.704 83.078 727.724 83.89 727.724 85.64V89H726.772V83.89C726.772 83.54 726.758 82.896 726.716 82.448Z" fill="white"/>
<g clip-path="url(#clip0_213_27225)">
<path d="M332.347 155.867C329.455 155.879 326.646 154.906 324.381 153.106C322.115 151.307 320.528 148.789 319.879 145.966V145.889L318.793 145.834C317.001 145.744 315.312 144.967 314.077 143.664C312.841 142.361 312.153 140.631 312.155 138.834V121.132H417.614C418.74 121.134 419.818 121.583 420.614 122.38C421.41 123.178 421.858 124.259 421.86 125.386V151.605C421.858 152.734 421.41 153.815 420.615 154.614C419.819 155.413 418.74 155.863 417.614 155.867H332.347Z" fill="white"/>
<path d="M417.614 121.272C418.703 121.274 419.747 121.708 420.518 122.479C421.289 123.25 421.724 124.295 421.728 125.387V151.606C421.724 152.698 421.289 153.744 420.519 154.516C419.748 155.288 418.704 155.724 417.614 155.728H332.3C329.447 155.733 326.677 154.767 324.444 152.988C322.212 151.208 320.648 148.722 320.011 145.936L319.965 145.741H319.763L318.777 145.694C317.02 145.607 315.363 144.844 314.152 143.565C312.941 142.287 312.268 140.59 312.272 138.827V121.272H417.614V121.272ZM417.614 121H312V138.827C312 140.657 312.701 142.416 313.96 143.743C315.218 145.069 316.937 145.859 318.761 145.951L319.747 145.998C320.413 148.84 322.017 151.374 324.3 153.189C326.582 155.005 329.409 155.995 332.323 156H417.614C418.19 156 418.76 155.886 419.292 155.665C419.825 155.445 420.308 155.121 420.715 154.713C421.123 154.305 421.446 153.82 421.666 153.287C421.887 152.754 422 152.183 422 151.606V125.387C421.998 124.223 421.535 123.107 420.713 122.284C419.89 121.462 418.776 121 417.614 121V121Z" fill="#929497"/>
<path d="M315.664 124.671V138.803C315.665 139.877 316.078 140.91 316.818 141.688C317.558 142.465 318.568 142.928 319.639 142.98C319.585 139.993 320.596 137.084 322.489 134.776C324.383 132.468 327.036 130.912 329.971 130.388C331.591 130.098 333.252 130.131 334.858 130.486C336.465 130.841 337.986 131.51 339.334 132.455C340.682 133.401 341.831 134.603 342.714 135.994C343.597 137.385 344.197 138.937 344.48 140.561C344.619 141.359 344.682 142.169 344.666 142.98C345.735 142.926 346.742 142.462 347.479 141.685C348.216 140.907 348.627 139.875 348.625 138.803V124.671H315.664Z" fill="#5FC323"/>
<path d="M328.131 142.778C328.131 142.246 328.236 141.72 328.439 141.23C328.642 140.739 328.939 140.293 329.314 139.918C329.689 139.542 330.134 139.244 330.623 139.041C331.113 138.838 331.638 138.733 332.168 138.733C332.698 138.733 333.223 138.838 333.713 139.041C334.203 139.244 334.648 139.542 335.022 139.918C335.397 140.293 335.695 140.739 335.897 141.23C336.1 141.72 336.205 142.246 336.205 142.778H328.131ZM322.558 142.778C322.574 145.311 323.588 147.736 325.379 149.524C327.17 151.313 329.593 152.32 332.121 152.329C333.383 152.332 334.633 152.084 335.798 151.598C336.963 151.111 338.02 150.398 338.906 149.498L336.958 147.553C335.844 148.678 334.375 149.38 332.801 149.54C331.228 149.699 329.648 149.306 328.331 148.428C327.015 147.55 326.044 146.24 325.585 144.724C325.125 143.208 325.206 141.579 325.812 140.116C326.419 138.652 327.514 137.446 328.91 136.702C330.307 135.958 331.917 135.723 333.468 136.037C335.018 136.351 336.411 137.196 337.408 138.425C338.406 139.654 338.946 141.193 338.937 142.778H341.685C341.685 140.236 340.678 137.799 338.884 136.002C337.091 134.205 334.658 133.195 332.121 133.195C329.585 133.195 327.152 134.205 325.359 136.002C323.565 137.799 322.558 140.236 322.558 142.778V142.778Z" fill="black"/>
<path d="M354.486 142.202C354.127 142.209 353.77 142.14 353.438 142C353.12 141.862 352.836 141.655 352.608 141.393C352.363 141.116 352.176 140.794 352.056 140.444C351.916 140.018 351.848 139.571 351.855 139.122C351.847 138.678 351.915 138.236 352.056 137.816C352.18 137.453 352.373 137.117 352.623 136.828C352.856 136.56 353.145 136.348 353.469 136.206C353.805 136.06 354.167 135.985 354.533 135.988C354.87 135.981 355.203 136.058 355.503 136.213C355.758 136.348 355.989 136.524 356.186 136.734L355.775 137.232C355.621 137.062 355.436 136.923 355.231 136.82C355.015 136.718 354.779 136.665 354.541 136.664C354.272 136.658 354.005 136.717 353.764 136.836C353.527 136.946 353.321 137.114 353.167 137.326C352.989 137.558 352.857 137.822 352.778 138.103C352.602 138.774 352.602 139.478 352.778 140.149C352.86 140.427 352.985 140.689 353.151 140.927C353.308 141.14 353.514 141.313 353.752 141.43C353.99 141.546 354.253 141.603 354.517 141.596C354.787 141.605 355.055 141.543 355.294 141.417C355.529 141.287 355.742 141.118 355.922 140.919L356.342 141.393C356.126 141.656 355.862 141.875 355.565 142.039C355.225 142.182 354.854 142.238 354.486 142.202V142.202Z" fill="#231F20"/>
<path d="M359.191 142.202C358.903 142.202 358.618 142.147 358.352 142.038C358.097 141.931 357.865 141.775 357.669 141.58C357.473 141.368 357.32 141.119 357.219 140.848C357.096 140.533 357.031 140.199 357.025 139.861C357.031 139.528 357.096 139.198 357.219 138.888C357.317 138.602 357.47 138.338 357.669 138.111C357.851 137.914 358.07 137.755 358.313 137.644C358.557 137.535 358.823 137.482 359.09 137.488C359.356 137.479 359.621 137.529 359.866 137.636C360.086 137.727 360.281 137.872 360.433 138.056C360.589 138.252 360.705 138.477 360.774 138.717C360.857 139 360.902 139.293 360.906 139.588V140.016H357.801C357.812 140.439 357.971 140.844 358.251 141.16C358.386 141.298 358.548 141.406 358.728 141.477C358.907 141.548 359.099 141.58 359.291 141.572C359.494 141.572 359.696 141.54 359.889 141.478C360.073 141.417 360.248 141.33 360.409 141.222L360.673 141.72C360.467 141.85 360.249 141.959 360.021 142.046C359.756 142.148 359.475 142.201 359.191 142.202V142.202ZM357.801 139.487H360.192C360.215 139.12 360.114 138.755 359.905 138.453C359.809 138.341 359.69 138.252 359.556 138.191C359.421 138.131 359.276 138.101 359.128 138.103C358.81 138.105 358.506 138.234 358.282 138.461C358.164 138.592 358.067 138.742 357.995 138.904C357.899 139.087 357.834 139.284 357.801 139.487Z" fill="#231F20"/>
<path d="M361.939 142.086V137.614H362.568L362.63 138.391C362.763 138.129 362.954 137.9 363.189 137.723C363.388 137.561 363.638 137.473 363.895 137.474C364.059 137.475 364.222 137.504 364.376 137.559L364.229 138.228L364.011 138.174C363.868 138.139 363.717 138.14 363.574 138.176C363.431 138.213 363.298 138.284 363.189 138.384C362.94 138.587 362.754 138.857 362.653 139.161V142L361.939 142.086Z" fill="#231F20"/>
<path d="M366.542 142.202C366.334 142.211 366.127 142.171 365.937 142.086C365.78 142.022 365.643 141.917 365.541 141.782C365.434 141.645 365.36 141.486 365.323 141.316C365.283 141.116 365.263 140.913 365.261 140.709V138.228H364.601V137.66L365.3 137.614L365.393 136.361H366.022V137.614H367.225V138.228H366.022V140.717C366.006 140.94 366.061 141.163 366.177 141.355C366.24 141.435 366.322 141.498 366.416 141.537C366.51 141.577 366.612 141.591 366.713 141.58H366.969L367.217 141.495L367.365 142.062C367.235 142.108 367.103 142.147 366.969 142.179C366.828 142.202 366.685 142.21 366.542 142.202V142.202Z" fill="#231F20"/>
<path d="M368.622 136.688C368.556 136.691 368.489 136.682 368.427 136.659C368.364 136.636 368.306 136.601 368.258 136.556C368.207 136.513 368.166 136.459 368.139 136.399C368.113 136.338 368.1 136.272 368.102 136.206C368.099 136.138 368.112 136.071 368.139 136.009C368.165 135.947 368.206 135.892 368.258 135.848C368.364 135.752 368.502 135.699 368.646 135.699C368.789 135.699 368.927 135.752 369.034 135.848C369.084 135.893 369.123 135.948 369.15 136.01C369.177 136.072 369.19 136.138 369.189 136.206C369.19 136.272 369.176 136.337 369.15 136.398C369.123 136.458 369.083 136.512 369.034 136.556C368.979 136.607 368.914 136.645 368.843 136.668C368.772 136.691 368.696 136.698 368.622 136.688V136.688ZM368.242 142.086V137.613H369.018V142.086H368.242Z" fill="#231F20"/>
<path d="M370.633 142.085V138.197H370.02V137.629L370.633 137.582V136.874C370.61 136.486 370.719 136.102 370.944 135.785C371.067 135.647 371.222 135.539 371.394 135.47C371.566 135.402 371.752 135.374 371.937 135.389C372.07 135.39 372.203 135.403 372.333 135.428C372.453 135.453 372.57 135.49 372.682 135.537L372.512 136.12C372.355 136.042 372.182 136.002 372.007 136.003C371.596 136.003 371.386 136.299 371.386 136.874V137.582H372.333V138.197H371.386V142.085H370.633Z" fill="#231F20"/>
<path d="M373.575 136.688C373.507 136.692 373.44 136.683 373.376 136.66C373.311 136.637 373.253 136.602 373.203 136.556C373.153 136.512 373.114 136.458 373.087 136.398C373.06 136.337 373.047 136.272 373.047 136.206C373.046 136.139 373.06 136.072 373.087 136.01C373.113 135.949 373.153 135.893 373.203 135.848C373.31 135.754 373.448 135.702 373.591 135.702C373.734 135.702 373.871 135.754 373.979 135.848C374.028 135.893 374.067 135.948 374.093 136.01C374.118 136.072 374.13 136.139 374.126 136.206C374.13 136.272 374.119 136.337 374.094 136.398C374.068 136.459 374.029 136.513 373.979 136.556C373.925 136.606 373.861 136.644 373.792 136.667C373.722 136.689 373.648 136.697 373.575 136.688V136.688ZM373.187 142.086V137.614H373.963V142.086H373.187Z" fill="#231F20"/>
<path d="M377.255 142.202C376.975 142.203 376.698 142.148 376.44 142.041C376.181 141.935 375.947 141.778 375.749 141.58C375.553 141.368 375.4 141.119 375.299 140.848C375.187 140.531 375.132 140.197 375.136 139.861C375.126 139.53 375.176 139.201 375.283 138.888C375.381 138.602 375.534 138.338 375.733 138.111C375.917 137.916 376.135 137.757 376.378 137.644C376.623 137.539 376.887 137.486 377.154 137.488C377.421 137.479 377.686 137.529 377.93 137.636C378.151 137.727 378.346 137.872 378.497 138.056C378.653 138.252 378.769 138.477 378.839 138.717C378.916 139.001 378.955 139.294 378.955 139.588V140.016H375.85C375.86 140.439 376.02 140.844 376.3 141.16C376.435 141.298 376.597 141.406 376.776 141.477C376.956 141.548 377.148 141.58 377.34 141.572C377.543 141.572 377.745 141.54 377.938 141.478C378.122 141.417 378.297 141.33 378.458 141.222L378.722 141.72C378.516 141.85 378.298 141.959 378.07 142.046C377.81 142.147 377.534 142.199 377.255 142.202V142.202ZM375.85 139.487H378.241C378.275 139.123 378.185 138.759 377.985 138.453C377.888 138.342 377.769 138.255 377.634 138.195C377.5 138.136 377.355 138.107 377.208 138.111C376.89 138.113 376.586 138.242 376.362 138.468C376.244 138.6 376.147 138.75 376.075 138.912C375.967 139.089 375.891 139.284 375.85 139.487V139.487Z" fill="#231F20"/>
<path d="M381.532 142.203C381.276 142.213 381.021 142.162 380.788 142.056C380.554 141.949 380.349 141.789 380.189 141.588C379.825 141.089 379.646 140.478 379.685 139.862C379.68 139.53 379.735 139.201 379.848 138.889C379.947 138.601 380.106 138.336 380.313 138.112C380.484 137.916 380.692 137.757 380.927 137.645C381.168 137.528 381.435 137.472 381.703 137.482C381.932 137.476 382.16 137.521 382.371 137.614C382.579 137.717 382.775 137.845 382.953 137.995V135.529H383.729V142.086H383.1L383.038 141.565C382.856 141.742 382.65 141.891 382.425 142.008C382.156 142.168 381.843 142.236 381.532 142.203V142.203ZM381.695 141.565C381.902 141.565 382.105 141.511 382.285 141.409C382.496 141.292 382.682 141.136 382.836 140.95V138.617C382.678 138.464 382.494 138.34 382.293 138.252C382.12 138.18 381.936 138.143 381.749 138.143C381.576 138.145 381.406 138.188 381.253 138.267C381.092 138.353 380.952 138.472 380.841 138.617C380.717 138.78 380.625 138.965 380.57 139.162C380.38 139.818 380.458 140.523 380.787 141.122C380.889 141.266 381.026 141.382 381.185 141.459C381.343 141.537 381.519 141.573 381.695 141.565V141.565Z" fill="#231F20"/>
<path d="M387.021 142.086V136.05H388.736C389.046 136.047 389.356 136.076 389.66 136.136C389.915 136.189 390.158 136.292 390.374 136.439C390.571 136.578 390.728 136.766 390.832 136.983C390.954 137.246 391.012 137.534 391.003 137.823C391.011 138.109 390.955 138.394 390.84 138.656C390.74 138.884 390.582 139.082 390.382 139.231C390.175 139.393 389.937 139.512 389.683 139.581C389.386 139.652 389.08 139.681 388.775 139.667H387.781V142.054L387.021 142.086ZM387.797 139.068H388.697C389.111 139.101 389.524 138.994 389.869 138.764C390.003 138.649 390.107 138.504 390.173 138.34C390.239 138.176 390.266 137.999 390.25 137.823C390.268 137.65 390.24 137.476 390.171 137.316C390.102 137.157 389.992 137.018 389.854 136.913C389.487 136.727 389.077 136.641 388.666 136.664H387.781L387.797 139.068Z" fill="#231F20"/>
<path d="M392.152 142.086V137.614H392.773L392.843 138.391C392.98 138.132 393.171 137.904 393.402 137.723C393.605 137.561 393.856 137.473 394.116 137.474C394.277 137.474 394.438 137.503 394.589 137.559L394.442 138.228L394.24 138.174H394.007C393.791 138.186 393.584 138.268 393.417 138.407C393.175 138.616 392.991 138.884 392.882 139.185V142.055L392.152 142.086Z" fill="#231F20"/>
<path d="M395.723 136.688C395.655 136.692 395.587 136.683 395.523 136.66C395.459 136.637 395.4 136.602 395.35 136.556C395.3 136.513 395.261 136.459 395.235 136.398C395.21 136.337 395.198 136.272 395.202 136.206C395.199 136.139 395.21 136.072 395.236 136.01C395.261 135.948 395.3 135.893 395.35 135.848C395.457 135.754 395.595 135.702 395.738 135.702C395.881 135.702 396.019 135.754 396.126 135.848C396.176 135.893 396.215 135.949 396.242 136.01C396.269 136.072 396.282 136.139 396.281 136.206C396.282 136.272 396.269 136.337 396.242 136.398C396.215 136.458 396.176 136.512 396.126 136.556C396.072 136.606 396.008 136.643 395.939 136.666C395.869 136.689 395.795 136.696 395.723 136.688V136.688ZM395.342 142.086V137.614H396.118V142.086H395.342Z" fill="#231F20"/>
<path d="M398.564 142.086L396.957 137.613H397.733L398.579 140.157C398.642 140.374 398.711 140.6 398.781 140.818L398.991 141.471C399.053 141.253 399.123 141.036 399.193 140.818C399.263 140.6 399.325 140.374 399.395 140.157L400.241 137.613H401.017L399.464 142.086H398.564Z" fill="#231F20"/>
<path d="M402.74 142.202C402.399 142.211 402.067 142.092 401.809 141.867C401.681 141.748 401.582 141.601 401.518 141.439C401.453 141.276 401.425 141.101 401.436 140.926C401.43 140.696 401.488 140.469 401.603 140.27C401.718 140.071 401.886 139.908 402.088 139.799C402.741 139.479 403.451 139.294 404.176 139.254C404.176 139.113 404.161 138.972 404.13 138.834C404.106 138.707 404.059 138.586 403.99 138.476C403.904 138.354 403.786 138.257 403.65 138.195C403.513 138.134 403.363 138.11 403.214 138.126C402.965 138.124 402.719 138.175 402.492 138.274C402.28 138.365 402.077 138.477 401.886 138.609L401.591 138.08C401.838 137.927 402.098 137.797 402.368 137.691C402.683 137.563 403.021 137.5 403.361 137.504C403.585 137.485 403.809 137.52 404.016 137.607C404.223 137.694 404.406 137.829 404.549 138.002C404.807 138.399 404.935 138.866 404.914 139.34V142.085H404.285L404.223 141.556C404.03 141.723 403.822 141.872 403.602 142C403.339 142.145 403.041 142.215 402.74 142.202ZM402.958 141.587C403.171 141.59 403.382 141.539 403.571 141.44C403.789 141.315 403.992 141.166 404.176 140.996V139.752C403.857 139.789 403.541 139.847 403.229 139.923C403.015 139.975 402.809 140.057 402.616 140.164C402.478 140.241 402.361 140.35 402.274 140.483C402.207 140.602 402.173 140.736 402.174 140.872C402.162 140.975 402.176 141.08 402.216 141.177C402.255 141.273 402.318 141.358 402.399 141.424C402.563 141.536 402.759 141.593 402.958 141.587V141.587Z" fill="#231F20"/>
<path d="M408.112 142.203C407.827 142.203 407.545 142.148 407.282 142.039C407.028 141.942 406.799 141.787 406.614 141.588C406.419 141.374 406.268 141.123 406.171 140.849C406.062 140.532 406.01 140.197 406.016 139.861C406.01 139.519 406.068 139.179 406.187 138.858C406.293 138.582 406.454 138.331 406.661 138.119C406.853 137.919 407.086 137.762 407.344 137.66C407.604 137.551 407.884 137.498 408.167 137.505C408.434 137.489 408.702 137.542 408.943 137.66C409.144 137.754 409.33 137.877 409.494 138.026L409.106 138.524C408.982 138.41 408.844 138.313 408.694 138.236C408.544 138.165 408.379 138.128 408.213 138.127C408.02 138.129 407.83 138.172 407.654 138.251C407.482 138.337 407.331 138.459 407.212 138.609C407.083 138.771 406.986 138.956 406.924 139.154C406.785 139.612 406.785 140.103 406.924 140.561C406.986 140.755 407.081 140.937 407.204 141.098C407.322 141.248 407.473 141.368 407.646 141.448C407.821 141.532 408.012 141.575 408.205 141.573C408.404 141.572 408.601 141.527 408.78 141.44C408.951 141.355 409.11 141.248 409.253 141.121L409.579 141.627C409.384 141.806 409.158 141.948 408.912 142.047C408.659 142.154 408.387 142.207 408.112 142.203V142.203Z" fill="#231F20"/>
<path d="M410.666 144.014C410.571 144.022 410.475 144.022 410.379 144.014C410.297 143.999 410.216 143.976 410.138 143.944L410.286 143.346L410.449 143.384H410.627C410.746 143.39 410.864 143.369 410.973 143.322C411.082 143.274 411.179 143.203 411.256 143.112C411.427 142.912 411.557 142.679 411.637 142.428L411.738 142.101L409.944 137.613H410.721L411.629 140.087L411.846 140.709C411.924 140.927 411.994 141.144 412.064 141.354H412.141C412.203 141.152 412.273 140.934 412.335 140.717C412.397 140.499 412.452 140.289 412.514 140.087L413.29 137.613H414.066L412.382 142.459C412.31 142.67 412.222 142.876 412.118 143.073C412.025 143.252 411.907 143.417 411.769 143.563C411.637 143.701 411.482 143.814 411.311 143.898C411.109 143.989 410.887 144.029 410.666 144.014V144.014Z" fill="#231F20"/>
<path d="M351.886 152.772V147.958H353.26C353.521 147.952 353.781 147.978 354.036 148.035C354.239 148.075 354.431 148.154 354.603 148.269C354.758 148.382 354.884 148.531 354.968 148.704C355.056 148.915 355.101 149.141 355.101 149.369C355.101 149.598 355.056 149.824 354.968 150.034C354.89 150.215 354.767 150.373 354.611 150.493C354.44 150.62 354.248 150.715 354.044 150.773C353.811 150.835 353.571 150.867 353.33 150.867H352.553V152.772H351.886ZM352.499 150.361H353.213C353.541 150.384 353.867 150.302 354.145 150.128C354.255 150.033 354.341 149.913 354.396 149.777C354.45 149.642 354.47 149.495 354.455 149.35C354.472 149.212 354.451 149.072 354.395 148.945C354.339 148.818 354.25 148.708 354.137 148.627C353.841 148.478 353.512 148.409 353.182 148.424H352.499V150.361Z" fill="#004676"/>
<path d="M357.025 152.888C356.81 152.891 356.597 152.849 356.399 152.764C356.201 152.68 356.023 152.555 355.876 152.398C355.719 152.23 355.598 152.031 355.519 151.815C355.333 151.313 355.333 150.761 355.519 150.26C355.598 150.041 355.719 149.84 355.876 149.668C356.024 149.511 356.204 149.387 356.404 149.303C356.804 149.14 357.253 149.14 357.654 149.303C357.849 149.389 358.026 149.513 358.174 149.668C358.33 149.842 358.454 150.042 358.539 150.26C358.716 150.763 358.716 151.312 358.539 151.815C358.459 152.033 358.335 152.232 358.174 152.398C358.026 152.554 357.849 152.678 357.654 152.764C357.455 152.848 357.241 152.89 357.025 152.888ZM357.025 152.391C357.171 152.392 357.315 152.358 357.444 152.29C357.573 152.222 357.684 152.127 357.77 152.01C357.87 151.884 357.942 151.738 357.98 151.582C358.026 151.401 358.05 151.216 358.049 151.03C358.05 150.838 358.026 150.647 357.98 150.462C357.934 150.306 357.863 150.159 357.77 150.026C357.682 149.911 357.571 149.815 357.444 149.746C357.315 149.678 357.171 149.643 357.025 149.645C356.881 149.643 356.74 149.678 356.613 149.746C356.483 149.811 356.371 149.907 356.287 150.026C356.194 150.159 356.124 150.306 356.078 150.462C356.025 150.646 355.999 150.838 356 151.03C355.999 151.216 356.025 151.403 356.078 151.582C356.116 151.738 356.187 151.884 356.287 152.01C356.368 152.132 356.481 152.229 356.613 152.29C356.742 152.347 356.884 152.371 357.025 152.36V152.391Z" fill="#004676"/>
<path d="M360.006 152.772L359.02 149.202H359.633L360.13 151.263C360.13 151.434 360.207 151.605 360.239 151.769C360.27 151.932 360.308 152.088 360.339 152.259L360.456 151.761C360.48 151.591 360.521 151.424 360.58 151.263L361.131 149.202H361.682L362.241 151.263C362.288 151.434 362.327 151.605 362.373 151.769C362.42 151.932 362.451 152.088 362.49 152.259C362.509 152.092 362.546 151.928 362.598 151.769C362.598 151.613 362.668 151.434 362.707 151.263L363.235 149.202H363.809L362.855 152.772H362.148L361.636 150.859C361.589 150.688 361.55 150.517 361.512 150.353C361.473 150.19 361.434 150.011 361.395 149.832L361.279 150.353C361.279 150.524 361.193 150.695 361.147 150.867L360.65 152.772H360.006Z" fill="#004676"/>
<path d="M365.968 152.889C365.739 152.891 365.512 152.848 365.3 152.764C365.095 152.679 364.91 152.552 364.757 152.391C364.593 152.226 364.468 152.027 364.392 151.808C364.21 151.305 364.21 150.755 364.392 150.252C364.471 150.034 364.592 149.833 364.749 149.661C364.889 149.505 365.061 149.38 365.253 149.296C365.442 149.213 365.645 149.171 365.851 149.171C366.057 149.171 366.26 149.213 366.449 149.296C366.625 149.371 366.78 149.488 366.899 149.638C367.024 149.794 367.117 149.974 367.171 150.167C367.243 150.387 367.277 150.619 367.272 150.851V151.038C367.279 151.092 367.279 151.147 367.272 151.201H364.865C364.876 151.538 365.005 151.86 365.23 152.111C365.337 152.223 365.466 152.31 365.609 152.368C365.753 152.426 365.906 152.452 366.061 152.446C366.222 152.447 366.382 152.421 366.534 152.368C366.679 152.316 366.817 152.248 366.946 152.166L367.163 152.562C366.998 152.663 366.824 152.749 366.643 152.819C366.423 152.881 366.195 152.904 365.968 152.889V152.889ZM364.85 150.734H366.752C366.773 150.441 366.691 150.149 366.519 149.91C366.442 149.814 366.343 149.739 366.231 149.689C366.119 149.639 365.997 149.616 365.874 149.622C365.749 149.625 365.625 149.651 365.51 149.7C365.391 149.749 365.285 149.823 365.199 149.918C365.103 150.018 365.025 150.134 364.966 150.26C364.904 150.401 364.865 150.55 364.85 150.703V150.734Z" fill="#004676"/>
<path d="M368.009 152.773V149.203H368.506L368.56 149.848C368.673 149.645 368.823 149.465 369.003 149.319C369.136 149.214 369.295 149.147 369.463 149.125C369.631 149.103 369.802 149.127 369.958 149.195L369.841 149.716L369.678 149.677H369.492C369.319 149.682 369.152 149.745 369.018 149.856C368.824 150.032 368.677 150.254 368.591 150.501V152.788L368.009 152.773Z" fill="#004676"/>
<path d="M371.774 152.889C371.543 152.89 371.314 152.848 371.099 152.764C370.896 152.679 370.713 152.552 370.563 152.391C370.4 152.226 370.275 152.027 370.198 151.808C370.108 151.558 370.063 151.295 370.066 151.03C370.067 150.765 370.112 150.502 370.198 150.252C370.283 150.034 370.407 149.834 370.563 149.661C370.703 149.504 370.875 149.38 371.068 149.295C371.253 149.209 371.454 149.164 371.658 149.163C371.865 149.163 372.071 149.202 372.263 149.28C372.438 149.357 372.592 149.474 372.713 149.622C372.839 149.778 372.931 149.958 372.985 150.151C373.047 150.374 373.078 150.604 373.078 150.835V151.022C373.086 151.076 373.086 151.131 373.078 151.185H370.672C370.681 151.499 370.796 151.801 370.998 152.041C371.105 152.153 371.234 152.24 371.377 152.298C371.52 152.355 371.674 152.382 371.828 152.375C371.99 152.377 372.15 152.35 372.302 152.298C372.445 152.243 372.583 152.175 372.713 152.095L372.923 152.492C372.758 152.593 372.584 152.679 372.403 152.749C372.204 152.834 371.991 152.881 371.774 152.889V152.889ZM370.649 150.734H372.55C372.575 150.441 372.495 150.149 372.325 149.91C372.247 149.813 372.148 149.737 372.034 149.686C371.921 149.636 371.797 149.614 371.673 149.622C371.55 149.625 371.429 149.651 371.316 149.7C371.198 149.749 371.092 149.823 371.006 149.918C370.91 150.018 370.831 150.134 370.773 150.26C370.711 150.401 370.67 150.55 370.649 150.703V150.734Z" fill="#004676"/>
<path d="M375.027 152.889C374.823 152.897 374.621 152.857 374.435 152.773C374.249 152.69 374.085 152.564 373.956 152.407C373.668 152.008 373.529 151.521 373.56 151.03C373.554 150.766 373.596 150.502 373.684 150.253C373.761 150.036 373.876 149.836 374.025 149.661C374.16 149.503 374.327 149.376 374.515 149.288C374.699 149.202 374.901 149.157 375.105 149.156C375.286 149.153 375.467 149.19 375.632 149.265C375.797 149.351 375.953 149.453 376.098 149.568V147.546H376.704V152.773H376.207L376.16 152.353C376.015 152.494 375.85 152.614 375.671 152.71C375.476 152.827 375.254 152.889 375.027 152.889V152.889ZM375.159 152.384C375.325 152.385 375.488 152.342 375.632 152.259C375.796 152.161 375.943 152.038 376.067 151.894V150.027C375.946 149.92 375.806 149.836 375.656 149.778C375.52 149.722 375.375 149.693 375.229 149.693C375.088 149.691 374.949 149.726 374.825 149.794C374.695 149.856 374.585 149.953 374.507 150.074C374.405 150.2 374.328 150.346 374.282 150.501C374.136 151.023 374.2 151.582 374.46 152.057C374.543 152.168 374.653 152.256 374.779 152.313C374.906 152.37 375.044 152.394 375.182 152.384H375.159Z" fill="#004676"/>
<path d="M380.624 152.889C380.444 152.89 380.266 152.85 380.104 152.773C379.923 152.685 379.756 152.572 379.607 152.438V152.438L379.553 152.804H379.071V147.546H379.669V149.646C379.832 149.508 380.009 149.388 380.197 149.288C380.38 149.196 380.582 149.148 380.787 149.148C380.996 149.148 381.202 149.194 381.392 149.28C381.569 149.362 381.722 149.488 381.835 149.646C381.959 149.817 382.051 150.009 382.107 150.214C382.244 150.723 382.244 151.26 382.107 151.769C382.028 151.99 381.913 152.195 381.765 152.376C381.631 152.537 381.464 152.667 381.276 152.757C381.072 152.852 380.849 152.898 380.624 152.889ZM380.515 152.384C380.659 152.385 380.8 152.351 380.927 152.283C381.057 152.221 381.167 152.124 381.245 152.003C381.345 151.87 381.418 151.719 381.462 151.559C381.509 151.366 381.532 151.167 381.532 150.968C381.532 150.788 381.517 150.609 381.486 150.431C381.456 150.286 381.401 150.146 381.323 150.019C381.244 149.909 381.143 149.817 381.028 149.747C380.894 149.685 380.748 149.653 380.601 149.654C380.235 149.696 379.897 149.867 379.646 150.136V152.01C379.783 152.132 379.941 152.23 380.112 152.298C380.242 152.34 380.378 152.358 380.515 152.353V152.384Z" fill="#004676"/>
<path d="M382.976 154.304H382.751C382.686 154.298 382.623 154.28 382.564 154.25L382.681 153.775H382.945C383.032 153.777 383.119 153.762 383.2 153.73C383.282 153.698 383.356 153.65 383.418 153.589C383.558 153.432 383.661 153.246 383.721 153.044L383.807 152.78L382.378 149.202H382.999L383.721 151.178L383.892 151.675C383.954 151.847 384.016 152.018 384.063 152.181C384.117 152.025 384.171 151.854 384.218 151.675C384.265 151.497 384.319 151.333 384.365 151.178L384.971 149.202H385.553L384.218 153.091C384.157 153.262 384.084 153.428 384.001 153.589C383.929 153.731 383.837 153.862 383.729 153.978C383.621 154.084 383.498 154.173 383.364 154.242C383.239 154.286 383.108 154.307 382.976 154.304V154.304Z" fill="#004676"/>
<path d="M366.783 126.32V132.923H364.966V126.32H362.459V124.64H369.313V126.32H366.783Z" fill="black"/>
<path d="M375.236 132.923L373.467 130.271H372.038V132.923H370.222V124.64H374.002C375.958 124.64 377.107 125.666 377.107 127.37C377.135 127.933 376.976 128.489 376.656 128.953C376.336 129.417 375.873 129.763 375.337 129.936L377.364 132.9L375.236 132.923ZM375.275 127.479C375.275 126.701 374.732 126.296 373.847 126.296H372.038V128.63H373.878C374.763 128.63 375.275 128.155 375.275 127.455V127.479Z" fill="black"/>
<path d="M381.967 133.055C379.747 133.055 378.396 131.811 378.396 129.369V124.64H380.213V129.306C380.213 130.66 380.888 131.352 381.998 131.352C383.108 131.352 383.776 130.683 383.776 129.369V124.64H385.6V129.306C385.6 131.819 384.195 133.055 381.967 133.055Z" fill="black"/>
<path d="M390.157 133.04C388.865 133.045 387.616 132.575 386.648 131.718L387.727 130.427C388.399 131.049 389.273 131.406 390.188 131.43C390.964 131.43 391.383 131.135 391.383 130.653C391.383 130.186 391.104 129.953 389.722 129.595C388.076 129.175 386.982 128.708 386.982 127.067C386.982 125.566 388.185 124.57 389.87 124.57C390.996 124.547 392.096 124.921 392.975 125.628L392.035 126.997C391.409 126.529 390.658 126.259 389.877 126.219C389.186 126.219 388.822 126.53 388.822 126.935C388.822 127.479 389.171 127.658 390.599 128.024C392.276 128.467 393.223 129.066 393.223 130.513C393.192 132.123 391.958 133.04 390.157 133.04Z" fill="black"/>
<path d="M397.811 126.32V132.923H395.994V126.32H393.51V124.64H400.365V126.32H397.811Z" fill="black"/>
<path d="M406.001 130.38H401.591C401.647 130.744 401.838 131.074 402.126 131.303C402.414 131.533 402.777 131.645 403.144 131.617C403.433 131.624 403.721 131.571 403.989 131.459C404.256 131.348 404.497 131.182 404.696 130.971L405.706 131.889C405.267 132.409 404.681 132.782 404.025 132.96C403.369 133.138 402.675 133.112 402.035 132.885C401.394 132.657 400.838 132.24 400.44 131.689C400.042 131.137 399.821 130.477 399.806 129.797V129.797C399.77 128.958 400.068 128.14 400.634 127.522C401.201 126.903 401.989 126.535 402.826 126.499H402.919C405.038 126.499 406.024 128.14 406.024 129.945C406.024 130.09 406.016 130.235 406.001 130.38V130.38ZM402.895 127.907C402.54 127.916 402.202 128.06 401.948 128.31C401.694 128.56 401.545 128.897 401.529 129.252H404.231C404.229 128.904 404.093 128.57 403.852 128.319C403.61 128.068 403.282 127.921 402.934 127.907H402.895Z" fill="black"/>
<path d="M389 148.783H387.448V148.005H391.43V148.783H389.877V152.718H389V148.783ZM392.268 152.718V150.113C392.465 150.012 392.684 149.964 392.905 149.973C393.08 149.974 393.254 149.995 393.425 150.035L393.635 149.335C393.384 149.252 393.121 149.215 392.858 149.226C392.339 149.216 391.834 149.39 391.43 149.716V152.718H392.268ZM396.507 149.343V151.964C396.296 152.056 396.069 152.106 395.839 152.112C395.156 152.112 395.009 151.8 395.009 151.24V149.343H394.186V151.466C394.186 152.298 394.659 152.827 395.738 152.827C396.305 152.835 396.866 152.71 397.376 152.462V149.35L396.507 149.343ZM398.059 152.298C398.424 152.625 398.898 152.803 399.387 152.796C400.163 152.796 400.691 152.345 400.691 151.769C400.691 150.673 399.03 150.727 399.03 150.214C399.03 150.004 399.239 149.91 399.464 149.91C399.77 149.908 400.066 150.013 400.303 150.206L400.613 149.568C400.297 149.296 399.888 149.157 399.472 149.179C398.696 149.179 398.16 149.553 398.16 150.19C398.16 151.287 399.822 151.225 399.822 151.746C399.822 151.948 399.62 152.057 399.379 152.057C399.034 152.049 398.703 151.916 398.448 151.684L398.059 152.298ZM401.397 151.466C401.387 151.797 401.508 152.118 401.733 152.36C401.959 152.602 402.27 152.745 402.601 152.757C402.673 152.765 402.746 152.765 402.818 152.757H403.082V151.979H402.927C402.765 151.995 402.605 151.946 402.479 151.845C402.352 151.743 402.271 151.596 402.251 151.435V150.074H403.028V149.35H402.251V148.363H401.421L401.397 151.466ZM409.005 152.718V150.113C409.202 150.012 409.421 149.964 409.642 149.973C409.817 149.974 409.991 149.995 410.162 150.035L410.371 149.335C410.121 149.252 409.858 149.215 409.595 149.226C409.076 149.216 408.571 149.39 408.167 149.716V152.718H409.005ZM412.289 149.273C411.825 149.273 411.381 149.457 411.054 149.785C410.726 150.113 410.542 150.559 410.542 151.023C410.542 151.487 410.726 151.932 411.054 152.26C411.381 152.588 411.825 152.773 412.289 152.773C412.541 152.779 412.793 152.734 413.027 152.641C413.262 152.547 413.476 152.407 413.655 152.228L413.337 151.637C413.071 151.891 412.725 152.043 412.359 152.065C412.225 152.068 412.092 152.045 411.968 151.996C411.843 151.948 411.729 151.875 411.633 151.783C411.536 151.691 411.459 151.58 411.405 151.458C411.351 151.335 411.321 151.203 411.318 151.069V151.015C411.313 150.884 411.334 150.754 411.379 150.631C411.424 150.508 411.493 150.395 411.582 150.299C411.67 150.203 411.777 150.126 411.896 150.071C412.014 150.016 412.143 149.985 412.273 149.98H412.335C412.657 149.988 412.964 150.115 413.197 150.338L413.57 149.77C413.404 149.601 413.203 149.469 412.983 149.383C412.762 149.298 412.525 149.26 412.289 149.273ZM406.412 151.497H404.86L404.378 152.695H403.517L405.147 148.028H406.016L407.647 152.695H406.777L406.412 151.497ZM406.172 150.813L405.636 149.257L405.1 150.813H406.172Z" fill="#004676"/>
<path d="M351.894 145.702H413.616" stroke="#231F20" stroke-width="0.5" stroke-miterlimit="10"/>
</g>
<defs>
<clipPath id="clip0_213_27225">
<rect width="110" height="35" fill="white" transform="translate(312 121)"/>
</clipPath>
</defs>
</svg>
