<svg width="404" height="354" viewBox="0 0 404 354" fill="none" xmlns="http://www.w3.org/2000/svg">
<circle cx="227.5" cy="177" r="176.5" fill="#F9F9F9"/>
<mask id="mask0_192_24665" style="mask-type:alpha" maskUnits="userSpaceOnUse" x="0" y="0" width="404" height="354">
<path d="M404 177C404 274.478 324.978 353.5 227.5 353.5C147.937 353.5 80.6701 300.856 58.6317 228.5C17 241 0.5 157.415 0.5 139.5C0.5 115.975 55.6026 131.024 63.9566 110.5C90.2173 45.9821 153.547 0.5 227.5 0.5C324.978 0.5 404 79.5217 404 177Z" fill="#CACACA"/>
</mask>
<g mask="url(#mask0_192_24665)">
<path d="M158.273 289.655C135.395 292.01 82.2645 312.946 76.1052 342.501C69.9458 372.055 148.671 478.575 157.237 481.551C165.804 484.528 176.44 439.601 176.44 439.601C176.44 439.601 133.635 383.494 139.018 375.471C144.401 367.449 222.221 375.471 242.252 335.461C262.282 295.452 181.461 287.274 158.273 289.655Z" fill="#032B46"/>
<g style="mix-blend-mode:multiply" opacity="0.38">
<path d="M158.273 289.655C135.395 292.01 82.2645 312.946 76.1052 342.501C69.9458 372.055 148.671 478.575 157.237 481.551C165.804 484.528 176.44 439.601 176.44 439.601C176.44 439.601 133.635 383.494 139.018 375.471C144.401 367.449 222.221 375.471 242.252 335.461C262.282 295.452 181.461 287.274 158.273 289.655Z" fill="#8D9097"/>
</g>
<path d="M220.694 309.998C178.976 317.167 135.162 336.188 113.605 374.697C92.0469 413.205 82.7821 511.47 77.3732 515.844C71.9644 520.217 111.457 503.292 121.368 497.469C131.28 491.646 141.218 403.087 158.945 392.165C176.673 381.244 250.895 403.708 270.02 377.414C282.96 359.635 276.309 335.127 277.085 317.348C277.732 305.366 237.645 307.099 220.694 309.998Z" fill="#032B46"/>
<path d="M182.936 136.139C160.524 133.551 158.273 196.516 143.651 212.51C129.029 228.503 169.841 235.076 179.882 223.431C189.923 211.785 196.031 137.588 182.936 136.139Z" fill="#F9CFAE"/>
<path d="M97.2748 217.348C123.154 218.642 143.107 214.346 149.448 208.782C155.788 203.218 179.39 206.194 183.091 218.202C186.792 230.21 169.375 242.193 161.611 243.487C153.847 244.781 108.532 234.48 97.1971 228.476C85.8619 222.472 97.2748 217.348 97.2748 217.348Z" fill="#F9CFAE"/>
<g style="mix-blend-mode:multiply" opacity="0.57">
<path d="M182.858 217.814C190.958 197.11 194.659 137.432 182.858 136.138C160.731 133.55 158.247 194.962 144.039 211.887C134.877 215.821 117.926 218.383 97.145 217.348C97.145 217.348 85.8098 222.524 97.145 228.476C108.48 234.428 153.847 244.754 161.559 243.486C169.271 242.218 186.507 230.21 182.884 218.202C182.886 218.072 182.877 217.942 182.858 217.814Z" fill="#F9CFAE"/>
</g>
<path d="M152.01 192.504C160.498 202.209 182.263 208.704 194.97 210.775C198.619 185.387 194.452 132.696 185.834 131.765C171.057 130.108 158.609 169.471 152.01 192.504Z" fill="#BABEC5"/>
<g style="mix-blend-mode:multiply" opacity="0.24">
<path d="M152.01 192.504C160.498 202.209 182.263 208.704 194.97 210.775C198.619 185.387 194.452 132.696 185.834 131.765C171.057 130.108 158.609 169.471 152.01 192.504Z" fill="#BABEC5"/>
</g>
<path d="M34.6204 213.027L18.1093 144.162C17.9108 143.134 17.9836 142.072 18.3202 141.08C18.6569 140.089 19.246 139.202 20.0295 138.507C20.8129 137.813 21.7637 137.334 22.7884 137.118C23.813 136.903 24.8762 136.958 25.8731 137.278L108.688 160.337C110.8 160.884 112.72 162.002 114.24 163.567C115.76 165.133 116.82 167.086 117.305 169.213L132.005 237.25L168.236 248.844C169.726 249.26 171.115 249.973 172.32 250.942C173.525 251.91 174.521 253.113 175.247 254.478C175.973 255.843 176.414 257.342 176.544 258.882C176.673 260.423 176.488 261.974 176 263.441L42.7724 221.542C40.7938 220.948 39.0029 219.851 37.5742 218.359C36.1455 216.867 35.1279 215.03 34.6204 213.027Z" fill="#D4D7DC"/>
<path d="M214.819 50.7879C224.265 41.5231 254.493 37.8482 255.605 62.2526C256.718 86.657 254.182 89.3743 254.493 104.902C254.803 120.43 266.397 124.933 272.065 138.545C277.732 152.158 253.949 162.898 229.26 162.406C204.571 161.915 178.51 133.939 191.088 130.264C211.015 124.312 210.239 111.993 211.791 101.589C211.895 101.615 201.336 64.0641 214.819 50.7879Z" fill="#F9CFAE"/>
<path d="M293.597 149.443C283.245 137.745 266.863 128.739 260.6 120.613C258.171 127.373 253.448 133.067 247.253 136.703C241.059 140.34 233.785 141.688 226.698 140.514C207.961 137.227 206.615 127.704 206.175 119.966C200.43 125.866 187.102 122.01 175.301 138.081C154.598 166.549 189.121 237.252 186.818 256.17C184.514 275.088 153.692 267.816 156.771 286.733C159.851 305.651 266.164 362.379 284.668 317.297C303.172 272.215 315.128 174.183 293.597 149.443Z" fill="#BABEC5"/>
<g style="mix-blend-mode:multiply" opacity="0.24">
<path d="M246.392 287.326C249.809 297.445 226.802 315.587 213.111 325.317C242.899 336.782 275.222 340.302 284.642 317.295C301.361 276.276 312.877 191.598 298.773 157.954L269.788 143.669C240.647 161.94 241.553 273.041 246.392 287.326Z" fill="#BABEC5"/>
</g>
<path d="M298.514 156.506C281.563 134.664 269.218 142.686 266.915 156.506C260.989 191.883 288.55 238.234 281.252 243.099C273.954 247.964 216.993 220.17 203.018 220.04C157.212 214.373 150.819 237.742 136.586 237.742C136.844 239.295 143.961 243.461 151.001 243.591C158.04 243.72 164.846 238.415 171.885 238.027C171.885 238.027 162.828 247.473 159.748 249.905C166.813 251.484 171.911 245.532 178.562 244.729C185.213 243.927 191.89 251.846 209.229 239.243C213.603 239.993 275.714 288.414 302.758 280.133C347.452 266.365 315.465 178.374 298.514 156.506Z" fill="#F9CFAE"/>
<path d="M322.064 217.944C319.476 192.919 307.287 162.769 292.51 149.13C271.987 130.212 258.634 144.912 260.859 161.449C263.939 184.145 269.374 208.912 271.522 221.36C281.77 224.957 306.278 223.922 322.064 217.944Z" fill="#BABEC5"/>
<path d="M256.382 90.9272C261.07 90.9272 264.87 86.6749 264.87 81.4294C264.87 76.1839 261.07 71.9316 256.382 71.9316C251.694 71.9316 247.893 76.1839 247.893 81.4294C247.893 86.6749 251.694 90.9272 256.382 90.9272Z" fill="#F9CFAE"/>
<path d="M200.094 65.2031L220.798 68.8263C220.798 68.8263 221.677 81.5072 212.335 82.0248C202.992 82.5424 204.261 67.4546 204.261 67.4546" stroke="#393A3D" stroke-width="1.19" stroke-linecap="round" stroke-linejoin="round"/>
<path d="M249.602 46.8274C246.832 44.99 237.153 50.2694 244.296 55.73C248.437 58.8873 252.06 63.8303 251.75 73.0175C251.439 82.2047 248.411 91.6507 245.513 93.7211C242.614 95.7915 235.523 90.2274 225.534 88.8299C217.77 87.7429 210.394 88.4934 208.168 92.3236C205.943 96.1538 206.745 122.447 228.665 123.793C250.585 125.139 257.132 87.1218 257.65 71.4129C258.297 52.8832 249.602 46.8274 249.602 46.8274Z" fill="#854C20"/>
<path d="M249.783 72.0347C249.783 72.0347 245.952 85.932 237.412 84.6122C228.872 83.2923 231.641 69.5244 231.641 69.5244L254.933 72.1124" stroke="#393A3D" stroke-width="1.19" stroke-linecap="round" stroke-linejoin="round"/>
<path d="M220.953 71.5685C222.496 70.6404 224.287 70.2096 226.084 70.3346C227.88 70.4597 229.595 71.1344 230.994 72.2673" stroke="#393A3D" stroke-width="1.19" stroke-miterlimit="10"/>
<path d="M83.8511 195.701C86.5099 191.651 84.1804 185.423 78.6481 181.792C73.1158 178.161 66.4757 178.501 63.8169 182.551C61.1581 186.602 63.4876 192.829 69.0199 196.461C74.5522 200.092 81.1924 199.752 83.8511 195.701Z" fill="#52B748"/>
<path d="M254.363 53.0907C240.621 25.0632 215.544 37.563 209.618 36.5278C203.691 35.4927 204.442 28.764 200.249 29.5663C196.057 30.3685 195.487 35.1821 201.931 39.2452C196.756 43.6447 193.158 33.4741 188.603 35.2339C184.049 36.9937 191.476 53.9189 213.525 58.0337C229.907 61.1134 257.365 59.3277 254.363 53.0907Z" fill="#854C20"/>
</g>
</svg>
