<svg width="122" height="122" viewBox="0 0 122 122" fill="none" xmlns="http://www.w3.org/2000/svg">
<path d="M77.62 88.9996C89.9533 84.9396 97.84 83.1963 101.28 83.7696C104.385 84.1697 107.233 85.7007 109.28 88.0696C85.8666 101.943 71.7733 108.88 67 108.88C59.86 108.88 47.62 105.72 36 101.53C28.1185 98.6408 20.6953 94.6294 13.96 89.6197V72.1396C46.2733 78.1796 63.94 81.6263 66.96 82.4797C71.54 83.7697 77.58 83.7696 77.58 88.0696C77.58 89.8196 77.07 92.0696 71.58 92.0696H50.5" fill="white"/>
<path fill-rule="evenodd" clip-rule="evenodd" d="M12.6823 70.601C13.1398 70.221 13.7428 70.0644 14.3274 70.1737C46.556 76.1979 64.3632 79.6681 67.5022 80.5546C68.4485 80.8211 69.4674 81.0294 70.5623 81.2533C70.6917 81.2798 70.8223 81.3065 70.9539 81.3335C72.1545 81.5801 73.4517 81.8566 74.6237 82.2498C75.7828 82.6387 77.0119 83.2019 77.9643 84.1349C78.5936 84.7514 79.0608 85.4896 79.3267 86.3428C84.489 84.6914 88.8353 83.472 92.3533 82.6943C96.2797 81.8264 99.4343 81.4452 101.571 81.7907C105.15 82.2606 108.433 84.0297 110.793 86.7622C111.181 87.2103 111.349 87.8071 111.254 88.3916C111.159 88.9761 110.809 89.4884 110.299 89.7903C98.5754 96.7373 89.1478 101.97 82.0332 105.472C78.4777 107.222 75.4675 108.555 73.0176 109.456C70.6276 110.335 68.5696 110.88 67 110.88C59.4849 110.88 46.9615 107.608 35.3215 103.411L35.3117 103.408L35.3117 103.407C27.2495 100.452 19.6561 96.3491 12.7663 91.2244C12.259 90.8471 11.96 90.252 11.96 89.6197V72.1397C11.96 71.5449 12.2247 70.981 12.6823 70.601ZM79.109 90.6165C78.8771 91.1467 78.533 91.6798 78.0238 92.1686C76.6569 93.481 74.5198 94.0697 71.58 94.0697H50.5C49.3954 94.0697 48.5 93.1742 48.5 92.0697C48.5 90.9651 49.3954 90.0697 50.5 90.0697H71.58C74.1301 90.0697 74.993 89.5333 75.2536 89.2832C75.4617 89.0834 75.58 88.7905 75.58 88.0697C75.58 87.5328 75.4193 87.2413 75.165 86.9922C74.8418 86.6755 74.2746 86.3518 73.3513 86.042C72.4407 85.7365 71.3692 85.5023 70.1491 85.2517C70.0202 85.2253 69.8895 85.1986 69.7574 85.1716C68.684 84.9525 67.5145 84.7137 66.4177 84.4048L66.4161 84.4043C63.5823 83.6036 46.8399 80.3275 15.96 74.5484V88.6074C22.3239 93.2258 29.2976 96.9424 36.6833 99.65C48.2818 103.832 60.236 106.88 67 106.88C67.817 106.88 69.3106 106.557 71.6373 105.702C73.9041 104.868 76.7756 103.601 80.2668 101.883C86.7801 98.6769 95.3379 93.9575 105.954 87.7112C104.511 86.6636 102.818 85.9844 101.024 85.7533C101 85.7501 100.976 85.7465 100.951 85.7424C99.6483 85.5253 97.1537 85.7297 93.2166 86.6C89.548 87.411 84.8509 88.7455 79.109 90.6165Z" fill="#008481"/>
<path d="M28.64 69.5195H12.11V101.84H28.64V69.5195Z" fill="white"/>
<path fill-rule="evenodd" clip-rule="evenodd" d="M10.11 69.5195C10.11 68.415 11.0054 67.5195 12.11 67.5195H28.64C29.7446 67.5195 30.64 68.415 30.64 69.5195V101.84C30.64 102.944 29.7446 103.84 28.64 103.84H12.11C11.0054 103.84 10.11 102.944 10.11 101.84V69.5195ZM14.11 71.5195V99.8395H26.64V71.5195H14.11Z" fill="#008481"/>
<path fill-rule="evenodd" clip-rule="evenodd" d="M17.02 96.9297L23.73 74.4297V96.9297H17.02Z" fill="#00C1BF" fill-opacity="0.15"/>
<path d="M108.29 17.7695H33.2999V61.4895H108.29V17.7695Z" fill="white"/>
<path fill-rule="evenodd" clip-rule="evenodd" d="M31.2999 17.7695C31.2999 16.665 32.1954 15.7695 33.2999 15.7695H108.29C109.394 15.7695 110.29 16.665 110.29 17.7695V61.4895C110.29 62.5941 109.394 63.4895 108.29 63.4895H33.2999C32.1954 63.4895 31.2999 62.5941 31.2999 61.4895V17.7695ZM35.2999 19.7695V59.4895H106.29V19.7695H35.2999Z" fill="#008481"/>
<path opacity="0.4" d="M102.73 22.8398V56.4098H76.0599C78.3716 55.473 80.4132 53.9744 81.9999 52.0498H92.4699C92.4699 50.4851 93.0915 48.9844 94.198 47.8779C95.3045 46.7714 96.8052 46.1498 98.3699 46.1498V33.1498C96.8052 33.1498 95.3045 32.5282 94.198 31.4218C93.0915 30.3153 92.4699 28.8146 92.4699 27.2498H81.9999C80.4132 25.3252 78.3716 23.8267 76.0599 22.8898L102.73 22.8398Z" fill="#57B520"/>
<path d="M71.2999 24.8496C64.7199 24.8496 59.3799 31.5096 59.3799 39.7196C59.3799 47.9296 64.7199 54.5996 71.2999 54.5996C77.8799 54.5996 83.2199 47.9396 83.2199 39.7196C83.2199 31.4996 77.8799 24.8496 71.2999 24.8496ZM78.0699 44.1296C77.307 43.8583 76.5086 43.7 75.6999 43.6596C75.0037 43.595 74.3255 43.4017 73.6999 43.0896C74.7207 42.5555 75.5728 41.7479 76.1609 40.7571C76.749 39.7664 77.0499 38.6316 77.0299 37.4796C77.0869 36.6929 76.9811 35.903 76.7192 35.159C76.4573 34.415 76.0449 33.733 75.5077 33.1555C74.9705 32.578 74.3201 32.1174 73.597 31.8024C72.8739 31.4875 72.0936 31.3249 71.3049 31.3249C70.5162 31.3249 69.7359 31.4875 69.0128 31.8024C68.2897 32.1174 67.6392 32.578 67.102 33.1555C66.5648 33.733 66.1524 34.415 65.8905 35.159C65.6287 35.903 65.5229 36.6929 65.5799 37.4796C65.5622 38.6311 65.864 39.765 66.4519 40.7553C67.0397 41.7457 67.8905 42.5537 68.9099 43.0896C68.2852 43.4042 67.6066 43.5976 66.9099 43.6596C66.1045 43.7001 65.3093 43.8584 64.5499 44.1296C63.9201 44.3806 63.4042 44.8538 63.0999 45.4596C62.377 43.6327 62.0104 41.6843 62.0199 39.7196C62.0199 32.9596 66.1899 27.4596 71.3199 27.4596C76.4499 27.4596 80.6199 32.9596 80.6199 39.7196C80.6293 41.6843 80.2627 43.6327 79.5399 45.4596C79.2277 44.8524 78.7052 44.3796 78.0699 44.1296V44.1296Z" fill="#57B520"/>
<path opacity="0.4" d="M60.5999 52.0498H49.1599C49.1599 50.4851 48.5383 48.9844 47.4318 47.8779C46.3253 46.7714 44.8246 46.1498 43.2599 46.1498V33.1498C44.0389 33.1499 44.8102 32.9956 45.5293 32.696C46.2484 32.3964 46.9011 31.9573 47.4496 31.4041C47.9981 30.851 48.4317 30.1946 48.7252 29.473C49.0187 28.7514 49.1665 27.9788 49.1599 27.1998H60.5999C62.183 25.2715 64.2257 23.7722 66.5399 22.8398H38.8699V56.4098H66.5399C64.2257 55.4775 62.183 53.9782 60.5999 52.0498V52.0498Z" fill="#57B520"/>
<path d="M104.58 59.2596H67.0399L81.9999 51.8896H104.58V59.2596Z" fill="white"/>
<g style="mix-blend-mode:multiply" opacity="0.2">
<path d="M104.58 21.4297V57.7997H71.22L104.58 21.4297Z" fill="#57B520"/>
</g>
</svg>
