<svg width="24" height="24" viewBox="0 0 24 24" fill="none" xmlns="http://www.w3.org/2000/svg">
<path d="M12.0004 17C10.9004 17 9.90039 16.8 8.90039 16.5L9.90039 15.5C10.5004 15.9 11.2004 16.1 11.9004 16.1C14.1004 16.1 15.9004 14.3 15.9004 12.1C15.9004 11.4 15.7004 10.7 15.3004 10.1L16.8004 8.6C18.1004 9.5 19.2004 10.7 19.8004 12.2C18.7004 15 15.6004 17 12.0004 17ZM10.0004 12C10.0004 10.9 10.9004 10 12.0004 10C12.2004 10 12.3004 10 12.5004 10.1L10.1004 12.5C10.0004 12.4 10.0004 12.2 10.0004 12ZM14.0004 12C14.0004 13.1 13.1004 14 12.0004 14C11.8004 14 11.6004 14 11.5004 13.9L14.0004 11.4C14.0004 11.7 14.0004 11.8 14.0004 12ZM4.10039 12C5.30039 9 8.40039 7 12.0004 7C13.1004 7 14.1004 7.2 15.0004 7.5L14.0004 8.5C13.4004 8.2 12.7004 8 12.0004 8C9.80039 8 8.00039 9.8 8.00039 12C8.00039 12.7 8.20039 13.4 8.60039 14L7.00039 15.6C5.70039 14.7 4.70039 13.5 4.10039 12ZM21.9004 11.7C21.3004 9.8 20.0004 8.2 18.4004 7L20.7004 4.7C21.1004 4.3 21.1004 3.7 20.7004 3.3C20.3004 2.9 19.7004 2.9 19.3004 3.3L16.6004 6C15.2004 5.4 13.7004 5 12.0004 5C7.40039 5 3.40039 7.7 2.10039 11.7C2.00039 11.9 2.00039 12.1 2.10039 12.4C2.70039 14.3 4.00039 15.9 5.60039 17L3.30039 19.3C2.90039 19.7 2.90039 20.3 3.30039 20.7C3.50039 20.9 3.70039 21 4.00039 21C4.30039 21 4.50039 20.9 4.70039 20.7L7.40039 18C8.80039 18.6 10.4004 19 12.0004 19C16.6004 19 20.6004 16.3 21.9004 12.3C22.0004 12.2 22.0004 11.9 21.9004 11.7Z" fill="#393A3D"/>
</svg>
