<svg width="447" height="62" viewBox="0 0 447 62" fill="none" xmlns="http://www.w3.org/2000/svg">
<path d="M224.799 11.5749C224.799 16.442 228.734 20 233.735 20C238.736 20 242.678 16.442 242.678 11.5749V0.392761H237.834V10.9973C237.834 13.6234 236.062 15.3947 233.72 15.3947C231.377 15.3947 229.605 13.6311 229.605 10.9973V0.392761H224.761L224.792 11.5749H224.799ZM255.608 4.86715H261.382V19.638H266.226V4.86715H272V0.38506H255.608V4.86715V4.86715ZM252.477 0.38506H247.634V19.638H252.477V0.38506ZM205.238 4.86715H211.013V19.638H215.856V4.86715H221.63V0.38506H205.238V4.86715ZM179.843 0.38506H175V19.638H179.843V0.38506ZM202.693 8.42511C202.693 3.55795 198.751 0 193.75 0C188.749 0 184.814 3.55795 184.814 8.42511V19.638H189.657V9.0258C189.657 6.39969 191.429 4.62842 193.772 4.62842C196.115 4.62842 197.887 6.39199 197.887 9.0258V19.6303H202.73L202.7 8.4174L202.693 8.42511Z" fill="#236CFF"/>
<path d="M12.5 62C19.375 62 25 56.375 25 49.5C25 42.625 19.375 37 12.5 37C5.625 37 0 42.625 0 49.5C0 56.375 5.625 62 12.5 62Z" fill="#2CA01C"/>
<path d="M3.47217 49.5001C3.47217 52.2084 5.62495 54.3612 8.33328 54.3612H9.02772V52.5557H8.33328C6.66661 52.5557 5.27773 51.1668 5.27773 49.5001C5.27773 47.8334 6.66661 46.4446 8.33328 46.4446H9.99995C9.99995 46.4446 9.99995 55.6807 9.99995 55.889C9.99995 56.8612 10.8333 57.6946 11.8055 57.6946V44.639C11.8055 44.639 9.9305 44.639 8.33328 44.639C5.62495 44.639 3.47217 46.8612 3.47217 49.5001ZM16.6666 44.639H15.9722V46.4446H16.6666C18.3333 46.4446 19.7222 47.8334 19.7222 49.5001C19.7222 51.1668 18.3333 52.5557 16.6666 52.5557H15C15 52.5557 15 43.3196 15 43.1112C15 42.139 14.1666 41.3057 13.1944 41.3057V54.3612C13.1944 54.3612 15.0694 54.3612 16.6666 54.3612C19.3749 54.3612 21.5277 52.2084 21.5277 49.5001C21.5277 46.8612 19.3749 44.639 16.6666 44.639Z" fill="white"/>
<path d="M38.54 54.42H38.48C37.7 55.58 36.3 56.24 34.96 56.24C32.04 56.24 30.12 54.08 30.12 51.32C30.12 48.56 32.04 46.4 34.96 46.4C36.3 46.4 37.7 47.04 38.48 48.26H38.54V46.64H39.9V60.8H38.54V54.42ZM31.56 51.32C31.56 53.4 32.84 55.08 35.1 55.08C37.2 55.08 38.7 53.46 38.7 51.32C38.7 49.18 37.2 47.54 35.1 47.54C32.84 47.54 31.56 49.24 31.56 51.32ZM51.5953 56H50.2953C50.2553 55.5 50.2153 54.8 50.2153 54.4H50.1753C49.6553 55.48 48.2953 56.24 46.9753 56.24C44.5953 56.24 43.4153 54.7 43.4153 52.38V46.64H44.7753V51.82C44.7753 53.78 45.3553 55.1 47.3153 55.1C48.7553 55.1 50.1553 53.94 50.1553 51.44V46.64H51.5153V53.94C51.5153 54.44 51.5353 55.36 51.5953 56ZM56.4964 46.64V56H55.1364V46.64H56.4964ZM56.7764 43.04C56.7764 43.6 56.2964 44 55.8164 44C55.3364 44 54.8564 43.6 54.8564 43.04C54.8564 42.48 55.3364 42.08 55.8164 42.08C56.2964 42.08 56.7764 42.48 56.7764 43.04ZM67.9164 48.02L66.8564 48.78C66.4164 48.06 65.4764 47.54 64.4564 47.54C62.2764 47.54 60.8764 49.18 60.8764 51.32C60.8764 53.44 62.2564 55.08 64.4364 55.08C65.6164 55.08 66.4364 54.58 66.9764 53.86L67.9964 54.62C67.1964 55.6 66.0564 56.24 64.4364 56.24C61.4164 56.24 59.4364 54.14 59.4364 51.32C59.4364 48.5 61.4164 46.4 64.4364 46.4C65.6964 46.4 67.1164 46.94 67.9164 48.02ZM71.5164 40.88V50.86H71.5764L75.8964 46.64H77.8564L73.1364 50.92L78.3364 56H76.3364L71.5764 51.08H71.5164V56H70.1564V40.88H71.5164ZM81.7517 54.42H81.7117V56H80.3517V40.88H81.7117V48.26H81.7517C82.5517 47.04 83.9517 46.4 85.2917 46.4C88.2117 46.4 90.1317 48.56 90.1317 51.32C90.1317 54.08 88.2117 56.24 85.2917 56.24C83.9517 56.24 82.5517 55.6 81.7517 54.42ZM88.6917 51.32C88.6917 49.24 87.4117 47.54 85.1517 47.54C83.0517 47.54 81.5517 49.18 81.5517 51.32C81.5517 53.46 83.0517 55.08 85.1517 55.08C87.4117 55.08 88.6917 53.4 88.6917 51.32ZM102.346 51.32C102.346 54.14 100.266 56.24 97.3461 56.24C94.4461 56.24 92.3661 54.14 92.3661 51.32C92.3661 48.5 94.4461 46.4 97.3461 46.4C100.266 46.4 102.346 48.5 102.346 51.32ZM100.906 51.32C100.906 49.22 99.5261 47.54 97.3461 47.54C95.1861 47.54 93.8061 49.22 93.8061 51.32C93.8061 53.42 95.1861 55.08 97.3461 55.08C99.5261 55.08 100.906 53.42 100.906 51.32ZM114.573 51.32C114.573 54.14 112.493 56.24 109.573 56.24C106.673 56.24 104.593 54.14 104.593 51.32C104.593 48.5 106.673 46.4 109.573 46.4C112.493 46.4 114.573 48.5 114.573 51.32ZM113.133 51.32C113.133 49.22 111.753 47.54 109.573 47.54C107.413 47.54 106.033 49.22 106.033 51.32C106.033 53.42 107.413 55.08 109.573 55.08C111.753 55.08 113.133 53.42 113.133 51.32ZM118.899 40.88V50.86H118.959L123.279 46.64H125.239L120.519 50.92L125.719 56H123.719L118.959 51.08H118.899V56H117.539V40.88H118.899ZM133.597 48.08L132.557 48.86C132.157 48.08 131.297 47.54 130.257 47.54C129.277 47.54 128.277 47.96 128.277 49C128.277 49.88 128.977 50.28 130.517 50.6C132.717 51.06 133.757 51.88 133.757 53.34C133.757 55.48 131.957 56.24 130.237 56.24C128.817 56.24 127.397 55.68 126.537 54.42L127.617 53.62C128.097 54.44 129.117 55.08 130.217 55.08C131.377 55.08 132.417 54.66 132.417 53.44C132.417 52.46 131.437 52.06 129.657 51.64C128.557 51.38 126.977 50.9 126.977 49.12C126.977 47.22 128.617 46.4 130.317 46.4C131.617 46.4 132.997 47.02 133.597 48.08Z" fill="black"/>
<path d="M183.5 62C190.375 62 196 56.375 196 49.5C196 42.625 190.375 37 183.5 37C176.625 37 171 42.625 171 49.5C171 56.4444 176.625 62 183.5 62Z" fill="#FFE01B"/>
<path d="M187.25 49.0138C187.389 49.0138 187.528 49.0138 187.597 49.0138C187.667 48.8749 187.667 48.5971 187.597 48.3193C187.528 47.9027 187.389 47.6249 187.18 47.6943C186.903 47.7638 186.903 48.0415 187.042 48.4582C187.042 48.736 187.18 48.9443 187.25 49.0138Z" fill="black"/>
<path d="M185.166 49.361C185.374 49.4304 185.444 49.4999 185.513 49.4304C185.513 49.4304 185.513 49.361 185.513 49.2916C185.444 49.1527 185.235 49.0138 185.027 48.9443C184.61 48.8054 184.194 48.8054 183.847 49.0832C183.708 49.1527 183.638 49.2916 183.638 49.361C183.638 49.361 183.638 49.4304 183.708 49.4304C183.777 49.4304 184.124 49.2916 184.541 49.2221C184.749 49.2221 184.958 49.2916 185.166 49.361Z" fill="black"/>
<path d="M184.819 49.5694C184.611 49.6388 184.472 49.7082 184.402 49.7777C184.333 49.8471 184.264 49.9166 184.264 49.9166V49.986C184.264 49.986 184.264 49.986 184.333 49.986C184.402 49.986 184.472 49.9166 184.472 49.9166C184.819 49.7777 185.027 49.8471 185.236 49.8471C185.375 49.8471 185.375 49.8471 185.444 49.8471V49.7777C185.305 49.7082 185.097 49.5694 184.819 49.5694Z" fill="black"/>
<path d="M186.555 50.3332C186.694 50.4027 186.902 50.4027 186.902 50.2638C186.972 50.1249 186.902 49.986 186.694 49.9166C186.555 49.8471 186.347 49.8471 186.347 49.986C186.277 50.0555 186.416 50.2638 186.555 50.3332Z" fill="black"/>
<path d="M187.528 49.4305C187.389 49.4305 187.319 49.5694 187.319 49.7083C187.319 49.8471 187.389 50.0555 187.528 50.0555C187.667 50.0555 187.736 49.9166 187.736 49.7777C187.736 49.5694 187.667 49.4305 187.528 49.4305Z" fill="black"/>
<path d="M179.125 52.5555C179.125 52.486 179.055 52.5555 178.986 52.5555C178.986 52.5555 178.916 52.5555 178.847 52.5555C178.777 52.5555 178.708 52.486 178.639 52.4166C178.569 52.3471 178.569 52.2082 178.639 52.0693V51.9999C178.708 51.7916 178.916 51.3749 178.708 51.0277C178.569 50.7499 178.361 50.611 178.083 50.5416C177.805 50.5416 177.527 50.611 177.389 50.8193C177.111 51.0971 177.041 51.5138 177.111 51.7221C177.111 51.7916 177.18 51.7916 177.18 51.7916C177.25 51.7916 177.319 51.7916 177.319 51.6527C177.319 51.6527 177.319 51.6527 177.319 51.5832C177.319 51.5138 177.389 51.3749 177.458 51.3055C177.527 51.1666 177.666 51.0971 177.805 51.0971C177.944 51.0971 178.083 51.0971 178.222 51.1666C178.43 51.3055 178.5 51.5138 178.43 51.7916C178.361 51.9305 178.291 52.1388 178.361 52.3471C178.361 52.6944 178.639 52.9027 178.847 52.9027C179.055 52.9027 179.194 52.7638 179.194 52.6944C179.125 52.6249 179.125 52.5555 179.125 52.5555Z" fill="black"/>
<path d="M190.722 51.861C190.722 51.861 190.652 51.6527 190.583 51.4443C190.514 51.236 190.444 51.0971 190.444 51.0971C190.722 50.6805 190.722 50.3332 190.722 50.1249C190.652 49.8471 190.583 49.6388 190.375 49.4305C190.166 49.2221 189.68 48.9443 189.125 48.8055C189.055 48.8055 188.847 48.736 188.777 48.736C188.777 48.736 188.777 47.9721 188.777 47.6249C188.777 47.4166 188.777 46.9999 188.639 46.6527C188.5 46.1666 188.291 45.7499 187.944 45.4721C188.777 44.6388 189.264 43.6666 189.264 42.9027C189.264 41.3749 187.389 40.8888 185.027 41.861L184.541 42.0693L183.639 41.1666C181 38.8749 172.736 48.0416 175.375 50.2638L175.93 50.7499C175.791 51.1666 175.722 51.5832 175.791 52.0693C175.861 52.6943 176.139 53.2499 176.694 53.736C177.18 54.1527 177.805 54.4305 178.43 54.4305C179.472 56.7916 181.833 58.2499 184.541 58.3193C187.527 58.3888 189.958 56.9999 191 54.4999C191.069 54.2916 191.347 53.5277 191.347 52.8332C191.347 52.1388 190.93 51.861 190.722 51.861ZM178.569 53.736C178.5 53.736 178.361 53.736 178.291 53.736C177.389 53.736 176.416 52.9027 176.347 51.9305C176.208 50.8888 176.764 50.0555 177.736 49.8471C177.875 49.8471 178.014 49.7777 178.152 49.8471C178.708 49.8471 179.472 50.2638 179.68 51.4443C179.819 52.486 179.541 53.5971 178.569 53.736ZM177.597 49.2916C176.972 49.4305 176.486 49.7777 176.139 50.1943C175.93 50.0555 175.583 49.7082 175.514 49.6388C175.027 48.6666 176.069 46.7916 176.833 45.7499C178.708 43.111 181.555 41.0971 182.875 41.5138C183.083 41.5832 183.777 42.4166 183.777 42.4166C183.777 42.4166 182.458 43.1805 181.208 44.2221C179.611 45.4027 178.361 47.2777 177.597 49.2916ZM186.972 53.3193C186.972 53.2499 186.972 53.2499 186.972 53.2499C186.972 53.2499 185.583 53.4582 184.264 52.9721C184.402 52.486 184.819 52.6943 185.375 52.6943C186.416 52.7638 187.319 52.6249 188.014 52.4166C188.639 52.2777 189.402 51.9305 190.027 51.4443C190.236 51.9305 190.305 52.4166 190.305 52.4166C190.305 52.4166 190.444 52.4166 190.583 52.486C190.722 52.5555 190.791 52.6943 190.722 53.111C190.583 53.8749 190.236 54.4999 189.68 55.1249C189.333 55.4721 188.916 55.8193 188.43 56.0277C188.152 56.1666 187.944 56.3055 187.666 56.3749C185.583 57.0693 183.43 56.3055 182.736 54.7082C182.666 54.5693 182.666 54.4305 182.597 54.361C182.319 53.3193 182.527 51.9999 183.361 51.236C183.43 51.1666 183.43 51.0971 183.43 51.0277C183.43 50.9582 183.361 50.8888 183.361 50.8193C183.083 50.4027 182.111 49.7777 182.319 48.4582C182.458 47.486 183.291 46.861 184.055 46.861C184.125 46.861 184.194 46.861 184.264 46.861C184.611 46.861 184.889 46.9305 185.166 46.9305C185.652 46.9305 186.069 46.861 186.555 46.4443C186.694 46.3055 186.833 46.1666 187.041 46.1666C187.041 46.1666 187.111 46.1666 187.25 46.1666C187.389 46.1666 187.458 46.236 187.597 46.3055C188.014 46.5832 188.014 47.2082 188.083 47.6249C188.083 47.9027 188.152 48.5277 188.152 48.736C188.152 49.1527 188.291 49.2221 188.5 49.2916C188.639 49.361 188.708 49.361 188.916 49.4305C189.402 49.5693 189.75 49.7082 189.958 49.9166C190.097 50.0555 190.097 50.1943 190.166 50.2638C190.236 50.6805 189.819 51.236 188.777 51.7916C187.597 52.3471 186.208 52.486 185.166 52.3471C185.097 52.3471 184.819 52.2777 184.819 52.2777C184.055 52.1388 183.569 53.1805 184.055 53.8749C184.333 54.2916 185.166 54.6388 186 54.6388C187.875 54.6388 189.402 53.8055 189.889 53.111C189.889 53.111 189.889 53.111 189.958 53.0416C189.958 52.9721 189.958 52.9721 189.958 52.9721C189.541 53.2499 187.527 54.4999 185.444 54.1527C185.444 54.1527 185.166 54.0832 184.958 54.0138C184.75 53.9443 184.402 53.736 184.333 53.3888C185.93 53.8055 186.972 53.3193 186.972 53.3193ZM181 45.6805C181.625 44.9166 182.458 44.2916 183.152 43.8749C183.152 43.8749 183.222 43.8749 183.222 43.9443C183.152 44.0138 183.083 44.2916 183.014 44.4305C183.014 44.4305 183.014 44.4999 183.083 44.4305C183.5 44.1527 184.333 43.8055 185.027 43.736C185.027 43.736 185.097 43.8055 185.027 43.8055C184.889 43.8749 184.819 44.0138 184.75 44.0832V44.1527C185.236 44.1527 185.93 44.2916 186.347 44.5693V44.6388C185.652 44.4999 184.611 44.361 183.43 44.6388C182.389 44.9166 181.625 45.3332 181 45.6805Z" fill="black"/>
<path d="M203.14 48.24C203.68 47.16 204.88 46.4 206.22 46.4C207.24 46.4 208.48 46.78 209.1 48.38C209.74 47.1 210.88 46.4 212.38 46.4C214.76 46.4 215.94 47.94 215.94 50.26V56H214.58V50.82C214.58 48.86 213.92 47.54 212.16 47.54C210.2 47.54 209.5 49.28 209.5 51.02V56H208.14V50.54C208.14 48.72 207.7 47.54 205.88 47.54C204.58 47.54 203.16 48.7 203.16 51.2V56H201.8V48.7C201.8 48.2 201.78 47.28 201.72 46.64H203.02C203.06 47.14 203.1 47.84 203.1 48.24H203.14ZM225.356 50.26V49.96C225.356 48.34 224.476 47.54 222.856 47.54C221.756 47.54 220.736 47.98 220.076 48.64L219.316 47.74C220.076 46.98 221.396 46.4 222.996 46.4C225.016 46.4 226.636 47.52 226.636 49.8V53.9C226.636 54.62 226.696 55.48 226.796 56H225.576C225.496 55.54 225.436 54.98 225.436 54.48H225.396C224.536 55.72 223.496 56.24 221.996 56.24C220.576 56.24 218.756 55.48 218.756 53.4C218.756 50.52 221.936 50.26 225.356 50.26ZM225.356 51.32H224.956C222.736 51.32 220.156 51.56 220.156 53.34C220.156 54.68 221.296 55.12 222.356 55.12C224.276 55.12 225.356 53.68 225.356 52.02V51.32ZM231.52 46.64V56H230.16V46.64H231.52ZM231.8 43.04C231.8 43.6 231.32 44 230.84 44C230.36 44 229.88 43.6 229.88 43.04C229.88 42.48 230.36 42.08 230.84 42.08C231.32 42.08 231.8 42.48 231.8 43.04ZM236.54 40.88V56H235.18V40.88H236.54ZM247.979 48.02L246.919 48.78C246.479 48.06 245.539 47.54 244.519 47.54C242.339 47.54 240.939 49.18 240.939 51.32C240.939 53.44 242.319 55.08 244.499 55.08C245.679 55.08 246.499 54.58 247.039 53.86L248.059 54.62C247.259 55.6 246.119 56.24 244.499 56.24C241.479 56.24 239.499 54.14 239.499 51.32C239.499 48.5 241.479 46.4 244.499 46.4C245.759 46.4 247.179 46.94 247.979 48.02ZM251.579 48.18H251.619C252.119 47.1 253.439 46.4 254.759 46.4C257.139 46.4 258.319 47.94 258.319 50.26V56H256.959V50.82C256.959 48.86 256.379 47.54 254.419 47.54C252.979 47.54 251.579 48.7 251.579 51.2V56H250.219V40.88H251.579V48.18ZM263.219 46.64V56H261.859V46.64H263.219ZM263.499 43.04C263.499 43.6 263.019 44 262.539 44C262.059 44 261.579 43.6 261.579 43.04C261.579 42.48 262.059 42.08 262.539 42.08C263.019 42.08 263.499 42.48 263.499 43.04ZM268.179 48.24C268.719 47.16 269.919 46.4 271.259 46.4C272.279 46.4 273.519 46.78 274.139 48.38C274.779 47.1 275.919 46.4 277.419 46.4C279.799 46.4 280.979 47.94 280.979 50.26V56H279.619V50.82C279.619 48.86 278.959 47.54 277.199 47.54C275.239 47.54 274.539 49.28 274.539 51.02V56H273.179V50.54C273.179 48.72 272.739 47.54 270.919 47.54C269.619 47.54 268.199 48.7 268.199 51.2V56H266.839V48.7C266.839 48.2 266.819 47.28 266.759 46.64H268.059C268.099 47.14 268.139 47.84 268.139 48.24H268.179ZM285.855 54.42V60.8H284.495V46.64H285.855V48.26H285.915C286.695 47.04 288.095 46.4 289.435 46.4C292.355 46.4 294.275 48.56 294.275 51.32C294.275 54.08 292.355 56.24 289.435 56.24C288.095 56.24 286.695 55.58 285.915 54.42H285.855ZM292.835 51.32C292.835 49.24 291.555 47.54 289.295 47.54C287.195 47.54 285.695 49.18 285.695 51.32C285.695 53.46 287.195 55.08 289.295 55.08C291.555 55.08 292.835 53.4 292.835 51.32Z" fill="black"/>
<path d="M344.5 62C351.375 62 357 56.375 357 49.5C357 42.625 351.375 37 344.5 37C337.625 37 332 42.625 332 49.5C332 56.375 337.625 62 344.5 62Z" fill="#D52B1E"/>
<path d="M341.722 54.0833C340.264 53.0417 338.875 51.9306 337.556 50.75C337.07 51.7917 336.653 52.9028 336.236 54.0139C338.32 55.8194 341.167 57.8333 343.111 59.0139C345.611 52.4861 349.5 48.3194 353.25 45.3333C352.764 44.2917 352.139 43.3889 351.306 42.625C347.347 45.6806 344.084 49.6389 341.722 54.0833Z" fill="white"/>
<path d="M376.02 47.14V48.28H373.38V53.74C373.38 55.14 373.96 55.46 374.78 55.46C375.16 55.46 375.6 55.34 375.96 55.16L376.02 56.34C375.54 56.52 375.04 56.62 374.42 56.62C373.42 56.62 372.02 56.18 372.02 54.12V48.28H370.08V47.14H372.02V44.5H373.38V47.14H376.02ZM386.248 56.5H384.948C384.908 56 384.868 55.3 384.868 54.9H384.828C384.308 55.98 382.948 56.74 381.628 56.74C379.248 56.74 378.068 55.2 378.068 52.88V47.14H379.428V52.32C379.428 54.28 380.008 55.6 381.968 55.6C383.408 55.6 384.808 54.44 384.808 51.94V47.14H386.168V54.44C386.168 54.94 386.188 55.86 386.248 56.5ZM389.769 49.2C389.769 48.7 389.749 47.78 389.689 47.14H390.989C391.029 47.64 391.069 48.34 391.069 48.74H391.109C391.629 47.66 392.789 46.9 394.109 46.9C394.449 46.9 394.729 46.92 395.009 47L394.829 48.28C394.669 48.22 394.229 48.16 393.869 48.16C392.429 48.16 391.129 49.2 391.129 51.7V56.5H389.769V49.2ZM398.416 54.92H398.376V56.5H397.016V41.38H398.376V48.76H398.416C399.216 47.54 400.616 46.9 401.956 46.9C404.876 46.9 406.796 49.06 406.796 51.82C406.796 54.58 404.876 56.74 401.956 56.74C400.616 56.74 399.216 56.1 398.416 54.92ZM405.356 51.82C405.356 49.74 404.076 48.04 401.816 48.04C399.716 48.04 398.216 49.68 398.216 51.82C398.216 53.96 399.716 55.58 401.816 55.58C404.076 55.58 405.356 53.9 405.356 51.82ZM419.01 51.82C419.01 54.64 416.93 56.74 414.01 56.74C411.11 56.74 409.03 54.64 409.03 51.82C409.03 49 411.11 46.9 414.01 46.9C416.93 46.9 419.01 49 419.01 51.82ZM417.57 51.82C417.57 49.72 416.19 48.04 414.01 48.04C411.85 48.04 410.47 49.72 410.47 51.82C410.47 53.92 411.85 55.58 414.01 55.58C416.19 55.58 417.57 53.92 417.57 51.82ZM426.157 47.14V48.28H423.517V53.74C423.517 55.14 424.097 55.46 424.917 55.46C425.297 55.46 425.737 55.34 426.097 55.16L426.157 56.34C425.677 56.52 425.177 56.62 424.557 56.62C423.557 56.62 422.157 56.18 422.157 54.12V48.28H420.217V47.14H422.157V44.5H423.517V47.14H426.157ZM434.184 50.76V50.46C434.184 48.84 433.304 48.04 431.684 48.04C430.584 48.04 429.564 48.48 428.904 49.14L428.144 48.24C428.904 47.48 430.224 46.9 431.824 46.9C433.844 46.9 435.464 48.02 435.464 50.3V54.4C435.464 55.12 435.524 55.98 435.624 56.5H434.404C434.324 56.04 434.264 55.48 434.264 54.98H434.224C433.364 56.22 432.324 56.74 430.824 56.74C429.404 56.74 427.584 55.98 427.584 53.9C427.584 51.02 430.764 50.76 434.184 50.76ZM434.184 51.82H433.784C431.564 51.82 428.984 52.06 428.984 53.84C428.984 55.18 430.124 55.62 431.184 55.62C433.104 55.62 434.184 54.18 434.184 52.52V51.82ZM437.488 56.5L441.168 51.66L437.708 47.14H439.448L442.008 50.7L444.568 47.14H446.208L442.808 51.6L446.528 56.5H444.768L441.988 52.6L439.128 56.5H437.488Z" fill="black"/>
</svg>
