<svg width="122" height="122" viewBox="0 0 122 122" fill="none" xmlns="http://www.w3.org/2000/svg">
<path d="M87.86 90.1399C87.9869 85.78 86.7797 81.4853 84.4 77.8299C81.73 73.9999 77.92 72.8899 74.22 70.3899C72.51 69.2299 72.44 66.8199 72.79 64.9499C73.25 62.4899 74.2599 56.7499 75.0199 54.4299C76.166 53.6789 77.1221 52.6719 77.8127 51.4884C78.5034 50.3049 78.9098 48.9772 79 47.6099C79 45.0599 77.8 43.6799 76 42.3699V39.8599C76 31.0599 77.38 20.4199 60.06 20.4199C55.85 20.4199 48.95 21.9399 48.95 26.5799C48.95 26.8499 43.44 25.9199 44.12 39.8599V42.3699C42.3 43.6899 41.12 45.0599 41.12 47.6099C41.1988 48.9685 41.5899 50.2906 42.2628 51.4734C42.9358 52.6563 43.8724 53.668 45 54.4299C45.75 56.7499 46.77 62.4899 47.23 64.9499C47.58 66.8199 47.5 69.2299 45.79 70.3899C42.1 72.8899 38.29 73.9999 35.62 77.8299C33.2402 81.4853 32.033 85.78 32.16 90.1399C39.9955 96.6188 49.8329 100.184 60 100.23C70.1841 100.247 80.0484 96.6742 87.86 90.1399Z" fill="white" stroke="#008481" stroke-width="4" stroke-linecap="round" stroke-linejoin="round"/>
<path d="M52.6599 29C52.6599 29 59.7399 31.48 69.5299 29" stroke="#00C1BF" stroke-width="1.75" stroke-miterlimit="10" stroke-linecap="round"/>
<g style="mix-blend-mode:multiply" opacity="0.2">
<path d="M74.1399 79.2202C74.1403 82.587 73.3211 85.9032 71.7531 88.8824C70.1851 91.8617 67.9153 94.4145 65.1399 96.3202C72.1157 95.4222 78.7314 92.7007 84.3199 88.4302C84.1958 85.3403 83.2312 82.3427 81.5299 79.7602C80.1399 77.7602 78.2599 76.7002 75.8799 75.3802C75.0999 74.9402 74.2999 74.4902 73.4799 73.9902C73.9243 75.6979 74.1461 77.4558 74.1399 79.2202V79.2202Z" fill="#00C1BF"/>
</g>
<path d="M70.8499 74C67.9415 76.8188 64.0502 78.3951 59.9999 78.3951C55.9496 78.3951 52.0583 76.8188 49.1499 74" stroke="#00C1BF" stroke-width="1.75" stroke-miterlimit="10" stroke-linecap="round"/>
</svg>
