<svg width="310" height="37" viewBox="0 0 310 37" fill="none" xmlns="http://www.w3.org/2000/svg">
<rect x="0.5" y="1" width="309" height="35" rx="3.5" fill="white"/>
<rect x="0.5" y="1" width="309" height="35" rx="3.5" stroke="#BABEC5"/>
<path d="M26.0858 25.4165L21.5942 20.9249C22.648 19.5794 23.1494 17.8828 22.9961 16.1807C22.8428 14.4785 22.0464 12.8988 20.7691 11.7632C19.4918 10.6277 17.8297 10.0218 16.1213 10.069C14.4129 10.1161 12.7867 10.8127 11.5739 12.0169C10.3612 13.2211 9.65308 14.8424 9.59388 16.5504C9.53467 18.2584 10.1288 19.9248 11.2553 21.2101C12.3817 22.4954 13.9558 23.3029 15.6568 23.4682C17.3579 23.6336 19.058 23.1442 20.4108 22.0999L24.9025 26.5999C24.98 26.678 25.0721 26.74 25.1737 26.7823C25.2752 26.8246 25.3842 26.8464 25.4942 26.8464C25.6042 26.8464 25.7131 26.8246 25.8146 26.7823C25.9162 26.74 26.0084 26.678 26.0858 26.5999C26.1639 26.5224 26.2259 26.4302 26.2682 26.3287C26.3105 26.2271 26.3323 26.1182 26.3323 26.0082C26.3323 25.8982 26.3105 25.7893 26.2682 25.6877C26.2259 25.5862 26.1639 25.494 26.0858 25.4165V25.4165ZM12.7942 20.3665C12.0955 19.667 11.6198 18.7761 11.4273 17.8064C11.2349 16.8366 11.3342 15.8316 11.7128 14.9183C12.0914 14.005 12.7323 13.2244 13.5544 12.6752C14.3765 12.1261 15.343 11.833 16.3317 11.833C17.3203 11.833 18.2868 12.1261 19.1089 12.6752C19.9311 13.2244 20.5719 14.005 20.9505 14.9183C21.3291 15.8316 21.4285 16.8366 21.236 17.8064C21.0435 18.7761 20.5679 19.667 19.8692 20.3665C19.4048 20.8314 18.8534 21.2002 18.2464 21.4518C17.6394 21.7034 16.9887 21.833 16.3317 21.833C15.6746 21.833 15.024 21.7034 14.417 21.4518C13.81 21.2002 13.2585 20.8314 12.7942 20.3665V20.3665Z" fill="#6B6C72"/>
<path d="M43.112 14.47L42.132 15.422C41.74 14.876 41.026 14.498 40.2 14.498C39.304 14.498 38.268 14.988 38.268 16.108C38.268 17.186 39.178 17.48 40.298 17.844C41.628 18.264 43.21 18.768 43.21 20.742C43.21 22.8 41.544 23.752 39.78 23.752C38.534 23.752 37.274 23.262 36.518 22.31L37.596 21.4C38.058 22.086 38.898 22.562 39.808 22.562C40.732 22.562 41.796 22.044 41.796 20.868C41.796 19.664 40.704 19.342 39.444 18.95C38.184 18.558 36.868 17.984 36.868 16.164C36.868 14.19 38.632 13.336 40.27 13.336C41.418 13.336 42.496 13.784 43.112 14.47ZM46.0147 19.594H49.9627C49.9347 18.544 49.3187 17.718 48.1007 17.718C46.9667 17.718 46.0987 18.558 46.0147 19.594ZM51.2927 20.126C51.2927 20.266 51.2927 20.42 51.2787 20.574H46.0147C46.0567 21.708 47.0087 22.59 48.1707 22.59C49.0667 22.59 49.7247 22.142 50.1027 21.582L51.0267 22.324C50.3127 23.248 49.3467 23.682 48.1707 23.682C46.1547 23.682 44.6707 22.282 44.6707 20.196C44.6707 18.124 46.1547 16.682 48.1007 16.682C50.0607 16.682 51.2927 18.012 51.2927 20.126ZM57.1781 19.384V19.202C57.1781 18.222 56.5201 17.746 55.5401 17.746C54.7981 17.746 54.0981 18.068 53.6501 18.516L52.9501 17.676C53.5941 17.06 54.5881 16.682 55.6661 16.682C57.5701 16.682 58.4381 17.816 58.4381 19.286V22.184C58.4381 22.632 58.4661 23.178 58.5361 23.5H57.3461C57.2761 23.206 57.2341 22.856 57.2341 22.548H57.1921C56.7161 23.262 55.9601 23.668 54.9661 23.668C53.9161 23.668 52.5581 23.15 52.5581 21.624C52.5581 19.622 54.9381 19.384 57.1781 19.384ZM57.1781 20.336H56.8561C55.5541 20.336 53.9021 20.476 53.9021 21.596C53.9021 22.38 54.6021 22.632 55.2601 22.632C56.4921 22.632 57.1781 21.806 57.1781 20.686V20.336ZM60.636 18.292C60.636 17.942 60.622 17.298 60.58 16.864H61.826C61.854 17.2 61.882 17.704 61.882 17.984H61.924C62.288 17.214 63.058 16.682 63.954 16.682C64.136 16.682 64.318 16.696 64.472 16.738L64.416 17.956C64.248 17.914 64.024 17.886 63.814 17.886C62.554 17.886 61.952 18.908 61.952 20.014V23.5H60.636V18.292ZM71.0621 17.774L70.1101 18.544C69.8301 18.11 69.2141 17.788 68.5841 17.788C67.2121 17.788 66.4141 18.908 66.4141 20.182C66.4141 21.442 67.2121 22.576 68.5981 22.576C69.2701 22.576 69.8441 22.296 70.1941 21.848L71.0761 22.646C70.5161 23.29 69.6621 23.682 68.5981 23.682C66.5541 23.682 65.0281 22.296 65.0281 20.182C65.0281 18.096 66.5401 16.682 68.5701 16.682C69.5081 16.682 70.5161 17.06 71.0621 17.774ZM73.7241 17.872H73.7521C74.0601 17.214 74.9001 16.682 75.8521 16.682C77.5601 16.682 78.3301 17.9 78.3301 19.384V23.5H77.0141V19.832C77.0141 18.754 76.7341 17.802 75.5161 17.802C74.4801 17.802 73.7241 18.67 73.7241 19.986V23.5H72.4081V12.916H73.7241V17.872ZM87.1779 16.864V17.942H85.6379V23.5H84.3219V17.942H83.0059V16.864H84.3219V15.478C84.3219 13.924 85.0079 12.748 86.7999 12.748C87.1079 12.748 87.3739 12.776 87.6259 12.846L87.4719 13.98C87.2759 13.924 87.0659 13.882 86.8139 13.882C85.8199 13.882 85.6379 14.666 85.6379 15.478V16.864H87.1779ZM95.1099 20.168C95.1099 22.212 93.5559 23.682 91.5259 23.682C89.4959 23.682 87.9559 22.212 87.9559 20.168C87.9559 18.124 89.4959 16.682 91.5259 16.682C93.5559 16.682 95.1099 18.124 95.1099 20.168ZM93.7379 20.168C93.7379 18.908 92.9539 17.774 91.5259 17.774C90.1119 17.774 89.3139 18.908 89.3139 20.168C89.3139 21.428 90.1119 22.576 91.5259 22.576C92.9539 22.576 93.7379 21.428 93.7379 20.168ZM96.9348 18.292C96.9348 17.942 96.9208 17.298 96.8788 16.864H98.1248C98.1528 17.2 98.1808 17.704 98.1808 17.984H98.2228C98.5868 17.214 99.3568 16.682 100.253 16.682C100.435 16.682 100.617 16.696 100.771 16.738L100.715 17.956C100.547 17.914 100.323 17.886 100.113 17.886C98.8528 17.886 98.2508 18.908 98.2508 20.014V23.5H96.9348V18.292ZM108.755 16.864V17.942H106.991V21.4C106.991 22.198 107.271 22.52 107.929 22.52C108.167 22.52 108.475 22.464 108.699 22.352L108.741 23.43C108.433 23.542 108.027 23.612 107.621 23.612C106.375 23.612 105.689 22.912 105.689 21.54V17.942H104.415V16.864H105.689V14.96H106.991V16.864H108.755ZM110.114 18.292C110.114 17.942 110.1 17.298 110.058 16.864H111.304C111.332 17.2 111.36 17.704 111.36 17.984H111.402C111.766 17.214 112.536 16.682 113.432 16.682C113.614 16.682 113.796 16.696 113.95 16.738L113.894 17.956C113.726 17.914 113.502 17.886 113.292 17.886C112.032 17.886 111.43 18.908 111.43 20.014V23.5H110.114V18.292ZM119.139 19.384V19.202C119.139 18.222 118.481 17.746 117.501 17.746C116.759 17.746 116.059 18.068 115.611 18.516L114.911 17.676C115.555 17.06 116.549 16.682 117.627 16.682C119.531 16.682 120.399 17.816 120.399 19.286V22.184C120.399 22.632 120.427 23.178 120.497 23.5H119.307C119.237 23.206 119.195 22.856 119.195 22.548H119.153C118.677 23.262 117.921 23.668 116.927 23.668C115.877 23.668 114.519 23.15 114.519 21.624C114.519 19.622 116.899 19.384 119.139 19.384ZM119.139 20.336H118.817C117.515 20.336 115.863 20.476 115.863 21.596C115.863 22.38 116.563 22.632 117.221 22.632C118.453 22.632 119.139 21.806 119.139 20.686V20.336ZM122.541 16.864H123.787C123.815 17.2 123.843 17.676 123.843 17.956H123.885C124.207 17.242 125.089 16.682 126.041 16.682C127.749 16.682 128.519 17.9 128.519 19.384V23.5H127.203V19.818C127.203 18.74 126.909 17.788 125.691 17.788C124.655 17.788 123.913 18.656 123.913 19.972V23.5H122.597V18.292C122.597 17.942 122.583 17.298 122.541 16.864ZM135.239 17.774L134.329 18.544C134.035 18.068 133.461 17.718 132.789 17.718C132.187 17.718 131.557 17.956 131.557 18.586C131.557 19.146 132.061 19.356 133.069 19.58C134.329 19.86 135.295 20.378 135.295 21.54C135.295 23.108 133.993 23.682 132.649 23.682C131.641 23.682 130.605 23.29 129.975 22.492L130.913 21.694C131.263 22.212 131.935 22.618 132.677 22.618C133.335 22.618 133.993 22.38 133.993 21.652C133.993 21.036 133.391 20.812 132.257 20.546C131.375 20.336 130.325 19.958 130.325 18.712C130.325 17.284 131.571 16.682 132.831 16.682C133.769 16.682 134.763 17.06 135.239 17.774ZM141.096 19.384V19.202C141.096 18.222 140.438 17.746 139.458 17.746C138.716 17.746 138.016 18.068 137.568 18.516L136.868 17.676C137.512 17.06 138.506 16.682 139.584 16.682C141.488 16.682 142.356 17.816 142.356 19.286V22.184C142.356 22.632 142.384 23.178 142.454 23.5H141.264C141.194 23.206 141.152 22.856 141.152 22.548H141.11C140.634 23.262 139.878 23.668 138.884 23.668C137.834 23.668 136.476 23.15 136.476 21.624C136.476 19.622 138.856 19.384 141.096 19.384ZM141.096 20.336H140.774C139.472 20.336 137.82 20.476 137.82 21.596C137.82 22.38 138.52 22.632 139.178 22.632C140.41 22.632 141.096 21.806 141.096 20.686V20.336ZM150.154 17.774L149.202 18.544C148.922 18.11 148.306 17.788 147.676 17.788C146.304 17.788 145.506 18.908 145.506 20.182C145.506 21.442 146.304 22.576 147.69 22.576C148.362 22.576 148.936 22.296 149.286 21.848L150.168 22.646C149.608 23.29 148.754 23.682 147.69 23.682C145.646 23.682 144.12 22.296 144.12 20.182C144.12 18.096 145.632 16.682 147.662 16.682C148.6 16.682 149.608 17.06 150.154 17.774ZM154.72 16.864V17.942H152.956V21.4C152.956 22.198 153.236 22.52 153.894 22.52C154.132 22.52 154.44 22.464 154.664 22.352L154.706 23.43C154.398 23.542 153.992 23.612 153.586 23.612C152.34 23.612 151.654 22.912 151.654 21.54V17.942H150.38V16.864H151.654V14.96H152.956V16.864H154.72ZM157.409 16.864V23.5H156.093V16.864H157.409ZM157.633 14.47C157.633 14.946 157.227 15.31 156.751 15.31C156.275 15.31 155.883 14.932 155.883 14.47C155.883 13.994 156.275 13.616 156.751 13.616C157.227 13.616 157.633 13.98 157.633 14.47ZM166.422 20.168C166.422 22.212 164.868 23.682 162.838 23.682C160.808 23.682 159.268 22.212 159.268 20.168C159.268 18.124 160.808 16.682 162.838 16.682C164.868 16.682 166.422 18.124 166.422 20.168ZM165.05 20.168C165.05 18.908 164.266 17.774 162.838 17.774C161.424 17.774 160.626 18.908 160.626 20.168C160.626 21.428 161.424 22.576 162.838 22.576C164.266 22.576 165.05 21.428 165.05 20.168ZM168.191 16.864H169.437C169.465 17.2 169.493 17.676 169.493 17.956H169.535C169.857 17.242 170.739 16.682 171.691 16.682C173.399 16.682 174.169 17.9 174.169 19.384V23.5H172.853V19.818C172.853 18.74 172.559 17.788 171.341 17.788C170.305 17.788 169.563 18.656 169.563 19.972V23.5H168.247V18.292C168.247 17.942 168.233 17.298 168.191 16.864ZM180.89 17.774L179.98 18.544C179.686 18.068 179.112 17.718 178.44 17.718C177.838 17.718 177.208 17.956 177.208 18.586C177.208 19.146 177.712 19.356 178.72 19.58C179.98 19.86 180.946 20.378 180.946 21.54C180.946 23.108 179.644 23.682 178.3 23.682C177.292 23.682 176.256 23.29 175.626 22.492L176.564 21.694C176.914 22.212 177.586 22.618 178.328 22.618C178.986 22.618 179.644 22.38 179.644 21.652C179.644 21.036 179.042 20.812 177.908 20.546C177.026 20.336 175.976 19.958 175.976 18.712C175.976 17.284 177.222 16.682 178.482 16.682C179.42 16.682 180.414 17.06 180.89 17.774ZM184.24 21.862L183.078 25.362H181.958L182.924 21.862H184.24ZM194.929 17.774L193.977 18.544C193.697 18.11 193.081 17.788 192.451 17.788C191.079 17.788 190.281 18.908 190.281 20.182C190.281 21.442 191.079 22.576 192.465 22.576C193.137 22.576 193.711 22.296 194.061 21.848L194.943 22.646C194.383 23.29 193.529 23.682 192.465 23.682C190.421 23.682 188.895 22.296 188.895 20.182C188.895 18.096 190.407 16.682 192.437 16.682C193.375 16.682 194.383 17.06 194.929 17.774ZM202.967 20.168C202.967 22.212 201.413 23.682 199.383 23.682C197.353 23.682 195.813 22.212 195.813 20.168C195.813 18.124 197.353 16.682 199.383 16.682C201.413 16.682 202.967 18.124 202.967 20.168ZM201.595 20.168C201.595 18.908 200.811 17.774 199.383 17.774C197.969 17.774 197.171 18.908 197.171 20.168C197.171 21.428 197.969 22.576 199.383 22.576C200.811 22.576 201.595 21.428 201.595 20.168ZM204.736 16.864H205.982C206.01 17.2 206.038 17.676 206.038 17.956H206.08C206.402 17.242 207.284 16.682 208.236 16.682C209.944 16.682 210.714 17.9 210.714 19.384V23.5H209.398V19.818C209.398 18.74 209.104 17.788 207.886 17.788C206.85 17.788 206.108 18.656 206.108 19.972V23.5H204.792V18.292C204.792 17.942 204.778 17.298 204.736 16.864ZM216.189 16.864V17.942H214.425V21.4C214.425 22.198 214.705 22.52 215.363 22.52C215.601 22.52 215.909 22.464 216.133 22.352L216.175 23.43C215.867 23.542 215.461 23.612 215.055 23.612C213.809 23.612 213.123 22.912 213.123 21.54V17.942H211.849V16.864H213.123V14.96H214.425V16.864H216.189ZM221.678 19.384V19.202C221.678 18.222 221.02 17.746 220.04 17.746C219.298 17.746 218.598 18.068 218.15 18.516L217.45 17.676C218.094 17.06 219.088 16.682 220.166 16.682C222.07 16.682 222.938 17.816 222.938 19.286V22.184C222.938 22.632 222.966 23.178 223.036 23.5H221.846C221.776 23.206 221.734 22.856 221.734 22.548H221.692C221.216 23.262 220.46 23.668 219.466 23.668C218.416 23.668 217.058 23.15 217.058 21.624C217.058 19.622 219.438 19.384 221.678 19.384ZM221.678 20.336H221.356C220.054 20.336 218.402 20.476 218.402 21.596C218.402 22.38 219.102 22.632 219.76 22.632C220.992 22.632 221.678 21.806 221.678 20.686V20.336ZM230.736 17.774L229.784 18.544C229.504 18.11 228.888 17.788 228.258 17.788C226.886 17.788 226.088 18.908 226.088 20.182C226.088 21.442 226.886 22.576 228.272 22.576C228.944 22.576 229.518 22.296 229.868 21.848L230.75 22.646C230.19 23.29 229.336 23.682 228.272 23.682C226.228 23.682 224.702 22.296 224.702 20.182C224.702 18.096 226.214 16.682 228.244 16.682C229.182 16.682 230.19 17.06 230.736 17.774ZM235.302 16.864V17.942H233.538V21.4C233.538 22.198 233.818 22.52 234.476 22.52C234.714 22.52 235.022 22.464 235.246 22.352L235.288 23.43C234.98 23.542 234.574 23.612 234.168 23.612C232.922 23.612 232.236 22.912 232.236 21.54V17.942H230.962V16.864H232.236V14.96H233.538V16.864H235.302ZM241.155 17.774L240.245 18.544C239.951 18.068 239.377 17.718 238.705 17.718C238.103 17.718 237.473 17.956 237.473 18.586C237.473 19.146 237.977 19.356 238.985 19.58C240.245 19.86 241.211 20.378 241.211 21.54C241.211 23.108 239.909 23.682 238.565 23.682C237.557 23.682 236.521 23.29 235.891 22.492L236.829 21.694C237.179 22.212 237.851 22.618 238.593 22.618C239.251 22.618 239.909 22.38 239.909 21.652C239.909 21.036 239.307 20.812 238.173 20.546C237.291 20.336 236.241 19.958 236.241 18.712C236.241 17.284 237.487 16.682 238.747 16.682C239.685 16.682 240.679 17.06 241.155 17.774ZM244.506 21.862L243.344 25.362H242.224L243.19 21.862H244.506ZM249.595 18.292C249.595 17.942 249.581 17.298 249.539 16.864H250.785C250.813 17.2 250.841 17.704 250.841 17.984H250.883C251.247 17.214 252.017 16.682 252.913 16.682C253.095 16.682 253.277 16.696 253.431 16.738L253.375 17.956C253.207 17.914 252.983 17.886 252.773 17.886C251.513 17.886 250.911 18.908 250.911 20.014V23.5H249.595V18.292ZM255.331 19.594H259.279C259.251 18.544 258.635 17.718 257.417 17.718C256.283 17.718 255.415 18.558 255.331 19.594ZM260.609 20.126C260.609 20.266 260.609 20.42 260.595 20.574H255.331C255.373 21.708 256.325 22.59 257.487 22.59C258.383 22.59 259.041 22.142 259.419 21.582L260.343 22.324C259.629 23.248 258.663 23.682 257.487 23.682C255.471 23.682 253.987 22.282 253.987 20.196C253.987 18.124 255.471 16.682 257.417 16.682C259.377 16.682 260.609 18.012 260.609 20.126ZM263.763 22.506V26.86H262.447V16.864H263.735V17.9H263.777C264.211 17.2 265.079 16.682 266.171 16.682C268.145 16.682 269.489 18.208 269.489 20.168C269.489 22.114 268.187 23.682 266.143 23.682C265.205 23.682 264.295 23.248 263.805 22.506H263.763ZM268.131 20.168C268.131 18.922 267.361 17.774 265.919 17.774C264.575 17.774 263.679 18.908 263.679 20.182C263.679 21.456 264.575 22.576 265.919 22.576C267.361 22.576 268.131 21.414 268.131 20.168ZM278.04 20.168C278.04 22.212 276.486 23.682 274.456 23.682C272.426 23.682 270.886 22.212 270.886 20.168C270.886 18.124 272.426 16.682 274.456 16.682C276.486 16.682 278.04 18.124 278.04 20.168ZM276.668 20.168C276.668 18.908 275.884 17.774 274.456 17.774C273.042 17.774 272.244 18.908 272.244 20.168C272.244 21.428 273.042 22.576 274.456 22.576C275.884 22.576 276.668 21.428 276.668 20.168ZM279.864 18.292C279.864 17.942 279.85 17.298 279.808 16.864H281.054C281.082 17.2 281.11 17.704 281.11 17.984H281.152C281.516 17.214 282.286 16.682 283.182 16.682C283.364 16.682 283.546 16.696 283.7 16.738L283.644 17.956C283.476 17.914 283.252 17.886 283.042 17.886C281.782 17.886 281.18 18.908 281.18 20.014V23.5H279.864V18.292ZM288.021 16.864V17.942H286.257V21.4C286.257 22.198 286.537 22.52 287.195 22.52C287.433 22.52 287.741 22.464 287.965 22.352L288.007 23.43C287.699 23.542 287.293 23.612 286.887 23.612C285.641 23.612 284.955 22.912 284.955 21.54V17.942H283.681V16.864H284.955V14.96H286.257V16.864H288.021ZM289.464 22.52C289.464 21.918 289.968 21.428 290.584 21.428C291.186 21.428 291.704 21.89 291.704 22.492C291.704 23.094 291.2 23.584 290.584 23.584C289.996 23.584 289.464 23.122 289.464 22.52ZM294.126 22.52C294.126 21.918 294.63 21.428 295.246 21.428C295.848 21.428 296.366 21.89 296.366 22.492C296.366 23.094 295.862 23.584 295.246 23.584C294.658 23.584 294.126 23.122 294.126 22.52ZM298.788 22.52C298.788 21.918 299.292 21.428 299.908 21.428C300.51 21.428 301.028 21.89 301.028 22.492C301.028 23.094 300.524 23.584 299.908 23.584C299.32 23.584 298.788 23.122 298.788 22.52Z" fill="#8D9096"/>
</svg>
