<svg width="220" height="484" viewBox="0 0 220 484" fill="none" xmlns="http://www.w3.org/2000/svg">
<path d="M171.393 36.7374C171.393 36.422 171.124 36.3072 170.848 36.3072H170.332V37.7755H170.596V37.1619H170.785L171.13 37.7755H171.451L171.055 37.1331C171.261 37.0872 171.393 36.9496 171.393 36.7374ZM170.596 36.9496V36.5308H170.837C170.975 36.5308 171.13 36.5711 171.13 36.7316C171.13 36.9094 170.957 36.9496 170.808 36.9496H170.596ZM170.843 35.7451C170.12 35.7451 169.535 36.3245 169.535 37.0471C169.535 37.7698 170.12 38.3376 170.843 38.3376C171.565 38.3376 172.15 37.7698 172.15 37.0471C172.15 36.3245 171.565 35.7451 170.843 35.7451ZM170.843 38.1483C170.235 38.1483 169.741 37.6493 169.741 37.0471C169.741 36.4391 170.235 35.9459 170.843 35.9459C171.451 35.9459 171.944 36.4391 171.944 37.0471C171.944 37.6493 171.451 38.1483 170.843 38.1483Z" fill="white"/>
<path d="M86.7158 35.6841C84.803 35.6841 83.8385 33.9749 83.8385 32.3224C83.8385 30.6699 84.8849 29.0334 86.624 29.0334C87.4385 29.0334 88.4681 29.4419 88.8721 30.0162L90.8972 27.9986C89.917 26.9658 88.3546 26.3492 86.624 26.3492C83.1021 26.3492 80.546 28.8767 80.546 32.3587C80.546 35.8972 83.0736 38.3683 86.6927 38.3683C88.4149 38.3683 90.0063 37.8642 90.9498 36.8498L88.9803 34.7361C88.5253 35.2901 87.5715 35.6841 86.7158 35.6841ZM75.3905 38.0479H78.5324V26.6695H75.3905V38.0479ZM69.6772 32.9078C69.6772 34.2449 68.8057 35.6841 67.1813 35.6841C65.929 35.6841 65.2603 34.7909 65.2603 32.9537V26.6695H62.1184V33.7315C62.1184 36.0812 63.2909 38.3683 66.4263 38.3683C67.905 38.3683 69.1435 37.2044 69.7676 36.3452H69.8146V38.0479H72.8191V26.6695H69.6772V32.9078V32.9078ZM56.4501 28.1142H56.3805C55.9366 27.6233 54.7341 26.3492 52.7816 26.3492C49.578 26.3492 47.1094 28.8574 47.1094 32.3131C47.1094 35.8217 49.3874 38.3683 52.6309 38.3683C54.1036 38.3683 55.4869 37.5879 56.2888 36.6802H56.3355V43.651H59.4774V26.6695H56.4501V28.1142V28.1142ZM53.3994 35.6841C51.4566 35.6841 50.352 33.9882 50.352 32.3131C50.352 30.7115 51.3663 28.9877 53.3994 28.9877C55.2696 28.9877 56.427 30.7375 56.427 32.3587C56.427 33.9932 55.2946 35.6841 53.3994 35.6841ZM124.967 26.3492C121.392 26.3492 118.797 28.8574 118.797 32.3131C118.797 35.889 121.45 38.3989 124.967 38.3989C128.484 38.3989 131.136 35.865 131.136 32.3131C131.136 28.8574 128.542 26.3492 124.967 26.3492ZM124.967 35.6841C122.918 35.6841 121.985 33.9367 121.985 32.3131C121.985 30.7115 122.918 28.9877 124.967 28.9877C127.016 28.9877 127.949 30.7115 127.949 32.3131C127.949 33.9367 127.016 35.6841 124.967 35.6841ZM164.248 31.0447C162.631 30.6588 162.061 30.4511 162.061 29.7962C162.061 28.8933 163.205 28.6952 163.723 28.6952C164.698 28.6952 165.799 29.2774 166.214 29.8301L168.066 28.0526C167.209 26.9764 165.525 26.3492 163.746 26.3492C161.472 26.3492 159.084 27.4929 159.084 30.0479C159.084 32.2418 160.804 32.9038 162.486 33.3069C164.26 33.7198 164.893 34.0217 164.893 34.7361C164.893 35.7891 163.698 35.9611 163.286 35.9611C162.259 35.9611 161.067 35.3726 160.425 34.61L158.518 36.5435C159.56 37.6991 161.343 38.3944 163.172 38.3944C166.244 38.3944 168.066 36.9301 168.066 34.5139C168.066 32.2021 165.835 31.425 164.248 31.0447ZM158.308 26.6695H154.256L150.199 31.3909H150.13V20.3994H146.988V38.0479H150.13V32.4358H150.199L154.408 38.0479H158.543L153.651 31.8297L158.308 26.6695ZM111.717 26.3492C110.28 26.3492 109.221 26.9774 108.222 27.9141H108.163V20.3994H105.021V38.0479H108.026V36.4396H108.073C108.781 37.6015 110.189 38.3683 111.648 38.3683C114.892 38.3683 117.35 35.8217 117.35 32.3131C117.35 28.8574 114.921 26.3492 111.717 26.3492ZM111.099 35.6841C109.204 35.6841 108.071 33.9932 108.071 32.3587C108.071 30.7375 109.229 28.9877 111.099 28.9877C113.132 28.9877 114.144 30.7115 114.144 32.3131C114.144 33.9882 113.042 35.6841 111.099 35.6841ZM103.839 26.6695H99.787L95.7303 31.3909H95.6605V20.3994H92.5186V38.0479H95.6605V32.4358H95.7304L99.939 38.0479H104.074L99.1824 31.8297L103.839 26.6695ZM138.773 26.3492C135.198 26.3492 132.604 28.8574 132.604 32.3131C132.604 35.889 135.256 38.3989 138.773 38.3989C142.29 38.3989 144.943 35.865 144.943 32.3131C144.943 28.8574 142.348 26.3492 138.773 26.3492ZM138.773 35.6841C136.724 35.6841 135.791 33.9367 135.791 32.3131C135.791 30.7115 136.724 28.9877 138.773 28.9877C140.822 28.9877 141.755 30.7115 141.755 32.3131C141.755 33.9367 140.822 35.6841 138.773 35.6841Z" fill="white"/>
<path fill-rule="evenodd" clip-rule="evenodd" d="M66.3018 20.8322C66.3018 21.5902 65.8748 22.3722 64.9748 22.3722C64.0628 22.3722 63.9088 21.5312 63.9088 20.8552V17.7052H62.4878V21.2582C62.4878 22.4192 63.1028 23.5562 64.5848 23.5562C65.4258 23.5562 66.1008 23.0472 66.3488 22.4782H66.3728V23.3912H67.7228V17.7052H66.3018V20.8322ZM56.8878 18.9602H58.4828V23.3912H59.9038V18.9602H61.4978V17.7012H56.8878V18.9602ZM69.1788 23.3912H70.5998V17.7052H69.1788V23.3912ZM71.5958 17.7012V18.9602H73.1898V23.3912H74.6118V18.9602H76.2058V17.7012H71.5958ZM73.9008 16.9602C74.3748 16.9602 74.7598 16.5752 74.7598 16.1012C74.7598 15.6262 74.3748 15.2422 73.9008 15.2422C73.4268 15.2422 73.0418 15.6262 73.0418 16.1012C73.0418 16.5752 73.4268 16.9602 73.9008 16.9602ZM59.1928 16.9602C59.6678 16.9602 60.0518 16.5752 60.0518 16.1012C60.0518 15.6262 59.6678 15.2422 59.1928 15.2422C58.7188 15.2422 58.3338 15.6262 58.3338 16.1012C58.3338 16.5752 58.7188 16.9602 59.1928 16.9602ZM48.0508 23.3912H49.4718V17.7052H48.0508V23.3912ZM54.0678 17.5392C53.2268 17.5392 52.5508 18.0482 52.3018 18.6172H52.2788V17.7052H50.9288V23.3912H52.3498V20.2632C52.3498 19.5052 52.7768 18.7232 53.6768 18.7232C54.5888 18.7232 54.7428 19.5642 54.7428 20.2392V23.3912H56.1638V19.8372C56.1638 18.6762 55.5488 17.5392 54.0678 17.5392Z" fill="white"/>
<path d="M30 40C37.1797 40 43 34.1797 43 27C43 19.8203 37.1797 14 30 14C22.8203 14 17 19.8203 17 27C17 34.1797 22.8203 40 30 40Z" fill="#2CA01C"/>
<path d="M20.6094 27C20.6094 29.792 22.8728 32.0555 25.6649 32.0555H26.3872V30.1777H25.6649C23.9127 30.1777 22.4872 28.7522 22.4872 27C22.4872 25.2477 23.9127 23.8222 25.6649 23.8222H27.4005C27.4005 23.8222 27.4005 33.4586 27.4005 33.6444C27.4005 34.6814 28.2412 35.5222 29.2782 35.5222V21.9444C29.2782 21.9444 27.335 21.9444 25.6649 21.9444C22.8728 21.9444 20.6094 24.2079 20.6094 27ZM34.3342 21.9452H33.612V23.823H34.3342C36.0864 23.823 37.512 25.2485 37.512 27.0007C37.512 28.753 36.0864 30.1785 34.3342 30.1785H32.5987C32.5987 30.1785 32.5987 20.5421 32.5987 20.3563C32.5987 19.3192 31.7579 18.4785 30.7209 18.4785V32.0562C30.7209 32.0562 32.6641 32.0562 34.3342 32.0562C37.1263 32.0562 39.3898 29.7927 39.3898 27.0007C39.3898 24.2086 37.1263 21.9452 34.3342 21.9452Z" fill="white"/>
<rect x="21" y="79" width="178" height="22" rx="11" stroke="white" stroke-width="2"/>
<path d="M99.6562 89.351L95.6562 89.3464L95.6609 85.3464C95.6609 85.1695 95.5907 85 95.4657 84.8749C95.3406 84.7499 95.1711 84.6797 94.9942 84.6797C94.8174 84.6797 94.6479 84.7499 94.5228 84.8749C94.3978 85 94.3276 85.1695 94.3276 85.3464L94.3229 89.3464L90.3229 89.341C90.1461 89.341 89.9765 89.4113 89.8515 89.5363C89.7265 89.6613 89.6562 89.8309 89.6562 90.0077C89.6562 90.1845 89.7265 90.3541 89.8515 90.4791C89.9765 90.6041 90.1461 90.6744 90.3229 90.6744L94.3229 90.6797L94.3176 94.6797C94.3176 94.8565 94.3878 95.0261 94.5128 95.1511C94.6379 95.2761 94.8074 95.3464 94.9843 95.3464C95.1611 95.3464 95.3306 95.2761 95.4557 95.1511C95.5807 95.0261 95.6509 94.8565 95.6509 94.6797L95.6562 90.6797L99.6562 90.6844C99.8331 90.6844 100.003 90.6141 100.128 90.4891C100.253 90.3641 100.323 90.1945 100.323 90.0177C100.323 89.8409 100.253 89.6713 100.128 89.5463C100.003 89.4213 99.8331 89.351 99.6562 89.351Z" fill="white"/>
<path d="M107.987 94V85.504H109.991L113.939 91.864H113.963V85.504H115.475V94H113.555L109.523 87.436H109.499V94H107.987ZM118.382 90.544H121.334C121.334 89.8 120.914 89.152 119.978 89.152C119.126 89.152 118.442 89.74 118.382 90.544ZM122.774 91.192C122.774 91.324 122.774 91.444 122.762 91.576H118.382C118.442 92.392 119.186 92.992 120.026 92.992C120.746 92.992 121.226 92.704 121.55 92.248L122.51 93.016C121.946 93.784 121.13 94.168 120.038 94.168C118.262 94.168 116.942 93.028 116.942 91.156C116.942 89.296 118.25 88.072 119.99 88.072C121.598 88.072 122.774 89.116 122.774 91.192ZM125.357 94L123.353 88.24H124.913L126.113 92.368H126.137L127.373 88.24H128.909L130.157 92.368H130.181L131.405 88.24H132.905L130.913 94H129.449L128.141 89.968H128.117L126.821 94H125.357Z" fill="white"/>
<rect width="220" height="40" transform="translate(0 124)" fill="#282828"/>
<path d="M37.9808 140.833L30.4874 135.822C30.3506 135.731 30.1898 135.683 30.0254 135.683C29.8609 135.683 29.7001 135.731 29.5633 135.822L22.0558 140.81C21.9646 140.871 21.8863 140.948 21.8252 141.039C21.7642 141.13 21.7217 141.232 21.7 141.339C21.6784 141.447 21.6781 141.557 21.6992 141.665C21.7203 141.772 21.7623 141.874 21.8229 141.965C21.8834 142.057 21.9614 142.135 22.0522 142.196C22.1431 142.257 22.245 142.3 22.3523 142.321C22.4596 142.343 22.5701 142.343 22.6775 142.322C22.7849 142.301 22.8871 142.259 22.9783 142.198L23.3316 141.965L23.3149 151.5C23.3149 151.721 23.4027 151.933 23.559 152.089C23.7153 152.246 23.9273 152.333 24.1483 152.333L28.3316 152.342C28.5526 152.342 28.7646 152.254 28.9209 152.098C29.0772 151.941 29.1649 151.729 29.1649 151.508L29.1733 148.167C29.1617 148.051 29.1744 147.934 29.2108 147.823C29.2472 147.712 29.3063 147.611 29.3845 147.524C29.4626 147.438 29.558 147.369 29.6644 147.322C29.7708 147.274 29.886 147.25 30.0024 147.25C30.1189 147.25 30.2341 147.274 30.3405 147.322C30.4469 147.369 30.5423 147.438 30.6204 147.524C30.6986 147.611 30.7577 147.712 30.7941 147.823C30.8305 147.934 30.8432 148.051 30.8316 148.167L30.8233 151.5C30.8233 151.721 30.9111 151.933 31.0674 152.089C31.2236 152.246 31.4356 152.333 31.6566 152.333L35.8316 152.342C36.0505 152.332 36.259 152.246 36.4216 152.099C36.5776 151.943 36.6651 151.731 36.6649 151.51L36.6799 141.969L37.0533 142.219C37.1443 142.28 37.2464 142.322 37.3537 142.344C37.4611 142.365 37.5717 142.365 37.6791 142.344C37.7865 142.323 37.8886 142.281 37.9797 142.22C38.0708 142.159 38.149 142.081 38.2099 141.99C38.2708 141.899 38.3132 141.797 38.3347 141.689C38.3561 141.582 38.3562 141.472 38.3349 141.364C38.3136 141.257 38.2714 141.155 38.2106 141.064C38.1499 140.972 38.0718 140.894 37.9808 140.833V140.833ZM34.9983 150.673L32.4916 150.667L32.4983 148.167C32.4965 147.514 32.2403 146.888 31.7841 146.421C31.3278 145.954 30.7075 145.683 30.0549 145.667H29.9883C29.9753 145.664 29.962 145.664 29.9491 145.667C29.2967 145.684 28.6766 145.954 28.2205 146.421C27.7645 146.888 27.5083 147.514 27.5066 148.167L27.4983 150.673L24.9824 150.667L24.9983 140.856L30.0224 137.517L35.0149 140.856L34.9983 150.673Z" fill="white"/>
<path d="M59.772 143.344H55.978V144.8H58.064V147.32C57.49 147.558 56.832 147.67 56.09 147.67C53.906 147.67 52.562 146.13 52.562 144.016C52.562 141.972 53.92 140.39 56.006 140.39C57.07 140.39 58.036 140.838 58.54 141.398L59.758 140.082C58.96 139.34 57.56 138.836 55.992 138.836C52.94 138.836 50.616 140.838 50.616 144.016C50.616 147.11 52.842 149.252 56.034 149.252C57.588 149.252 58.778 148.958 59.772 148.482V143.344ZM63.1241 144.968C63.1941 144.03 63.9921 143.344 64.9861 143.344C66.0781 143.344 66.5681 144.1 66.5681 144.968H63.1241ZM68.2481 145.724C68.2481 143.302 66.8761 142.084 65.0001 142.084C62.9701 142.084 61.4441 143.512 61.4441 145.682C61.4441 147.866 62.9841 149.196 65.0561 149.196C66.3301 149.196 67.2821 148.748 67.9401 147.852L66.8201 146.956C66.4421 147.488 65.8821 147.824 65.0421 147.824C64.0621 147.824 63.1941 147.124 63.1241 146.172H68.2341C68.2481 146.018 68.2481 145.878 68.2481 145.724ZM70.0852 143.624V146.76C70.0852 148.048 70.4912 149.14 72.2692 149.14C72.6472 149.14 73.0952 149.07 73.3892 148.958L73.3332 147.642C73.1372 147.74 72.8432 147.782 72.6192 147.782C71.8772 147.782 71.7372 147.348 71.7372 146.746V143.624H73.4172V142.28H71.7372V140.334H70.0852V142.28H68.9092V143.624H70.0852ZM78.343 143.624V146.76C78.343 148.048 78.749 149.14 80.527 149.14C80.905 149.14 81.353 149.07 81.647 148.958L81.591 147.642C81.395 147.74 81.101 147.782 80.877 147.782C80.135 147.782 79.995 147.348 79.995 146.746V143.624H81.675V142.28H79.995V140.334H78.343V142.28H77.167V143.624H78.343ZM86.6288 142.084C85.6348 142.084 84.8928 142.658 84.6268 143.218H84.5988V138.416H82.9188V149H84.5988V145.332C84.5988 144.436 85.1168 143.526 86.1808 143.526C87.2588 143.526 87.4268 144.506 87.4268 145.304V149H89.1068V144.8C89.1068 143.428 88.3788 142.084 86.6288 142.084ZM91.0946 149H92.7746V142.28H91.0946V149ZM90.8566 139.998C90.8566 140.53 91.3046 141.006 91.9206 141.006C92.5366 141.006 93.0126 140.572 93.0126 139.998C93.0126 139.424 92.5366 138.99 91.9206 138.99C91.3046 138.99 90.8566 139.466 90.8566 139.998ZM94.8127 149H96.4927V145.304C96.4927 144.408 96.9967 143.484 98.0607 143.484C99.1387 143.484 99.3207 144.478 99.3207 145.276V149H101.001V144.8C101.001 143.428 100.273 142.084 98.5227 142.084C97.5287 142.084 96.7307 142.686 96.4367 143.358H96.4087V142.28H94.8127V149ZM108.197 142.28V143.288H108.169C107.679 142.476 106.797 142.084 105.859 142.084C103.829 142.084 102.569 143.666 102.569 145.612C102.569 147.516 103.871 149.112 105.887 149.112C106.811 149.112 107.595 148.762 108.085 148.104H108.113V148.594C108.113 149.924 107.609 150.904 105.985 150.904C105.145 150.904 104.277 150.568 103.633 149.952L102.667 151.254C103.535 151.968 104.907 152.36 105.999 152.36C108.617 152.36 109.793 150.82 109.793 148.398V142.28H108.197ZM106.209 143.456C107.427 143.456 108.197 144.436 108.197 145.598C108.197 146.718 107.441 147.726 106.195 147.726C104.991 147.726 104.277 146.662 104.277 145.598C104.277 144.408 104.991 143.456 106.209 143.456ZM116.581 143.106C116.035 142.42 115.027 142.084 114.061 142.084C112.731 142.084 111.387 142.728 111.387 144.226C111.387 145.486 112.381 145.892 113.375 146.13C114.397 146.368 114.915 146.536 114.915 147.096C114.915 147.698 114.327 147.894 113.837 147.894C113.109 147.894 112.479 147.53 112.115 147.054L111.009 148.09C111.653 148.804 112.731 149.196 113.767 149.196C115.237 149.196 116.567 148.594 116.567 146.956C116.567 145.64 115.391 145.192 114.397 144.954C113.459 144.73 112.941 144.59 112.941 144.072C112.941 143.54 113.487 143.344 114.019 143.344C114.635 143.344 115.195 143.68 115.489 144.072L116.581 143.106ZM128.36 138.416H126.68V143.134H126.638C126.288 142.7 125.616 142.084 124.384 142.084C122.466 142.084 121.122 143.624 121.122 145.612C121.122 147.572 122.382 149.196 124.426 149.196C125.364 149.196 126.274 148.762 126.736 147.992H126.764V149H128.36V138.416ZM122.83 145.612C122.83 144.562 123.46 143.456 124.762 143.456C125.994 143.456 126.736 144.59 126.736 145.64C126.736 146.69 125.994 147.796 124.762 147.796C123.46 147.796 122.83 146.662 122.83 145.612ZM130.009 145.612C130.009 147.726 131.633 149.196 133.663 149.196C135.693 149.196 137.317 147.726 137.317 145.612C137.317 143.498 135.693 142.084 133.663 142.084C131.633 142.084 130.009 143.498 130.009 145.612ZM131.717 145.612C131.717 144.562 132.333 143.456 133.663 143.456C134.993 143.456 135.609 144.562 135.609 145.612C135.609 146.662 134.993 147.796 133.663 147.796C132.333 147.796 131.717 146.662 131.717 145.612ZM138.946 149H140.626V145.304C140.626 144.408 141.13 143.484 142.194 143.484C143.272 143.484 143.454 144.478 143.454 145.276V149H145.133V144.8C145.133 143.428 144.406 142.084 142.656 142.084C141.662 142.084 140.864 142.686 140.57 143.358H140.542V142.28H138.946V149ZM148.382 144.968C148.452 144.03 149.25 143.344 150.244 143.344C151.336 143.344 151.826 144.1 151.826 144.968H148.382ZM153.506 145.724C153.506 143.302 152.134 142.084 150.258 142.084C148.228 142.084 146.702 143.512 146.702 145.682C146.702 147.866 148.242 149.196 150.314 149.196C151.588 149.196 152.54 148.748 153.198 147.852L152.078 146.956C151.7 147.488 151.14 147.824 150.3 147.824C149.32 147.824 148.452 147.124 148.382 146.172H153.492C153.506 146.018 153.506 145.878 153.506 145.724Z" fill="white"/>
<rect y="124" width="4" height="40" fill="#53B700"/>
<rect width="220" height="40" transform="translate(0 164)" fill="#282828"/>
<path d="M37.4896 190.677L24.1563 190.658C23.9352 190.658 23.7233 190.57 23.567 190.414C23.4107 190.258 23.3229 190.046 23.3229 189.825L23.3421 176.492C23.3421 176.271 23.2543 176.059 23.098 175.902C22.9417 175.746 22.7298 175.658 22.5088 175.658V175.658C22.2877 175.658 22.0758 175.746 21.9195 175.902C21.7632 176.059 21.6754 176.271 21.6754 176.492L21.6562 189.825C21.6562 190.488 21.9196 191.124 22.3885 191.593C22.8573 192.061 23.4932 192.325 24.1563 192.325L37.4896 192.344C37.7106 192.344 37.9226 192.256 38.0788 192.1C38.2351 191.944 38.3229 191.732 38.3229 191.511C38.3229 191.29 38.2351 191.078 38.0788 190.921C37.9226 190.765 37.7106 190.677 37.4896 190.677Z" fill="#8D9096"/>
<path d="M24.5506 189.698C24.6434 189.756 24.7467 189.796 24.8546 189.814C24.9626 189.832 25.0731 189.829 25.1798 189.805C25.2865 189.78 25.3874 189.735 25.4766 189.671C25.5658 189.608 25.6417 189.528 25.6998 189.435L29.2298 183.804L31.0006 186.167C31.0847 186.277 31.1945 186.365 31.3204 186.423C31.4464 186.481 31.5846 186.508 31.7231 186.5C31.8617 186.49 31.9957 186.447 32.113 186.372C32.2303 186.298 32.3272 186.195 32.3948 186.074L35.8715 179.838C36.2422 179.835 36.6014 179.71 36.8934 179.481C37.1853 179.253 37.3936 178.934 37.4856 178.575C37.5777 178.216 37.5485 177.836 37.4026 177.496C37.2566 177.155 37.0021 176.872 36.6786 176.691C36.3552 176.51 35.9809 176.441 35.6141 176.494C35.2473 176.548 34.9085 176.721 34.6505 176.988C34.3925 177.254 34.2298 177.598 34.1876 177.966C34.1454 178.334 34.2262 178.706 34.4173 179.024L31.564 184.141L29.834 181.833C29.7529 181.725 29.6467 181.638 29.5245 181.58C29.4023 181.521 29.2678 181.494 29.1326 181.499C28.9974 181.505 28.8655 181.543 28.7484 181.611C28.6314 181.679 28.5326 181.774 28.4606 181.889L24.2873 188.55C24.17 188.737 24.1319 188.963 24.1812 189.179C24.2306 189.394 24.3635 189.581 24.5506 189.698V189.698Z" fill="#8D9096"/>
<path d="M51.316 189V179.088H54.27C55.782 179.088 57.462 179.634 57.462 181.622C57.462 182.658 56.762 183.512 55.712 183.75V183.778C57 183.918 57.952 184.814 57.952 186.256C57.952 187.908 56.538 189 54.256 189H51.316ZM52.324 179.956V183.428H54.354C55.32 183.428 56.454 183.008 56.454 181.692C56.454 180.432 55.376 179.956 54.074 179.956H52.324ZM52.324 184.254V188.132H54.2C55.656 188.132 56.93 187.586 56.93 186.2C56.93 184.898 55.992 184.254 54.382 184.254H52.324ZM65.8304 189H64.9204C64.8924 188.65 64.8644 188.16 64.8644 187.88H64.8364C64.4724 188.636 63.5204 189.168 62.5964 189.168C60.9304 189.168 60.1044 188.09 60.1044 186.466V182.448H61.0564V186.074C61.0564 187.446 61.4624 188.37 62.8344 188.37C63.8424 188.37 64.8224 187.558 64.8224 185.808V182.448H65.7744V187.558C65.7744 187.908 65.7884 188.552 65.8304 189ZM72.5092 183.456L71.7812 184.002C71.5012 183.456 70.8992 183.078 70.1712 183.078C69.4852 183.078 68.7852 183.372 68.7852 184.1C68.7852 184.716 69.2752 184.996 70.3532 185.22C71.8932 185.542 72.6212 186.116 72.6212 187.138C72.6212 188.636 71.3612 189.168 70.1572 189.168C69.1632 189.168 68.1692 188.776 67.5672 187.894L68.3232 187.334C68.6592 187.908 69.3732 188.356 70.1432 188.356C70.9552 188.356 71.6832 188.062 71.6832 187.208C71.6832 186.522 70.9972 186.242 69.7512 185.948C68.9812 185.766 67.8752 185.43 67.8752 184.184C67.8752 182.854 69.0232 182.28 70.2132 182.28C71.1232 182.28 72.0892 182.714 72.5092 183.456ZM75.4819 182.448V189H74.5299V182.448H75.4819ZM75.6779 179.928C75.6779 180.32 75.3419 180.6 75.0059 180.6C74.6699 180.6 74.3339 180.32 74.3339 179.928C74.3339 179.536 74.6699 179.256 75.0059 179.256C75.3419 179.256 75.6779 179.536 75.6779 179.928ZM77.9599 182.448H78.8699C78.8979 182.798 78.9259 183.288 78.9259 183.568H78.9539C79.3179 182.812 80.2699 182.28 81.1939 182.28C82.8599 182.28 83.6859 183.358 83.6859 184.982V189H82.7339V185.374C82.7339 184.002 82.3279 183.078 80.9559 183.078C79.9479 183.078 78.9679 183.89 78.9679 185.64V189H78.0159V183.89C78.0159 183.54 78.0019 182.896 77.9599 182.448ZM86.6826 185.22H91.1486C91.0926 183.988 90.3366 183.078 88.9786 183.078C87.7046 183.078 86.7666 184.1 86.6826 185.22ZM92.1146 185.528C92.1146 185.654 92.1146 185.808 92.1006 185.976H86.6686C86.6966 187.292 87.7186 188.356 89.0626 188.356C90.0426 188.356 90.7986 187.81 91.1626 187.222L91.8766 187.782C91.1066 188.762 90.1406 189.168 89.0626 189.168C87.1166 189.168 85.6746 187.698 85.6746 185.724C85.6746 183.75 87.1166 182.28 88.9786 182.28C91.0366 182.28 92.1146 183.736 92.1146 185.528ZM98.3763 183.456L97.6483 184.002C97.3683 183.456 96.7663 183.078 96.0383 183.078C95.3523 183.078 94.6523 183.372 94.6523 184.1C94.6523 184.716 95.1423 184.996 96.2203 185.22C97.7603 185.542 98.4883 186.116 98.4883 187.138C98.4883 188.636 97.2283 189.168 96.0243 189.168C95.0303 189.168 94.0363 188.776 93.4343 187.894L94.1903 187.334C94.5263 187.908 95.2403 188.356 96.0103 188.356C96.8223 188.356 97.5503 188.062 97.5503 187.208C97.5503 186.522 96.8643 186.242 95.6183 185.948C94.8483 185.766 93.7423 185.43 93.7423 184.184C93.7423 182.854 94.8903 182.28 96.0803 182.28C96.9903 182.28 97.9563 182.714 98.3763 183.456ZM104.597 183.456L103.869 184.002C103.589 183.456 102.987 183.078 102.259 183.078C101.573 183.078 100.873 183.372 100.873 184.1C100.873 184.716 101.363 184.996 102.441 185.22C103.981 185.542 104.709 186.116 104.709 187.138C104.709 188.636 103.449 189.168 102.245 189.168C101.251 189.168 100.257 188.776 99.655 187.894L100.411 187.334C100.747 187.908 101.461 188.356 102.231 188.356C103.043 188.356 103.771 188.062 103.771 187.208C103.771 186.522 103.085 186.242 101.839 185.948C101.069 185.766 99.963 185.43 99.963 184.184C99.963 182.854 101.111 182.28 102.301 182.28C103.211 182.28 104.177 182.714 104.597 183.456ZM116.614 185.724C116.614 187.698 115.158 189.168 113.114 189.168C111.084 189.168 109.628 187.698 109.628 185.724C109.628 183.75 111.084 182.28 113.114 182.28C115.158 182.28 116.614 183.75 116.614 185.724ZM115.606 185.724C115.606 184.254 114.64 183.078 113.114 183.078C111.602 183.078 110.636 184.254 110.636 185.724C110.636 187.194 111.602 188.356 113.114 188.356C114.64 188.356 115.606 187.194 115.606 185.724ZM124.01 182.448L121.35 189H120.3L117.626 182.448H118.69L120.818 187.992H120.846L122.988 182.448H124.01ZM126.03 185.22H130.496C130.44 183.988 129.684 183.078 128.326 183.078C127.052 183.078 126.114 184.1 126.03 185.22ZM131.462 185.528C131.462 185.654 131.462 185.808 131.448 185.976H126.016C126.044 187.292 127.066 188.356 128.41 188.356C129.39 188.356 130.146 187.81 130.51 187.222L131.224 187.782C130.454 188.762 129.488 189.168 128.41 189.168C126.464 189.168 125.022 187.698 125.022 185.724C125.022 183.75 126.464 182.28 128.326 182.28C130.384 182.28 131.462 183.736 131.462 185.528ZM133.51 183.89C133.51 183.54 133.496 182.896 133.454 182.448H134.364C134.392 182.798 134.42 183.288 134.42 183.568H134.448C134.812 182.812 135.624 182.28 136.548 182.28C136.786 182.28 136.982 182.294 137.178 182.35L137.052 183.246C136.94 183.204 136.632 183.162 136.38 183.162C135.372 183.162 134.462 183.89 134.462 185.64V189H133.51V183.89ZM143.903 182.448L141.243 189H140.193L137.519 182.448H138.583L140.711 187.992H140.739L142.881 182.448H143.903ZM146.357 182.448V189H145.405V182.448H146.357ZM146.553 179.928C146.553 180.32 146.217 180.6 145.881 180.6C145.545 180.6 145.209 180.32 145.209 179.928C145.209 179.536 145.545 179.256 145.881 179.256C146.217 179.256 146.553 179.536 146.553 179.928ZM149.423 185.22H153.889C153.833 183.988 153.077 183.078 151.719 183.078C150.445 183.078 149.507 184.1 149.423 185.22ZM154.855 185.528C154.855 185.654 154.855 185.808 154.841 185.976H149.409C149.437 187.292 150.459 188.356 151.803 188.356C152.783 188.356 153.539 187.81 153.903 187.222L154.617 187.782C153.847 188.762 152.881 189.168 151.803 189.168C149.857 189.168 148.415 187.698 148.415 185.724C148.415 183.75 149.857 182.28 151.719 182.28C153.777 182.28 154.855 183.736 154.855 185.528ZM156.007 182.448H157.029L158.611 187.768H158.639L160.403 182.448H161.327L163.119 187.768H163.147L164.715 182.448H165.723L163.651 189H162.615L160.865 183.694H160.837L159.115 189H158.079L156.007 182.448Z" fill="#D4D7DC"/>
<rect width="220" height="40" transform="translate(0 204)" fill="#282828"/>
<path d="M37.0846 222.334C37.4162 222.334 37.7341 222.202 37.9685 221.967C38.2029 221.733 38.3346 221.415 38.3346 221.084V219.271C38.3347 219.029 38.2645 218.793 38.1327 218.59C38.001 218.387 37.8132 218.227 37.5921 218.129L30.5088 214.979C30.3493 214.909 30.1767 214.872 30.0021 214.872C29.8276 214.872 29.655 214.909 29.4955 214.979L22.4121 218.127C22.1905 218.225 22.0022 218.385 21.8701 218.588C21.738 218.792 21.6678 219.029 21.668 219.271V221.084C21.668 221.415 21.7997 221.733 22.0341 221.967C22.2685 222.202 22.5864 222.334 22.918 222.334H23.3346V228.167H22.918C22.5864 228.167 22.2685 228.299 22.0341 228.533C21.7997 228.767 21.668 229.085 21.668 229.417V231.084C21.668 231.415 21.7997 231.733 22.0341 231.967C22.2685 232.202 22.5864 232.334 22.918 232.334H37.0846C37.4162 232.334 37.7341 232.202 37.9685 231.967C38.2029 231.733 38.3346 231.415 38.3346 231.084V229.417C38.3346 229.085 38.2029 228.767 37.9685 228.533C37.7341 228.299 37.4162 228.167 37.0846 228.167H36.668V222.334H37.0846ZM23.3346 219.542L30.0013 216.579L36.668 219.542V220.667H23.3346V219.542ZM27.5013 228.167V222.334H32.5013V228.167H27.5013ZM25.0013 222.334H25.8346V228.167H25.0013V222.334ZM36.668 230.667H23.3346V229.834H36.668V230.667ZM35.0013 228.167H34.168V222.334H35.0013V228.167Z" fill="#8D9096"/>
<path d="M30.0013 219.834C30.4615 219.834 30.8346 219.461 30.8346 219C30.8346 218.54 30.4615 218.167 30.0013 218.167C29.5411 218.167 29.168 218.54 29.168 219C29.168 219.461 29.5411 219.834 30.0013 219.834Z" fill="#8D9096"/>
<path d="M51.316 229V219.088H54.27C55.782 219.088 57.462 219.634 57.462 221.622C57.462 222.658 56.762 223.512 55.712 223.75V223.778C57 223.918 57.952 224.814 57.952 226.256C57.952 227.908 56.538 229 54.256 229H51.316ZM52.324 219.956V223.428H54.354C55.32 223.428 56.454 223.008 56.454 221.692C56.454 220.432 55.376 219.956 54.074 219.956H52.324ZM52.324 224.254V228.132H54.2C55.656 228.132 56.93 227.586 56.93 226.2C56.93 224.898 55.992 224.254 54.382 224.254H52.324ZM64.2904 224.982V224.772C64.2904 223.638 63.6744 223.078 62.5404 223.078C61.7704 223.078 61.0564 223.386 60.5944 223.848L60.0624 223.218C60.5944 222.686 61.5184 222.28 62.6384 222.28C64.0524 222.28 65.1864 223.064 65.1864 224.66V227.53C65.1864 228.034 65.2284 228.636 65.2984 229H64.4444C64.3884 228.678 64.3464 228.286 64.3464 227.936H64.3184C63.7164 228.804 62.9884 229.168 61.9384 229.168C60.9444 229.168 59.6704 228.636 59.6704 227.18C59.6704 225.164 61.8964 224.982 64.2904 224.982ZM64.2904 225.724H64.0104C62.4564 225.724 60.6504 225.892 60.6504 227.138C60.6504 228.076 61.4484 228.384 62.1904 228.384C63.5344 228.384 64.2904 227.376 64.2904 226.214V225.724ZM67.5829 222.448H68.4929C68.5209 222.798 68.5489 223.288 68.5489 223.568H68.5769C68.9409 222.812 69.8929 222.28 70.8169 222.28C72.4829 222.28 73.3089 223.358 73.3089 224.982V229H72.3569V225.374C72.3569 224.002 71.9509 223.078 70.5789 223.078C69.5709 223.078 68.5909 223.89 68.5909 225.64V229H67.6389V223.89C67.6389 223.54 67.6249 222.896 67.5829 222.448ZM76.7537 218.416V225.402H76.7957L79.8197 222.448H81.1917L77.8877 225.444L81.5277 229H80.1277L76.7957 225.556H76.7537V229H75.8017V218.416H76.7537ZM83.8764 222.448V229H82.9244V222.448H83.8764ZM84.0724 219.928C84.0724 220.32 83.7364 220.6 83.4004 220.6C83.0644 220.6 82.7284 220.32 82.7284 219.928C82.7284 219.536 83.0644 219.256 83.4004 219.256C83.7364 219.256 84.0724 219.536 84.0724 219.928ZM86.3544 222.448H87.2644C87.2924 222.798 87.3204 223.288 87.3204 223.568H87.3484C87.7124 222.812 88.6644 222.28 89.5884 222.28C91.2544 222.28 92.0804 223.358 92.0804 224.982V229H91.1284V225.374C91.1284 224.002 90.7224 223.078 89.3504 223.078C88.3424 223.078 87.3624 223.89 87.3624 225.64V229H86.4104V223.89C86.4104 223.54 86.3964 222.896 86.3544 222.448ZM94.2092 231.044L94.8952 230.316C95.4132 230.988 96.4072 231.52 97.4012 231.52C99.2772 231.52 99.9632 230.358 99.9632 228.944V227.712H99.9352C99.4312 228.524 98.4092 229 97.4572 229C95.4132 229 94.0692 227.586 94.0692 225.668C94.0692 223.806 95.4132 222.28 97.4572 222.28C98.4092 222.28 99.4172 222.742 99.9352 223.582H99.9632V222.448H100.915V228.944C100.915 230.372 100.257 232.36 97.3592 232.36C96.1552 232.36 94.9792 231.856 94.2092 231.044ZM95.0772 225.64C95.0772 227.012 95.9732 228.188 97.5552 228.188C99.0252 228.188 100.075 227.152 100.075 225.64C100.075 224.268 99.0252 223.078 97.5552 223.078C95.9732 223.078 95.0772 224.268 95.0772 225.64Z" fill="#D4D7DC"/>
<rect width="220" height="40" transform="translate(0 244)" fill="#282828"/>
<path d="M37.5013 265.667H37.0846L35.8346 264V258.725C35.834 258.135 35.5993 257.57 35.1822 257.152C34.7651 256.735 34.1995 256.501 33.6096 256.5H23.893C23.3031 256.501 22.7375 256.735 22.3204 257.152C21.9033 257.57 21.6686 258.135 21.668 258.725V265.108C21.6686 265.698 21.9033 266.264 22.3204 266.681C22.7375 267.098 23.3031 267.333 23.893 267.333H24.4863L25.8346 270.03C26.1786 270.724 26.71 271.307 27.3687 271.714C28.0274 272.121 28.787 272.336 29.5613 272.333H37.5013C37.9433 272.333 38.3673 272.158 38.6798 271.845C38.9924 271.533 39.168 271.109 39.168 270.667V267.333C39.168 266.891 38.9924 266.467 38.6798 266.155C38.3673 265.842 37.9433 265.667 37.5013 265.667ZM23.3346 265.108V258.725C23.3349 258.577 23.3938 258.435 23.4984 258.33C23.6031 258.226 23.745 258.167 23.893 258.167H33.6096C33.7576 258.167 33.8995 258.226 34.0042 258.33C34.1089 258.435 34.1677 258.577 34.168 258.725V262.691C33.6431 262.458 33.0756 262.336 32.5013 262.333H31.2238C31.2413 262.195 31.2505 262.056 31.2513 261.917C31.2624 261.194 31.0244 260.489 30.5771 259.921C30.3664 259.636 30.0919 259.405 29.7757 259.245C29.4595 259.086 29.1103 259.002 28.7561 259.002C28.4019 259.002 28.0526 259.084 27.736 259.243C27.4194 259.402 27.1444 259.633 26.933 259.917C26.4823 260.485 26.2416 261.191 26.2513 261.917C26.2393 262.415 26.3511 262.909 26.5766 263.354C26.8022 263.799 27.1345 264.181 27.5438 264.467C27.5001 264.725 27.4973 264.988 27.5355 265.247C27.559 265.39 27.5958 265.529 27.6455 265.664H23.893C23.7454 265.664 23.6039 265.605 23.4993 265.501C23.3947 265.397 23.3355 265.256 23.3346 265.108V265.108ZM28.3455 262.978C28.2036 262.841 28.0922 262.676 28.0186 262.493C27.9449 262.31 27.9106 262.114 27.918 261.917C27.9091 261.573 28.0182 261.236 28.2271 260.962C28.2877 260.878 28.366 260.808 28.4565 260.757C28.5471 260.706 28.6477 260.675 28.7513 260.667C28.8568 260.676 28.9591 260.707 29.051 260.76C29.1429 260.813 29.222 260.885 29.283 260.972C29.4878 261.243 29.5942 261.577 29.5846 261.917C29.5832 262.075 29.5603 262.233 29.5163 262.386C29.0799 262.475 28.6755 262.679 28.3455 262.978V262.978ZM37.5013 270.667H29.5613C29.0968 270.668 28.6411 270.54 28.2459 270.295C27.8508 270.051 27.5319 269.701 27.3255 269.285L26.3496 267.333H31.7596C31.9806 267.333 32.1926 267.246 32.3489 267.089C32.5052 266.933 32.593 266.721 32.593 266.5C32.593 266.279 32.5052 266.067 32.3489 265.911C32.1926 265.754 31.9806 265.667 31.7596 265.667H30.093C29.8854 265.674 29.6816 265.61 29.5158 265.485C29.3499 265.36 29.2321 265.182 29.1821 264.98C29.1607 264.86 29.1658 264.737 29.1971 264.619C29.2283 264.502 29.285 264.392 29.3631 264.299C29.4412 264.205 29.5388 264.13 29.649 264.079C29.7593 264.027 29.8795 264 30.0013 264H32.5013C32.8893 264.001 33.2717 264.092 33.6187 264.265C33.9657 264.439 34.2678 264.69 34.5013 265L36.0013 267C36.0789 267.103 36.1796 267.187 36.2953 267.245C36.411 267.303 36.5386 267.333 36.668 267.333H37.5013V270.667Z" fill="#8D9096"/>
<path d="M59.534 260.166L58.834 260.866C58.148 260.138 57.196 259.718 55.964 259.718C53.416 259.718 51.848 261.734 51.848 264.044C51.848 266.354 53.416 268.356 55.964 268.356C57.084 268.356 58.064 268.09 58.638 267.712V264.702H56.328V263.82H59.646V268.286C58.568 268.93 57.294 269.252 55.95 269.252C52.954 269.252 50.784 267.054 50.784 264.044C50.784 261.034 52.996 258.836 55.95 258.836C57.518 258.836 58.694 259.34 59.534 260.166ZM62.7022 265.22H67.1682C67.1122 263.988 66.3562 263.078 64.9982 263.078C63.7242 263.078 62.7862 264.1 62.7022 265.22ZM68.1342 265.528C68.1342 265.654 68.1342 265.808 68.1202 265.976H62.6882C62.7162 267.292 63.7382 268.356 65.0822 268.356C66.0622 268.356 66.8182 267.81 67.1822 267.222L67.8962 267.782C67.1262 268.762 66.1602 269.168 65.0822 269.168C63.1362 269.168 61.6942 267.698 61.6942 265.724C61.6942 263.75 63.1362 262.28 64.9982 262.28C67.0562 262.28 68.1342 263.736 68.1342 265.528ZM73.1359 262.448V263.246H71.2879V267.068C71.2879 268.048 71.6939 268.272 72.2679 268.272C72.5339 268.272 72.8419 268.188 73.0939 268.062L73.1359 268.888C72.7999 269.014 72.4499 269.084 72.0159 269.084C71.3159 269.084 70.3359 268.776 70.3359 267.334V263.246H68.9779V262.448H70.3359V260.6H71.2879V262.448H73.1359ZM79.0772 267.894V272.36H78.1252V262.448H79.0772V263.582H79.1192C79.6652 262.728 80.6452 262.28 81.5832 262.28C83.6272 262.28 84.9712 263.792 84.9712 265.724C84.9712 267.656 83.6272 269.168 81.5832 269.168C80.6452 269.168 79.6652 268.706 79.1192 267.894H79.0772ZM83.9632 265.724C83.9632 264.268 83.0672 263.078 81.4852 263.078C80.0152 263.078 78.9652 264.226 78.9652 265.724C78.9652 267.222 80.0152 268.356 81.4852 268.356C83.0672 268.356 83.9632 267.18 83.9632 265.724ZM91.142 264.982V264.772C91.142 263.638 90.526 263.078 89.392 263.078C88.622 263.078 87.908 263.386 87.446 263.848L86.914 263.218C87.446 262.686 88.37 262.28 89.49 262.28C90.904 262.28 92.038 263.064 92.038 264.66V267.53C92.038 268.034 92.08 268.636 92.15 269H91.296C91.24 268.678 91.198 268.286 91.198 267.936H91.17C90.568 268.804 89.84 269.168 88.79 269.168C87.796 269.168 86.522 268.636 86.522 267.18C86.522 265.164 88.748 264.982 91.142 264.982ZM91.142 265.724H90.862C89.308 265.724 87.502 265.892 87.502 267.138C87.502 268.076 88.3 268.384 89.042 268.384C90.386 268.384 91.142 267.376 91.142 266.214V265.724ZM95.4565 262.448V269H94.5045V262.448H95.4565ZM95.6525 259.928C95.6525 260.32 95.3165 260.6 94.9805 260.6C94.6445 260.6 94.3085 260.32 94.3085 259.928C94.3085 259.536 94.6445 259.256 94.9805 259.256C95.3165 259.256 95.6525 259.536 95.6525 259.928ZM103.38 267.894C102.82 268.72 101.84 269.168 100.902 269.168C98.8585 269.168 97.5145 267.656 97.5145 265.724C97.5145 263.792 98.8585 262.28 100.902 262.28C101.84 262.28 102.82 262.728 103.38 263.582H103.408V258.416H104.36V269H103.408V267.894H103.38ZM98.5225 265.724C98.5225 267.18 99.4185 268.356 101 268.356C102.47 268.356 103.52 267.222 103.52 265.724C103.52 264.226 102.47 263.078 101 263.078C99.4185 263.078 98.5225 264.268 98.5225 265.724ZM118.371 263.638L116.551 266.704L118.777 269H117.377L115.977 267.53C115.165 268.65 114.269 269.168 112.925 269.168C111.231 269.168 109.831 268.202 109.831 266.424C109.831 264.926 110.825 264.058 112.127 263.484C111.525 262.868 110.923 262.084 110.923 261.174C110.923 259.69 112.029 258.836 113.387 258.836C114.703 258.836 115.781 259.648 115.781 261.062C115.781 262.364 114.661 263.12 113.555 263.666L115.865 266.046L117.237 263.638H118.371ZM114.801 261.062C114.801 260.25 114.199 259.662 113.401 259.662C112.533 259.662 111.903 260.264 111.903 261.188C111.903 261.902 112.603 262.756 112.981 263.064C113.863 262.658 114.801 262.084 114.801 261.062ZM115.305 266.872L112.687 264.128C111.497 264.66 110.867 265.374 110.867 266.438C110.867 267.558 111.805 268.328 112.939 268.328C114.017 268.328 114.675 267.838 115.305 266.872ZM124.714 267.894V272.36H123.762V262.448H124.714V263.582H124.756C125.302 262.728 126.282 262.28 127.22 262.28C129.264 262.28 130.608 263.792 130.608 265.724C130.608 267.656 129.264 269.168 127.22 269.168C126.282 269.168 125.302 268.706 124.756 267.894H124.714ZM129.6 265.724C129.6 264.268 128.704 263.078 127.122 263.078C125.652 263.078 124.602 264.226 124.602 265.724C124.602 267.222 125.652 268.356 127.122 268.356C128.704 268.356 129.6 267.18 129.6 265.724ZM136.779 264.982V264.772C136.779 263.638 136.163 263.078 135.029 263.078C134.259 263.078 133.545 263.386 133.083 263.848L132.551 263.218C133.083 262.686 134.007 262.28 135.127 262.28C136.541 262.28 137.675 263.064 137.675 264.66V267.53C137.675 268.034 137.717 268.636 137.787 269H136.933C136.877 268.678 136.835 268.286 136.835 267.936H136.807C136.205 268.804 135.477 269.168 134.427 269.168C133.433 269.168 132.159 268.636 132.159 267.18C132.159 265.164 134.385 264.982 136.779 264.982ZM136.779 265.724H136.499C134.945 265.724 133.139 265.892 133.139 267.138C133.139 268.076 133.937 268.384 134.679 268.384C136.023 268.384 136.779 267.376 136.779 266.214V265.724ZM140.155 262.448L142.381 267.978H142.409L144.439 262.448H145.475L142.213 270.694C141.821 271.702 141.289 272.36 140.155 272.36C139.875 272.36 139.581 272.332 139.301 272.276L139.399 271.408C139.609 271.478 139.847 271.52 140.099 271.52C140.743 271.52 141.079 271.1 141.359 270.358L141.891 268.986L139.091 262.448H140.155Z" fill="#D4D7DC"/>
<rect width="220" height="40" transform="translate(0 284)" fill="#282828"/>
<path d="M36.7594 298.78C36.741 298.672 36.7014 298.569 36.6428 298.476C36.5842 298.384 36.5078 298.304 36.4181 298.241C36.3283 298.178 36.227 298.133 36.1199 298.11C36.0129 298.087 35.9023 298.085 35.7944 298.104L27.5845 299.552C27.3674 299.591 27.1746 299.714 27.0484 299.895C26.9221 300.076 26.8728 300.3 26.9111 300.517L28.0694 307.083C28.1035 307.276 28.2044 307.451 28.3543 307.577C28.5042 307.703 28.6937 307.772 28.8895 307.772C28.9381 307.772 28.9866 307.767 29.0344 307.758L37.2411 306.312C37.3489 306.293 37.4519 306.253 37.5443 306.194C37.6366 306.135 37.7165 306.059 37.7793 305.969C37.8422 305.88 37.8867 305.779 37.9105 305.672C37.9342 305.565 37.9367 305.455 37.9178 305.347L36.7594 298.78ZM29.5661 305.972L28.6978 301.048L35.2628 299.89L36.1311 304.813L29.5661 305.972Z" fill="#8D9096"/>
<path d="M35.7384 307.89C35.6462 307.766 35.5212 307.67 35.3774 307.612C35.2336 307.555 35.0767 307.539 34.9243 307.566L29.0284 308.605C28.8458 308.284 28.5941 308.007 28.2915 307.794C27.9889 307.582 27.6429 307.439 27.2784 307.376L25.6576 298.199C25.6006 297.876 25.4804 297.567 25.3039 297.29C25.1275 297.013 24.8982 296.774 24.6292 296.586C24.3602 296.397 24.0568 296.264 23.7362 296.193C23.4157 296.122 23.0843 296.115 22.7609 296.172C22.6517 296.189 22.5469 296.228 22.4529 296.287C22.3588 296.345 22.2773 296.421 22.2131 296.511C22.1489 296.602 22.1033 296.704 22.079 296.812C22.0547 296.92 22.0521 297.031 22.0714 297.14C22.0907 297.249 22.1315 297.353 22.1915 297.446C22.2514 297.539 22.3293 297.619 22.4206 297.682C22.5118 297.745 22.6147 297.788 22.723 297.811C22.8314 297.833 22.9432 297.834 23.0518 297.813C23.2692 297.775 23.4929 297.824 23.6737 297.951C23.8544 298.078 23.9775 298.271 24.0159 298.489L25.6343 307.667C25.1533 307.937 24.7757 308.36 24.5604 308.868C24.3452 309.376 24.3046 309.941 24.445 310.474C24.5853 311.008 24.8987 311.48 25.3361 311.816C25.7734 312.153 26.31 312.335 26.8618 312.334C27.0076 312.333 27.1531 312.321 27.2968 312.296C27.8061 312.209 28.2752 311.964 28.6381 311.596C29.0011 311.228 29.2396 310.756 29.3201 310.245L34.7068 309.296L35.5101 310.379C35.6418 310.557 35.8387 310.675 36.0574 310.707C36.2761 310.74 36.4988 310.684 36.6764 310.552C36.8539 310.421 36.9719 310.224 37.0044 310.005C37.0368 309.786 36.981 309.564 36.8493 309.386L35.7384 307.89ZM27.5451 310.312C27.4502 310.446 27.318 310.549 27.1648 310.608C27.0117 310.667 26.8446 310.679 26.6844 310.644C26.5242 310.608 26.378 310.526 26.2643 310.408C26.1506 310.289 26.0743 310.14 26.0451 309.979C26.0068 309.761 26.0564 309.537 26.183 309.356C26.3095 309.175 26.5027 309.052 26.7201 309.014C26.7671 309.005 26.8148 309 26.8626 309C27.0151 309 27.1647 309.042 27.2951 309.121C27.4254 309.2 27.5316 309.314 27.602 309.449C27.6724 309.584 27.7043 309.736 27.6943 309.888C27.6842 310.041 27.6326 310.187 27.5451 310.312Z" fill="#8D9096"/>
<path d="M32.9445 301.145L31.3028 301.434C31.0974 301.47 30.9129 301.581 30.7859 301.747C30.6588 301.912 30.5983 302.119 30.6164 302.327C30.6345 302.535 30.7299 302.728 30.8837 302.869C31.0374 303.01 31.2384 303.088 31.447 303.088C31.4959 303.088 31.5447 303.083 31.5928 303.075L33.2337 302.785C33.3437 302.769 33.4493 302.731 33.5442 302.673C33.6392 302.615 33.7215 302.538 33.7865 302.448C33.8515 302.358 33.8977 302.255 33.9225 302.147C33.9473 302.038 33.9501 301.926 33.9308 301.817C33.9115 301.707 33.8705 301.603 33.8101 301.509C33.7497 301.416 33.6713 301.335 33.5794 301.273C33.4874 301.21 33.3839 301.166 33.2749 301.144C33.1658 301.122 33.0535 301.122 32.9445 301.145V301.145Z" fill="#8D9096"/>
<path d="M58.876 306.9L59.66 307.404C59.002 308.398 57.728 309.252 55.95 309.252C52.954 309.252 50.784 307.054 50.784 304.044C50.784 301.034 52.996 298.836 55.95 298.836C57.406 298.836 58.792 299.438 59.478 300.404L58.638 301.02C58.218 300.376 57.224 299.718 55.964 299.718C53.402 299.718 51.848 301.734 51.848 304.044C51.848 306.354 53.416 308.37 55.964 308.37C57.098 308.37 58.19 307.922 58.876 306.9ZM67.6821 305.724C67.6821 307.698 66.2261 309.168 64.1821 309.168C62.1521 309.168 60.6961 307.698 60.6961 305.724C60.6961 303.75 62.1521 302.28 64.1821 302.28C66.2261 302.28 67.6821 303.75 67.6821 305.724ZM66.6741 305.724C66.6741 304.254 65.7081 303.078 64.1821 303.078C62.6701 303.078 61.7041 304.254 61.7041 305.724C61.7041 307.194 62.6701 308.356 64.1821 308.356C65.7081 308.356 66.6741 307.194 66.6741 305.724ZM70.6687 303.568C71.0467 302.812 71.8867 302.28 72.8247 302.28C73.5387 302.28 74.4067 302.546 74.8407 303.666C75.2887 302.77 76.0867 302.28 77.1367 302.28C78.8027 302.28 79.6287 303.358 79.6287 304.982V309H78.6767V305.374C78.6767 304.002 78.2147 303.078 76.9827 303.078C75.6107 303.078 75.1207 304.296 75.1207 305.514V309H74.1687V305.178C74.1687 303.904 73.8607 303.078 72.5867 303.078C71.6767 303.078 70.6827 303.89 70.6827 305.64V309H69.7307V303.89C69.7307 303.54 69.7167 302.896 69.6747 302.448H70.5847C70.6127 302.798 70.6407 303.288 70.6407 303.568H70.6687ZM83.0281 303.568C83.4061 302.812 84.2461 302.28 85.1841 302.28C85.8981 302.28 86.7661 302.546 87.2001 303.666C87.6481 302.77 88.4461 302.28 89.4961 302.28C91.1621 302.28 91.9881 303.358 91.9881 304.982V309H91.0361V305.374C91.0361 304.002 90.5741 303.078 89.3421 303.078C87.9701 303.078 87.4801 304.296 87.4801 305.514V309H86.5281V305.178C86.5281 303.904 86.2201 303.078 84.9461 303.078C84.0361 303.078 83.0421 303.89 83.0421 305.64V309H82.0901V303.89C82.0901 303.54 82.0761 302.896 82.0341 302.448H82.9441C82.9721 302.798 83.0001 303.288 83.0001 303.568H83.0281ZM94.9815 305.22H99.4475C99.3915 303.988 98.6355 303.078 97.2775 303.078C96.0035 303.078 95.0655 304.1 94.9815 305.22ZM100.413 305.528C100.413 305.654 100.413 305.808 100.399 305.976H94.9675C94.9955 307.292 96.0175 308.356 97.3615 308.356C98.3415 308.356 99.0975 307.81 99.4615 307.222L100.175 307.782C99.4055 308.762 98.4395 309.168 97.3615 309.168C95.4155 309.168 93.9735 307.698 93.9735 305.724C93.9735 303.75 95.4155 302.28 97.2775 302.28C99.3355 302.28 100.413 303.736 100.413 305.528ZM102.461 303.89C102.461 303.54 102.447 302.896 102.405 302.448H103.315C103.343 302.798 103.371 303.288 103.371 303.568H103.399C103.763 302.812 104.575 302.28 105.499 302.28C105.737 302.28 105.933 302.294 106.129 302.35L106.003 303.246C105.891 303.204 105.583 303.162 105.331 303.162C104.323 303.162 103.413 303.89 103.413 305.64V309H102.461V303.89ZM112.72 303.414L111.978 303.946C111.67 303.442 111.012 303.078 110.298 303.078C108.772 303.078 107.792 304.226 107.792 305.724C107.792 307.208 108.758 308.356 110.284 308.356C111.11 308.356 111.684 308.006 112.062 307.502L112.776 308.034C112.216 308.72 111.418 309.168 110.284 309.168C108.17 309.168 106.784 307.698 106.784 305.724C106.784 303.75 108.17 302.28 110.284 302.28C111.166 302.28 112.16 302.658 112.72 303.414ZM114.792 305.22H119.258C119.202 303.988 118.446 303.078 117.088 303.078C115.814 303.078 114.876 304.1 114.792 305.22ZM120.224 305.528C120.224 305.654 120.224 305.808 120.21 305.976H114.778C114.806 307.292 115.828 308.356 117.172 308.356C118.152 308.356 118.908 307.81 119.272 307.222L119.986 307.782C119.216 308.762 118.25 309.168 117.172 309.168C115.226 309.168 113.784 307.698 113.784 305.724C113.784 303.75 115.226 302.28 117.088 302.28C119.146 302.28 120.224 303.736 120.224 305.528Z" fill="#D4D7DC"/>
<rect width="220" height="40" transform="translate(0 324)" fill="#282828"/>
<path d="M35.9821 345.027C36.5434 344.347 36.8507 343.493 36.8513 342.611V341.133C36.8563 340.464 36.6834 339.806 36.3504 339.227C36.0174 338.647 35.5361 338.166 34.956 337.833C34.3759 337.5 33.7178 337.328 33.049 337.333C32.3803 337.339 31.7251 337.522 31.1505 337.864C30.9631 337.505 30.7258 337.175 30.4455 336.882C29.8624 336.3 29.1197 335.904 28.3114 335.744C27.5031 335.583 26.6654 335.666 25.9043 335.982C25.1432 336.298 24.4928 336.833 24.0354 337.518C23.578 338.203 23.3342 339.009 23.3346 339.833V341.5C23.3355 342.517 23.7084 343.499 24.383 344.26C23.5864 344.557 22.8996 345.09 22.4144 345.789C21.9292 346.487 21.6688 347.316 21.668 348.167V350.667C21.668 351.109 21.8436 351.532 22.1561 351.845C22.4687 352.158 22.8926 352.333 23.3346 352.333H36.7596C37.1772 352.333 37.5776 352.167 37.8728 351.871C38.1681 351.576 38.3342 351.176 38.3346 350.758V348.533C38.3334 347.782 38.1093 347.047 37.6905 346.423C37.2717 345.799 36.6772 345.313 35.9821 345.027V345.027ZM23.3346 350.667V348.167C23.3346 347.503 23.598 346.868 24.0669 346.399C24.5357 345.93 25.1716 345.667 25.8346 345.667C26.0556 345.667 26.2676 345.579 26.4239 345.422C26.5802 345.266 26.668 345.054 26.668 344.833V344.383C26.6683 344.237 26.6299 344.093 26.5567 343.966C26.4836 343.839 26.3782 343.733 26.2513 343.66C25.872 343.441 25.5569 343.126 25.3375 342.747C25.1181 342.368 25.0022 341.938 25.0013 341.5V339.833C25.0013 339.17 25.2647 338.534 25.7335 338.065C26.2024 337.597 26.8383 337.333 27.5013 337.333C28.1643 337.333 28.8002 337.597 29.2691 338.065C29.7379 338.534 30.0013 339.17 30.0013 339.833V341.5C30.0021 342.157 29.7437 342.789 29.2821 343.257C29.1244 343.412 28.9481 343.546 28.7571 343.657C28.6288 343.73 28.522 343.836 28.4478 343.963C28.3735 344.091 28.3345 344.236 28.3346 344.383V344.833C28.3346 345.054 28.4224 345.266 28.5787 345.422C28.735 345.579 28.947 345.667 29.168 345.667C29.831 345.667 30.4669 345.93 30.9357 346.399C31.4046 346.868 31.668 347.503 31.668 348.167V350.667H23.3346ZM36.668 350.667H33.3346V348.167C33.3339 347.317 33.0737 346.488 32.589 345.79C32.1043 345.092 31.4181 344.559 30.6221 344.262C31.2967 343.5 31.6688 342.517 31.668 341.5V339.833C31.668 339.737 31.6471 339.645 31.6405 339.551C32.0498 339.201 32.5735 339.015 33.1115 339.027C33.6496 339.039 34.1642 339.25 34.5571 339.617C34.9584 340.02 35.184 340.565 35.1846 341.133V342.608C35.1853 342.982 35.0874 343.349 34.9008 343.672C34.7143 343.996 34.4457 344.264 34.1221 344.451C33.9951 344.524 33.8897 344.63 33.8165 344.757C33.7433 344.884 33.705 345.028 33.7055 345.175V345.575C33.7055 345.796 33.7933 346.008 33.9495 346.164C34.1058 346.32 34.3178 346.408 34.5388 346.408C35.1026 346.409 35.6431 346.633 36.0422 347.031C36.4412 347.429 36.6662 347.969 36.668 348.533V350.667Z" fill="#8D9096"/>
<path d="M51.316 349V339.088H54.116C56.132 339.088 57.462 339.956 57.462 341.734C57.462 343.512 56.104 344.394 54.088 344.394H52.324V349H51.316ZM52.324 339.956V343.54H54.032C55.6 343.54 56.454 342.91 56.454 341.734C56.454 340.516 55.558 339.956 54.032 339.956H52.324ZM62.6771 344.982V344.772C62.6771 343.638 62.0611 343.078 60.9271 343.078C60.1571 343.078 59.4431 343.386 58.9811 343.848L58.4491 343.218C58.9811 342.686 59.9051 342.28 61.0251 342.28C62.4391 342.28 63.5731 343.064 63.5731 344.66V347.53C63.5731 348.034 63.6151 348.636 63.6851 349H62.8311C62.7751 348.678 62.7331 348.286 62.7331 347.936H62.7051C62.1031 348.804 61.3751 349.168 60.3251 349.168C59.3311 349.168 58.0571 348.636 58.0571 347.18C58.0571 345.164 60.2831 344.982 62.6771 344.982ZM62.6771 345.724H62.3971C60.8431 345.724 59.0371 345.892 59.0371 347.138C59.0371 348.076 59.8351 348.384 60.5771 348.384C61.9211 348.384 62.6771 347.376 62.6771 346.214V345.724ZM66.0536 342.448L68.2796 347.978H68.3076L70.3376 342.448H71.3736L68.1116 350.694C67.7196 351.702 67.1876 352.36 66.0536 352.36C65.7736 352.36 65.4796 352.332 65.1996 352.276L65.2976 351.408C65.5076 351.478 65.7456 351.52 65.9976 351.52C66.6416 351.52 66.9776 351.1 67.2576 350.358L67.7896 348.986L64.9896 342.448H66.0536ZM72.8616 343.89C72.8616 343.54 72.8476 342.896 72.8056 342.448H73.7156C73.7436 342.798 73.7716 343.288 73.7716 343.568H73.7996C74.1636 342.812 74.9756 342.28 75.8996 342.28C76.1376 342.28 76.3336 342.294 76.5296 342.35L76.4036 343.246C76.2916 343.204 75.9836 343.162 75.7316 343.162C74.7236 343.162 73.8136 343.89 73.8136 345.64V349H72.8616V343.89ZM84.1704 345.724C84.1704 347.698 82.7144 349.168 80.6704 349.168C78.6404 349.168 77.1844 347.698 77.1844 345.724C77.1844 343.75 78.6404 342.28 80.6704 342.28C82.7144 342.28 84.1704 343.75 84.1704 345.724ZM83.1624 345.724C83.1624 344.254 82.1964 343.078 80.6704 343.078C79.1584 343.078 78.1924 344.254 78.1924 345.724C78.1924 347.194 79.1584 348.356 80.6704 348.356C82.1964 348.356 83.1624 347.194 83.1624 345.724ZM87.199 338.416V349H86.247V338.416H87.199ZM90.7263 338.416V349H89.7743V338.416H90.7263Z" fill="#D4D7DC"/>
<rect width="220" height="40" transform="translate(0 364)" fill="#282828"/>
<path d="M34.878 392.341H34.873L25.103 392.326C24.7596 392.326 24.4195 392.257 24.1024 392.126C23.7852 391.994 23.4972 391.801 23.2547 391.557C23.0122 391.314 22.82 391.026 22.6892 390.708C22.5584 390.39 22.4914 390.05 22.4922 389.707L22.5097 378.271C22.5106 377.578 22.7864 376.914 23.2765 376.424C23.7666 375.935 24.431 375.659 25.1239 375.659V375.659L34.8947 375.674C35.2384 375.674 35.5788 375.742 35.8964 375.873C36.2139 376.005 36.5024 376.198 36.7452 376.441C36.988 376.685 37.1805 376.973 37.3115 377.291C37.4426 377.609 37.5096 377.95 37.5089 378.293L37.4914 389.729C37.4905 390.422 37.2148 391.086 36.7249 391.576C36.2349 392.065 35.5707 392.34 34.878 392.341V392.341ZM25.1239 377.326C24.8727 377.326 24.6318 377.426 24.4542 377.603C24.2765 377.781 24.1766 378.021 24.1764 378.273L24.1589 389.709C24.1585 389.834 24.1828 389.957 24.2302 390.072C24.2776 390.188 24.3473 390.292 24.4352 390.38C24.5231 390.469 24.6276 390.539 24.7426 390.587C24.8576 390.634 24.981 390.659 25.1055 390.659L34.8764 390.674C35.1274 390.674 35.368 390.574 35.5455 390.397C35.723 390.219 35.8228 389.979 35.823 389.728L35.8422 378.291C35.8425 378.166 35.8183 378.043 35.7708 377.927C35.7233 377.812 35.6536 377.707 35.5656 377.619C35.4775 377.531 35.373 377.461 35.2579 377.413C35.1427 377.365 35.0193 377.341 34.8947 377.341L25.1247 377.326H25.1239Z" fill="#8D9096"/>
<path d="M33.3333 383.172L26.6667 383.162C26.2246 383.162 25.8007 382.987 25.4882 382.674C25.1756 382.361 25 381.937 25 381.495V379.829C25 379.387 25.1756 378.963 25.4882 378.65C25.8007 378.338 26.2246 378.162 26.6667 378.162V378.162L33.3333 378.172C33.7754 378.172 34.1993 378.348 34.5118 378.66C34.8244 378.973 35 379.397 35 379.839V381.505C35 381.947 34.8244 382.371 34.5118 382.684C34.1993 382.997 33.7754 383.172 33.3333 383.172V383.172ZM26.6667 379.829V381.495L33.3333 381.505V379.838L26.6667 379.829Z" fill="#8D9096"/>
<path d="M26.0945 385.03L26.0656 385.059C25.7511 385.373 25.7503 385.882 26.0639 386.196L26.0927 386.225C26.4063 386.54 26.9154 386.541 27.23 386.227L27.2589 386.198C27.5734 385.885 27.5742 385.375 27.2606 385.061L27.2318 385.032C26.9182 384.718 26.409 384.717 26.0945 385.03Z" fill="#8D9096"/>
<path d="M29.4304 385.035L29.4015 385.064C29.087 385.378 29.0862 385.887 29.3998 386.201L29.4286 386.23C29.7422 386.545 30.2514 386.546 30.5659 386.232L30.5948 386.203C30.9093 385.89 30.9101 385.38 30.5965 385.066L30.5677 385.037C30.2541 384.722 29.7449 384.722 29.4304 385.035Z" fill="#8D9096"/>
<path d="M26.0906 387.529L26.0617 387.558C25.7472 387.872 25.7464 388.381 26.06 388.695L26.0888 388.724C26.4024 389.039 26.9115 389.04 27.2261 388.726L27.255 388.697C27.5695 388.384 27.5703 387.875 27.2567 387.56L27.2279 387.531C26.9143 387.217 26.4051 387.216 26.0906 387.529Z" fill="#8D9096"/>
<path d="M29.4265 387.535L29.3976 387.564C29.0831 387.878 29.0823 388.387 29.3959 388.701L29.4247 388.73C29.7383 389.045 30.2475 389.046 30.562 388.732L30.5909 388.703C30.9054 388.39 30.9062 387.88 30.5926 387.566L30.5638 387.537C30.2502 387.222 29.741 387.222 29.4265 387.535Z" fill="#8D9096"/>
<path d="M33.3255 389.005C33.1045 389.005 32.8925 388.917 32.7363 388.76C32.58 388.604 32.4922 388.392 32.4922 388.171V385.671C32.4922 385.45 32.58 385.238 32.7363 385.082C32.8925 384.926 33.1045 384.838 33.3255 384.838V384.838C33.5465 384.838 33.7585 384.926 33.9148 385.082C34.0711 385.238 34.1589 385.45 34.1589 385.671V388.171C34.1589 388.392 34.0711 388.604 33.9148 388.76C33.7585 388.917 33.5465 389.005 33.3255 389.005Z" fill="#8D9096"/>
<path d="M51.316 389V379.088H54.27C55.782 379.088 57.462 379.634 57.462 381.622C57.462 382.658 56.762 383.512 55.712 383.75V383.778C57 383.918 57.952 384.814 57.952 386.256C57.952 387.908 56.538 389 54.256 389H51.316ZM52.324 379.956V383.428H54.354C55.32 383.428 56.454 383.008 56.454 381.692C56.454 380.432 55.376 379.956 54.074 379.956H52.324ZM52.324 384.254V388.132H54.2C55.656 388.132 56.93 387.586 56.93 386.2C56.93 384.898 55.992 384.254 54.382 384.254H52.324ZM66.6704 385.724C66.6704 387.698 65.2144 389.168 63.1704 389.168C61.1404 389.168 59.6844 387.698 59.6844 385.724C59.6844 383.75 61.1404 382.28 63.1704 382.28C65.2144 382.28 66.6704 383.75 66.6704 385.724ZM65.6624 385.724C65.6624 384.254 64.6964 383.078 63.1704 383.078C61.6584 383.078 60.6924 384.254 60.6924 385.724C60.6924 387.194 61.6584 388.356 63.1704 388.356C64.6964 388.356 65.6624 387.194 65.6624 385.724ZM75.229 385.724C75.229 387.698 73.773 389.168 71.729 389.168C69.699 389.168 68.243 387.698 68.243 385.724C68.243 383.75 69.699 382.28 71.729 382.28C73.773 382.28 75.229 383.75 75.229 385.724ZM74.221 385.724C74.221 384.254 73.255 383.078 71.729 383.078C70.217 383.078 69.251 384.254 69.251 385.724C69.251 387.194 70.217 388.356 71.729 388.356C73.255 388.356 74.221 387.194 74.221 385.724ZM78.2576 378.416V385.402H78.2996L81.3236 382.448H82.6956L79.3916 385.444L83.0316 389H81.6316L78.2996 385.556H78.2576V389H77.3056V378.416H78.2576ZM85.3943 378.416V385.402H85.4363L88.4603 382.448H89.8323L86.5283 385.444L90.1683 389H88.7683L85.4363 385.556H85.3943V389H84.4423V378.416H85.3943ZM91.8369 385.22H96.3029C96.2469 383.988 95.4909 383.078 94.1329 383.078C92.8589 383.078 91.9209 384.1 91.8369 385.22ZM97.2689 385.528C97.2689 385.654 97.2689 385.808 97.2549 385.976H91.8229C91.8509 387.292 92.8729 388.356 94.2169 388.356C95.1969 388.356 95.9529 387.81 96.3169 387.222L97.0309 387.782C96.2609 388.762 95.2949 389.168 94.2169 389.168C92.2709 389.168 90.8289 387.698 90.8289 385.724C90.8289 383.75 92.2709 382.28 94.1329 382.28C96.1909 382.28 97.2689 383.736 97.2689 385.528ZM99.8486 385.22H104.315C104.259 383.988 103.503 383.078 102.145 383.078C100.871 383.078 99.9326 384.1 99.8486 385.22ZM105.281 385.528C105.281 385.654 105.281 385.808 105.267 385.976H99.8346C99.8626 387.292 100.885 388.356 102.229 388.356C103.209 388.356 103.965 387.81 104.329 387.222L105.043 387.782C104.273 388.762 103.307 389.168 102.229 389.168C100.283 389.168 98.8406 387.698 98.8406 385.724C98.8406 383.75 100.283 382.28 102.145 382.28C104.203 382.28 105.281 383.736 105.281 385.528ZM108.28 387.894V392.36H107.328V382.448H108.28V383.582H108.322C108.868 382.728 109.848 382.28 110.786 382.28C112.83 382.28 114.174 383.792 114.174 385.724C114.174 387.656 112.83 389.168 110.786 389.168C109.848 389.168 108.868 388.706 108.322 387.894H108.28ZM113.166 385.724C113.166 384.268 112.27 383.078 110.688 383.078C109.218 383.078 108.168 384.226 108.168 385.724C108.168 387.222 109.218 388.356 110.688 388.356C112.27 388.356 113.166 387.18 113.166 385.724ZM117.181 382.448V389H116.229V382.448H117.181ZM117.377 379.928C117.377 380.32 117.041 380.6 116.705 380.6C116.369 380.6 116.033 380.32 116.033 379.928C116.033 379.536 116.369 379.256 116.705 379.256C117.041 379.256 117.377 379.536 117.377 379.928ZM119.659 382.448H120.569C120.597 382.798 120.625 383.288 120.625 383.568H120.653C121.017 382.812 121.969 382.28 122.893 382.28C124.559 382.28 125.385 383.358 125.385 384.982V389H124.433V385.374C124.433 384.002 124.027 383.078 122.655 383.078C121.647 383.078 120.667 383.89 120.667 385.64V389H119.715V383.89C119.715 383.54 119.701 382.896 119.659 382.448ZM127.514 391.044L128.2 390.316C128.718 390.988 129.712 391.52 130.706 391.52C132.582 391.52 133.268 390.358 133.268 388.944V387.712H133.24C132.736 388.524 131.714 389 130.762 389C128.718 389 127.374 387.586 127.374 385.668C127.374 383.806 128.718 382.28 130.762 382.28C131.714 382.28 132.722 382.742 133.24 383.582H133.268V382.448H134.22V388.944C134.22 390.372 133.562 392.36 130.664 392.36C129.46 392.36 128.284 391.856 127.514 391.044ZM128.382 385.64C128.382 387.012 129.278 388.188 130.86 388.188C132.33 388.188 133.38 387.152 133.38 385.64C133.38 384.268 132.33 383.078 130.86 383.078C129.278 383.078 128.382 384.268 128.382 385.64Z" fill="#D4D7DC"/>
<rect width="220" height="40" transform="translate(0 404)" fill="#282828"/>
<path d="M35.8346 415.667H24.168C23.5049 415.667 22.869 415.93 22.4002 416.399C21.9314 416.868 21.668 417.504 21.668 418.167V424.834C21.6691 425.183 21.7438 425.529 21.8874 425.847C22.031 426.166 22.2402 426.451 22.5013 426.684V427.334C22.5024 427.683 22.5772 428.029 22.7208 428.347C22.8644 428.666 23.0735 428.951 23.3346 429.184V429.834C23.3346 430.497 23.598 431.133 24.0669 431.601C24.5357 432.07 25.1716 432.334 25.8346 432.334H34.168C34.831 432.334 35.4669 432.07 35.9357 431.601C36.4046 431.133 36.668 430.497 36.668 429.834V429.184C36.9291 428.951 37.1382 428.666 37.2818 428.347C37.4254 428.029 37.5002 427.683 37.5013 427.334V426.684C37.7624 426.451 37.9716 426.166 38.1152 425.847C38.2588 425.529 38.3335 425.183 38.3346 424.834V418.167C38.3346 417.504 38.0712 416.868 37.6024 416.399C37.1336 415.93 36.4977 415.667 35.8346 415.667ZM23.3346 418.167C23.3346 417.946 23.4224 417.734 23.5787 417.578C23.735 417.421 23.947 417.334 24.168 417.334H35.8346C36.0556 417.334 36.2676 417.421 36.4239 417.578C36.5802 417.734 36.668 417.946 36.668 418.167V424.834C36.668 425.055 36.5802 425.267 36.4239 425.423C36.2676 425.579 36.0556 425.667 35.8346 425.667H24.168C23.947 425.667 23.735 425.579 23.5787 425.423C23.4224 425.267 23.3346 425.055 23.3346 424.834V418.167ZM34.168 430.667H25.8346C25.6136 430.667 25.4017 430.579 25.2454 430.423C25.0891 430.267 25.0013 430.055 25.0013 429.834H35.0013C35.0013 430.055 34.9135 430.267 34.7572 430.423C34.6009 430.579 34.389 430.667 34.168 430.667ZM35.0013 428.167H25.0013C24.7803 428.167 24.5683 428.079 24.412 427.923C24.2558 427.767 24.168 427.555 24.168 427.334H35.8346C35.8346 427.555 35.7468 427.767 35.5906 427.923C35.4343 428.079 35.2223 428.167 35.0013 428.167Z" fill="#8D9096"/>
<path d="M28.3332 424C28.5542 424 28.7661 423.913 28.9223 423.756L32.2557 420.423C32.3352 420.346 32.3987 420.254 32.4424 420.152C32.4861 420.051 32.5091 419.941 32.51 419.831C32.511 419.72 32.4899 419.61 32.448 419.508C32.4061 419.406 32.3442 419.313 32.266 419.234C32.1877 419.156 32.0947 419.094 31.9923 419.052C31.8899 419.01 31.7801 418.989 31.6695 418.99C31.5588 418.991 31.4495 419.014 31.3478 419.058C31.2461 419.102 31.1542 419.165 31.0773 419.245L27.744 422.578C27.6275 422.695 27.5481 422.843 27.516 423.005C27.4839 423.166 27.5004 423.334 27.5634 423.486C27.6265 423.638 27.7333 423.768 27.8703 423.86C28.0073 423.952 28.1684 424 28.3332 424V424Z" fill="#8D9096"/>
<path d="M28.9225 420.423C29.0391 420.306 29.1185 420.158 29.1506 419.996C29.1828 419.834 29.1663 419.667 29.1033 419.514C29.0402 419.362 28.9334 419.232 28.7963 419.14C28.6593 419.049 28.4982 419 28.3333 419C28.1685 419 28.0074 419.049 27.8703 419.14C27.7333 419.232 27.6265 419.362 27.5634 419.514C27.5003 419.667 27.4839 419.834 27.516 419.996C27.5482 420.158 27.6276 420.306 27.7442 420.423C27.9004 420.579 28.1124 420.667 28.3333 420.667C28.5543 420.667 28.7662 420.579 28.9225 420.423Z" fill="#8D9096"/>
<path d="M31.0762 422.578C30.9596 422.695 30.8802 422.843 30.8481 423.005C30.8159 423.166 30.8324 423.334 30.8954 423.486C30.9585 423.638 31.0653 423.769 31.2024 423.86C31.3394 423.952 31.5005 424.001 31.6654 424.001C31.8302 424.001 31.9913 423.952 32.1284 423.86C32.2654 423.769 32.3722 423.638 32.4353 423.486C32.4984 423.334 32.5148 423.166 32.4827 423.005C32.4505 422.843 32.3711 422.695 32.2545 422.578C32.0983 422.422 31.8863 422.334 31.6654 422.334C31.4444 422.334 31.2325 422.422 31.0762 422.578V422.578Z" fill="#8D9096"/>
<path d="M54.494 419.984V429H53.486V419.984H50.168V419.088H57.812V419.984H54.494ZM62.0345 424.982V424.772C62.0345 423.638 61.4185 423.078 60.2845 423.078C59.5145 423.078 58.8005 423.386 58.3385 423.848L57.8065 423.218C58.3385 422.686 59.2625 422.28 60.3825 422.28C61.7965 422.28 62.9305 423.064 62.9305 424.66V427.53C62.9305 428.034 62.9725 428.636 63.0425 429H62.1885C62.1325 428.678 62.0905 428.286 62.0905 427.936H62.0625C61.4605 428.804 60.7325 429.168 59.6825 429.168C58.6885 429.168 57.4145 428.636 57.4145 427.18C57.4145 425.164 59.6405 424.982 62.0345 424.982ZM62.0345 425.724H61.7545C60.2005 425.724 58.3945 425.892 58.3945 427.138C58.3945 428.076 59.1925 428.384 59.9345 428.384C61.2785 428.384 62.0345 427.376 62.0345 426.214V425.724ZM64.347 429L66.923 425.612L64.501 422.448H65.719L67.511 424.94L69.303 422.448H70.451L68.071 425.57L70.675 429H69.443L67.497 426.27L65.495 429H64.347ZM72.6143 425.22H77.0803C77.0243 423.988 76.2683 423.078 74.9103 423.078C73.6363 423.078 72.6983 424.1 72.6143 425.22ZM78.0463 425.528C78.0463 425.654 78.0463 425.808 78.0323 425.976H72.6003C72.6283 427.292 73.6503 428.356 74.9943 428.356C75.9743 428.356 76.7303 427.81 77.0943 427.222L77.8083 427.782C77.0383 428.762 76.0723 429.168 74.9943 429.168C73.0483 429.168 71.6063 427.698 71.6063 425.724C71.6063 423.75 73.0483 422.28 74.9103 422.28C76.9683 422.28 78.0463 423.736 78.0463 425.528ZM84.308 423.456L83.58 424.002C83.3 423.456 82.698 423.078 81.97 423.078C81.284 423.078 80.584 423.372 80.584 424.1C80.584 424.716 81.074 424.996 82.152 425.22C83.692 425.542 84.42 426.116 84.42 427.138C84.42 428.636 83.16 429.168 81.956 429.168C80.962 429.168 79.968 428.776 79.366 427.894L80.122 427.334C80.458 427.908 81.172 428.356 81.942 428.356C82.754 428.356 83.482 428.062 83.482 427.208C83.482 426.522 82.796 426.242 81.55 425.948C80.78 425.766 79.674 425.43 79.674 424.184C79.674 422.854 80.822 422.28 82.012 422.28C82.922 422.28 83.888 422.714 84.308 423.456Z" fill="#D4D7DC"/>
<rect width="220" height="40" transform="translate(0 444)" fill="#282828"/>
<path d="M26.668 463.167H24.168C23.5049 463.167 22.869 462.904 22.4002 462.435C21.9314 461.966 21.668 461.33 21.668 460.667V458.167C21.668 457.504 21.9314 456.868 22.4002 456.399C22.869 455.93 23.5049 455.667 24.168 455.667H26.668C27.331 455.667 27.9669 455.93 28.4357 456.399C28.9046 456.868 29.168 457.504 29.168 458.167V460.667C29.168 461.33 28.9046 461.966 28.4357 462.435C27.9669 462.904 27.331 463.167 26.668 463.167ZM24.168 457.334C23.947 457.334 23.735 457.421 23.5787 457.578C23.4224 457.734 23.3346 457.946 23.3346 458.167V460.667C23.3346 460.888 23.4224 461.1 23.5787 461.256C23.735 461.413 23.947 461.5 24.168 461.5H26.668C26.889 461.5 27.1009 461.413 27.2572 461.256C27.4135 461.1 27.5013 460.888 27.5013 460.667V458.167C27.5013 457.946 27.4135 457.734 27.2572 457.578C27.1009 457.421 26.889 457.334 26.668 457.334H24.168Z" fill="#8D9096"/>
<path d="M35.832 463.167H33.332C32.669 463.167 32.0331 462.904 31.5643 462.435C31.0954 461.966 30.832 461.33 30.832 460.667V458.167C30.832 457.504 31.0954 456.868 31.5643 456.399C32.0331 455.93 32.669 455.667 33.332 455.667H35.832C36.4951 455.667 37.131 455.93 37.5998 456.399C38.0686 456.868 38.332 457.504 38.332 458.167V460.667C38.332 461.33 38.0686 461.966 37.5998 462.435C37.131 462.904 36.4951 463.167 35.832 463.167ZM33.332 457.334C33.111 457.334 32.8991 457.421 32.7428 457.578C32.5865 457.734 32.4987 457.946 32.4987 458.167V460.667C32.4987 460.888 32.5865 461.1 32.7428 461.256C32.8991 461.413 33.111 461.5 33.332 461.5H35.832C36.053 461.5 36.265 461.413 36.4213 461.256C36.5776 461.1 36.6654 460.888 36.6654 460.667V458.167C36.6654 457.946 36.5776 457.734 36.4213 457.578C36.265 457.421 36.053 457.334 35.832 457.334H33.332Z" fill="#8D9096"/>
<path d="M26.668 472.333H24.168C23.5049 472.333 22.869 472.07 22.4002 471.601C21.9314 471.132 21.668 470.496 21.668 469.833V467.333C21.668 466.67 21.9314 466.034 22.4002 465.565C22.869 465.096 23.5049 464.833 24.168 464.833H26.668C27.331 464.833 27.9669 465.096 28.4357 465.565C28.9046 466.034 29.168 466.67 29.168 467.333V469.833C29.168 470.496 28.9046 471.132 28.4357 471.601C27.9669 472.07 27.331 472.333 26.668 472.333ZM24.168 466.5C23.947 466.5 23.735 466.587 23.5787 466.744C23.4224 466.9 23.3346 467.112 23.3346 467.333V469.833C23.3346 470.054 23.4224 470.266 23.5787 470.422C23.735 470.579 23.947 470.666 24.168 470.666H26.668C26.889 470.666 27.1009 470.579 27.2572 470.422C27.4135 470.266 27.5013 470.054 27.5013 469.833V467.333C27.5013 467.112 27.4135 466.9 27.2572 466.744C27.1009 466.587 26.889 466.5 26.668 466.5H24.168Z" fill="#8D9096"/>
<path d="M35.832 472.333H33.332C32.669 472.333 32.0331 472.07 31.5643 471.601C31.0954 471.132 30.832 470.496 30.832 469.833V467.333C30.832 466.67 31.0954 466.034 31.5643 465.565C32.0331 465.096 32.669 464.833 33.332 464.833H35.832C36.4951 464.833 37.131 465.096 37.5998 465.565C38.0686 466.034 38.332 466.67 38.332 467.333V469.833C38.332 470.496 38.0686 471.132 37.5998 471.601C37.131 472.07 36.4951 472.333 35.832 472.333ZM33.332 466.5C33.111 466.5 32.8991 466.587 32.7428 466.744C32.5865 466.9 32.4987 467.112 32.4987 467.333V469.833C32.4987 470.054 32.5865 470.266 32.7428 470.422C32.8991 470.579 33.111 470.666 33.332 470.666H35.832C36.053 470.666 36.265 470.579 36.4213 470.422C36.5776 470.266 36.6654 470.054 36.6654 469.833V467.333C36.6654 467.112 36.5776 466.9 36.4213 466.744C36.265 466.587 36.053 466.5 35.832 466.5H33.332Z" fill="#8D9096"/>
<path d="M52.324 466.396L51.246 469H50.14L54.424 459.088H55.404L59.66 469H58.54L57.448 466.396H52.324ZM54.886 460.208L52.702 465.472H57.07L54.886 460.208ZM62.0147 467.894V472.36H61.0627V462.448H62.0147V463.582H62.0567C62.6027 462.728 63.5827 462.28 64.5207 462.28C66.5647 462.28 67.9087 463.792 67.9087 465.724C67.9087 467.656 66.5647 469.168 64.5207 469.168C63.5827 469.168 62.6027 468.706 62.0567 467.894H62.0147ZM66.9007 465.724C66.9007 464.268 66.0047 463.078 64.4227 463.078C62.9527 463.078 61.9027 464.226 61.9027 465.724C61.9027 467.222 62.9527 468.356 64.4227 468.356C66.0047 468.356 66.9007 467.18 66.9007 465.724ZM70.9015 467.894V472.36H69.9495V462.448H70.9015V463.582H70.9435C71.4895 462.728 72.4695 462.28 73.4075 462.28C75.4515 462.28 76.7955 463.792 76.7955 465.724C76.7955 467.656 75.4515 469.168 73.4075 469.168C72.4695 469.168 71.4895 468.706 70.9435 467.894H70.9015ZM75.7875 465.724C75.7875 464.268 74.8915 463.078 73.3095 463.078C71.8395 463.078 70.7895 464.226 70.7895 465.724C70.7895 467.222 71.8395 468.356 73.3095 468.356C74.8915 468.356 75.7875 467.18 75.7875 465.724ZM83.0502 463.456L82.3222 464.002C82.0422 463.456 81.4402 463.078 80.7122 463.078C80.0262 463.078 79.3262 463.372 79.3262 464.1C79.3262 464.716 79.8162 464.996 80.8942 465.22C82.4342 465.542 83.1622 466.116 83.1622 467.138C83.1622 468.636 81.9022 469.168 80.6982 469.168C79.7042 469.168 78.7102 468.776 78.1082 467.894L78.8642 467.334C79.2002 467.908 79.9142 468.356 80.6842 468.356C81.4962 468.356 82.2242 468.062 82.2242 467.208C82.2242 466.522 81.5382 466.242 80.2922 465.948C79.5222 465.766 78.4162 465.43 78.4162 464.184C78.4162 462.854 79.5642 462.28 80.7542 462.28C81.6642 462.28 82.6302 462.714 83.0502 463.456Z" fill="#D4D7DC"/>
</svg>
