<svg width="367" height="366" viewBox="0 0 367 366" fill="none" xmlns="http://www.w3.org/2000/svg">
<circle cx="190.5" cy="189.189" r="176.5" fill="#F9F9F9"/>
<mask id="mask0_193_24679" style="mask-type:alpha" maskUnits="userSpaceOnUse" x="0" y="0" width="367" height="366">
<path d="M367 189.19C367 286.668 287.978 365.69 190.5 365.69C110.937 365.69 43.6701 313.045 21.6317 240.69C-19.9999 253.19 12.6801 192.696 12.6801 174.78C12.6801 151.255 18.6027 143.214 26.9566 122.69C26.9566 22.7802 99.1446 0.310605 173.097 0.310605C270.576 0.310605 365.903 -0.5 367 189.19Z" fill="#CACACA"/>
</mask>
<g mask="url(#mask0_193_24679)">
<g filter="url(#filter0_d_193_24679)">
<rect x="56" y="49.8379" width="269" height="363" rx="16" fill="white"/>
<rect x="106.5" y="80.8379" width="10" height="10" rx="3" fill="#00C1BF"/>
<path d="M121.948 81.3419L124.828 88.3739H124.84L127.684 81.3419H129.004V89.8379H128.14V82.4579H128.116L125.044 89.8379H124.588L121.516 82.4579H121.492V89.8379H120.628V81.3419H121.948ZM136.789 87.0299C136.789 88.7219 135.541 89.9819 133.789 89.9819C132.049 89.9819 130.801 88.7219 130.801 87.0299C130.801 85.3379 132.049 84.0779 133.789 84.0779C135.541 84.0779 136.789 85.3379 136.789 87.0299ZM135.925 87.0299C135.925 85.7699 135.097 84.7619 133.789 84.7619C132.493 84.7619 131.665 85.7699 131.665 87.0299C131.665 88.2899 132.493 89.2859 133.789 89.2859C135.097 89.2859 135.925 88.2899 135.925 87.0299ZM138.497 84.2219H139.277C139.301 84.5219 139.325 84.9419 139.325 85.1819H139.349C139.661 84.5339 140.477 84.0779 141.269 84.0779C142.697 84.0779 143.405 85.0019 143.405 86.3939V89.8379H142.589V86.7299C142.589 85.5539 142.241 84.7619 141.065 84.7619C140.201 84.7619 139.361 85.4579 139.361 86.9579V89.8379H138.545V85.4579C138.545 85.1579 138.533 84.6059 138.497 84.2219ZM145.974 86.5979H149.802C149.754 85.5419 149.106 84.7619 147.942 84.7619C146.85 84.7619 146.046 85.6379 145.974 86.5979ZM150.63 86.8619C150.63 86.9699 150.63 87.1019 150.618 87.2459H145.962C145.986 88.3739 146.862 89.2859 148.014 89.2859C148.854 89.2859 149.502 88.8179 149.814 88.3139L150.426 88.7939C149.766 89.6339 148.938 89.9819 148.014 89.9819C146.346 89.9819 145.11 88.7219 145.11 87.0299C145.11 85.3379 146.346 84.0779 147.942 84.0779C149.706 84.0779 150.63 85.3259 150.63 86.8619ZM152.409 84.2219L154.317 88.9619H154.341L156.081 84.2219H156.969L154.173 91.2899C153.837 92.1539 153.381 92.7179 152.409 92.7179C152.169 92.7179 151.917 92.6939 151.677 92.6459L151.761 91.9019C151.941 91.9619 152.145 91.9979 152.361 91.9979C152.913 91.9979 153.201 91.6379 153.441 91.0019L153.897 89.8259L151.497 84.2219H152.409ZM166.824 87.0299C166.824 88.7219 165.576 89.9819 163.824 89.9819C162.084 89.9819 160.836 88.7219 160.836 87.0299C160.836 85.3379 162.084 84.0779 163.824 84.0779C165.576 84.0779 166.824 85.3379 166.824 87.0299ZM165.96 87.0299C165.96 85.7699 165.132 84.7619 163.824 84.7619C162.528 84.7619 161.7 85.7699 161.7 87.0299C161.7 88.2899 162.528 89.2859 163.824 89.2859C165.132 89.2859 165.96 88.2899 165.96 87.0299ZM173.44 89.8379H172.66C172.636 89.5379 172.612 89.1179 172.612 88.8779H172.588C172.276 89.5259 171.46 89.9819 170.668 89.9819C169.24 89.9819 168.532 89.0579 168.532 87.6659V84.2219H169.348V87.3299C169.348 88.5059 169.696 89.2979 170.872 89.2979C171.736 89.2979 172.576 88.6019 172.576 87.1019V84.2219H173.392V88.6019C173.392 88.9019 173.404 89.4539 173.44 89.8379ZM178.085 84.2219V84.9059H176.501V88.1819C176.501 89.0219 176.849 89.2139 177.341 89.2139C177.569 89.2139 177.833 89.1419 178.049 89.0339L178.085 89.7419C177.797 89.8499 177.497 89.9099 177.125 89.9099C176.525 89.9099 175.685 89.6459 175.685 88.4099V84.9059H174.521V84.2219H175.685V82.6379H176.501V84.2219H178.085Z" fill="black"/>
<path d="M113.589 105.123V106.143H110.733V110.818H115.187V111.838H107.775V110.818H109.509V106.143H107.877V105.123H109.509V103.542C109.509 101.587 110.376 99.4959 113.113 99.4959C114.099 99.4959 115.068 99.8019 115.748 100.516L114.949 101.383C114.507 100.873 113.844 100.533 113.062 100.533C111.039 100.533 110.733 102.488 110.733 103.644V105.123H113.589ZM122.447 99.8019V111.838H121.223V101.315L119.047 103.168L118.299 102.318L121.359 99.8019H122.447ZM132.734 105.463C134.043 105.837 135.012 107.061 135.012 108.676C135.012 110.784 133.21 112.144 131.153 112.144C129.096 112.144 127.294 110.784 127.294 108.676C127.294 107.061 128.263 105.854 129.572 105.463V105.429C128.501 105.072 127.753 103.95 127.753 102.709C127.753 100.754 129.317 99.4959 131.153 99.4959C132.989 99.4959 134.553 100.754 134.553 102.709C134.553 103.95 133.805 105.072 132.734 105.429V105.463ZM128.943 102.777C128.943 104.035 129.929 104.936 131.153 104.936C132.377 104.936 133.363 104.035 133.363 102.777C133.363 101.485 132.411 100.533 131.153 100.533C129.895 100.533 128.943 101.485 128.943 102.777ZM128.518 108.54C128.518 110.002 129.572 111.107 131.153 111.107C132.734 111.107 133.788 110.002 133.788 108.54C133.788 107.095 132.734 106.024 131.153 106.024C129.572 106.024 128.518 107.095 128.518 108.54ZM139.195 110.223L137.818 114.218H136.849L137.988 110.223H139.195ZM148.575 99.8019V100.89H143.56L143.475 104.613C143.985 104.426 144.597 104.341 145.141 104.341C147.402 104.341 149.051 105.871 149.051 108.115C149.051 110.444 147.436 112.144 145.056 112.144C143.322 112.144 142.115 111.277 141.452 109.951L142.557 109.458C142.982 110.444 143.934 111.09 144.988 111.09C146.62 111.09 147.81 109.866 147.81 108.234C147.81 106.449 146.535 105.344 144.818 105.344C143.951 105.344 143.084 105.599 142.319 106.007L142.438 99.8019H148.575ZM158.436 99.8019V100.89H153.421L153.336 104.613C153.846 104.426 154.458 104.341 155.002 104.341C157.263 104.341 158.912 105.871 158.912 108.115C158.912 110.444 157.297 112.144 154.917 112.144C153.183 112.144 151.976 111.277 151.313 109.951L152.418 109.458C152.843 110.444 153.795 111.09 154.849 111.09C156.481 111.09 157.671 109.866 157.671 108.234C157.671 106.449 156.396 105.344 154.679 105.344C153.812 105.344 152.945 105.599 152.18 106.007L152.299 99.8019H158.436ZM165.153 99.4959C168.145 99.4959 169.097 102.709 169.097 105.837C169.097 108.965 168.145 112.144 165.153 112.144C162.127 112.144 161.209 108.965 161.209 105.837C161.209 102.709 162.127 99.4959 165.153 99.4959ZM165.153 100.533C163.011 100.533 162.45 103.44 162.45 105.837C162.45 108.234 163.011 111.09 165.153 111.09C167.261 111.09 167.856 108.234 167.856 105.837C167.856 103.44 167.261 100.533 165.153 100.533Z" fill="black"/>
<rect x="210.5" y="80.8379" width="10" height="10" rx="3" fill="#57B520"/>
<path d="M225.948 81.3419L228.828 88.3739H228.84L231.684 81.3419H233.004V89.8379H232.14V82.4579H232.116L229.044 89.8379H228.588L225.516 82.4579H225.492V89.8379H224.628V81.3419H225.948ZM240.789 87.0299C240.789 88.7219 239.541 89.9819 237.789 89.9819C236.049 89.9819 234.801 88.7219 234.801 87.0299C234.801 85.3379 236.049 84.0779 237.789 84.0779C239.541 84.0779 240.789 85.3379 240.789 87.0299ZM239.925 87.0299C239.925 85.7699 239.097 84.7619 237.789 84.7619C236.493 84.7619 235.665 85.7699 235.665 87.0299C235.665 88.2899 236.493 89.2859 237.789 89.2859C239.097 89.2859 239.925 88.2899 239.925 87.0299ZM242.497 84.2219H243.277C243.301 84.5219 243.325 84.9419 243.325 85.1819H243.349C243.661 84.5339 244.477 84.0779 245.269 84.0779C246.697 84.0779 247.405 85.0019 247.405 86.3939V89.8379H246.589V86.7299C246.589 85.5539 246.241 84.7619 245.065 84.7619C244.201 84.7619 243.361 85.4579 243.361 86.9579V89.8379H242.545V85.4579C242.545 85.1579 242.533 84.6059 242.497 84.2219ZM249.974 86.5979H253.802C253.754 85.5419 253.106 84.7619 251.942 84.7619C250.85 84.7619 250.046 85.6379 249.974 86.5979ZM254.63 86.8619C254.63 86.9699 254.63 87.1019 254.618 87.2459H249.962C249.986 88.3739 250.862 89.2859 252.014 89.2859C252.854 89.2859 253.502 88.8179 253.814 88.3139L254.426 88.7939C253.766 89.6339 252.938 89.9819 252.014 89.9819C250.346 89.9819 249.11 88.7219 249.11 87.0299C249.11 85.3379 250.346 84.0779 251.942 84.0779C253.706 84.0779 254.63 85.3259 254.63 86.8619ZM256.409 84.2219L258.317 88.9619H258.341L260.081 84.2219H260.969L258.173 91.2899C257.837 92.1539 257.381 92.7179 256.409 92.7179C256.169 92.7179 255.917 92.6939 255.677 92.6459L255.761 91.9019C255.941 91.9619 256.145 91.9979 256.361 91.9979C256.913 91.9979 257.201 91.6379 257.441 91.0019L257.897 89.8259L255.497 84.2219H256.409ZM266.072 84.2219V89.8379H265.256V84.2219H266.072ZM266.24 82.0619C266.24 82.3979 265.952 82.6379 265.664 82.6379C265.376 82.6379 265.088 82.3979 265.088 82.0619C265.088 81.7259 265.376 81.4859 265.664 81.4859C265.952 81.4859 266.24 81.7259 266.24 82.0619ZM268.196 84.2219H268.976C269 84.5219 269.024 84.9419 269.024 85.1819H269.048C269.36 84.5339 270.176 84.0779 270.968 84.0779C272.396 84.0779 273.104 85.0019 273.104 86.3939V89.8379H272.288V86.7299C272.288 85.5539 271.94 84.7619 270.764 84.7619C269.9 84.7619 269.06 85.4579 269.06 86.9579V89.8379H268.244V85.4579C268.244 85.1579 268.232 84.6059 268.196 84.2219Z" fill="black"/>
<path d="M217.589 105.123V106.143H214.733V110.818H219.187V111.838H211.775V110.818H213.509V106.143H211.877V105.123H213.509V103.542C213.509 101.587 214.376 99.4959 217.113 99.4959C218.099 99.4959 219.068 99.8019 219.748 100.516L218.949 101.383C218.507 100.873 217.844 100.533 217.062 100.533C215.039 100.533 214.733 102.488 214.733 103.644V105.123H217.589ZM223.999 106.058V105.004H224.526C226.073 105.004 227.331 104.392 227.331 102.794C227.331 101.451 226.243 100.533 224.951 100.533C223.948 100.533 223.132 101.026 222.656 101.944L221.619 101.4C222.367 100.108 223.557 99.4959 225.019 99.4959C226.906 99.4959 228.538 100.635 228.538 102.726C228.538 104.137 227.637 105.157 226.447 105.48V105.514C227.824 105.803 228.878 106.891 228.878 108.506C228.878 110.801 227.093 112.144 225.002 112.144C223.251 112.144 221.874 111.26 221.194 109.679L222.35 109.254C222.758 110.393 223.778 111.09 225.002 111.09C226.379 111.09 227.654 110.121 227.654 108.506C227.654 106.687 226.107 106.058 224.526 106.058H223.999ZM233.317 111.838L236.7 106.585L236.666 106.551C236.309 106.823 235.561 106.993 234.949 106.993C232.858 106.993 231.277 105.48 231.277 103.287C231.277 101.043 232.926 99.4959 235.187 99.4959C237.448 99.4959 239.097 101.043 239.097 103.287C239.097 104.528 238.604 105.582 238.009 106.551L234.728 111.838H233.317ZM237.873 103.287C237.873 101.723 236.768 100.533 235.187 100.533C233.606 100.533 232.501 101.723 232.501 103.287C232.501 104.834 233.538 106.007 235.187 106.007C236.836 106.007 237.873 104.834 237.873 103.287ZM243.195 110.223L241.818 114.218H240.849L241.988 110.223H243.195ZM249.43 99.4959C252.422 99.4959 253.374 102.709 253.374 105.837C253.374 108.965 252.422 112.144 249.43 112.144C246.404 112.144 245.486 108.965 245.486 105.837C245.486 102.709 246.404 99.4959 249.43 99.4959ZM249.43 100.533C247.288 100.533 246.727 103.44 246.727 105.837C246.727 108.234 247.288 111.09 249.43 111.09C251.538 111.09 252.133 108.234 252.133 105.837C252.133 103.44 251.538 100.533 249.43 100.533ZM259.291 99.4959C262.283 99.4959 263.235 102.709 263.235 105.837C263.235 108.965 262.283 112.144 259.291 112.144C256.265 112.144 255.347 108.965 255.347 105.837C255.347 102.709 256.265 99.4959 259.291 99.4959ZM259.291 100.533C257.149 100.533 256.588 103.44 256.588 105.837C256.588 108.234 257.149 111.09 259.291 111.09C261.399 111.09 261.994 108.234 261.994 105.837C261.994 103.44 261.399 100.533 259.291 100.533ZM269.153 99.4959C272.145 99.4959 273.097 102.709 273.097 105.837C273.097 108.965 272.145 112.144 269.153 112.144C266.127 112.144 265.209 108.965 265.209 105.837C265.209 102.709 266.127 99.4959 269.153 99.4959ZM269.153 100.533C267.011 100.533 266.45 103.44 266.45 105.837C266.45 108.234 267.011 111.09 269.153 111.09C271.261 111.09 271.856 108.234 271.856 105.837C271.856 103.44 271.261 100.533 269.153 100.533Z" fill="black"/>
<path fill-rule="evenodd" clip-rule="evenodd" d="M213.161 141.975C213.161 140.795 214.118 139.838 215.298 139.838H229.09C230.27 139.838 231.227 140.795 231.227 141.975V155.767C231.227 156.947 230.27 157.903 229.09 157.903C227.91 157.903 226.953 156.947 226.953 155.767V144.111H215.298C214.118 144.111 213.161 143.155 213.161 141.975Z" fill="#008481"/>
<path fill-rule="evenodd" clip-rule="evenodd" d="M119.428 273.403C119.428 272.223 120.385 271.267 121.565 271.267H258.758C259.938 271.267 260.894 272.223 260.894 273.403C260.894 274.583 259.938 275.54 258.758 275.54H121.565C120.385 275.54 119.428 274.583 119.428 273.403Z" fill="#008481"/>
<path d="M134.471 245.244H121.298C120.118 245.244 119.161 246.201 119.161 247.381V265.361C119.161 266.541 120.118 267.498 121.298 267.498H134.471C135.651 267.498 136.607 266.541 136.607 265.361V247.381C136.607 246.201 135.651 245.244 134.471 245.244Z" fill="#00C1BF"/>
<path d="M155.917 229.838H142.744C141.564 229.838 140.608 230.795 140.608 231.975V265.362C140.608 266.542 141.564 267.498 142.744 267.498H155.917C157.097 267.498 158.054 266.542 158.054 265.362V231.975C158.054 230.795 157.097 229.838 155.917 229.838Z" fill="#57B520"/>
<path d="M186.363 240.244H173.19C172.01 240.244 171.054 241.201 171.054 242.381V265.361C171.054 266.541 172.01 267.498 173.19 267.498H186.363C187.543 267.498 188.5 266.541 188.5 265.361V242.381C188.5 241.201 187.543 240.244 186.363 240.244Z" fill="#00C1BF"/>
<path d="M207.809 209.838H194.637C193.457 209.838 192.5 210.795 192.5 211.975V265.362C192.5 266.542 193.457 267.498 194.637 267.498H207.809C208.99 267.498 209.946 266.542 209.946 265.362V211.975C209.946 210.795 208.99 209.838 207.809 209.838Z" fill="#57B520"/>
<path d="M238.256 186.244H225.083C223.903 186.244 222.946 187.201 222.946 188.381V265.361C222.946 266.541 223.903 267.498 225.083 267.498H238.256C239.436 267.498 240.392 266.541 240.392 265.361V188.381C240.392 187.201 239.436 186.244 238.256 186.244Z" fill="#00C1BF"/>
<path d="M259.702 179.838H246.529C245.349 179.838 244.392 180.795 244.392 181.975V265.362C244.392 266.542 245.349 267.498 246.529 267.498H259.702C260.882 267.498 261.839 266.542 261.839 265.362V181.975C261.839 180.795 260.882 179.838 259.702 179.838Z" fill="#57B520"/>
<path d="M139.161 206.338L175.161 174.838L185.681 185.893L225.661 146.34" stroke="#008481" stroke-width="5" stroke-linecap="round" stroke-linejoin="round"/>
</g>
</g>
<defs>
<filter id="filter0_d_193_24679" x="30" y="42.8379" width="321" height="415" filterUnits="userSpaceOnUse" color-interpolation-filters="sRGB">
<feFlood flood-opacity="0" result="BackgroundImageFix"/>
<feColorMatrix in="SourceAlpha" type="matrix" values="0 0 0 0 0 0 0 0 0 0 0 0 0 0 0 0 0 0 127 0" result="hardAlpha"/>
<feOffset dy="19"/>
<feGaussianBlur stdDeviation="13"/>
<feComposite in2="hardAlpha" operator="out"/>
<feColorMatrix type="matrix" values="0 0 0 0 0.61359 0 0 0 0 0.61359 0 0 0 0 0.61359 0 0 0 0.34 0"/>
<feBlend mode="normal" in2="BackgroundImageFix" result="effect1_dropShadow_193_24679"/>
<feBlend mode="normal" in="SourceGraphic" in2="effect1_dropShadow_193_24679" result="shape"/>
</filter>
</defs>
</svg>
