<svg width="220" height="50" viewBox="0 0 220 50" fill="none" xmlns="http://www.w3.org/2000/svg">
<path d="M22.0013 14.5C21.8365 14.5 21.6754 14.5489 21.5383 14.6404C21.4013 14.732 21.2945 14.8622 21.2314 15.0144C21.1683 15.1667 21.1518 15.3343 21.184 15.4959C21.2161 15.6576 21.2955 15.806 21.412 15.9226C21.5286 16.0391 21.6771 16.1185 21.8387 16.1507C22.0004 16.1828 22.1679 16.1663 22.3202 16.1032C22.4725 16.0402 22.6026 15.9333 22.6942 15.7963C22.7858 15.6593 22.8346 15.4982 22.8346 15.3333C22.8346 15.1123 22.7468 14.9004 22.5906 14.7441C22.4343 14.5878 22.2223 14.5 22.0013 14.5Z" fill="#8D9096"/>
<path d="M24.5002 10.333C24.4989 9.67037 24.2351 9.03526 23.7665 8.5667C23.298 8.09815 22.6628 7.83433 22.0002 7.83301V7.83301C21.4444 7.83483 20.9051 8.0218 20.4674 8.36438C20.0298 8.70695 19.7188 9.1856 19.5835 9.72467C19.5525 9.83194 19.5434 9.94433 19.5567 10.0552C19.57 10.1661 19.6054 10.2731 19.6609 10.37C19.7163 10.4669 19.7907 10.5517 19.8796 10.6193C19.9684 10.6869 20.07 10.7359 20.1782 10.7635C20.2864 10.7911 20.399 10.7967 20.5094 10.7799C20.6198 10.7631 20.7256 10.7243 20.8207 10.6658C20.9158 10.6073 20.9982 10.5303 21.063 10.4393C21.1277 10.3484 21.1735 10.2453 21.1977 10.1363C21.244 9.95739 21.3475 9.79843 21.4923 9.68354C21.6371 9.56865 21.8154 9.5041 22.0002 9.49967C22.2208 9.50099 22.432 9.58921 22.588 9.7452C22.744 9.9012 22.8322 10.1124 22.8335 10.333C22.8335 10.3438 22.8394 10.353 22.8394 10.3638C22.8394 10.3747 22.8335 10.383 22.8335 10.3938C22.8335 10.4712 22.812 10.5469 22.7714 10.6127C22.7308 10.6785 22.6727 10.7317 22.6035 10.7663L21.6269 11.253C21.4884 11.3224 21.372 11.429 21.2907 11.5609C21.2095 11.6928 21.1666 11.8448 21.1669 11.9997V12.833C21.1669 13.054 21.2547 13.266 21.411 13.4223C21.5672 13.5785 21.7792 13.6663 22.0002 13.6663C22.2212 13.6663 22.4332 13.5785 22.5895 13.4223C22.7457 13.266 22.8335 13.054 22.8335 12.833V12.5138L23.3494 12.2572C23.7025 12.0789 23.998 11.8043 24.2017 11.4651C24.4053 11.1259 24.5088 10.736 24.5002 10.3405V10.3405V10.333Z" fill="#8D9096"/>
<path d="M27.9018 6.117C27.1311 5.3395 26.2139 4.72261 25.2031 4.30206C24.1924 3.88151 23.1082 3.66566 22.0135 3.667H22.0002C19.79 3.66523 17.6697 4.54151 16.1056 6.10306C14.5416 7.66461 13.6619 9.78353 13.6602 11.9937C13.6584 14.2038 14.5347 16.3241 16.0962 17.8882C17.6578 19.4522 19.7767 20.3319 21.9868 20.3337H22.0002C23.6472 20.3336 25.2573 19.8455 26.6272 18.931C27.997 18.0165 29.0651 16.7165 29.6966 15.1953C30.3281 13.6741 30.4946 11.9999 30.1752 10.3841C29.8557 8.76836 29.0647 7.28347 27.9018 6.117V6.117ZM26.7068 16.7212C26.0896 17.3402 25.3559 17.8308 24.5481 18.1648C23.7403 18.4987 22.8743 18.6694 22.0002 18.667H21.9893C20.2212 18.6656 18.5261 17.9618 17.2769 16.7105C16.0276 15.4593 15.3266 13.763 15.3281 11.9949C15.3295 10.2268 16.0333 8.53168 17.2845 7.28246C18.5358 6.03323 20.232 5.33223 22.0002 5.33367H22.0102C23.3286 5.33576 24.6169 5.72874 25.712 6.46294C26.8071 7.19714 27.6599 8.23957 28.1626 9.45843C28.6653 10.6773 28.7954 12.0178 28.5362 13.3106C28.2771 14.6033 27.6405 15.7902 26.7068 16.7212Z" fill="#8D9096"/>
<path d="M38.324 14.396L37.246 17H36.14L40.424 7.088H41.404L45.66 17H44.54L43.448 14.396H38.324ZM40.886 8.208L38.702 13.472H43.07L40.886 8.208ZM48.0707 15.894H48.0427V17H47.0907V6.416H48.0427V11.582H48.0707C48.6307 10.728 49.6107 10.28 50.5487 10.28C52.5927 10.28 53.9367 11.792 53.9367 13.724C53.9367 15.656 52.5927 17.168 50.5487 17.168C49.6107 17.168 48.6307 16.72 48.0707 15.894ZM52.9287 13.724C52.9287 12.268 52.0327 11.078 50.4507 11.078C48.9807 11.078 47.9307 12.226 47.9307 13.724C47.9307 15.222 48.9807 16.356 50.4507 16.356C52.0327 16.356 52.9287 15.18 52.9287 13.724ZM62.4868 13.724C62.4868 15.698 61.0308 17.168 58.9868 17.168C56.9568 17.168 55.5008 15.698 55.5008 13.724C55.5008 11.75 56.9568 10.28 58.9868 10.28C61.0308 10.28 62.4868 11.75 62.4868 13.724ZM61.4788 13.724C61.4788 12.254 60.5128 11.078 58.9868 11.078C57.4748 11.078 56.5088 12.254 56.5088 13.724C56.5088 15.194 57.4748 16.356 58.9868 16.356C60.5128 16.356 61.4788 15.194 61.4788 13.724ZM70.2054 17H69.2954C69.2674 16.65 69.2394 16.16 69.2394 15.88H69.2114C68.8474 16.636 67.8954 17.168 66.9714 17.168C65.3054 17.168 64.4794 16.09 64.4794 14.466V10.448H65.4314V14.074C65.4314 15.446 65.8374 16.37 67.2094 16.37C68.2174 16.37 69.1974 15.558 69.1974 13.808V10.448H70.1494V15.558C70.1494 15.908 70.1634 16.552 70.2054 17ZM75.6242 10.448V11.246H73.7762V15.068C73.7762 16.048 74.1822 16.272 74.7562 16.272C75.0222 16.272 75.3302 16.188 75.5822 16.062L75.6242 16.888C75.2882 17.014 74.9382 17.084 74.5042 17.084C73.8042 17.084 72.8242 16.776 72.8242 15.334V11.246H71.4662V10.448H72.8242V8.6H73.7762V10.448H75.6242ZM83.5675 10.448V11.246H81.7195V15.068C81.7195 16.048 82.1255 16.272 82.6995 16.272C82.9655 16.272 83.2735 16.188 83.5255 16.062L83.5675 16.888C83.2315 17.014 82.8815 17.084 82.4475 17.084C81.7475 17.084 80.7675 16.776 80.7675 15.334V11.246H79.4095V10.448H80.7675V8.6H81.7195V10.448H83.5675ZM86.0369 11.526H86.0649C86.4149 10.77 87.3389 10.28 88.2629 10.28C89.9289 10.28 90.7549 11.358 90.7549 12.982V17H89.8029V13.374C89.8029 12.002 89.3969 11.078 88.0249 11.078C87.0169 11.078 86.0369 11.89 86.0369 13.64V17H85.0849V6.416H86.0369V11.526ZM94.185 10.448V17H93.233V10.448H94.185ZM94.381 7.928C94.381 8.32 94.045 8.6 93.709 8.6C93.373 8.6 93.037 8.32 93.037 7.928C93.037 7.536 93.373 7.256 93.709 7.256C94.045 7.256 94.381 7.536 94.381 7.928ZM100.933 11.456L100.205 12.002C99.925 11.456 99.323 11.078 98.595 11.078C97.909 11.078 97.209 11.372 97.209 12.1C97.209 12.716 97.699 12.996 98.777 13.22C100.317 13.542 101.045 14.116 101.045 15.138C101.045 16.636 99.785 17.168 98.581 17.168C97.587 17.168 96.593 16.776 95.991 15.894L96.747 15.334C97.083 15.908 97.797 16.356 98.567 16.356C99.379 16.356 100.107 16.062 100.107 15.208C100.107 14.522 99.421 14.242 98.175 13.948C97.405 13.766 96.299 13.43 96.299 12.184C96.299 10.854 97.447 10.28 98.637 10.28C99.547 10.28 100.513 10.714 100.933 11.456ZM107.378 11.568C107.756 10.812 108.596 10.28 109.534 10.28C110.248 10.28 111.116 10.546 111.55 11.666C111.998 10.77 112.796 10.28 113.846 10.28C115.512 10.28 116.338 11.358 116.338 12.982V17H115.386V13.374C115.386 12.002 114.924 11.078 113.692 11.078C112.32 11.078 111.83 12.296 111.83 13.514V17H110.878V13.178C110.878 11.904 110.57 11.078 109.296 11.078C108.386 11.078 107.392 11.89 107.392 13.64V17H106.44V11.89C106.44 11.54 106.426 10.896 106.384 10.448H107.294C107.322 10.798 107.35 11.288 107.35 11.568H107.378ZM119.331 13.22H123.797C123.741 11.988 122.985 11.078 121.627 11.078C120.353 11.078 119.415 12.1 119.331 13.22ZM124.763 13.528C124.763 13.654 124.763 13.808 124.749 13.976H119.317C119.345 15.292 120.367 16.356 121.711 16.356C122.691 16.356 123.447 15.81 123.811 15.222L124.525 15.782C123.755 16.762 122.789 17.168 121.711 17.168C119.765 17.168 118.323 15.698 118.323 13.724C118.323 11.75 119.765 10.28 121.627 10.28C123.685 10.28 124.763 11.736 124.763 13.528ZM126.755 10.448H127.665C127.693 10.798 127.721 11.288 127.721 11.568H127.749C128.113 10.812 129.065 10.28 129.989 10.28C131.655 10.28 132.481 11.358 132.481 12.982V17H131.529V13.374C131.529 12.002 131.123 11.078 129.751 11.078C128.743 11.078 127.763 11.89 127.763 13.64V17H126.811V11.89C126.811 11.54 126.797 10.896 126.755 10.448ZM140.616 17H139.706C139.678 16.65 139.65 16.16 139.65 15.88H139.622C139.258 16.636 138.306 17.168 137.382 17.168C135.716 17.168 134.89 16.09 134.89 14.466V10.448H135.842V14.074C135.842 15.446 136.248 16.37 137.62 16.37C138.628 16.37 139.608 15.558 139.608 13.808V10.448H140.56V15.558C140.56 15.908 140.574 16.552 140.616 17Z" fill="#8D9096"/>
</svg>
