<svg width="122" height="122" viewBox="0 0 122 122" fill="none" xmlns="http://www.w3.org/2000/svg">
<path d="M30.1396 101.68C29.6092 101.68 29.1005 101.469 28.7254 101.094C28.3504 100.719 28.1396 100.21 28.1396 99.68V22.68C28.1396 22.1496 28.3504 21.6409 28.7254 21.2658C29.1005 20.8907 29.6092 20.68 30.1396 20.68H49.7197C50.1853 18.0627 51.5572 15.6928 53.5949 13.9856C55.6327 12.2784 58.2063 11.3428 60.8646 11.3428C63.523 11.3428 66.0966 12.2784 68.1344 13.9856C70.1721 15.6928 71.544 18.0627 72.0097 20.68H91.5797C92.1101 20.68 92.6188 20.8907 92.9939 21.2658C93.3689 21.6409 93.5797 22.1496 93.5797 22.68V99.68C93.5797 100.21 93.3689 100.719 92.9939 101.094C92.6188 101.469 92.1101 101.68 91.5797 101.68H30.1396Z" fill="white"/>
<path d="M60.8597 13.3896C62.0836 13.3896 63.2955 13.6307 64.4263 14.0991C65.557 14.5675 66.5845 15.254 67.4499 16.1194C68.3153 16.9849 69.0019 18.0123 69.4702 19.143C69.9386 20.2738 70.1797 21.4857 70.1797 22.7096H91.5797V99.7096H30.1397V22.7096H51.5397C51.5397 20.2378 52.5216 17.8673 54.2694 16.1194C56.0173 14.3716 58.3879 13.3896 60.8597 13.3896V13.3896ZM60.8597 9.38965C58.0276 9.39387 55.2703 10.2993 52.9871 11.9749C50.7038 13.6505 49.0131 16.0092 48.1597 18.7096H30.1597C29.0988 18.7096 28.0814 19.1311 27.3312 19.8812C26.5811 20.6314 26.1597 21.6488 26.1597 22.7096V99.7096C26.1597 100.771 26.5811 101.788 27.3312 102.538C28.0814 103.288 29.0988 103.71 30.1597 103.71H91.5797C92.6405 103.71 93.658 103.288 94.4081 102.538C95.1582 101.788 95.5797 100.771 95.5797 99.7096V22.7096C95.5797 21.6488 95.1582 20.6314 94.4081 19.8812C93.658 19.1311 92.6405 18.7096 91.5797 18.7096H73.5797C72.7225 16.0076 71.028 13.6483 68.7414 11.9728C66.4547 10.2974 63.6944 9.39273 60.8597 9.38965V9.38965Z" fill="#008481"/>
<g style="mix-blend-mode:multiply" opacity="0.2">
<path d="M89.6796 40.1699V97.8099H32.0396L89.6796 40.1699Z" fill="#00C1BF"/>
</g>
<path fill-rule="evenodd" clip-rule="evenodd" d="M58.7295 48.8301C58.7295 48.2778 59.1772 47.8301 59.7295 47.8301H79.0495C79.6018 47.8301 80.0495 48.2778 80.0495 48.8301C80.0495 49.3824 79.6018 49.8301 79.0495 49.8301H59.7295C59.1772 49.8301 58.7295 49.3824 58.7295 48.8301Z" fill="#00C1BF"/>
<path fill-rule="evenodd" clip-rule="evenodd" d="M58.7295 65.9893C58.7295 65.437 59.1772 64.9893 59.7295 64.9893H79.0495C79.6018 64.9893 80.0495 65.437 80.0495 65.9893C80.0495 66.5415 79.6018 66.9893 79.0495 66.9893H59.7295C59.1772 66.9893 58.7295 66.5415 58.7295 65.9893Z" fill="#00C1BF"/>
<path fill-rule="evenodd" clip-rule="evenodd" d="M58.7295 83.1494C58.7295 82.5971 59.1772 82.1494 59.7295 82.1494H79.0495C79.6018 82.1494 80.0495 82.5971 80.0495 83.1494C80.0495 83.7017 79.6018 84.1494 79.0495 84.1494H59.7295C59.1772 84.1494 58.7295 83.7017 58.7295 83.1494Z" fill="#00C1BF"/>
<path d="M60.8599 26.71C63.069 26.71 64.8599 24.9191 64.8599 22.71C64.8599 20.5008 63.069 18.71 60.8599 18.71C58.6507 18.71 56.8599 20.5008 56.8599 22.71C56.8599 24.9191 58.6507 26.71 60.8599 26.71Z" fill="#008481"/>
<path fill-rule="evenodd" clip-rule="evenodd" d="M39.6694 19.8896C40.2217 19.8896 40.6694 20.3374 40.6694 20.8896V31.5396H81.0494V20.8896C81.0494 20.3374 81.4972 19.8896 82.0494 19.8896C82.6017 19.8896 83.0494 20.3374 83.0494 20.8896V32.5396C83.0494 33.0919 82.6017 33.5396 82.0494 33.5396H39.6694C39.1171 33.5396 38.6694 33.0919 38.6694 32.5396V20.8896C38.6694 20.3374 39.1171 19.8896 39.6694 19.8896Z" fill="#008481"/>
<path d="M47.3296 61.1299H41.5996C40.495 61.1299 39.5996 62.0253 39.5996 63.1299V68.8599C39.5996 69.9645 40.495 70.8599 41.5996 70.8599H47.3296C48.4342 70.8599 49.3296 69.9645 49.3296 68.8599V63.1299C49.3296 62.0253 48.4342 61.1299 47.3296 61.1299Z" fill="#00C1BF"/>
<path d="M47.3296 78.2793H41.5996C40.495 78.2793 39.5996 79.1747 39.5996 80.2793V86.0093C39.5996 87.1139 40.495 88.0093 41.5996 88.0093H47.3296C48.4342 88.0093 49.3296 87.1139 49.3296 86.0093V80.2793C49.3296 79.1747 48.4342 78.2793 47.3296 78.2793Z" fill="#00C1BF"/>
<path fill-rule="evenodd" clip-rule="evenodd" d="M55.6991 42.4043C56.4424 43.2214 56.3825 44.4863 55.5653 45.2295L44.3953 55.3895C44.0029 55.7465 43.4848 55.9329 42.9549 55.9078C42.425 55.8827 41.9269 55.6481 41.57 55.2556L36.35 49.5156C35.6068 48.6984 35.6668 47.4335 36.484 46.6904C37.3012 45.9472 38.5661 46.0072 39.3093 46.8244L43.1835 51.0846L52.8739 42.2705C53.691 41.5273 54.9559 41.5872 55.6991 42.4043Z" fill="#57B520"/>
</svg>
