<svg width="122" height="122" viewBox="0 0 122 122" fill="none" xmlns="http://www.w3.org/2000/svg">
<path d="M67.7905 86.92C67.9204 82.552 66.7095 78.2491 64.3205 74.59C61.6505 70.75 57.8305 69.59 54.1305 67.13C52.4105 65.97 52.3405 63.55 52.6905 61.67C53.1505 59.22 54.1705 53.46 54.9205 51.14C56.0712 50.3874 57.0315 49.3779 57.7257 48.1909C58.4198 47.0039 58.8288 45.672 58.9205 44.3C58.9205 41.74 57.7205 40.36 55.9205 39.04V36.53C55.8505 27.71 57.2405 17 39.8705 17C35.6505 17 28.7305 18.52 28.7305 23.17C28.7305 23.44 23.2105 22.52 23.8905 36.49V39C22.0705 40.32 20.8905 41.7 20.8905 44.26C20.978 45.6259 21.38 46.953 22.0652 48.1378C22.7504 49.3226 23.7002 50.3329 24.8405 51.09C25.6005 53.42 26.6205 59.17 27.0805 61.63C27.4305 63.51 27.3505 65.93 25.6405 67.09C21.9405 69.6 18.1205 70.71 15.4405 74.55C13.033 78.2169 11.8111 82.5353 11.9405 86.92C19.805 93.4082 29.675 96.9704 39.8705 97C50.0728 97.0269 59.9583 93.4579 67.7905 86.92V86.92Z" fill="white"/>
<path fill-rule="evenodd" clip-rule="evenodd" d="M31.9344 16.5011C34.5088 15.405 37.5781 15 39.8705 15C44.399 15 47.9018 15.6951 50.5816 17.0178C53.3085 18.3638 55.0797 20.31 56.1826 22.585C57.2605 24.8085 57.6628 27.2676 57.8213 29.6233C57.9338 31.2968 57.927 33.0497 57.9206 34.6825C57.9181 35.3149 57.9158 35.9293 57.9204 36.5141L57.9205 36.53V38.0648C58.6122 38.6445 59.2666 39.3152 59.7857 40.1359C60.5318 41.3155 60.9205 42.6782 60.9205 44.3C60.9205 44.3445 60.919 44.3889 60.916 44.4333C60.8037 46.1143 60.3026 47.7462 59.4521 49.2005C58.7307 50.4341 57.7746 51.5114 56.6405 52.3727C56.0547 54.4972 55.3305 58.4044 54.8601 60.9424C54.7854 61.3459 54.717 61.7148 54.6566 62.0364C54.6564 62.0373 54.6563 62.0382 54.6561 62.0391L52.6905 61.67L54.6567 62.036C54.6567 62.0362 54.6566 62.0363 54.6566 62.0364C54.5092 62.8284 54.4724 63.6355 54.5985 64.2936C54.7203 64.9294 54.9574 65.2735 55.2445 65.4689C55.2422 65.4675 55.24 65.466 55.2378 65.4645L54.1305 67.13L55.2487 65.4719C55.2473 65.4709 55.2459 65.4699 55.2445 65.4689C56.0997 66.0372 56.9737 66.5385 57.8845 67.0479C58.0311 67.13 58.1795 67.2126 58.3292 67.296C59.0925 67.7212 59.8894 68.1651 60.6598 68.6391C62.5373 69.7943 64.4111 71.217 65.9625 73.4482C65.9736 73.4642 65.9845 73.4803 65.9951 73.4966C68.6075 77.4978 69.9317 82.2031 69.7896 86.9795L67.7905 86.92L66.5088 85.3846C66.2736 85.581 66.0364 85.7746 65.7973 85.9653C65.7376 82.3254 64.6539 78.7693 62.662 75.7082C62.6675 75.7161 62.6729 75.7239 62.6784 75.7318L64.3205 74.59L62.6458 75.6834C62.6512 75.6917 62.6566 75.7 62.662 75.7082C61.5464 74.1125 60.1807 73.0408 58.5636 72.0459C57.8739 71.6215 57.166 71.2271 56.4035 70.8021C56.2486 70.7158 56.0915 70.6283 55.9318 70.5389C55.0046 70.0203 54.0158 69.4555 53.0231 68.7955L53.0121 68.7882L53.0122 68.7881C51.5811 67.823 50.925 66.3774 50.6699 65.0464C50.4186 63.7346 50.5217 62.3918 50.7242 61.3039L50.7248 61.3009C50.7796 61.0093 50.8438 60.6615 50.9159 60.2713C51.4224 57.5301 52.3159 52.6947 53.0174 50.5248C53.158 50.0899 53.4433 49.7163 53.8258 49.4662C54.7174 48.8831 55.4614 48.1009 55.9992 47.1813C56.5257 46.281 56.8405 45.273 56.9201 44.2337C56.9203 44.2556 56.9205 44.2777 56.9205 44.3H58.9205L56.9249 44.1667C56.9234 44.189 56.9218 44.2114 56.9201 44.2337C56.9104 43.333 56.7019 42.7431 56.4052 42.2741C56.0759 41.7535 55.5575 41.2539 54.7377 40.6528C54.224 40.2761 53.9205 39.6771 53.9205 39.04V36.5377C53.9205 36.5404 53.9205 36.5431 53.9205 36.5459L55.9205 36.53H53.9205V36.5377C53.9151 35.8525 53.9178 35.18 53.9204 34.5164C53.9266 32.9403 53.9327 31.4149 53.8303 29.8917C53.6868 27.7586 53.3379 25.8865 52.5833 24.33C51.8537 22.825 50.7111 21.5425 48.8112 20.6047C46.8641 19.6436 44.0269 19 39.8705 19C37.9428 19 35.4421 19.355 33.5015 20.1814C31.502 21.0328 30.7305 22.0634 30.7305 23.17C30.7305 24.1852 30.0368 24.7222 29.785 24.8818C29.5266 25.0455 29.2867 25.114 29.2194 25.1333L29.2181 25.1337C29.0767 25.174 28.9145 25.2033 28.871 25.2112C28.867 25.2119 28.864 25.2125 28.8621 25.2128C28.7306 25.2374 28.6304 25.258 28.5145 25.2968C28.311 25.3651 27.9706 25.5196 27.5903 25.9748C26.7814 26.943 25.5563 29.5758 25.8881 36.3928C25.8897 36.4252 25.8905 36.4576 25.8905 36.49V39C25.8905 39.6408 25.5834 40.2428 25.0647 40.619C24.2402 41.217 23.7254 41.7144 23.4005 42.2305C23.1069 42.6969 22.9 43.2877 22.8908 44.1963C22.8892 44.1749 22.8877 44.1535 22.8864 44.1321L20.8905 44.26H22.8905C22.8905 44.2386 22.8906 44.2174 22.8908 44.1963C22.9669 45.2319 23.2764 46.2371 23.7966 47.1365C24.3274 48.0545 25.0633 48.8373 25.9467 49.4238C26.322 49.673 26.6022 50.0415 26.7419 50.4698C27.4618 52.6771 28.3691 57.5947 28.8727 60.3245C28.9377 60.6772 28.9961 60.9933 29.0464 61.2624L29.0467 61.264C29.2499 62.3555 29.3495 63.6983 29.0968 65.0088C28.8406 66.3368 28.186 67.78 26.7632 68.7451C25.7662 69.4215 24.7739 69.9948 23.8422 70.5182C23.6331 70.6357 23.4288 70.7497 23.2284 70.8616C22.5157 71.2593 21.8525 71.6295 21.2011 72.0277C19.5797 73.0188 18.2144 74.0785 17.0965 75.6718C17.1018 75.6637 17.1071 75.6557 17.1123 75.6477L15.4405 74.55L17.0805 75.6946C17.0858 75.687 17.0912 75.6794 17.0965 75.6718C15.0896 78.7385 13.9962 82.306 13.934 85.9587C13.6918 85.7677 13.4516 85.5739 13.2132 85.3773L11.9405 86.92L13.9396 86.861C13.9307 86.5598 13.9289 86.259 13.934 85.9587C21.3195 91.7837 30.4523 94.9726 39.8763 95C39.8761 95 39.8759 95 39.8757 95L39.8705 97L39.8763 95C49.3017 95.0248 58.4437 91.8321 65.7973 85.9653C65.8022 86.2632 65.8002 86.5617 65.7913 86.8605L67.7905 86.92L69.0721 88.4554C60.8789 95.2947 50.5377 99.0282 39.8652 99H39.8646C29.2067 98.969 18.8889 95.2453 10.6677 88.4627C10.2231 88.0959 9.95832 87.5551 9.94132 86.979C9.7999 82.1843 11.136 77.4621 13.7686 73.4524C13.779 73.4365 13.7896 73.4209 13.8004 73.4054C15.3595 71.1714 17.239 69.7615 19.1149 68.6148C19.8409 68.171 20.5948 67.7504 21.3177 67.347C21.5087 67.2404 21.6975 67.1351 21.883 67.0309C22.792 66.5202 23.6647 66.0135 24.5177 65.4349L25.6405 67.09L24.5177 65.4349C24.8049 65.24 25.0453 64.8932 25.1692 64.2512C25.2963 63.592 25.2611 62.7852 25.1144 61.997C25.1145 61.9972 25.1145 61.9974 25.1145 61.9976L27.0803 61.63L25.1142 61.9961C25.1143 61.9964 25.1144 61.9967 25.1144 61.997C25.0601 61.7063 24.9992 61.3772 24.9329 61.0192C24.4627 58.4781 23.7222 54.4763 23.1208 52.3176C23.3198 52.4706 23.5244 52.6169 23.7342 52.7562L24.8405 51.09L22.939 51.7102C22.9978 51.8905 23.0586 52.0942 23.1208 52.3176C21.9949 51.452 21.0474 50.3727 20.3339 49.1391C19.4944 47.6874 19.0018 46.0614 18.8945 44.3879C18.8918 44.3453 18.8905 44.3027 18.8905 44.26C18.8905 42.6449 19.2708 41.2823 20.0154 40.0995C20.5345 39.2749 21.1913 38.6017 21.8905 38.0197V39H23.8905L22.7162 37.381C22.4383 37.5826 22.1612 37.7943 21.8905 38.0197V36.5382C21.8912 36.5545 21.892 36.5709 21.8928 36.5872L23.8905 36.49H21.8905V36.5382C21.5501 29.4164 22.7436 25.5372 24.5206 23.4102C25.3151 22.4593 26.1717 21.9276 26.914 21.6261C26.7952 22.1062 26.7305 22.6202 26.7305 23.17C26.7305 22.1716 27.4133 21.6492 27.6443 21.5029C27.8758 21.3562 28.0802 21.2985 28.1161 21.2884C28.1173 21.2881 28.1184 21.2878 28.1192 21.2876C28.1621 21.2753 28.2008 21.267 28.2008 21.2669C28.2008 21.2668 28.1806 21.2709 28.1271 21.2809C27.9594 21.3123 27.6337 21.3733 27.2426 21.5044C27.1361 21.5402 27.0263 21.5805 26.914 21.6261C27.5606 19.0127 29.8093 17.406 31.9344 16.5011Z" fill="#008481"/>
<path fill-rule="evenodd" clip-rule="evenodd" d="M31.5665 25.3404C31.7486 24.819 32.3189 24.544 32.8403 24.7261L32.5105 25.6702C32.8403 24.7261 32.84 24.726 32.8397 24.7259L32.8392 24.7258L32.8388 24.7256C32.8389 24.7257 32.8393 24.7258 32.84 24.726L32.8498 24.7294C32.8598 24.7327 32.8765 24.7383 32.8998 24.7458C32.9465 24.7608 33.0195 24.7838 33.1179 24.8128C33.3147 24.8709 33.6127 24.9534 34.0034 25.0458C34.7851 25.2307 35.9364 25.4554 37.3895 25.6055C40.2961 25.9057 44.4035 25.907 49.1754 24.7007C49.7109 24.5653 50.2547 24.8897 50.39 25.4251C50.5254 25.9605 50.2011 26.5043 49.6656 26.6397C44.6275 27.9133 40.2799 27.9147 37.184 27.5949C35.6359 27.435 34.3991 27.1946 33.5429 26.9921C33.1148 26.8908 32.7814 26.7988 32.5516 26.731C32.4367 26.6971 32.3476 26.6692 32.2855 26.6491C32.2544 26.6391 32.23 26.631 32.2125 26.6251L32.1915 26.618L32.1848 26.6157L32.1825 26.6149L32.1815 26.6145C32.1811 26.6144 32.1808 26.6143 32.5105 25.6702L32.1808 26.6143C31.6594 26.4321 31.3843 25.8618 31.5665 25.3404ZM32.8388 24.7256L32.8388 24.7256Z" fill="#00C1BF"/>
<g style="mix-blend-mode:multiply" opacity="0.2">
<path d="M54.0405 76.0002C54.0422 79.3742 53.224 82.698 51.6562 85.6855C50.0884 88.673 47.818 91.2348 45.0405 93.1502C52.026 92.2327 58.6473 89.4945 64.2405 85.2102C64.114 82.1145 63.1497 79.1111 61.4505 76.5202C60.0505 74.5202 58.1705 73.4602 55.7805 72.1302C55.0005 71.6902 54.2005 71.2402 53.3805 70.7402C53.8266 72.4577 54.0484 74.2258 54.0405 76.0002V76.0002Z" fill="#00C1BF"/>
</g>
<path fill-rule="evenodd" clip-rule="evenodd" d="M28.272 70.0445C28.6562 69.6478 29.2893 69.6377 29.686 70.022C32.4151 72.6656 36.0656 74.1439 39.8652 74.1439C43.6648 74.1439 47.3154 72.6656 50.0445 70.022C50.4411 69.6377 51.0742 69.6478 51.4585 70.0445C51.8428 70.4411 51.8327 71.0742 51.436 71.4585C48.3338 74.4636 44.1843 76.1439 39.8652 76.1439C35.5462 76.1439 31.3966 74.4636 28.2945 71.4585C27.8978 71.0742 27.8877 70.4411 28.272 70.0445Z" fill="#00C1BF"/>
<path d="M64.9205 82.3003C63.4795 83.0308 62.2217 84.0767 61.2405 85.3603C58.9305 88.6103 58.0405 90.0703 58.0405 94.0003C65.0405 99.6203 74.1105 104.07 83.8305 104.07C93.5505 104.07 102.641 99.6903 109.621 94.0003C109.621 90.0803 108.731 88.6203 106.421 85.3703C105.442 84.1118 104.195 83.087 102.771 82.3703V49.1103C102.657 44.1638 100.612 39.4581 97.0734 35.9999C93.5348 32.5417 88.7834 30.6055 83.8355 30.6055C78.8877 30.6055 74.1363 32.5417 70.5977 35.9999C67.0591 39.4581 65.0142 44.1638 64.9005 49.1103V82.3103L64.9205 82.3003Z" fill="white"/>
<path fill-rule="evenodd" clip-rule="evenodd" d="M69.1998 34.5695C73.1121 30.7461 78.3652 28.6055 83.8355 28.6055C89.3058 28.6055 94.559 30.7461 98.4713 34.5695C102.384 38.3929 104.644 43.5955 104.77 49.0643C104.77 49.0797 104.771 49.095 104.771 49.1103V81.2081C106.005 81.9916 107.098 82.9835 107.999 84.1424C108.017 84.1651 108.034 84.1882 108.051 84.2116C109.188 85.8122 110.128 87.1719 110.74 88.6827C111.378 90.257 111.621 91.8774 111.621 94.0003C111.621 94.6014 111.35 95.1707 110.884 95.5505C103.667 101.434 94.1444 106.07 83.8305 106.07C73.5085 106.07 64.0092 101.357 56.7884 95.5599C56.3156 95.1803 56.0405 94.6066 56.0405 94.0003C56.0405 91.873 56.2825 90.2502 56.9205 88.6746C57.533 87.1621 58.4727 85.8022 59.6104 84.2016C59.6238 84.1828 59.6375 84.1641 59.6516 84.1457C60.5543 82.9647 61.6546 81.9533 62.9005 81.1546V49.1103C62.9005 49.095 62.9007 49.0797 62.9011 49.0643C63.0267 43.5955 65.2875 38.3929 69.1998 34.5695ZM66.9005 82.0144C67.0199 82.8404 66.6101 83.6861 65.8248 84.0842C64.6617 84.6738 63.6453 85.5159 62.8496 86.5486C61.6904 88.1804 61.0356 89.1696 60.628 90.176C60.3167 90.9449 60.1243 91.7943 60.0624 93.0471C66.72 98.1914 75.0541 102.07 83.8305 102.07C92.6182 102.07 100.972 98.2466 107.599 93.0557C107.537 91.8035 107.345 90.9545 107.033 90.1854C106.626 89.1813 105.973 88.1933 104.817 86.5659C104.024 85.5565 103.018 84.7339 101.872 84.1569C101.196 83.8172 100.771 83.126 100.771 82.3703V49.134C100.663 44.7179 98.8351 40.5181 95.6755 37.4303C92.5106 34.3372 88.2609 32.6055 83.8355 32.6055C79.4102 32.6055 75.1605 34.3372 71.9955 37.4303C68.8359 40.5181 67.0078 44.7179 66.9005 49.1339V82.0144Z" fill="#008481"/>
<path fill-rule="evenodd" clip-rule="evenodd" d="M86.2644 37.9404L87.2055 38.1678C90.2465 38.9024 92.9559 40.6296 94.9055 43.0763C96.8551 45.5231 97.9336 48.5498 97.9706 51.678L97.9708 51.6898L97.9707 61.4598C97.9707 63.5273 96.9178 65.3943 95.9158 67.0034C95.7467 67.2751 95.5791 67.5395 95.4152 67.7982C94.5595 69.1484 93.8048 70.3394 93.4579 71.5587C93.2651 72.7245 93.3942 73.921 93.8317 75.0193C94.2704 76.1206 95.0023 77.0805 95.9477 77.795C97.0382 78.4779 98.1803 79.0747 99.3636 79.5802C99.8714 79.7972 100.107 80.3848 99.8903 80.8927C99.6733 81.4006 99.0857 81.6364 98.5779 81.4194C97.2855 80.8673 96.0385 80.2143 94.8486 79.4665L94.8147 79.4452L94.7825 79.4212C93.5261 78.4834 92.5539 77.216 91.9737 75.7594C91.3935 74.3029 91.2279 72.7141 91.4954 71.1692L91.5037 71.1211L91.5167 71.074C91.9445 69.5226 92.9023 68.018 93.7652 66.6626C93.9205 66.4188 94.0726 66.1798 94.2181 65.9462C95.2336 64.3154 95.9707 62.8924 95.9707 61.4598V51.6958C95.9377 49.0143 95.0126 46.4201 93.3414 44.3227C91.8647 42.4694 89.8798 41.0974 87.6397 40.3678C86.5004 43.74 84.3728 46.7013 81.523 48.8597C78.6731 51.0182 75.2457 52.2637 71.6907 52.4466V61.4698C71.6907 62.9017 72.4296 64.3242 73.4468 65.9558C73.5906 66.1864 73.7409 66.4223 73.8942 66.663C74.7596 68.0211 75.7209 69.53 76.1455 71.0867L76.1575 71.1309L76.1655 71.1759C76.4382 72.7206 76.2762 74.3107 75.6975 75.7686C75.1187 77.2265 74.146 78.4948 72.8881 79.4318L72.8566 79.4552L72.8235 79.4761C71.6368 80.2231 70.392 80.8734 69.1009 81.4205C68.5924 81.6361 68.0055 81.3986 67.79 80.8901C67.5745 80.3816 67.812 79.7946 68.3205 79.5791C69.5003 79.0791 70.6384 78.4858 71.7239 77.8049C72.6697 77.0918 73.4013 76.1321 73.8386 75.0307C74.2749 73.9317 74.401 72.7343 74.2038 71.569C73.8603 70.3467 73.1029 69.1523 72.243 67.7963C72.0814 67.5416 71.9163 67.2812 71.7496 67.0139C70.7468 65.4054 69.6907 63.538 69.6907 61.4698V50.4647L70.6958 50.4698C74.1673 50.4875 77.5481 49.3613 80.3155 47.2653C83.083 45.1694 85.0831 42.2202 86.0068 38.8738L86.2644 37.9404Z" fill="#00C1BF"/>
<g style="mix-blend-mode:multiply" opacity="0.15">
<path d="M96.9907 87.4707C96.9905 89.8391 96.4499 92.1762 95.4102 94.3042C94.3704 96.4322 92.8589 98.2949 90.9907 99.7507C96.4415 98.375 101.549 95.8862 105.991 92.4407C105.781 90.8307 105.141 89.8807 103.531 87.6207C102.531 86.2007 100.351 85.2307 98.0607 84.2007C97.5107 83.9507 96.9607 83.7007 96.4007 83.4307C96.7712 84.7462 96.9695 86.1042 96.9907 87.4707Z" fill="#00C1BF"/>
</g>
<path fill-rule="evenodd" clip-rule="evenodd" d="M72.2452 81.9613C72.6311 81.5663 73.2642 81.5589 73.6593 81.9449C75.2185 83.4682 78.1627 85.793 80.6161 87.7303C80.8236 87.8942 81.0277 88.0552 81.227 88.2128C81.972 88.7902 82.8878 89.1036 83.8304 89.1036C84.7744 89.1036 85.6915 88.7893 86.4371 88.2103L86.4415 88.2069L86.4415 88.2069C88.9877 86.2522 92.3208 83.5968 94.0116 81.9449C94.4067 81.5589 95.0398 81.5663 95.4257 81.9613C95.8117 82.3564 95.8043 82.9895 95.4093 83.3754C93.6206 85.123 90.195 87.8467 87.6614 89.7918C86.5654 90.6421 85.2177 91.1036 83.8304 91.1036C82.4422 91.1036 81.0936 90.6414 79.9971 89.79L79.9903 89.7847L79.9903 89.7846C79.7836 89.6212 79.5705 89.453 79.3526 89.281C76.9307 87.3691 73.9021 84.9782 72.2616 83.3754C71.8666 82.9895 71.8592 82.3564 72.2452 81.9613Z" fill="#00C1BF"/>
</svg>
