<svg width="25" height="25" viewBox="0 0 25 25" fill="none" xmlns="http://www.w3.org/2000/svg">
<path fill-rule="evenodd" clip-rule="evenodd" d="M25 12.5C25 19.375 19.375 25 12.5 25C5.625 25 0 19.375 0 12.5C0 5.625 5.625 0 12.5 0C19.375 0 25 5.625 25 12.5ZM8.3335 17.3613C5.625 17.3613 3.47217 15.208 3.47217 12.5C3.47217 9.86133 5.625 7.63867 8.3335 7.63867H11.8057V20.6943C10.8335 20.6943 10 19.8613 10 18.8887V9.44434H8.3335C6.6665 9.44434 5.27783 10.833 5.27783 12.5C5.27783 14.167 6.6665 15.5557 8.3335 15.5557H9.02783V17.3613H8.3335ZM15.9722 7.63867H16.6665C19.375 7.63867 21.5278 9.86133 21.5278 12.5C21.5278 15.208 19.375 17.3613 16.6665 17.3613H13.1943V4.30566C14.1665 4.30566 15 5.13867 15 6.11133V15.5557H16.6665C18.3335 15.5557 19.7222 14.167 19.7222 12.5C19.7222 10.833 18.3335 9.44434 16.6665 9.44434H15.9722V7.63867Z" fill="#00BE5F"/>
</svg>
