<svg width="24" height="24" viewBox="0 0 24 24" fill="none" xmlns="http://www.w3.org/2000/svg">
<path d="M12.0003 7.99959C11.2092 7.99959 10.4358 8.23419 9.778 8.67371C9.1202 9.11324 8.60751 9.73795 8.30476 10.4689C8.00201 11.1998 7.92279 12.004 8.07713 12.78C8.23148 13.5559 8.61244 14.2686 9.17185 14.828C9.73126 15.3874 10.444 15.7684 11.2199 15.9227C11.9958 16.0771 12.8001 15.9979 13.531 15.6951C14.2619 15.3924 14.8866 14.8797 15.3262 14.2219C15.7657 13.5641 16.0003 12.7907 16.0003 11.9996C16.0003 10.9387 15.5788 9.92131 14.8287 9.17116C14.0786 8.42102 13.0611 7.99959 12.0003 7.99959ZM12.0003 13.9996C11.6047 13.9996 11.218 13.8823 10.8891 13.6625C10.5602 13.4428 10.3039 13.1304 10.1525 12.765C10.0011 12.3995 9.96153 11.9974 10.0387 11.6094C10.1159 11.2214 10.3064 10.8651 10.5861 10.5854C10.8658 10.3057 11.2221 10.1152 11.6101 10.038C11.9981 9.96085 12.4002 10.0005 12.7656 10.1518C13.1311 10.3032 13.4435 10.5596 13.6632 10.8884C13.883 11.2173 14.0003 11.604 14.0003 11.9996C14.0003 12.53 13.7896 13.0387 13.4145 13.4138C13.0394 13.7889 12.5307 13.9996 12.0003 13.9996Z" fill="#393A3D"/>
<path d="M21.9443 11.6716C21.1828 9.66596 19.8168 7.94656 18.0353 6.75126C16.2538 5.55596 14.1449 4.94384 12.0003 4.99959C9.85567 4.94384 7.74675 5.55596 5.96526 6.75126C4.18377 7.94656 2.81779 9.66596 2.05628 11.6716C1.98124 11.8838 1.98124 12.1154 2.05628 12.3276C2.81779 14.3332 4.18377 16.0526 5.96526 17.2479C7.74675 18.4432 9.85567 19.0553 12.0003 18.9996C14.1449 19.0553 16.2538 18.4432 18.0353 17.2479C19.8168 16.0526 21.1828 14.3332 21.9443 12.3276C22.0193 12.1154 22.0193 11.8838 21.9443 11.6716ZM12.0003 16.9996C10.3307 17.0493 8.6842 16.6002 7.27114 15.7096C5.85807 14.819 4.74261 13.5273 4.06728 11.9996C4.74261 10.4719 5.85807 9.18021 7.27114 8.28959C8.6842 7.39896 10.3307 6.94984 12.0003 6.99959C13.6699 6.94984 15.3164 7.39896 16.7294 8.28959C18.1425 9.18021 19.2579 10.4719 19.9333 11.9996C19.2579 13.5273 18.1425 14.819 16.7294 15.7096C15.3164 16.6002 13.6699 17.0493 12.0003 16.9996Z" fill="#393A3D"/>
</svg>
