<svg width="513" height="380" viewBox="0 0 513 380" fill="none" xmlns="http://www.w3.org/2000/svg">
<path d="M28.75 35.024C28.75 42.108 22.54 44.5 16.33 44.5H3.358V11.932H16.33C21.39 11.932 27.416 13.726 27.416 20.304C27.416 23.892 25.254 26.284 22.08 27.342V27.434C25.806 28.078 28.75 30.746 28.75 35.024ZM19.826 21.362C19.826 19.154 18.124 18.188 14.812 18.188H10.948V24.904H15.18C18.124 24.904 19.826 23.662 19.826 21.362ZM20.884 34.288C20.884 31.574 18.676 30.7 15.318 30.7H10.948V38.152H15.364C17.848 38.152 20.884 37.462 20.884 34.288ZM48.7158 21.132L48.3938 27.756C47.7038 27.572 47.0598 27.526 46.4618 27.526C42.4138 27.526 41.0798 30.838 41.0798 32.724V44.5H33.5358V21.592H40.8038V24.904H40.8958C42.0458 22.604 44.2998 20.948 47.1058 20.948C47.7038 20.948 48.3478 20.994 48.7158 21.132ZM59.9621 14.278C59.9621 16.624 58.0301 18.418 55.6381 18.418C53.2001 18.418 51.3141 16.532 51.3141 14.278C51.3141 12.07 53.2001 10.138 55.6381 10.138C58.0301 10.138 59.9621 11.978 59.9621 14.278ZM59.4101 44.5H51.8661V21.592H59.4101V44.5ZM88.0174 44.5H80.4274V31.988C80.4274 29.458 79.7374 27.158 77.0234 27.158C74.3554 27.158 72.9754 29.458 72.9754 32.08V44.5H65.3854V21.592H72.6994V24.766H72.7914C73.8494 22.742 76.4714 20.948 79.6454 20.948C85.8094 20.948 88.0174 25.732 88.0174 30.332V44.5ZM118.019 42.338C118.019 51.308 112.683 55.54 104.541 55.54C100.539 55.54 95.8471 54.252 92.7651 51.952L96.5371 46.57C98.7451 48.502 101.551 49.468 104.127 49.468C108.543 49.468 110.613 46.892 110.613 43.074V41.694H110.475C109.049 43.534 106.565 44.73 103.529 44.73C96.5831 44.73 92.5811 39.302 92.5811 32.954C92.5811 26.606 96.5831 20.948 103.483 20.948C106.335 20.948 109.187 22.098 110.797 24.536H110.889V21.592H118.019V42.338ZM110.843 32.908C110.843 29.78 108.681 27.112 105.277 27.112C101.873 27.112 99.8951 29.734 99.8951 32.908C99.8951 35.944 101.873 38.75 105.277 38.75C108.727 38.75 110.843 36.036 110.843 32.908ZM143.696 14.278C143.696 16.624 141.764 18.418 139.372 18.418C136.934 18.418 135.048 16.532 135.048 14.278C135.048 12.07 136.934 10.138 139.372 10.138C141.764 10.138 143.696 11.978 143.696 14.278ZM143.144 44.5H135.6V21.592H143.144V44.5ZM171.752 44.5H164.162V31.988C164.162 29.458 163.472 27.158 160.758 27.158C158.09 27.158 156.71 29.458 156.71 32.08V44.5H149.12V21.592H156.434V24.766H156.526C157.584 22.742 160.206 20.948 163.38 20.948C169.544 20.948 171.752 25.732 171.752 30.332V44.5ZM212.149 21.592L201.891 47.95C200.051 52.734 197.567 55.54 191.817 55.54C190.391 55.54 188.781 55.31 187.677 55.034L188.505 48.686C189.241 48.916 190.207 49.1 190.943 49.1C193.289 49.1 194.071 47.996 194.807 46.018L195.543 44.132L185.975 21.592H194.347L199.453 36.312H199.591L204.145 21.592H212.149ZM239.353 32.954C239.353 40.452 233.557 45.236 226.611 45.236C219.711 45.236 213.915 40.452 213.915 32.954C213.915 25.456 219.711 20.856 226.611 20.856C233.557 20.856 239.353 25.456 239.353 32.954ZM232.085 32.954C232.085 30.01 230.153 27.112 226.611 27.112C223.069 27.112 221.229 30.01 221.229 32.954C221.229 35.898 223.115 38.888 226.657 38.888C230.199 38.888 232.085 35.898 232.085 32.954ZM266.486 44.5H259.218V41.326H259.126C258.068 43.35 255.446 45.144 252.226 45.144C246.062 45.144 243.9 40.36 243.9 35.76V21.592H251.49V34.012C251.49 36.588 252.134 38.888 254.894 38.888C257.516 38.888 258.942 36.588 258.942 33.966V21.592H266.486V44.5ZM287.565 21.132L287.243 27.756C286.553 27.572 285.909 27.526 285.311 27.526C281.263 27.526 279.929 30.838 279.929 32.724V44.5H272.385V21.592H279.653V24.904H279.745C280.895 22.604 283.149 20.948 285.955 20.948C286.553 20.948 287.197 20.994 287.565 21.132ZM327.654 32.954C327.654 39.348 323.652 45.144 316.752 45.144C313.716 45.144 310.726 43.81 309.254 41.51H309.162V44.5H302.216V9.724H309.76V24.03H309.852C311.14 22.512 313.486 20.948 316.844 20.948C323.514 20.948 327.654 26.56 327.654 32.954ZM320.386 32.954C320.386 30.01 318.546 27.112 314.958 27.112C311.554 27.112 309.438 30.102 309.438 33C309.438 35.99 311.554 38.888 314.958 38.888C318.546 38.888 320.386 35.944 320.386 32.954ZM354.802 44.5H347.534V41.326H347.442C346.384 43.35 343.762 45.144 340.542 45.144C334.378 45.144 332.216 40.36 332.216 35.76V21.592H339.806V34.012C339.806 36.588 340.45 38.888 343.21 38.888C345.832 38.888 347.258 36.588 347.258 33.966V21.592H354.802V44.5ZM378.32 24.076L374.18 28.354C372.984 27.204 371.236 26.284 369.396 26.284C367.97 26.284 366.544 26.79 366.544 28.124C366.544 29.412 367.786 29.78 370.73 30.424C374.226 31.206 378.044 32.954 378.044 37.416C378.044 43.212 372.938 45.236 368.246 45.236C364.52 45.236 360.656 43.994 358.264 41.694L362.496 37.232C363.83 38.704 365.9 39.808 368.108 39.808C369.35 39.808 370.822 39.302 370.822 37.83C370.822 36.404 369.396 35.944 366.268 35.208C363.094 34.472 359.598 32.862 359.598 28.538C359.598 23.064 364.75 20.856 369.12 20.856C372.524 20.856 376.066 21.96 378.32 24.076ZM390.587 14.278C390.587 16.624 388.655 18.418 386.263 18.418C383.825 18.418 381.939 16.532 381.939 14.278C381.939 12.07 383.825 10.138 386.263 10.138C388.655 10.138 390.587 11.978 390.587 14.278ZM390.035 44.5H382.491V21.592H390.035V44.5ZM418.642 44.5H411.052V31.988C411.052 29.458 410.362 27.158 407.648 27.158C404.98 27.158 403.6 29.458 403.6 32.08V44.5H396.01V21.592H403.324V24.766H403.416C404.474 22.742 407.096 20.948 410.27 20.948C416.434 20.948 418.642 25.732 418.642 30.332V44.5ZM430.428 30.424H440.134C440.134 28.032 438.616 26.054 435.626 26.054C432.728 26.054 430.612 28.078 430.428 30.424ZM447.08 33.322C447.08 33.92 447.08 34.564 447.034 35.116H430.428C430.658 37.646 433.188 39.44 435.902 39.44C438.294 39.44 439.95 38.428 440.962 37.048L446.206 40.36C444.044 43.488 440.456 45.236 435.81 45.236C428.91 45.236 423.206 40.866 423.206 33.138C423.206 25.64 428.634 20.856 435.58 20.856C442.342 20.856 447.08 25.502 447.08 33.322ZM469.376 24.076L465.236 28.354C464.04 27.204 462.292 26.284 460.452 26.284C459.026 26.284 457.6 26.79 457.6 28.124C457.6 29.412 458.842 29.78 461.786 30.424C465.282 31.206 469.1 32.954 469.1 37.416C469.1 43.212 463.994 45.236 459.302 45.236C455.576 45.236 451.712 43.994 449.32 41.694L453.552 37.232C454.886 38.704 456.956 39.808 459.164 39.808C460.406 39.808 461.878 39.302 461.878 37.83C461.878 36.404 460.452 35.944 457.324 35.208C454.15 34.472 450.654 32.862 450.654 28.538C450.654 23.064 455.806 20.856 460.176 20.856C463.58 20.856 467.122 21.96 469.376 24.076ZM491.074 24.076L486.934 28.354C485.738 27.204 483.99 26.284 482.15 26.284C480.724 26.284 479.298 26.79 479.298 28.124C479.298 29.412 480.54 29.78 483.484 30.424C486.98 31.206 490.798 32.954 490.798 37.416C490.798 43.212 485.692 45.236 481 45.236C477.274 45.236 473.41 43.994 471.018 41.694L475.25 37.232C476.584 38.704 478.654 39.808 480.862 39.808C482.104 39.808 483.576 39.302 483.576 37.83C483.576 36.404 482.15 35.944 479.022 35.208C475.848 34.472 472.352 32.862 472.352 28.538C472.352 23.064 477.504 20.856 481.874 20.856C485.278 20.856 488.82 21.96 491.074 24.076ZM39.744 100.5H32.2V87.988C32.2 85.366 31.602 83.158 28.934 83.158C26.358 83.158 25.116 85.55 25.116 88.126V100.5H17.572V87.436C17.572 84.814 16.56 83.158 14.306 83.158C11.914 83.158 10.534 85.32 10.534 88.08V100.5H2.944V77.592H10.258V80.766H10.35C11.408 78.834 13.754 76.948 17.204 76.948C20.516 76.948 22.816 78.374 24.104 80.858C25.622 78.466 28.014 76.948 31.418 76.948C37.628 76.948 39.744 82.008 39.744 86.332V100.5ZM69.7281 88.954C69.7281 96.452 63.9321 101.236 56.9861 101.236C50.0861 101.236 44.2901 96.452 44.2901 88.954C44.2901 81.456 50.0861 76.856 56.9861 76.856C63.9321 76.856 69.7281 81.456 69.7281 88.954ZM62.4601 88.954C62.4601 86.01 60.5281 83.112 56.9861 83.112C53.4441 83.112 51.6041 86.01 51.6041 88.954C51.6041 91.898 53.4901 94.888 57.0321 94.888C60.5741 94.888 62.4601 91.898 62.4601 88.954ZM97.1365 100.5H89.5465V87.988C89.5465 85.458 88.8565 83.158 86.1425 83.158C83.4745 83.158 82.0945 85.458 82.0945 88.08V100.5H74.5045V77.592H81.8185V80.766H81.9105C82.9685 78.742 85.5905 76.948 88.7645 76.948C94.9285 76.948 97.1365 81.732 97.1365 86.332V100.5ZM108.922 86.424H118.628C118.628 84.032 117.11 82.054 114.12 82.054C111.222 82.054 109.106 84.078 108.922 86.424ZM125.574 89.322C125.574 89.92 125.574 90.564 125.528 91.116H108.922C109.152 93.646 111.682 95.44 114.396 95.44C116.788 95.44 118.444 94.428 119.456 93.048L124.7 96.36C122.538 99.488 118.95 101.236 114.304 101.236C107.404 101.236 101.7 96.866 101.7 89.138C101.7 81.64 107.128 76.856 114.074 76.856C120.836 76.856 125.574 81.502 125.574 89.322ZM153.437 77.592L143.179 103.95C141.339 108.734 138.855 111.54 133.105 111.54C131.679 111.54 130.069 111.31 128.965 111.034L129.793 104.686C130.529 104.916 131.495 105.1 132.231 105.1C134.577 105.1 135.359 103.996 136.095 102.018L136.831 100.132L127.263 77.592H135.635L140.741 92.312H140.879L145.433 77.592H153.437ZM181.422 83.25H176.04V91.99C176.04 94.106 176.73 95.21 178.892 95.21C179.628 95.21 180.548 95.072 181.1 94.842L181.192 100.362C180.18 100.73 178.432 101.052 176.822 101.052C170.704 101.052 168.68 97.786 168.68 92.91V83.25H165V77.592H168.634V71.566H176.04V77.592H181.422V83.25ZM209.255 88.954C209.255 96.452 203.459 101.236 196.513 101.236C189.613 101.236 183.817 96.452 183.817 88.954C183.817 81.456 189.613 76.856 196.513 76.856C203.459 76.856 209.255 81.456 209.255 88.954ZM201.987 88.954C201.987 86.01 200.055 83.112 196.513 83.112C192.971 83.112 191.131 86.01 191.131 88.954C191.131 91.898 193.017 94.888 196.559 94.888C200.101 94.888 201.987 91.898 201.987 88.954ZM239.102 83.25H233.72V91.99C233.72 94.106 234.41 95.21 236.572 95.21C237.308 95.21 238.228 95.072 238.78 94.842L238.872 100.362C237.86 100.73 236.112 101.052 234.502 101.052C228.384 101.052 226.36 97.786 226.36 92.91V83.25H222.68V77.592H226.314V71.566H233.72V77.592H239.102V83.25ZM257.827 77.132L257.505 83.756C256.815 83.572 256.171 83.526 255.573 83.526C251.525 83.526 250.191 86.838 250.191 88.724V100.5H242.647V77.592H249.915V80.904H250.007C251.157 78.604 253.411 76.948 256.217 76.948C256.815 76.948 257.459 76.994 257.827 77.132ZM273.691 91.3V90.518H272.725C269.413 90.518 265.687 90.932 265.687 93.646C265.687 95.394 267.435 95.992 268.953 95.992C271.989 95.992 273.691 94.152 273.691 91.3ZM263.663 84.814L259.845 80.72C262.513 78.19 266.331 76.856 270.057 76.856C277.739 76.856 280.591 80.628 280.591 88.954V100.5H273.691V98.062H273.553C272.403 99.948 269.781 101.052 267.067 101.052C263.433 101.052 258.741 99.258 258.741 93.876C258.741 87.252 266.791 86.148 273.461 86.148V85.78C273.461 83.526 271.667 82.468 269.321 82.468C267.159 82.468 265.043 83.526 263.663 84.814ZM306.369 79.938L301.999 84.998C301.171 83.894 299.515 83.158 297.997 83.158C294.823 83.158 292.707 85.872 292.707 89.046C292.707 92.22 294.777 94.888 298.089 94.888C299.607 94.888 301.263 94.29 302.183 93.186L306.369 98.292C304.483 100.132 301.263 101.236 297.905 101.236C290.683 101.236 285.071 96.636 285.071 89.046C285.071 81.594 290.729 76.856 297.859 76.856C301.125 76.856 304.575 78.098 306.369 79.938ZM324.766 87.942L333.966 100.5H324.628L317.13 89.506H316.992V100.5H309.402V65.724H316.992V86.884H317.13L324.444 77.592H333.598L324.766 87.942ZM356.402 70.278C356.402 72.624 354.47 74.418 352.078 74.418C349.64 74.418 347.754 72.532 347.754 70.278C347.754 68.07 349.64 66.138 352.078 66.138C354.47 66.138 356.402 67.978 356.402 70.278ZM355.85 100.5H348.306V77.592H355.85V100.5ZM375.395 83.25H370.013V91.99C370.013 94.106 370.703 95.21 372.865 95.21C373.601 95.21 374.521 95.072 375.073 94.842L375.165 100.362C374.153 100.73 372.405 101.052 370.795 101.052C364.677 101.052 362.653 97.786 362.653 92.91V83.25H358.973V77.592H362.607V71.566H370.013V77.592H375.395V83.25ZM403.964 91.3V90.518H402.998C399.686 90.518 395.96 90.932 395.96 93.646C395.96 95.394 397.708 95.992 399.226 95.992C402.262 95.992 403.964 94.152 403.964 91.3ZM393.936 84.814L390.118 80.72C392.786 78.19 396.604 76.856 400.33 76.856C408.012 76.856 410.864 80.628 410.864 88.954V100.5H403.964V98.062H403.826C402.676 99.948 400.054 101.052 397.34 101.052C393.706 101.052 389.014 99.258 389.014 93.876C389.014 87.252 397.064 86.148 403.734 86.148V85.78C403.734 83.526 401.94 82.468 399.594 82.468C397.432 82.468 395.316 83.526 393.936 84.814ZM424.223 100.5H416.587V65.724H424.223V100.5ZM437.924 100.5H430.288V65.724H437.924V100.5ZM463.585 70.278C463.585 72.624 461.653 74.418 459.261 74.418C456.823 74.418 454.937 72.532 454.937 70.278C454.937 68.07 456.823 66.138 459.261 66.138C461.653 66.138 463.585 67.978 463.585 70.278ZM463.033 100.5H455.489V77.592H463.033V100.5ZM491.64 100.5H484.05V87.988C484.05 85.458 483.36 83.158 480.646 83.158C477.978 83.158 476.598 85.458 476.598 88.08V100.5H469.008V77.592H476.322V80.766H476.414C477.472 78.742 480.094 76.948 483.268 76.948C489.432 76.948 491.64 81.732 491.64 86.332V100.5ZM27.232 144.954C27.232 152.452 21.436 157.236 14.49 157.236C7.59 157.236 1.794 152.452 1.794 144.954C1.794 137.456 7.59 132.856 14.49 132.856C21.436 132.856 27.232 137.456 27.232 144.954ZM19.964 144.954C19.964 142.01 18.032 139.112 14.49 139.112C10.948 139.112 9.108 142.01 9.108 144.954C9.108 147.898 10.994 150.888 14.536 150.888C18.078 150.888 19.964 147.898 19.964 144.954ZM54.6405 156.5H47.0505V143.988C47.0505 141.458 46.3605 139.158 43.6465 139.158C40.9785 139.158 39.5985 141.458 39.5985 144.08V156.5H32.0085V133.592H39.3225V136.766H39.4145C40.4725 134.742 43.0945 132.948 46.2685 132.948C52.4325 132.948 54.6405 137.732 54.6405 142.332V156.5ZM66.4262 142.424H76.1322C76.1322 140.032 74.6142 138.054 71.6242 138.054C68.7262 138.054 66.6102 140.078 66.4262 142.424ZM83.0782 145.322C83.0782 145.92 83.0782 146.564 83.0322 147.116H66.4262C66.6562 149.646 69.1862 151.44 71.9002 151.44C74.2922 151.44 75.9482 150.428 76.9602 149.048L82.2042 152.36C80.0422 155.488 76.4542 157.236 71.8082 157.236C64.9082 157.236 59.2042 152.866 59.2042 145.138C59.2042 137.64 64.6322 132.856 71.5782 132.856C78.3402 132.856 83.0782 137.502 83.0782 145.322ZM116.875 136.076L112.735 140.354C111.539 139.204 109.791 138.284 107.951 138.284C106.525 138.284 105.099 138.79 105.099 140.124C105.099 141.412 106.341 141.78 109.285 142.424C112.781 143.206 116.599 144.954 116.599 149.416C116.599 155.212 111.493 157.236 106.801 157.236C103.074 157.236 99.2105 155.994 96.8185 153.694L101.051 149.232C102.384 150.704 104.455 151.808 106.663 151.808C107.905 151.808 109.377 151.302 109.377 149.83C109.377 148.404 107.951 147.944 104.823 147.208C101.649 146.472 98.1525 144.862 98.1525 140.538C98.1525 135.064 103.305 132.856 107.675 132.856C111.079 132.856 114.621 133.96 116.875 136.076ZM146.438 144.954C146.438 151.348 142.436 157.144 135.536 157.144C132.73 157.144 130.016 155.948 128.59 153.97H128.498V167.54H120.954V133.592H128.13V136.398H128.268C129.648 134.558 132.224 132.948 135.582 132.948C142.252 132.948 146.438 138.56 146.438 144.954ZM139.124 144.954C139.124 142.01 137.33 139.112 133.742 139.112C130.338 139.112 128.222 142.102 128.222 145C128.222 147.99 130.338 150.888 133.742 150.888C137.33 150.888 139.124 147.944 139.124 144.954ZM175.474 144.954C175.474 152.452 169.678 157.236 162.732 157.236C155.832 157.236 150.036 152.452 150.036 144.954C150.036 137.456 155.832 132.856 162.732 132.856C169.678 132.856 175.474 137.456 175.474 144.954ZM168.206 144.954C168.206 142.01 166.274 139.112 162.732 139.112C159.19 139.112 157.35 142.01 157.35 144.954C157.35 147.898 159.236 150.888 162.778 150.888C166.32 150.888 168.206 147.898 168.206 144.954ZM193.821 139.25H188.439V147.99C188.439 150.106 189.129 151.21 191.291 151.21C192.027 151.21 192.947 151.072 193.499 150.842L193.591 156.362C192.579 156.73 190.831 157.052 189.221 157.052C183.103 157.052 181.079 153.786 181.079 148.91V139.25H177.399V133.592H181.033V127.566H188.439V133.592H193.821V139.25ZM205.968 152.452C205.968 154.982 203.852 156.96 201.368 156.96C198.838 156.96 196.676 155.028 196.676 152.498C196.676 150.014 198.792 147.944 201.368 147.944C203.852 147.944 205.968 149.922 205.968 152.452Z" fill="black"/>
<path d="M9.88 191.7L8.74 192.62C8.14 191.76 7.16 191.2 5.82 191.2C4.42 191.2 2.8 192.04 2.8 193.86C2.8 195.66 4.3 196.12 5.88 196.64C7.88 197.3 10.08 197.94 10.08 200.78C10.08 203.62 7.7 204.86 5.46 204.86C3.74 204.86 2.02 204.16 1 202.76L2.24 201.84C2.86 202.84 4 203.62 5.48 203.62C6.94 203.62 8.62 202.7 8.62 200.88C8.62 198.9 6.96 198.4 5.16 197.84C3.28 197.26 1.36 196.44 1.36 193.88C1.36 191.14 3.8 189.98 5.88 189.98C7.78 189.98 9.2 190.78 9.88 191.7ZM17.1919 195.14V196.28H14.5519V201.74C14.5519 203.14 15.1319 203.46 15.9519 203.46C16.3319 203.46 16.7719 203.34 17.1319 203.16L17.1919 204.34C16.7119 204.52 16.2119 204.62 15.5919 204.62C14.5919 204.62 13.1919 204.18 13.1919 202.12V196.28H11.2519V195.14H13.1919V192.5H14.5519V195.14H17.1919ZM25.2195 198.76V198.46C25.2195 196.84 24.3395 196.04 22.7195 196.04C21.6195 196.04 20.5995 196.48 19.9395 197.14L19.1795 196.24C19.9395 195.48 21.2595 194.9 22.8595 194.9C24.8795 194.9 26.4995 196.02 26.4995 198.3V202.4C26.4995 203.12 26.5595 203.98 26.6595 204.5H25.4395C25.3595 204.04 25.2995 203.48 25.2995 202.98H25.2595C24.3995 204.22 23.3595 204.74 21.8595 204.74C20.4395 204.74 18.6195 203.98 18.6195 201.9C18.6195 199.02 21.7995 198.76 25.2195 198.76ZM25.2195 199.82H24.8195C22.5995 199.82 20.0195 200.06 20.0195 201.84C20.0195 203.18 21.1595 203.62 22.2195 203.62C24.1395 203.62 25.2195 202.18 25.2195 200.52V199.82ZM30.0431 195.14L33.2231 203.04H33.2631L36.1631 195.14H37.6431L32.9831 206.92C32.4231 208.36 31.6631 209.3 30.0431 209.3C29.6431 209.3 29.2231 209.26 28.8231 209.18L28.9631 207.94C29.2631 208.04 29.6031 208.1 29.9631 208.1C30.8831 208.1 31.3631 207.5 31.7631 206.44L32.5231 204.48L28.5231 195.14H30.0431ZM54.0688 199.82C54.0688 202.64 51.9888 204.74 49.0688 204.74C46.1688 204.74 44.0888 202.64 44.0888 199.82C44.0888 197 46.1688 194.9 49.0688 194.9C51.9888 194.9 54.0688 197 54.0688 199.82ZM52.6288 199.82C52.6288 197.72 51.2488 196.04 49.0688 196.04C46.9088 196.04 45.5288 197.72 45.5288 199.82C45.5288 201.92 46.9088 203.58 49.0688 203.58C51.2488 203.58 52.6288 201.92 52.6288 199.82ZM56.9153 195.14H58.2153C58.2553 195.64 58.2953 196.34 58.2953 196.74H58.3353C58.8553 195.66 60.2153 194.9 61.5353 194.9C63.9153 194.9 65.0953 196.44 65.0953 198.76V204.5H63.7353V199.32C63.7353 197.36 63.1553 196.04 61.1953 196.04C59.7553 196.04 58.3553 197.2 58.3553 199.7V204.5H56.9953V197.2C56.9953 196.7 56.9753 195.78 56.9153 195.14ZM77.8364 195.14V196.28H75.1964V201.74C75.1964 203.14 75.7764 203.46 76.5964 203.46C76.9764 203.46 77.4164 203.34 77.7764 203.16L77.8364 204.34C77.3564 204.52 76.8564 204.62 76.2364 204.62C75.2364 204.62 73.8364 204.18 73.8364 202.12V196.28H71.8964V195.14H73.8364V192.5H75.1964V195.14H77.8364ZM89.2641 199.82C89.2641 202.64 87.1841 204.74 84.2641 204.74C81.3641 204.74 79.2841 202.64 79.2841 199.82C79.2841 197 81.3641 194.9 84.2641 194.9C87.1841 194.9 89.2641 197 89.2641 199.82ZM87.8241 199.82C87.8241 197.72 86.4441 196.04 84.2641 196.04C82.1041 196.04 80.7241 197.72 80.7241 199.82C80.7241 201.92 82.1041 203.58 84.2641 203.58C86.4441 203.58 87.8241 201.92 87.8241 199.82ZM93.5506 202.92V209.3H92.1906V195.14H93.5506V196.76H93.6106C94.3906 195.54 95.7906 194.9 97.1306 194.9C100.051 194.9 101.971 197.06 101.971 199.82C101.971 202.58 100.051 204.74 97.1306 204.74C95.7906 204.74 94.3906 204.08 93.6106 202.92H93.5506ZM100.531 199.82C100.531 197.74 99.2506 196.04 96.9906 196.04C94.8906 196.04 93.3906 197.68 93.3906 199.82C93.3906 201.96 94.8906 203.58 96.9906 203.58C99.2506 203.58 100.531 201.9 100.531 199.82ZM119.186 199.82C119.186 202.64 117.106 204.74 114.186 204.74C111.286 204.74 109.206 202.64 109.206 199.82C109.206 197 111.286 194.9 114.186 194.9C117.106 194.9 119.186 197 119.186 199.82ZM117.746 199.82C117.746 197.72 116.366 196.04 114.186 196.04C112.026 196.04 110.646 197.72 110.646 199.82C110.646 201.92 112.026 203.58 114.186 203.58C116.366 203.58 117.746 201.92 117.746 199.82ZM126.073 195.14V196.28H123.873V204.5H122.513V196.28H120.553V195.14H122.513V192.58C122.513 190.46 123.553 189.14 125.693 189.14C126.033 189.14 126.473 189.18 126.813 189.28L126.573 190.48C126.293 190.4 125.993 190.34 125.633 190.34C124.173 190.34 123.873 191.38 123.873 192.74V195.14H126.073ZM133.539 195.14L136.719 203.04H136.759L139.659 195.14H141.139L136.479 206.92C135.919 208.36 135.159 209.3 133.539 209.3C133.139 209.3 132.719 209.26 132.319 209.18L132.459 207.94C132.759 208.04 133.099 208.1 133.459 208.1C134.379 208.1 134.859 207.5 135.259 206.44L136.019 204.48L132.019 195.14H133.539ZM152.565 199.82C152.565 202.64 150.485 204.74 147.565 204.74C144.665 204.74 142.585 202.64 142.585 199.82C142.585 197 144.665 194.9 147.565 194.9C150.485 194.9 152.565 197 152.565 199.82ZM151.125 199.82C151.125 197.72 149.745 196.04 147.565 196.04C145.405 196.04 144.025 197.72 144.025 199.82C144.025 201.92 145.405 203.58 147.565 203.58C149.745 203.58 151.125 201.92 151.125 199.82ZM163.591 204.5H162.291C162.251 204 162.211 203.3 162.211 202.9H162.171C161.651 203.98 160.291 204.74 158.971 204.74C156.591 204.74 155.411 203.2 155.411 200.88V195.14H156.771V200.32C156.771 202.28 157.351 203.6 159.311 203.6C160.751 203.6 162.151 202.44 162.151 199.94V195.14H163.511V202.44C163.511 202.94 163.531 203.86 163.591 204.5ZM167.113 197.2C167.113 196.7 167.093 195.78 167.033 195.14H168.333C168.373 195.64 168.413 196.34 168.413 196.74H168.453C168.973 195.66 170.133 194.9 171.453 194.9C171.793 194.9 172.073 194.92 172.353 195L172.173 196.28C172.013 196.22 171.573 196.16 171.213 196.16C169.773 196.16 168.473 197.2 168.473 199.7V204.5H167.113V197.2ZM180.66 196.74C181.2 195.66 182.4 194.9 183.74 194.9C184.76 194.9 186 195.28 186.62 196.88C187.26 195.6 188.4 194.9 189.9 194.9C192.28 194.9 193.46 196.44 193.46 198.76V204.5H192.1V199.32C192.1 197.36 191.44 196.04 189.68 196.04C187.72 196.04 187.02 197.78 187.02 199.52V204.5H185.66V199.04C185.66 197.22 185.22 196.04 183.4 196.04C182.1 196.04 180.68 197.2 180.68 199.7V204.5H179.32V197.2C179.32 196.7 179.3 195.78 179.24 195.14H180.54C180.58 195.64 180.62 196.34 180.62 196.74H180.66ZM206.276 199.82C206.276 202.64 204.196 204.74 201.276 204.74C198.376 204.74 196.296 202.64 196.296 199.82C196.296 197 198.376 194.9 201.276 194.9C204.196 194.9 206.276 197 206.276 199.82ZM204.836 199.82C204.836 197.72 203.456 196.04 201.276 196.04C199.116 196.04 197.736 197.72 197.736 199.82C197.736 201.92 199.116 203.58 201.276 203.58C203.456 203.58 204.836 201.92 204.836 199.82ZM209.122 195.14H210.422C210.462 195.64 210.502 196.34 210.502 196.74H210.542C211.062 195.66 212.422 194.9 213.742 194.9C216.122 194.9 217.302 196.44 217.302 198.76V204.5H215.942V199.32C215.942 197.36 215.362 196.04 213.402 196.04C211.962 196.04 210.562 197.2 210.562 199.7V204.5H209.202V197.2C209.202 196.7 209.182 195.78 209.122 195.14ZM221.583 199.1H227.963C227.883 197.34 226.803 196.04 224.863 196.04C223.043 196.04 221.703 197.5 221.583 199.1ZM229.343 199.54C229.343 199.72 229.343 199.94 229.323 200.18H221.563C221.603 202.06 223.063 203.58 224.983 203.58C226.383 203.58 227.463 202.8 227.983 201.96L229.003 202.76C227.903 204.16 226.523 204.74 224.983 204.74C222.203 204.74 220.143 202.64 220.143 199.82C220.143 197 222.203 194.9 224.863 194.9C227.803 194.9 229.343 196.98 229.343 199.54ZM232.309 195.14L235.489 203.04H235.529L238.429 195.14H239.909L235.249 206.92C234.689 208.36 233.929 209.3 232.309 209.3C231.909 209.3 231.489 209.26 231.089 209.18L231.229 207.94C231.529 208.04 231.869 208.1 232.229 208.1C233.149 208.1 233.629 207.5 234.029 206.44L234.789 204.48L230.789 195.14H232.309ZM252.934 198.76V198.46C252.934 196.84 252.054 196.04 250.434 196.04C249.334 196.04 248.314 196.48 247.654 197.14L246.894 196.24C247.654 195.48 248.974 194.9 250.574 194.9C252.594 194.9 254.214 196.02 254.214 198.3V202.4C254.214 203.12 254.274 203.98 254.374 204.5H253.154C253.074 204.04 253.014 203.48 253.014 202.98H252.974C252.114 204.22 251.074 204.74 249.574 204.74C248.154 204.74 246.334 203.98 246.334 201.9C246.334 199.02 249.514 198.76 252.934 198.76ZM252.934 199.82H252.534C250.314 199.82 247.734 200.06 247.734 201.84C247.734 203.18 248.874 203.62 249.934 203.62C251.854 203.62 252.934 202.18 252.934 200.52V199.82ZM257.638 195.14H258.938C258.978 195.64 259.018 196.34 259.018 196.74H259.058C259.578 195.66 260.938 194.9 262.258 194.9C264.638 194.9 265.818 196.44 265.818 198.76V204.5H264.458V199.32C264.458 197.36 263.878 196.04 261.918 196.04C260.478 196.04 259.078 197.2 259.078 199.7V204.5H257.718V197.2C257.718 196.7 257.698 195.78 257.638 195.14ZM277.039 202.92C276.239 204.1 274.839 204.74 273.499 204.74C270.579 204.74 268.659 202.58 268.659 199.82C268.659 197.06 270.579 194.9 273.499 194.9C274.839 194.9 276.239 195.54 277.039 196.76H277.079V189.38H278.439V204.5H277.079V202.92H277.039ZM270.099 199.82C270.099 201.9 271.379 203.58 273.639 203.58C275.739 203.58 277.239 201.96 277.239 199.82C277.239 197.68 275.739 196.04 273.639 196.04C271.379 196.04 270.099 197.74 270.099 199.82ZM287.833 199.1H294.213C294.133 197.34 293.053 196.04 291.113 196.04C289.293 196.04 287.953 197.5 287.833 199.1ZM295.593 199.54C295.593 199.72 295.593 199.94 295.573 200.18H287.813C287.853 202.06 289.313 203.58 291.233 203.58C292.633 203.58 293.713 202.8 294.233 201.96L295.253 202.76C294.153 204.16 292.773 204.74 291.233 204.74C288.453 204.74 286.393 202.64 286.393 199.82C286.393 197 288.453 194.9 291.113 194.9C294.053 194.9 295.593 196.98 295.593 199.54ZM304.302 198.76V198.46C304.302 196.84 303.422 196.04 301.802 196.04C300.702 196.04 299.682 196.48 299.022 197.14L298.262 196.24C299.022 195.48 300.342 194.9 301.942 194.9C303.962 194.9 305.582 196.02 305.582 198.3V202.4C305.582 203.12 305.642 203.98 305.742 204.5H304.522C304.442 204.04 304.382 203.48 304.382 202.98H304.342C303.482 204.22 302.442 204.74 300.942 204.74C299.522 204.74 297.702 203.98 297.702 201.9C297.702 199.02 300.882 198.76 304.302 198.76ZM304.302 199.82H303.902C301.682 199.82 299.102 200.06 299.102 201.84C299.102 203.18 300.242 203.62 301.302 203.62C303.222 203.62 304.302 202.18 304.302 200.52V199.82ZM309.085 197.2C309.085 196.7 309.065 195.78 309.005 195.14H310.305C310.345 195.64 310.385 196.34 310.385 196.74H310.425C310.945 195.66 312.105 194.9 313.425 194.9C313.765 194.9 314.045 194.92 314.325 195L314.145 196.28C313.985 196.22 313.545 196.16 313.185 196.16C311.745 196.16 310.445 197.2 310.445 199.7V204.5H309.085V197.2ZM316.212 195.14H317.512C317.552 195.64 317.592 196.34 317.592 196.74H317.632C318.152 195.66 319.512 194.9 320.832 194.9C323.212 194.9 324.392 196.44 324.392 198.76V204.5H323.032V199.32C323.032 197.36 322.452 196.04 320.492 196.04C319.052 196.04 317.652 197.2 317.652 199.7V204.5H316.292V197.2C316.292 196.7 316.272 195.78 316.212 195.14ZM340.613 190.34V191.62H334.713L334.613 196C335.213 195.78 335.933 195.68 336.573 195.68C339.233 195.68 341.173 197.48 341.173 200.12C341.173 202.86 339.273 204.86 336.473 204.86C334.433 204.86 333.013 203.84 332.233 202.28L333.533 201.7C334.033 202.86 335.153 203.62 336.393 203.62C338.313 203.62 339.713 202.18 339.713 200.26C339.713 198.16 338.213 196.86 336.193 196.86C335.173 196.86 334.153 197.16 333.253 197.64L333.393 190.34H340.613ZM346.395 203.54C346.395 204.1 345.955 204.62 345.315 204.62C344.675 204.62 344.235 204.1 344.235 203.54C344.235 202.98 344.675 202.46 345.315 202.46C345.955 202.46 346.395 202.98 346.395 203.54ZM353.71 189.98C357.23 189.98 358.35 193.76 358.35 197.44C358.35 201.12 357.23 204.86 353.71 204.86C350.15 204.86 349.07 201.12 349.07 197.44C349.07 193.76 350.15 189.98 353.71 189.98ZM353.71 191.2C351.19 191.2 350.53 194.62 350.53 197.44C350.53 200.26 351.19 203.62 353.71 203.62C356.19 203.62 356.89 200.26 356.89 197.44C356.89 194.62 356.19 191.2 353.71 191.2ZM365.312 189.98C368.832 189.98 369.952 193.76 369.952 197.44C369.952 201.12 368.832 204.86 365.312 204.86C361.752 204.86 360.672 201.12 360.672 197.44C360.672 193.76 361.752 189.98 365.312 189.98ZM365.312 191.2C362.792 191.2 362.132 194.62 362.132 197.44C362.132 200.26 362.792 203.62 365.312 203.62C367.792 203.62 368.492 200.26 368.492 197.44C368.492 194.62 367.792 191.2 365.312 191.2ZM378.913 193.6C378.913 195.56 377.373 197.1 375.393 197.1C373.413 197.1 371.873 195.56 371.873 193.6C371.873 191.64 373.413 190.1 375.393 190.1C377.373 190.1 378.913 191.64 378.913 193.6ZM377.713 193.6C377.713 192.28 376.653 191.3 375.393 191.3C374.133 191.3 373.073 192.28 373.073 193.6C373.073 194.92 374.133 195.9 375.393 195.9C376.653 195.9 377.713 194.92 377.713 193.6ZM387.013 201.24C387.013 203.2 385.473 204.74 383.493 204.74C381.513 204.74 379.973 203.2 379.973 201.24C379.973 199.28 381.513 197.74 383.493 197.74C385.473 197.74 387.013 199.28 387.013 201.24ZM385.813 201.24C385.813 199.92 384.753 198.94 383.493 198.94C382.233 198.94 381.173 199.92 381.173 201.24C381.173 202.56 382.233 203.54 383.493 203.54C384.753 203.54 385.813 202.56 385.813 201.24ZM384.453 190.26L375.453 205.12L374.413 204.58L383.433 189.72L384.453 190.26ZM395.742 200.78L394.202 204.5H392.622L398.742 190.34H400.142L406.222 204.5H404.622L403.062 200.78H395.742ZM399.402 191.94L396.282 199.46H402.522L399.402 191.94ZM408.306 204.5V190.34H412.306C415.186 190.34 417.086 191.58 417.086 194.12C417.086 196.66 415.146 197.92 412.266 197.92H409.746V204.5H408.306ZM409.746 191.58V196.7H412.186C414.426 196.7 415.646 195.8 415.646 194.12C415.646 192.38 414.366 191.58 412.186 191.58H409.746ZM424.416 198.4V204.5H422.976V198.4L417.676 190.34H419.476L423.736 197.2L428.036 190.34H429.716L424.416 198.4ZM431.825 203.54C431.825 204.1 431.385 204.62 430.745 204.62C430.105 204.62 429.665 204.1 429.665 203.54C429.665 202.98 430.105 202.46 430.745 202.46C431.385 202.46 431.825 202.98 431.825 203.54Z" fill="black"/>
<path d="M14.5 288.029C14.1022 288.029 13.7206 287.871 13.4393 287.59C13.158 287.309 13 286.927 13 286.529V285.5H4C3.46957 285.5 2.96086 285.289 2.58579 284.914C2.21071 284.539 2 284.031 2 283.5V281.5C2 280.97 2.21071 280.461 2.58579 280.086C2.96086 279.711 3.46957 279.5 4 279.5H13V278.472C12.9999 278.197 13.0758 277.926 13.2193 277.691C13.3628 277.455 13.5684 277.264 13.8135 277.138C14.0586 277.012 14.3337 276.956 14.6086 276.976C14.8836 276.996 15.1477 277.091 15.372 277.251L21.012 281.28C21.2064 281.419 21.3649 281.602 21.4743 281.815C21.5837 282.027 21.6407 282.262 21.6407 282.501C21.6407 282.74 21.5837 282.975 21.4743 283.188C21.3649 283.4 21.2064 283.583 21.012 283.722L15.373 287.749C15.1184 287.931 14.8131 288.029 14.5 288.029ZM4 281.5V283.5H14C14.2652 283.5 14.5196 283.606 14.7071 283.793C14.8946 283.981 15 284.235 15 284.5V285.557L19.279 282.5L15 279.443V280.5C15 280.765 14.8946 281.02 14.7071 281.207C14.5196 281.395 14.2652 281.5 14 281.5H4Z" fill="#A3A8B5"/>
<path d="M9.5 298.029C9.18725 298.029 8.88237 297.931 8.628 297.749L2.989 293.721C2.79455 293.582 2.63606 293.399 2.5267 293.187C2.41735 292.974 2.3603 292.739 2.3603 292.5C2.3603 292.261 2.41735 292.026 2.5267 291.814C2.63606 291.601 2.79455 291.418 2.989 291.279L8.628 287.251C8.8523 287.091 9.11642 286.996 9.39136 286.976C9.6663 286.956 9.94142 287.012 10.1865 287.138C10.4316 287.264 10.6372 287.455 10.7807 287.691C10.9242 287.926 11.0001 288.197 11 288.472V289.5H20C20.5304 289.5 21.0391 289.711 21.4142 290.086C21.7893 290.461 22 290.97 22 291.5V293.5C22 294.031 21.7893 294.539 21.4142 294.914C21.0391 295.289 20.5304 295.5 20 295.5H11V296.528C11 296.926 10.842 297.308 10.5607 297.589C10.2794 297.87 9.89782 298.029 9.5 298.029ZM4.721 292.5L9 295.557V294.5C9 294.235 9.10536 293.981 9.29289 293.793C9.48043 293.606 9.73478 293.5 10 293.5H20V291.5H10C9.73478 291.5 9.48043 291.395 9.29289 291.207C9.10536 291.02 9 290.765 9 290.5V289.443L4.721 292.5Z" fill="#A3A8B5"/>
<path d="M36.42 281.62V294.5H34.98V281.62H30.24V280.34H41.16V281.62H36.42ZM41.4094 287.2C41.4094 286.7 41.3894 285.78 41.3294 285.14H42.6294C42.6694 285.64 42.7094 286.34 42.7094 286.74H42.7494C43.2694 285.66 44.4294 284.9 45.7494 284.9C46.0894 284.9 46.3694 284.92 46.6494 285L46.4694 286.28C46.3094 286.22 45.8694 286.16 45.5094 286.16C44.0694 286.16 42.7694 287.2 42.7694 289.7V294.5H41.4094V287.2ZM54.282 288.76V288.46C54.282 286.84 53.402 286.04 51.782 286.04C50.682 286.04 49.662 286.48 49.002 287.14L48.242 286.24C49.002 285.48 50.322 284.9 51.922 284.9C53.942 284.9 55.562 286.02 55.562 288.3V292.4C55.562 293.12 55.622 293.98 55.722 294.5H54.502C54.422 294.04 54.362 293.48 54.362 292.98H54.322C53.462 294.22 52.422 294.74 50.922 294.74C49.502 294.74 47.682 293.98 47.682 291.9C47.682 289.02 50.862 288.76 54.282 288.76ZM54.282 289.82H53.882C51.662 289.82 49.082 290.06 49.082 291.84C49.082 293.18 50.222 293.62 51.282 293.62C53.202 293.62 54.282 292.18 54.282 290.52V289.82ZM58.9856 285.14H60.2856C60.3256 285.64 60.3656 286.34 60.3656 286.74H60.4056C60.9256 285.66 62.2856 284.9 63.6056 284.9C65.9856 284.9 67.1656 286.44 67.1656 288.76V294.5H65.8056V289.32C65.8056 287.36 65.2256 286.04 63.2656 286.04C61.8256 286.04 60.4256 287.2 60.4256 289.7V294.5H59.0656V287.2C59.0656 286.7 59.0456 285.78 58.9856 285.14ZM76.7067 286.58L75.6667 287.36C75.2667 286.58 74.4067 286.04 73.3667 286.04C72.3867 286.04 71.3867 286.46 71.3867 287.5C71.3867 288.38 72.0867 288.78 73.6267 289.1C75.8267 289.56 76.8667 290.38 76.8667 291.84C76.8667 293.98 75.0667 294.74 73.3467 294.74C71.9267 294.74 70.5067 294.18 69.6467 292.92L70.7267 292.12C71.2067 292.94 72.2267 293.58 73.3267 293.58C74.4867 293.58 75.5267 293.16 75.5267 291.94C75.5267 290.96 74.5467 290.56 72.7667 290.14C71.6667 289.88 70.0867 289.4 70.0867 287.62C70.0867 285.72 71.7267 284.9 73.4267 284.9C74.7267 284.9 76.1067 285.52 76.7067 286.58ZM83.5334 285.14V286.28H81.3334V294.5H79.9734V286.28H78.0134V285.14H79.9734V282.58C79.9734 280.46 81.0134 279.14 83.1534 279.14C83.4934 279.14 83.9334 279.18 84.2734 279.28L84.0334 280.48C83.7534 280.4 83.4534 280.34 83.0934 280.34C81.6334 280.34 81.3334 281.38 81.3334 282.74V285.14H83.5334ZM86.2319 289.1H92.6119C92.5319 287.34 91.4519 286.04 89.5119 286.04C87.6919 286.04 86.3519 287.5 86.2319 289.1ZM93.9919 289.54C93.9919 289.72 93.9919 289.94 93.9719 290.18H86.2119C86.2519 292.06 87.7119 293.58 89.6319 293.58C91.0319 293.58 92.1119 292.8 92.6319 291.96L93.6519 292.76C92.5519 294.16 91.1719 294.74 89.6319 294.74C86.8519 294.74 84.7919 292.64 84.7919 289.82C84.7919 287 86.8519 284.9 89.5119 284.9C92.4519 284.9 93.9919 286.98 93.9919 289.54ZM96.9172 287.2C96.9172 286.7 96.8972 285.78 96.8372 285.14H98.1372C98.1772 285.64 98.2172 286.34 98.2172 286.74H98.2572C98.7772 285.66 99.9372 284.9 101.257 284.9C101.597 284.9 101.877 284.92 102.157 285L101.977 286.28C101.817 286.22 101.377 286.16 101.017 286.16C99.5772 286.16 98.2772 287.2 98.2772 289.7V294.5H96.9172V287.2ZM110.464 286.74C111.004 285.66 112.204 284.9 113.544 284.9C114.564 284.9 115.804 285.28 116.424 286.88C117.064 285.6 118.204 284.9 119.704 284.9C122.084 284.9 123.264 286.44 123.264 288.76V294.5H121.904V289.32C121.904 287.36 121.244 286.04 119.484 286.04C117.524 286.04 116.824 287.78 116.824 289.52V294.5H115.464V289.04C115.464 287.22 115.024 286.04 113.204 286.04C111.904 286.04 110.484 287.2 110.484 289.7V294.5H109.124V287.2C109.124 286.7 109.104 285.78 109.044 285.14H110.344C110.384 285.64 110.424 286.34 110.424 286.74H110.464ZM136.08 289.82C136.08 292.64 134 294.74 131.08 294.74C128.18 294.74 126.1 292.64 126.1 289.82C126.1 287 128.18 284.9 131.08 284.9C134 284.9 136.08 287 136.08 289.82ZM134.64 289.82C134.64 287.72 133.26 286.04 131.08 286.04C128.92 286.04 127.54 287.72 127.54 289.82C127.54 291.92 128.92 293.58 131.08 293.58C133.26 293.58 134.64 291.92 134.64 289.82ZM138.927 285.14H140.227C140.267 285.64 140.307 286.34 140.307 286.74H140.347C140.867 285.66 142.227 284.9 143.547 284.9C145.927 284.9 147.107 286.44 147.107 288.76V294.5H145.747V289.32C145.747 287.36 145.167 286.04 143.207 286.04C141.767 286.04 140.367 287.2 140.367 289.7V294.5H139.007V287.2C139.007 286.7 138.987 285.78 138.927 285.14ZM151.388 289.1H157.768C157.688 287.34 156.608 286.04 154.668 286.04C152.848 286.04 151.508 287.5 151.388 289.1ZM159.148 289.54C159.148 289.72 159.148 289.94 159.128 290.18H151.368C151.408 292.06 152.868 293.58 154.788 293.58C156.188 293.58 157.268 292.8 157.788 291.96L158.808 292.76C157.708 294.16 156.328 294.74 154.788 294.74C152.008 294.74 149.948 292.64 149.948 289.82C149.948 287 152.008 284.9 154.668 284.9C157.608 284.9 159.148 286.98 159.148 289.54ZM162.113 285.14L165.293 293.04H165.333L168.233 285.14H169.713L165.053 296.92C164.493 298.36 163.733 299.3 162.113 299.3C161.713 299.3 161.293 299.26 160.893 299.18L161.033 297.94C161.333 298.04 161.673 298.1 162.033 298.1C162.953 298.1 163.433 297.5 163.833 296.44L164.593 294.48L160.593 285.14H162.113ZM180.799 285.14V286.28H178.599V294.5H177.239V286.28H175.279V285.14H177.239V282.58C177.239 280.46 178.279 279.14 180.419 279.14C180.759 279.14 181.199 279.18 181.539 279.28L181.299 280.48C181.019 280.4 180.719 280.34 180.359 280.34C178.899 280.34 178.599 281.38 178.599 282.74V285.14H180.799ZM182.738 287.2C182.738 286.7 182.718 285.78 182.658 285.14H183.958C183.998 285.64 184.038 286.34 184.038 286.74H184.078C184.598 285.66 185.758 284.9 187.078 284.9C187.418 284.9 187.698 284.92 187.978 285L187.798 286.28C187.638 286.22 187.198 286.16 186.838 286.16C185.398 286.16 184.098 287.2 184.098 289.7V294.5H182.738V287.2ZM198.893 289.82C198.893 292.64 196.813 294.74 193.893 294.74C190.993 294.74 188.913 292.64 188.913 289.82C188.913 287 190.993 284.9 193.893 284.9C196.813 284.9 198.893 287 198.893 289.82ZM197.453 289.82C197.453 287.72 196.073 286.04 193.893 286.04C191.733 286.04 190.353 287.72 190.353 289.82C190.353 291.92 191.733 293.58 193.893 293.58C196.073 293.58 197.453 291.92 197.453 289.82ZM203.16 286.74C203.7 285.66 204.9 284.9 206.24 284.9C207.26 284.9 208.5 285.28 209.12 286.88C209.76 285.6 210.9 284.9 212.4 284.9C214.78 284.9 215.96 286.44 215.96 288.76V294.5H214.6V289.32C214.6 287.36 213.94 286.04 212.18 286.04C210.22 286.04 209.52 287.78 209.52 289.52V294.5H208.16V289.04C208.16 287.22 207.72 286.04 205.9 286.04C204.6 286.04 203.18 287.2 203.18 289.7V294.5H201.82V287.2C201.82 286.7 201.8 285.78 201.74 285.14H203.04C203.08 285.64 203.12 286.34 203.12 286.74H203.16ZM233.776 289.82C233.776 292.64 231.696 294.74 228.776 294.74C225.876 294.74 223.796 292.64 223.796 289.82C223.796 287 225.876 284.9 228.776 284.9C231.696 284.9 233.776 287 233.776 289.82ZM232.336 289.82C232.336 287.72 230.956 286.04 228.776 286.04C226.616 286.04 225.236 287.72 225.236 289.82C225.236 291.92 226.616 293.58 228.776 293.58C230.956 293.58 232.336 291.92 232.336 289.82ZM240.922 285.14V286.28H238.282V291.74C238.282 293.14 238.862 293.46 239.682 293.46C240.062 293.46 240.502 293.34 240.862 293.16L240.922 294.34C240.442 294.52 239.942 294.62 239.322 294.62C238.322 294.62 236.922 294.18 236.922 292.12V286.28H234.982V285.14H236.922V282.5H238.282V285.14H240.922ZM244.45 286.68H244.49C244.99 285.6 246.31 284.9 247.63 284.9C250.01 284.9 251.19 286.44 251.19 288.76V294.5H249.83V289.32C249.83 287.36 249.25 286.04 247.29 286.04C245.85 286.04 244.45 287.2 244.45 289.7V294.5H243.09V279.38H244.45V286.68ZM255.47 289.1H261.85C261.77 287.34 260.69 286.04 258.75 286.04C256.93 286.04 255.59 287.5 255.47 289.1ZM263.23 289.54C263.23 289.72 263.23 289.94 263.21 290.18H255.45C255.49 292.06 256.95 293.58 258.87 293.58C260.27 293.58 261.35 292.8 261.87 291.96L262.89 292.76C261.79 294.16 260.41 294.74 258.87 294.74C256.09 294.74 254.03 292.64 254.03 289.82C254.03 287 256.09 284.9 258.75 284.9C261.69 284.9 263.23 286.98 263.23 289.54ZM266.155 287.2C266.155 286.7 266.135 285.78 266.075 285.14H267.375C267.415 285.64 267.455 286.34 267.455 286.74H267.495C268.015 285.66 269.175 284.9 270.495 284.9C270.835 284.9 271.115 284.92 271.395 285L271.215 286.28C271.055 286.22 270.615 286.16 270.255 286.16C268.815 286.16 267.515 287.2 267.515 289.7V294.5H266.155V287.2ZM279.803 292.92H279.763V294.5H278.403V279.38H279.763V286.76H279.803C280.603 285.54 282.003 284.9 283.343 284.9C286.263 284.9 288.183 287.06 288.183 289.82C288.183 292.58 286.263 294.74 283.343 294.74C282.003 294.74 280.603 294.1 279.803 292.92ZM286.743 289.82C286.743 287.74 285.463 286.04 283.203 286.04C281.103 286.04 279.603 287.68 279.603 289.82C279.603 291.96 281.103 293.58 283.203 293.58C285.463 293.58 286.743 291.9 286.743 289.82ZM296.997 288.76V288.46C296.997 286.84 296.117 286.04 294.497 286.04C293.397 286.04 292.377 286.48 291.717 287.14L290.957 286.24C291.717 285.48 293.037 284.9 294.637 284.9C296.657 284.9 298.277 286.02 298.277 288.3V292.4C298.277 293.12 298.337 293.98 298.437 294.5H297.217C297.137 294.04 297.077 293.48 297.077 292.98H297.037C296.177 294.22 295.137 294.74 293.637 294.74C292.217 294.74 290.397 293.98 290.397 291.9C290.397 289.02 293.577 288.76 296.997 288.76ZM296.997 289.82H296.597C294.377 289.82 291.797 290.06 291.797 291.84C291.797 293.18 292.937 293.62 293.997 293.62C295.917 293.62 296.997 292.18 296.997 290.52V289.82ZM301.7 285.14H303C303.04 285.64 303.08 286.34 303.08 286.74H303.12C303.64 285.66 305 284.9 306.32 284.9C308.7 284.9 309.88 286.44 309.88 288.76V294.5H308.52V289.32C308.52 287.36 307.94 286.04 305.98 286.04C304.54 286.04 303.14 287.2 303.14 289.7V294.5H301.78V287.2C301.78 286.7 301.76 285.78 301.7 285.14ZM314.802 279.38V289.36H314.862L319.182 285.14H321.142L316.422 289.42L321.622 294.5H319.622L314.862 289.58H314.802V294.5H313.442V279.38H314.802ZM329.5 286.58L328.46 287.36C328.06 286.58 327.2 286.04 326.16 286.04C325.18 286.04 324.18 286.46 324.18 287.5C324.18 288.38 324.88 288.78 326.42 289.1C328.62 289.56 329.66 290.38 329.66 291.84C329.66 293.98 327.86 294.74 326.14 294.74C324.72 294.74 323.3 294.18 322.44 292.92L323.52 292.12C324 292.94 325.02 293.58 326.12 293.58C327.28 293.58 328.32 293.16 328.32 291.94C328.32 290.96 327.34 290.56 325.56 290.14C324.46 289.88 322.88 289.4 322.88 287.62C322.88 285.72 324.52 284.9 326.22 284.9C327.52 284.9 328.9 285.52 329.5 286.58ZM334.246 293.54C334.246 294.1 333.806 294.62 333.166 294.62C332.526 294.62 332.086 294.1 332.086 293.54C332.086 292.98 332.526 292.46 333.166 292.46C333.806 292.46 334.246 292.98 334.246 293.54Z" fill="#979797"/>
<path d="M19 317.5H5C4.20435 317.5 3.44129 317.816 2.87868 318.379C2.31607 318.941 2 319.704 2 320.5V334.5C2 335.296 2.31607 336.059 2.87868 336.621C3.44129 337.184 4.20435 337.5 5 337.5H19C19.7956 337.5 20.5587 337.184 21.1213 336.621C21.6839 336.059 22 335.296 22 334.5V320.5C22 319.704 21.6839 318.941 21.1213 318.379C20.5587 317.816 19.7956 317.5 19 317.5ZM5 319.5H19C19.2652 319.5 19.5196 319.605 19.7071 319.793C19.8946 319.98 20 320.235 20 320.5V323.5H4V320.5C4 320.235 4.10536 319.98 4.29289 319.793C4.48043 319.605 4.73478 319.5 5 319.5ZM19 335.5H5C4.73478 335.5 4.48043 335.395 4.29289 335.207C4.10536 335.02 4 334.765 4 334.5V325.5H20V334.5C20 334.765 19.8946 335.02 19.7071 335.207C19.5196 335.395 19.2652 335.5 19 335.5Z" fill="#A3A8B5"/>
<path d="M6 322.5C6.55228 322.5 7 322.052 7 321.5C7 320.948 6.55228 320.5 6 320.5C5.44772 320.5 5 320.948 5 321.5C5 322.052 5.44772 322.5 6 322.5Z" fill="#A3A8B5"/>
<path d="M9 322.5C9.55228 322.5 10 322.052 10 321.5C10 320.948 9.55228 320.5 9 320.5C8.44772 320.5 8 320.948 8 321.5C8 322.052 8.44772 322.5 9 322.5Z" fill="#A3A8B5"/>
<path d="M12 322.5C12.5523 322.5 13 322.052 13 321.5C13 320.948 12.5523 320.5 12 320.5C11.4477 320.5 11 320.948 11 321.5C11 322.052 11.4477 322.5 12 322.5Z" fill="#A3A8B5"/>
<path d="M31.88 334.5V320.34H36.1C38.26 320.34 40.66 321.12 40.66 323.96C40.66 325.44 39.66 326.66 38.16 327V327.04C40 327.24 41.36 328.52 41.36 330.58C41.36 332.94 39.34 334.5 36.08 334.5H31.88ZM33.32 321.58V326.54H36.22C37.6 326.54 39.22 325.94 39.22 324.06C39.22 322.26 37.68 321.58 35.82 321.58H33.32ZM33.32 327.72V333.26H36C38.08 333.26 39.9 332.48 39.9 330.5C39.9 328.64 38.56 327.72 36.26 327.72H33.32ZM44.5148 327.2C44.5148 326.7 44.4948 325.78 44.4348 325.14H45.7348C45.7748 325.64 45.8148 326.34 45.8148 326.74H45.8548C46.3748 325.66 47.5348 324.9 48.8548 324.9C49.1948 324.9 49.4748 324.92 49.7548 325L49.5748 326.28C49.4148 326.22 48.9748 326.16 48.6148 326.16C47.1748 326.16 45.8748 327.2 45.8748 329.7V334.5H44.5148V327.2ZM53.1019 325.14V334.5H51.7419V325.14H53.1019ZM53.3819 321.54C53.3819 322.1 52.9019 322.5 52.4219 322.5C51.9419 322.5 51.4619 322.1 51.4619 321.54C51.4619 320.98 51.9419 320.58 52.4219 320.58C52.9019 320.58 53.3819 320.98 53.3819 321.54ZM56.6419 325.14H57.9419C57.9819 325.64 58.0219 326.34 58.0219 326.74H58.0619C58.5819 325.66 59.9419 324.9 61.2619 324.9C63.6419 324.9 64.8219 326.44 64.8219 328.76V334.5H63.4619V329.32C63.4619 327.36 62.8819 326.04 60.9219 326.04C59.4819 326.04 58.0819 327.2 58.0819 329.7V334.5H56.7219V327.2C56.7219 326.7 56.7019 325.78 56.6419 325.14ZM67.863 337.42L68.843 336.38C69.583 337.34 71.003 338.1 72.423 338.1C75.103 338.1 76.083 336.44 76.083 334.42V332.66H76.043C75.323 333.82 73.863 334.5 72.503 334.5C69.583 334.5 67.663 332.48 67.663 329.74C67.663 327.08 69.583 324.9 72.503 324.9C73.863 324.9 75.303 325.56 76.043 326.76H76.083V325.14H77.443V334.42C77.443 336.46 76.503 339.3 72.363 339.3C70.643 339.3 68.963 338.58 67.863 337.42ZM69.103 329.7C69.103 331.66 70.383 333.34 72.643 333.34C74.743 333.34 76.243 331.86 76.243 329.7C76.243 327.74 74.743 326.04 72.643 326.04C70.383 326.04 69.103 327.74 69.103 329.7ZM87.3597 325.14V334.5H85.9997V325.14H87.3597ZM87.6397 321.54C87.6397 322.1 87.1597 322.5 86.6797 322.5C86.1997 322.5 85.7197 322.1 85.7197 321.54C85.7197 320.98 86.1997 320.58 86.6797 320.58C87.1597 320.58 87.6397 320.98 87.6397 321.54ZM90.8997 325.14H92.1997C92.2397 325.64 92.2797 326.34 92.2797 326.74H92.3197C92.8397 325.66 94.1997 324.9 95.5197 324.9C97.8997 324.9 99.0797 326.44 99.0797 328.76V334.5H97.7197V329.32C97.7197 327.36 97.1397 326.04 95.1797 326.04C93.7397 326.04 92.3397 327.2 92.3397 329.7V334.5H90.9797V327.2C90.9797 326.7 90.9597 325.78 90.8997 325.14ZM108.941 326.74C109.481 325.66 110.681 324.9 112.021 324.9C113.041 324.9 114.281 325.28 114.901 326.88C115.541 325.6 116.681 324.9 118.181 324.9C120.561 324.9 121.741 326.44 121.741 328.76V334.5H120.381V329.32C120.381 327.36 119.721 326.04 117.961 326.04C116.001 326.04 115.301 327.78 115.301 329.52V334.5H113.941V329.04C113.941 327.22 113.501 326.04 111.681 326.04C110.381 326.04 108.961 327.2 108.961 329.7V334.5H107.601V327.2C107.601 326.7 107.581 325.78 107.521 325.14H108.821C108.861 325.64 108.901 326.34 108.901 326.74H108.941ZM134.557 329.82C134.557 332.64 132.477 334.74 129.557 334.74C126.657 334.74 124.577 332.64 124.577 329.82C124.577 327 126.657 324.9 129.557 324.9C132.477 324.9 134.557 327 134.557 329.82ZM133.117 329.82C133.117 327.72 131.737 326.04 129.557 326.04C127.397 326.04 126.017 327.72 126.017 329.82C126.017 331.92 127.397 333.58 129.557 333.58C131.737 333.58 133.117 331.92 133.117 329.82ZM137.404 325.14H138.704C138.744 325.64 138.784 326.34 138.784 326.74H138.824C139.344 325.66 140.704 324.9 142.024 324.9C144.404 324.9 145.584 326.44 145.584 328.76V334.5H144.224V329.32C144.224 327.36 143.644 326.04 141.684 326.04C140.244 326.04 138.844 327.2 138.844 329.7V334.5H137.484V327.2C137.484 326.7 137.464 325.78 137.404 325.14ZM149.865 329.1H156.245C156.165 327.34 155.085 326.04 153.145 326.04C151.325 326.04 149.985 327.5 149.865 329.1ZM157.625 329.54C157.625 329.72 157.625 329.94 157.605 330.18H149.845C149.885 332.06 151.345 333.58 153.265 333.58C154.665 333.58 155.745 332.8 156.265 331.96L157.285 332.76C156.185 334.16 154.805 334.74 153.265 334.74C150.485 334.74 148.425 332.64 148.425 329.82C148.425 327 150.485 324.9 153.145 324.9C156.085 324.9 157.625 326.98 157.625 329.54ZM160.59 325.14L163.77 333.04H163.81L166.71 325.14H168.19L163.53 336.92C162.97 338.36 162.21 339.3 160.59 339.3C160.19 339.3 159.77 339.26 159.37 339.18L159.51 337.94C159.81 338.04 160.15 338.1 160.51 338.1C161.43 338.1 161.91 337.5 162.31 336.44L163.07 334.48L159.07 325.14H160.59ZM179.276 325.14V326.28H177.076V334.5H175.716V326.28H173.756V325.14H175.716V322.58C175.716 320.46 176.756 319.14 178.896 319.14C179.236 319.14 179.676 319.18 180.016 319.28L179.776 320.48C179.496 320.4 179.196 320.34 178.836 320.34C177.376 320.34 177.076 321.38 177.076 322.74V325.14H179.276ZM181.214 327.2C181.214 326.7 181.194 325.78 181.134 325.14H182.434C182.474 325.64 182.514 326.34 182.514 326.74H182.554C183.074 325.66 184.234 324.9 185.554 324.9C185.894 324.9 186.174 324.92 186.454 325L186.274 326.28C186.114 326.22 185.674 326.16 185.314 326.16C183.874 326.16 182.574 327.2 182.574 329.7V334.5H181.214V327.2ZM197.37 329.82C197.37 332.64 195.29 334.74 192.37 334.74C189.47 334.74 187.39 332.64 187.39 329.82C187.39 327 189.47 324.9 192.37 324.9C195.29 324.9 197.37 327 197.37 329.82ZM195.93 329.82C195.93 327.72 194.55 326.04 192.37 326.04C190.21 326.04 188.83 327.72 188.83 329.82C188.83 331.92 190.21 333.58 192.37 333.58C194.55 333.58 195.93 331.92 195.93 329.82ZM201.636 326.74C202.176 325.66 203.376 324.9 204.716 324.9C205.736 324.9 206.976 325.28 207.596 326.88C208.236 325.6 209.376 324.9 210.876 324.9C213.256 324.9 214.436 326.44 214.436 328.76V334.5H213.076V329.32C213.076 327.36 212.416 326.04 210.656 326.04C208.696 326.04 207.996 327.78 207.996 329.52V334.5H206.636V329.04C206.636 327.22 206.196 326.04 204.376 326.04C203.076 326.04 201.656 327.2 201.656 329.7V334.5H200.296V327.2C200.296 326.7 200.276 325.78 200.216 325.14H201.516C201.556 325.64 201.596 326.34 201.596 326.74H201.636ZM228.852 328.76V328.46C228.852 326.84 227.972 326.04 226.352 326.04C225.252 326.04 224.232 326.48 223.572 327.14L222.812 326.24C223.572 325.48 224.892 324.9 226.492 324.9C228.512 324.9 230.132 326.02 230.132 328.3V332.4C230.132 333.12 230.192 333.98 230.292 334.5H229.072C228.992 334.04 228.932 333.48 228.932 332.98H228.892C228.032 334.22 226.992 334.74 225.492 334.74C224.072 334.74 222.252 333.98 222.252 331.9C222.252 329.02 225.432 328.76 228.852 328.76ZM228.852 329.82H228.452C226.232 329.82 223.652 330.06 223.652 331.84C223.652 333.18 224.792 333.62 225.852 333.62C227.772 333.62 228.852 332.18 228.852 330.52V329.82ZM234.996 332.92V339.3H233.636V325.14H234.996V326.76H235.056C235.836 325.54 237.236 324.9 238.576 324.9C241.496 324.9 243.416 327.06 243.416 329.82C243.416 332.58 241.496 334.74 238.576 334.74C237.236 334.74 235.836 334.08 235.056 332.92H234.996ZM241.976 329.82C241.976 327.74 240.696 326.04 238.436 326.04C236.336 326.04 234.836 327.68 234.836 329.82C234.836 331.96 236.336 333.58 238.436 333.58C240.696 333.58 241.976 331.9 241.976 329.82ZM247.691 332.92V339.3H246.331V325.14H247.691V326.76H247.751C248.531 325.54 249.931 324.9 251.271 324.9C254.191 324.9 256.111 327.06 256.111 329.82C256.111 332.58 254.191 334.74 251.271 334.74C249.931 334.74 248.531 334.08 247.751 332.92H247.691ZM254.671 329.82C254.671 327.74 253.391 326.04 251.131 326.04C249.031 326.04 247.531 327.68 247.531 329.82C247.531 331.96 249.031 333.58 251.131 333.58C253.391 333.58 254.671 331.9 254.671 329.82ZM265.047 326.58L264.007 327.36C263.607 326.58 262.747 326.04 261.707 326.04C260.727 326.04 259.727 326.46 259.727 327.5C259.727 328.38 260.427 328.78 261.967 329.1C264.167 329.56 265.207 330.38 265.207 331.84C265.207 333.98 263.407 334.74 261.687 334.74C260.267 334.74 258.847 334.18 257.987 332.92L259.067 332.12C259.547 332.94 260.567 333.58 261.667 333.58C262.827 333.58 263.867 333.16 263.867 331.94C263.867 330.96 262.887 330.56 261.107 330.14C260.007 329.88 258.427 329.4 258.427 327.62C258.427 325.72 260.067 324.9 261.767 324.9C263.067 324.9 264.447 325.52 265.047 326.58ZM269.773 332.6L268.153 337.3H267.013L268.353 332.6H269.773ZM278.903 319.38V334.5H277.543V319.38H278.903ZM283.922 325.14V334.5H282.562V325.14H283.922ZM284.202 321.54C284.202 322.1 283.722 322.5 283.242 322.5C282.762 322.5 282.282 322.1 282.282 321.54C282.282 320.98 282.762 320.58 283.242 320.58C283.722 320.58 284.202 320.98 284.202 321.54ZM288.942 319.38V329.36H289.002L293.322 325.14H295.282L290.562 329.42L295.762 334.5H293.762L289.002 329.58H288.942V334.5H287.582V319.38H288.942ZM298.146 329.1H304.526C304.446 327.34 303.366 326.04 301.426 326.04C299.606 326.04 298.266 327.5 298.146 329.1ZM305.906 329.54C305.906 329.72 305.906 329.94 305.886 330.18H298.126C298.166 332.06 299.626 333.58 301.546 333.58C302.946 333.58 304.026 332.8 304.546 331.96L305.566 332.76C304.466 334.16 303.086 334.74 301.546 334.74C298.766 334.74 296.706 332.64 296.706 329.82C296.706 327 298.766 324.9 301.426 324.9C304.366 324.9 305.906 326.98 305.906 329.54ZM313.911 334.5V320.34H317.911C320.791 320.34 322.691 321.58 322.691 324.12C322.691 326.66 320.751 327.92 317.871 327.92H315.351V334.5H313.911ZM315.351 321.58V326.7H317.791C320.031 326.7 321.251 325.8 321.251 324.12C321.251 322.38 319.971 321.58 317.791 321.58H315.351ZM330.141 328.76V328.46C330.141 326.84 329.261 326.04 327.641 326.04C326.541 326.04 325.521 326.48 324.861 327.14L324.101 326.24C324.861 325.48 326.181 324.9 327.781 324.9C329.801 324.9 331.421 326.02 331.421 328.3V332.4C331.421 333.12 331.481 333.98 331.581 334.5H330.361C330.281 334.04 330.221 333.48 330.221 332.98H330.181C329.321 334.22 328.281 334.74 326.781 334.74C325.361 334.74 323.541 333.98 323.541 331.9C323.541 329.02 326.721 328.76 330.141 328.76ZM330.141 329.82H329.741C327.521 329.82 324.941 330.06 324.941 331.84C324.941 333.18 326.081 333.62 327.141 333.62C329.061 333.62 330.141 332.18 330.141 330.52V329.82ZM334.965 325.14L338.145 333.04H338.185L341.085 325.14H342.565L337.905 336.92C337.345 338.36 336.585 339.3 334.965 339.3C334.565 339.3 334.145 339.26 333.745 339.18L333.885 337.94C334.185 338.04 334.525 338.1 334.885 338.1C335.805 338.1 336.285 337.5 336.685 336.44L337.445 334.48L333.445 325.14H334.965ZM344.771 334.5V320.34H348.771C351.651 320.34 353.551 321.58 353.551 324.12C353.551 326.66 351.611 327.92 348.731 327.92H346.211V334.5H344.771ZM346.211 321.58V326.7H348.651C350.891 326.7 352.111 325.8 352.111 324.12C352.111 322.38 350.831 321.58 348.651 321.58H346.211ZM361.001 328.76V328.46C361.001 326.84 360.121 326.04 358.501 326.04C357.401 326.04 356.381 326.48 355.721 327.14L354.961 326.24C355.721 325.48 357.041 324.9 358.641 324.9C360.661 324.9 362.281 326.02 362.281 328.3V332.4C362.281 333.12 362.341 333.98 362.441 334.5H361.221C361.141 334.04 361.081 333.48 361.081 332.98H361.041C360.181 334.22 359.141 334.74 357.641 334.74C356.221 334.74 354.401 333.98 354.401 331.9C354.401 329.02 357.581 328.76 361.001 328.76ZM361.001 329.82H360.601C358.381 329.82 355.801 330.06 355.801 331.84C355.801 333.18 356.941 333.62 358.001 333.62C359.921 333.62 361.001 332.18 361.001 330.52V329.82ZM367.184 319.38V334.5H365.824V319.38H367.184ZM372.703 333.54C372.703 334.1 372.263 334.62 371.623 334.62C370.983 334.62 370.543 334.1 370.543 333.54C370.543 332.98 370.983 332.46 371.623 332.46C372.263 332.46 372.703 332.98 372.703 333.54Z" fill="#979797"/>
<path d="M21.714 364.3L19.408 359.332C19.2398 358.968 19.0013 358.641 18.7064 358.369C18.4114 358.098 18.0657 357.887 17.6891 357.749C17.3125 357.612 16.9125 357.55 16.512 357.567C16.1114 357.585 15.7182 357.681 15.355 357.851L6.1 362.189C5.66532 362.394 5.28545 362.699 4.99151 363.08C4.69758 363.46 4.49796 363.904 4.409 364.377L2.293 366.492C2.20002 366.585 2.12628 366.695 2.076 366.817C2.02572 366.938 1.9999 367.068 2 367.2V374.378C1.9992 375.187 2.31945 375.964 2.89049 376.537C3.46152 377.111 4.23671 377.434 5.046 377.437H16.434C17.2433 377.434 18.0185 377.111 18.5895 376.537C19.1606 375.964 19.4808 375.187 19.48 374.378V368.72L20.244 368.362C20.9757 368.016 21.5408 367.395 21.8162 366.634C22.0916 365.873 22.0549 365.034 21.714 364.3ZM17 359.626C17.1304 359.673 17.2501 359.746 17.3521 359.84C17.454 359.934 17.5363 360.048 17.594 360.174L17.638 360.268C17.3612 360.36 17.0618 360.36 16.785 360.268C16.5063 360.159 16.2709 359.961 16.115 359.706L16.205 359.663C16.3286 359.605 16.4624 359.571 16.5988 359.565C16.7352 359.559 16.8716 359.579 17 359.626ZM6.946 364L7.046 363.954C7.13118 364.239 7.1233 364.544 7.0235 364.824C6.9237 365.104 6.73718 365.346 6.491 365.513L6.441 365.413C6.3214 365.158 6.30738 364.867 6.40201 364.602C6.49664 364.337 6.69221 364.121 6.946 364ZM17.48 374.378C17.4813 374.657 17.372 374.925 17.1759 375.123C16.9798 375.322 16.713 375.435 16.434 375.437H5.046C4.76698 375.435 4.50019 375.322 4.30411 375.123C4.10803 374.925 3.99867 374.657 4 374.378V367.614L4.864 366.75L5.8 368.714C5.59046 368.808 5.42058 368.972 5.32 369.179C5.20733 369.419 5.1946 369.694 5.28462 369.943C5.37463 370.193 5.56001 370.396 5.8 370.509L9.75 372.365C9.78448 372.381 9.81988 372.395 9.856 372.407C10.4401 372.602 11.0719 372.602 11.656 372.407C11.6921 372.395 11.7274 372.381 11.762 372.365L15.78 370.481C16.0108 370.363 16.1867 370.16 16.2707 369.914C16.3547 369.669 16.3402 369.401 16.2302 369.166C16.1202 368.931 15.9234 368.749 15.6812 368.656C15.439 368.564 15.1704 368.569 14.932 368.671L10.975 370.525C10.833 370.564 10.683 370.564 10.541 370.525L8.404 369.525L7.354 367.325C8.07624 366.925 8.62757 366.274 8.90449 365.496C9.18141 364.719 9.16488 363.866 8.858 363.1L14.286 360.56C14.6651 361.297 15.3076 361.864 16.0857 362.149C16.8638 362.434 17.7207 362.416 18.486 362.098L19.009 363.224C18.2515 363.636 17.6791 364.321 17.4078 365.14C17.1366 365.959 17.1867 366.85 17.548 367.634L17.624 367.599C17.5342 367.745 17.4845 367.912 17.48 368.084V374.378ZM19.4 366.552L19.3 366.598C19.2147 366.312 19.2226 366.007 19.3226 365.727C19.4226 365.446 19.6094 365.205 19.856 365.038L19.905 365.138C20.0249 365.392 20.0391 365.684 19.9445 365.949C19.8498 366.214 19.654 366.431 19.4 366.552Z" fill="#A3A8B5"/>
<path d="M13.75 362.5C13.4538 362.387 13.1381 362.334 12.8214 362.345C12.5046 362.355 12.1931 362.429 11.905 362.561C11.2606 362.928 10.7861 363.533 10.5837 364.247C10.3813 364.96 10.4673 365.725 10.823 366.376C11.1677 367.147 11.803 367.752 12.591 368.058C12.868 368.16 13.1608 368.213 13.456 368.214C13.795 368.214 14.1299 368.14 14.437 367.997C15.0813 367.629 15.5555 367.024 15.7577 366.31C15.9599 365.597 15.8738 364.832 15.518 364.182C15.1731 363.41 14.5378 362.806 13.75 362.5ZM13.588 366.186C13.4864 366.224 13.3738 366.222 13.274 366.179C12.9871 366.053 12.7591 365.822 12.637 365.534C12.399 365.021 12.504 364.488 12.753 364.372C12.7944 364.353 12.8395 364.344 12.885 364.345C12.9469 364.346 13.0082 364.358 13.066 364.38C13.3537 364.505 13.5824 364.736 13.705 365.025C13.942 365.533 13.837 366.066 13.588 366.183V366.186Z" fill="#A3A8B5"/>
<path d="M39.88 361.7L38.74 362.62C38.14 361.76 37.16 361.2 35.82 361.2C34.42 361.2 32.8 362.04 32.8 363.86C32.8 365.66 34.3 366.12 35.88 366.64C37.88 367.3 40.08 367.94 40.08 370.78C40.08 373.62 37.7 374.86 35.46 374.86C33.74 374.86 32.02 374.16 31 372.76L32.24 371.84C32.86 372.84 34 373.62 35.48 373.62C36.94 373.62 38.62 372.7 38.62 370.88C38.62 368.9 36.96 368.4 35.16 367.84C33.28 367.26 31.36 366.44 31.36 363.88C31.36 361.14 33.8 359.98 35.88 359.98C37.78 359.98 39.2 360.78 39.88 361.7ZM47.1919 365.14V366.28H44.5519V371.74C44.5519 373.14 45.1319 373.46 45.9519 373.46C46.3319 373.46 46.7719 373.34 47.1319 373.16L47.1919 374.34C46.7119 374.52 46.2119 374.62 45.5919 374.62C44.5919 374.62 43.1919 374.18 43.1919 372.12V366.28H41.2519V365.14H43.1919V362.5H44.5519V365.14H47.1919ZM55.2195 368.76V368.46C55.2195 366.84 54.3395 366.04 52.7195 366.04C51.6195 366.04 50.5995 366.48 49.9395 367.14L49.1795 366.24C49.9395 365.48 51.2595 364.9 52.8595 364.9C54.8795 364.9 56.4995 366.02 56.4995 368.3V372.4C56.4995 373.12 56.5595 373.98 56.6595 374.5H55.4395C55.3595 374.04 55.2995 373.48 55.2995 372.98H55.2595C54.3995 374.22 53.3595 374.74 51.8595 374.74C50.4395 374.74 48.6195 373.98 48.6195 371.9C48.6195 369.02 51.7995 368.76 55.2195 368.76ZM55.2195 369.82H54.8195C52.5995 369.82 50.0195 370.06 50.0195 371.84C50.0195 373.18 51.1595 373.62 52.2195 373.62C54.1395 373.62 55.2195 372.18 55.2195 370.52V369.82ZM66.0231 366.58L64.9831 367.36C64.5831 366.58 63.7231 366.04 62.6831 366.04C61.7031 366.04 60.7031 366.46 60.7031 367.5C60.7031 368.38 61.4031 368.78 62.9431 369.1C65.1431 369.56 66.1831 370.38 66.1831 371.84C66.1831 373.98 64.3831 374.74 62.6631 374.74C61.2431 374.74 59.8231 374.18 58.9631 372.92L60.0431 372.12C60.5231 372.94 61.5431 373.58 62.6431 373.58C63.8031 373.58 64.8431 373.16 64.8431 371.94C64.8431 370.96 63.8631 370.56 62.0831 370.14C60.9831 369.88 59.4031 369.4 59.4031 367.62C59.4031 365.72 61.0431 364.9 62.7431 364.9C64.0431 364.9 65.4231 365.52 66.0231 366.58ZM70.2898 366.68H70.3298C70.8298 365.6 72.1498 364.9 73.4698 364.9C75.8498 364.9 77.0298 366.44 77.0298 368.76V374.5H75.6698V369.32C75.6698 367.36 75.0898 366.04 73.1298 366.04C71.6898 366.04 70.2898 367.2 70.2898 369.7V374.5H68.9298V359.38H70.2898V366.68ZM93.35 366.52L92.29 367.28C91.85 366.56 90.91 366.04 89.89 366.04C87.71 366.04 86.31 367.68 86.31 369.82C86.31 371.94 87.69 373.58 89.87 373.58C91.05 373.58 91.87 373.08 92.41 372.36L93.43 373.12C92.63 374.1 91.49 374.74 89.87 374.74C86.85 374.74 84.87 372.64 84.87 369.82C84.87 367 86.85 364.9 89.87 364.9C91.13 364.9 92.55 365.44 93.35 366.52ZM101.45 368.76V368.46C101.45 366.84 100.57 366.04 98.95 366.04C97.85 366.04 96.83 366.48 96.17 367.14L95.41 366.24C96.17 365.48 97.49 364.9 99.09 364.9C101.11 364.9 102.73 366.02 102.73 368.3V372.4C102.73 373.12 102.79 373.98 102.89 374.5H101.67C101.59 374.04 101.53 373.48 101.53 372.98H101.49C100.63 374.22 99.59 374.74 98.09 374.74C96.67 374.74 94.85 373.98 94.85 371.9C94.85 369.02 98.03 368.76 101.45 368.76ZM101.45 369.82H101.05C98.83 369.82 96.25 370.06 96.25 371.84C96.25 373.18 97.39 373.62 98.45 373.62C100.37 373.62 101.45 372.18 101.45 370.52V369.82ZM112.254 366.58L111.214 367.36C110.814 366.58 109.954 366.04 108.914 366.04C107.934 366.04 106.934 366.46 106.934 367.5C106.934 368.38 107.634 368.78 109.174 369.1C111.374 369.56 112.414 370.38 112.414 371.84C112.414 373.98 110.614 374.74 108.894 374.74C107.474 374.74 106.054 374.18 105.194 372.92L106.274 372.12C106.754 372.94 107.774 373.58 108.874 373.58C110.034 373.58 111.074 373.16 111.074 371.94C111.074 370.96 110.094 370.56 108.314 370.14C107.214 369.88 105.634 369.4 105.634 367.62C105.634 365.72 107.274 364.9 108.974 364.9C110.274 364.9 111.654 365.52 112.254 366.58ZM116.52 366.68H116.56C117.06 365.6 118.38 364.9 119.7 364.9C122.08 364.9 123.26 366.44 123.26 368.76V374.5H121.9V369.32C121.9 367.36 121.32 366.04 119.36 366.04C117.92 366.04 116.52 367.2 116.52 369.7V374.5H115.16V359.38H116.52V366.68ZM133.16 365.14V374.5H131.8V365.14H133.16ZM133.44 361.54C133.44 362.1 132.96 362.5 132.48 362.5C132 362.5 131.52 362.1 131.52 361.54C131.52 360.98 132 360.58 132.48 360.58C132.96 360.58 133.44 360.98 133.44 361.54ZM136.7 365.14H138C138.04 365.64 138.08 366.34 138.08 366.74H138.12C138.64 365.66 140 364.9 141.32 364.9C143.7 364.9 144.88 366.44 144.88 368.76V374.5H143.52V369.32C143.52 367.36 142.94 366.04 140.98 366.04C139.54 366.04 138.14 367.2 138.14 369.7V374.5H136.78V367.2C136.78 366.7 136.76 365.78 136.7 365.14ZM154.162 369.1H160.542C160.462 367.34 159.382 366.04 157.442 366.04C155.622 366.04 154.282 367.5 154.162 369.1ZM161.922 369.54C161.922 369.72 161.922 369.94 161.902 370.18H154.142C154.182 372.06 155.642 373.58 157.562 373.58C158.962 373.58 160.042 372.8 160.562 371.96L161.582 372.76C160.482 374.16 159.102 374.74 157.562 374.74C154.782 374.74 152.722 372.64 152.722 369.82C152.722 367 154.782 364.9 157.442 364.9C160.382 364.9 161.922 366.98 161.922 369.54ZM164.767 365.14H166.067C166.107 365.64 166.147 366.34 166.147 366.74H166.187C166.707 365.66 168.067 364.9 169.387 364.9C171.767 364.9 172.947 366.44 172.947 368.76V374.5H171.587V369.32C171.587 367.36 171.007 366.04 169.047 366.04C167.607 366.04 166.207 367.2 166.207 369.7V374.5H164.847V367.2C164.847 366.7 164.827 365.78 164.767 365.14ZM184.108 365.14L180.308 374.5H178.808L174.988 365.14H176.508L179.548 373.06H179.588L182.648 365.14H184.108ZM186.994 369.1H193.374C193.294 367.34 192.214 366.04 190.274 366.04C188.454 366.04 187.114 367.5 186.994 369.1ZM194.754 369.54C194.754 369.72 194.754 369.94 194.734 370.18H186.974C187.014 372.06 188.474 373.58 190.394 373.58C191.794 373.58 192.874 372.8 193.394 371.96L194.414 372.76C193.314 374.16 191.934 374.74 190.394 374.74C187.614 374.74 185.554 372.64 185.554 369.82C185.554 367 187.614 364.9 190.274 364.9C193.214 364.9 194.754 366.98 194.754 369.54ZM199.079 359.38V374.5H197.719V359.38H199.079ZM212.018 369.82C212.018 372.64 209.938 374.74 207.018 374.74C204.118 374.74 202.038 372.64 202.038 369.82C202.038 367 204.118 364.9 207.018 364.9C209.938 364.9 212.018 367 212.018 369.82ZM210.578 369.82C210.578 367.72 209.198 366.04 207.018 366.04C204.858 366.04 203.478 367.72 203.478 369.82C203.478 371.92 204.858 373.58 207.018 373.58C209.198 373.58 210.578 371.92 210.578 369.82ZM216.305 372.92V379.3H214.945V365.14H216.305V366.76H216.365C217.145 365.54 218.545 364.9 219.885 364.9C222.805 364.9 224.725 367.06 224.725 369.82C224.725 372.58 222.805 374.74 219.885 374.74C218.545 374.74 217.145 374.08 216.365 372.92H216.305ZM223.285 369.82C223.285 367.74 222.005 366.04 219.745 366.04C217.645 366.04 216.145 367.68 216.145 369.82C216.145 371.96 217.645 373.58 219.745 373.58C222.005 373.58 223.285 371.9 223.285 369.82ZM228.4 369.1H234.78C234.7 367.34 233.62 366.04 231.68 366.04C229.86 366.04 228.52 367.5 228.4 369.1ZM236.16 369.54C236.16 369.72 236.16 369.94 236.14 370.18H228.38C228.42 372.06 229.88 373.58 231.8 373.58C233.2 373.58 234.28 372.8 234.8 371.96L235.82 372.76C234.72 374.16 233.34 374.74 231.8 374.74C229.02 374.74 226.96 372.64 226.96 369.82C226.96 367 229.02 364.9 231.68 364.9C234.62 364.9 236.16 366.98 236.16 369.54ZM245.105 366.58L244.065 367.36C243.665 366.58 242.805 366.04 241.765 366.04C240.785 366.04 239.785 366.46 239.785 367.5C239.785 368.38 240.485 368.78 242.025 369.1C244.225 369.56 245.265 370.38 245.265 371.84C245.265 373.98 243.465 374.74 241.745 374.74C240.325 374.74 238.905 374.18 238.045 372.92L239.125 372.12C239.605 372.94 240.625 373.58 241.725 373.58C242.885 373.58 243.925 373.16 243.925 371.94C243.925 370.96 242.945 370.56 241.165 370.14C240.065 369.88 238.485 369.4 238.485 367.62C238.485 365.72 240.125 364.9 241.825 364.9C243.125 364.9 244.505 365.52 245.105 366.58ZM257.192 365.14V366.28H254.552V371.74C254.552 373.14 255.132 373.46 255.952 373.46C256.332 373.46 256.772 373.34 257.132 373.16L257.192 374.34C256.712 374.52 256.212 374.62 255.592 374.62C254.592 374.62 253.192 374.18 253.192 372.12V366.28H251.252V365.14H253.192V362.5H254.552V365.14H257.192ZM268.62 369.82C268.62 372.64 266.54 374.74 263.62 374.74C260.72 374.74 258.64 372.64 258.64 369.82C258.64 367 260.72 364.9 263.62 364.9C266.54 364.9 268.62 367 268.62 369.82ZM267.18 369.82C267.18 367.72 265.8 366.04 263.62 366.04C261.46 366.04 260.08 367.72 260.08 369.82C260.08 371.92 261.46 373.58 263.62 373.58C265.8 373.58 267.18 371.92 267.18 369.82ZM277.306 369.1H283.686C283.606 367.34 282.526 366.04 280.586 366.04C278.766 366.04 277.426 367.5 277.306 369.1ZM285.066 369.54C285.066 369.72 285.066 369.94 285.046 370.18H277.286C277.326 372.06 278.786 373.58 280.706 373.58C282.106 373.58 283.186 372.8 283.706 371.96L284.726 372.76C283.626 374.16 282.246 374.74 280.706 374.74C277.926 374.74 275.866 372.64 275.866 369.82C275.866 367 277.926 364.9 280.586 364.9C283.526 364.9 285.066 366.98 285.066 369.54ZM293.774 368.76V368.46C293.774 366.84 292.894 366.04 291.274 366.04C290.174 366.04 289.154 366.48 288.494 367.14L287.734 366.24C288.494 365.48 289.814 364.9 291.414 364.9C293.434 364.9 295.054 366.02 295.054 368.3V372.4C295.054 373.12 295.114 373.98 295.214 374.5H293.994C293.914 374.04 293.854 373.48 293.854 372.98H293.814C292.954 374.22 291.914 374.74 290.414 374.74C288.994 374.74 287.174 373.98 287.174 371.9C287.174 369.02 290.354 368.76 293.774 368.76ZM293.774 369.82H293.374C291.154 369.82 288.574 370.06 288.574 371.84C288.574 373.18 289.714 373.62 290.774 373.62C292.694 373.62 293.774 372.18 293.774 370.52V369.82ZM298.558 367.2C298.558 366.7 298.538 365.78 298.478 365.14H299.778C299.818 365.64 299.858 366.34 299.858 366.74H299.898C300.418 365.66 301.578 364.9 302.898 364.9C303.238 364.9 303.518 364.92 303.798 365L303.618 366.28C303.458 366.22 303.018 366.16 302.658 366.16C301.218 366.16 299.918 367.2 299.918 369.7V374.5H298.558V367.2ZM305.685 365.14H306.985C307.025 365.64 307.065 366.34 307.065 366.74H307.105C307.625 365.66 308.985 364.9 310.305 364.9C312.685 364.9 313.865 366.44 313.865 368.76V374.5H312.505V369.32C312.505 367.36 311.925 366.04 309.965 366.04C308.525 366.04 307.125 367.2 307.125 369.7V374.5H305.765V367.2C305.765 366.7 305.745 365.78 305.685 365.14ZM330.086 360.34V361.62H324.186L324.086 366C324.686 365.78 325.406 365.68 326.046 365.68C328.706 365.68 330.646 367.48 330.646 370.12C330.646 372.86 328.746 374.86 325.946 374.86C323.906 374.86 322.486 373.84 321.706 372.28L323.006 371.7C323.506 372.86 324.626 373.62 325.866 373.62C327.786 373.62 329.186 372.18 329.186 370.26C329.186 368.16 327.686 366.86 325.666 366.86C324.646 366.86 323.626 367.16 322.726 367.64L322.866 360.34H330.086ZM335.868 373.54C335.868 374.1 335.428 374.62 334.788 374.62C334.148 374.62 333.708 374.1 333.708 373.54C333.708 372.98 334.148 372.46 334.788 372.46C335.428 372.46 335.868 372.98 335.868 373.54ZM343.183 359.98C346.703 359.98 347.823 363.76 347.823 367.44C347.823 371.12 346.703 374.86 343.183 374.86C339.623 374.86 338.543 371.12 338.543 367.44C338.543 363.76 339.623 359.98 343.183 359.98ZM343.183 361.2C340.663 361.2 340.003 364.62 340.003 367.44C340.003 370.26 340.663 373.62 343.183 373.62C345.663 373.62 346.363 370.26 346.363 367.44C346.363 364.62 345.663 361.2 343.183 361.2ZM354.784 359.98C358.304 359.98 359.424 363.76 359.424 367.44C359.424 371.12 358.304 374.86 354.784 374.86C351.224 374.86 350.144 371.12 350.144 367.44C350.144 363.76 351.224 359.98 354.784 359.98ZM354.784 361.2C352.264 361.2 351.604 364.62 351.604 367.44C351.604 370.26 352.264 373.62 354.784 373.62C357.264 373.62 357.964 370.26 357.964 367.44C357.964 364.62 357.264 361.2 354.784 361.2ZM368.554 370.78L367.014 374.5H365.434L371.554 360.34H372.954L379.034 374.5H377.434L375.874 370.78H368.554ZM372.214 361.94L369.094 369.46H375.334L372.214 361.94ZM381.118 374.5V360.34H385.118C387.998 360.34 389.898 361.58 389.898 364.12C389.898 366.66 387.958 367.92 385.078 367.92H382.558V374.5H381.118ZM382.558 361.58V366.7H384.998C387.238 366.7 388.458 365.8 388.458 364.12C388.458 362.38 387.178 361.58 384.998 361.58H382.558ZM397.228 368.4V374.5H395.788V368.4L390.488 360.34H392.288L396.548 367.2L400.848 360.34H402.528L397.228 368.4ZM404.637 373.54C404.637 374.1 404.197 374.62 403.557 374.62C402.917 374.62 402.477 374.1 402.477 373.54C402.477 372.98 402.917 372.46 403.557 372.46C404.197 372.46 404.637 372.98 404.637 373.54Z" fill="#979797"/>
</svg>
