<svg width="192" height="36" viewBox="0 0 192 36" fill="none" xmlns="http://www.w3.org/2000/svg">
<path d="M17.248 22V10.672H19.264V15.248H24.56V10.672H26.576V22H24.56V16.976H19.264V22H17.248ZM28.5321 18.128C28.5321 15.712 30.3881 14.096 32.7081 14.096C35.0281 14.096 36.8841 15.712 36.8841 18.128C36.8841 20.544 35.0281 22.224 32.7081 22.224C30.3881 22.224 28.5321 20.544 28.5321 18.128ZM30.4841 18.128C30.4841 19.328 31.1881 20.624 32.7081 20.624C34.2281 20.624 34.9321 19.328 34.9321 18.128C34.9321 16.928 34.2281 15.664 32.7081 15.664C31.1881 15.664 30.4841 16.928 30.4841 18.128ZM47.9138 14.096C49.9138 14.096 50.7458 15.632 50.7458 17.2V22H48.8258V17.744C48.8258 16.832 48.6178 15.696 47.3858 15.696C46.1858 15.696 45.6898 16.816 45.6898 17.808V22H43.7698V17.36C43.7698 16.416 43.3218 15.696 42.3458 15.696C41.1938 15.696 40.6658 16.752 40.6658 17.776V22H38.7458V14.32H40.5698V15.552H40.6018C40.9378 14.8 41.7538 14.096 42.9858 14.096C44.1698 14.096 44.9538 14.688 45.3858 15.552C45.8978 14.624 46.7618 14.096 47.9138 14.096ZM54.4521 17.392H58.3881C58.3881 16.4 57.8281 15.536 56.5801 15.536C55.4441 15.536 54.5321 16.32 54.4521 17.392ZM60.3081 18.256C60.3081 18.432 60.3081 18.592 60.2921 18.768H54.4521C54.5321 19.856 55.5241 20.656 56.6441 20.656C57.6041 20.656 58.2441 20.272 58.6761 19.664L59.9561 20.688C59.2041 21.712 58.1161 22.224 56.6601 22.224C54.2921 22.224 52.5321 20.704 52.5321 18.208C52.5321 15.728 54.2761 14.096 56.5961 14.096C58.7401 14.096 60.3081 15.488 60.3081 18.256Z" fill="#393A3D"/>
<path d="M0 34C0 32.8954 0.895431 32 2 32H76C77.1046 32 78 32.8954 78 34V36H0V34Z" fill="#2CA01C"/>
<path d="M95.504 22V10.672H99.264C102.096 10.672 105.216 12.56 105.216 16.336C105.216 20.112 102.096 22 99.264 22H95.504ZM96.656 11.696V20.976H98.944C102.352 20.976 104 18.672 104 16.336C104 14 102.352 11.696 98.944 11.696H96.656ZM112.269 17.408V17.168C112.269 15.872 111.565 15.232 110.269 15.232C109.389 15.232 108.573 15.584 108.045 16.112L107.437 15.392C108.045 14.784 109.101 14.32 110.381 14.32C111.997 14.32 113.293 15.216 113.293 17.04V20.32C113.293 20.896 113.341 21.584 113.421 22H112.445C112.381 21.632 112.333 21.184 112.333 20.784H112.301C111.613 21.776 110.781 22.192 109.581 22.192C108.445 22.192 106.989 21.584 106.989 19.92C106.989 17.616 109.533 17.408 112.269 17.408ZM112.269 18.256H111.949C110.173 18.256 108.109 18.448 108.109 19.872C108.109 20.944 109.021 21.296 109.869 21.296C111.405 21.296 112.269 20.144 112.269 18.816V18.256ZM120.912 15.664L120.08 16.288C119.76 15.664 119.072 15.232 118.24 15.232C117.456 15.232 116.656 15.568 116.656 16.4C116.656 17.104 117.216 17.424 118.448 17.68C120.208 18.048 121.04 18.704 121.04 19.872C121.04 21.584 119.6 22.192 118.224 22.192C117.088 22.192 115.952 21.744 115.264 20.736L116.128 20.096C116.512 20.752 117.328 21.264 118.208 21.264C119.136 21.264 119.968 20.928 119.968 19.952C119.968 19.168 119.184 18.848 117.76 18.512C116.88 18.304 115.616 17.92 115.616 16.496C115.616 14.976 116.928 14.32 118.288 14.32C119.328 14.32 120.432 14.816 120.912 15.664ZM124.326 15.744H124.358C124.758 14.88 125.814 14.32 126.87 14.32C128.774 14.32 129.718 15.552 129.718 17.408V22H128.63V17.856C128.63 16.288 128.166 15.232 126.598 15.232C125.446 15.232 124.326 16.16 124.326 18.16V22H123.238V9.904H124.326V15.744ZM133.686 20.736H133.654V22H132.566V9.904H133.654V15.808H133.686C134.326 14.832 135.446 14.32 136.518 14.32C138.854 14.32 140.39 16.048 140.39 18.256C140.39 20.464 138.854 22.192 136.518 22.192C135.446 22.192 134.326 21.68 133.686 20.736ZM139.238 18.256C139.238 16.592 138.214 15.232 136.406 15.232C134.726 15.232 133.526 16.544 133.526 18.256C133.526 19.968 134.726 21.264 136.406 21.264C138.214 21.264 139.238 19.92 139.238 18.256ZM150.161 18.256C150.161 20.512 148.497 22.192 146.161 22.192C143.841 22.192 142.177 20.512 142.177 18.256C142.177 16 143.841 14.32 146.161 14.32C148.497 14.32 150.161 16 150.161 18.256ZM149.009 18.256C149.009 16.576 147.905 15.232 146.161 15.232C144.433 15.232 143.329 16.576 143.329 18.256C143.329 19.936 144.433 21.264 146.161 21.264C147.905 21.264 149.009 19.936 149.009 18.256ZM157.223 17.408V17.168C157.223 15.872 156.519 15.232 155.223 15.232C154.343 15.232 153.527 15.584 152.999 16.112L152.391 15.392C152.999 14.784 154.055 14.32 155.335 14.32C156.951 14.32 158.247 15.216 158.247 17.04V20.32C158.247 20.896 158.295 21.584 158.375 22H157.399C157.335 21.632 157.287 21.184 157.287 20.784H157.255C156.567 21.776 155.735 22.192 154.535 22.192C153.399 22.192 151.943 21.584 151.943 19.92C151.943 17.616 154.487 17.408 157.223 17.408ZM157.223 18.256H156.903C155.127 18.256 153.062 18.448 153.062 19.872C153.062 20.944 153.975 21.296 154.823 21.296C156.359 21.296 157.223 20.144 157.223 18.816V18.256ZM161.049 16.16C161.049 15.76 161.033 15.024 160.985 14.512H162.025C162.057 14.912 162.089 15.472 162.089 15.792H162.121C162.537 14.928 163.465 14.32 164.521 14.32C164.793 14.32 165.017 14.336 165.241 14.4L165.097 15.424C164.969 15.376 164.617 15.328 164.329 15.328C163.177 15.328 162.137 16.16 162.137 18.16V22H161.049V16.16ZM172.694 20.736C172.054 21.68 170.934 22.192 169.862 22.192C167.526 22.192 165.99 20.464 165.99 18.256C165.99 16.048 167.526 14.32 169.862 14.32C170.934 14.32 172.054 14.832 172.694 15.808H172.726V9.904H173.814V22H172.726V20.736H172.694ZM167.142 18.256C167.142 19.92 168.166 21.264 169.974 21.264C171.654 21.264 172.854 19.968 172.854 18.256C172.854 16.544 171.654 15.232 169.974 15.232C168.166 15.232 167.142 16.592 167.142 18.256Z" fill="#6B6C72"/>
</svg>
