<svg id="art" xmlns="http://www.w3.org/2000/svg" xmlns:xlink="http://www.w3.org/1999/xlink" width="244.25" height="244.25" viewBox="0 0 244.25 244.25">
  <defs>
    <style>
      .cls-1, .cls-11 {
        fill: none;
      }

      .cls-2 {
        fill: #64c8d0;
      }

      .cls-3 {
        clip-path: url(#clip-path);
      }

      .cls-4 {
        fill: #854c20;
      }

      .cls-5 {
        fill: #f15922;
      }

      .cls-6 {
        fill: #035493;
      }

      .cls-7 {
        fill: #1877bd;
      }

      .cls-8 {
        fill: #f26b21;
      }

      .cls-9 {
        fill: #f9cfae;
      }

      .cls-10 {
        fill: #393a3d;
      }

      .cls-11 {
        stroke: #393a3d;
        stroke-linecap: round;
        stroke-linejoin: round;
        stroke-width: 1.3px;
      }

      .cls-12 {
        fill: #f57f20;
      }

      .cls-13 {
        fill: #eceef0;
      }

      .cls-14 {
        fill: #d4d7dc;
      }
    </style>
    <clipPath id="clip-path">
      <circle class="cls-1" cx="132.34" cy="120.91" r="59.1"/>
    </clipPath>
  </defs>
  <g>
    <g>
      <circle class="cls-2" cx="132.34" cy="120.91" r="59.1"/>
      <g class="cls-3">
        <g>
          <path class="cls-4" d="M147.61,83.62c-5.88-3.6-14.13-3.24-20.87,4-5.56,6-7,11.71-14.18,17.93s-26,6.2-26.16,25.83c-.22,23.23,38.23,22.29,50.84,3.94,4.23-6.15,3.28-12.5,6.44-19.12,2.39-5,9-10.35,9.93-16.37C154.68,93,153.22,87.05,147.61,83.62Z"/>
          <path class="cls-5" d="M126.32,124.38c-4.27-.92-18.28,27.11-21.49,28s-20.41-.1-21.62,4.41,26,16.22,33.12,14.31S134,126,126.32,124.38Z"/>
          <path class="cls-6" d="M113.41,186.09c-9.7,1-32.23,9.88-34.84,22.4s29.06,48.8,32.65,50,6-11.44,6-11.44-14.24-21.19-12-24.58,35.29,0,43.79-17S123.24,185.08,113.41,186.09Z"/>
          <path class="cls-7" d="M147.07,195.14c-17.69,3-43.46,10.7-52.61,27.05s-13.07,58-15.36,59.86,7.8-1.82,12-4.29,17.31-42.6,24.82-47.23,39.85-4.35,48-15.5c5.47-7.54,6.69-19,3.63-28.45C166,181.72,154.26,193.91,147.07,195.14Z"/>
          <path class="cls-8" d="M170.05,128.44c-14.7-18.8-38.79-13.22-46.79-1.76-4,5.76-6,12.62-5.85,17.06.34,7.84,5.39,12.8,6.32,17.87,1.4,7.62-8.15,11.12-8.3,23.35-.09,8.13,45,25.17,52.9,6S178.63,139.41,170.05,128.44Z"/>
          <path class="cls-9" d="M128.43,96.2c.24-15,18.87-16.25,21.75-4.07,2.21,10.14-.85,10.15-.5,13.28.73,6.55,4.21,9.27,4.06,12.86-.29,6.93-19.25,9.34-16.49.18.83-2.74.18-6.58-.7-8.93S128.27,106.32,128.43,96.2Z"/>
          <path class="cls-10" d="M108.39,180.56c-2.83-2.35-11.66-3-13.82,2.36s-3.44,13.36,1.44,20.5c5.66,8.28,37,9.64,40.52,2.62s1-12.11-10.15-16.51C119,186.6,111.22,182.92,108.39,180.56Z"/>
          <path class="cls-10" d="M108.06,180.72s-2.11-6.55-3.61-6.66-1.44,5.82-.78,6.61C104.76,182,107.94,182.1,108.06,180.72Z"/>
          <path class="cls-10" d="M94.57,183.81c-.6-1,.25-8.07,1.44-8.91s3.11,4.09,2.67,6.4S95.17,184.81,94.57,183.81Z"/>
          <path class="cls-10" d="M132.54,240.68a1.31,1.31,0,0,1-.47-.09c-4.42-1.69-6.81-3.74-7.29-6.26-.76-4,3.39-7.8,7.78-11.82,3.9-3.57,7.94-7.27,7.46-10.3-.28-1.75-2.16-3.43-5.58-5a1.29,1.29,0,0,1-.65-1.72,1.31,1.31,0,0,1,1.73-.65c4.33,2,6.64,4.25,7.07,7,.7,4.42-3.86,8.6-8.27,12.64-3.67,3.36-7.47,6.83-7,9.4.29,1.54,2.2,3,5.66,4.32a1.3,1.3,0,0,1-.46,2.52Z"/>
          <path class="cls-4" d="M129,91.14c14.33-9.59,20.35,7,24.19,4.85C156.73,84,134.15,72.24,129,91.14Z"/>
          <ellipse class="cls-9" cx="151.83" cy="96.51" rx="3.91" ry="4.37" transform="translate(-14.11 27) rotate(-9.71)"/>
          <g>
            <line class="cls-11" x1="135.61" y1="97.82" x2="132.75" y2="98.31"/>
            <path class="cls-11" d="M132,96.05l.39,5.39c0,1.18-.34,2.12-1.5,2.32l-1.1.18a2.34,2.34,0,0,1-2.63-1.59l-1.78-5.49,17.72-3,.43,5a3.55,3.55,0,0,1-3,3.79l-.81.12c-1.54.23-2.3-.7-3-2.1l-1.85-5.3"/>
          </g>
        </g>
      </g>
    </g>
    <g>
      <path class="cls-12" d="M133.88,164.7c1.86.31,28.2,20.86,39.67,17.34,19-5.83,5.08-41.91-2.11-51.17s-10.1-7.44-11.08-1.58c-2.51,15,5.57,28.78,2.47,30.84s-25.61-3.49-31.58-3.56Z"/>
      <path class="cls-9" d="M133.88,164.7c-7.35,5.34-10.18,2-13,2.32s-5,2.89-8,2.22c1.3-1,5.15-5,5.15-5-3,.1-5.87,2.4-8.86,2.35s-6-1.81-6.11-2.48c6,0,8.74-9.91,28.17-7.51C136.93,156.6,137.83,163.46,133.88,164.7Z"/>
      <path class="cls-13" d="M59.88,153.6l-7-29.2a2.57,2.57,0,0,1,3.3-2.93l35.15,9.78A5.09,5.09,0,0,1,95,135l6.23,28.86,15.36,4.91a4.84,4.84,0,0,1,3.26,6.19h0l-56.5-17.77A5,5,0,0,1,59.88,153.6Z"/>
      <ellipse class="cls-14" cx="76.51" cy="143.47" rx="3.73" ry="5.08" transform="translate(-85.41 128.69) rotate(-56.72)"/>
    </g>
  </g>
</svg>
