<svg width="515" height="210" viewBox="0 0 515 210" fill="none" xmlns="http://www.w3.org/2000/svg">
<path d="M29.06 21.96C29.06 29.504 22.942 32.218 16.134 32.218H12.224V44.5H4.358V11.932H16.318C23.448 11.932 29.06 14.508 29.06 21.96ZM21.194 22.006C21.194 18.878 18.48 18.28 15.674 18.28H12.224V25.962H15.536C18.48 25.962 21.194 25.088 21.194 22.006ZM37.1488 30.424H46.8548C46.8548 28.032 45.3368 26.054 42.3468 26.054C39.4488 26.054 37.3328 28.078 37.1488 30.424ZM53.8008 33.322C53.8008 33.92 53.8008 34.564 53.7548 35.116H37.1488C37.3788 37.646 39.9088 39.44 42.6228 39.44C45.0148 39.44 46.6708 38.428 47.6828 37.048L52.9268 40.36C50.7648 43.488 47.1768 45.236 42.5308 45.236C35.6308 45.236 29.9268 40.866 29.9268 33.138C29.9268 25.64 35.3548 20.856 42.3008 20.856C49.0628 20.856 53.8008 25.502 53.8008 33.322ZM73.6592 21.132L73.3372 27.756C72.6472 27.572 72.0032 27.526 71.4052 27.526C67.3572 27.526 66.0232 30.838 66.0232 32.724V44.5H58.4792V21.592H65.7472V24.904H65.8392C66.9892 22.604 69.2432 20.948 72.0492 20.948C72.6472 20.948 73.2912 20.994 73.6592 21.132ZM91.4374 9.31L90.9314 15.29C90.3794 15.106 89.5974 14.968 88.8614 14.968C86.1014 14.968 85.5034 17.176 85.5034 19.292V21.592H90.6094V27.25H85.5034V44.5H77.9594V27.25H73.7734V21.592H77.9594V19.384C77.9594 13.772 80.1674 8.85 87.8034 8.85C89.0914 8.85 90.4254 8.988 91.4374 9.31ZM99.5453 30.424H109.251C109.251 28.032 107.733 26.054 104.743 26.054C101.845 26.054 99.7293 28.078 99.5453 30.424ZM116.197 33.322C116.197 33.92 116.197 34.564 116.151 35.116H99.5453C99.7753 37.646 102.305 39.44 105.019 39.44C107.411 39.44 109.067 38.428 110.079 37.048L115.323 40.36C113.161 43.488 109.573 45.236 104.927 45.236C98.0273 45.236 92.3233 40.866 92.3233 33.138C92.3233 25.64 97.7513 20.856 104.697 20.856C111.459 20.856 116.197 25.502 116.197 33.322ZM141.024 23.938L136.654 28.998C135.826 27.894 134.17 27.158 132.652 27.158C129.478 27.158 127.362 29.872 127.362 33.046C127.362 36.22 129.432 38.888 132.744 38.888C134.262 38.888 135.918 38.29 136.838 37.186L141.024 42.292C139.138 44.132 135.918 45.236 132.56 45.236C125.338 45.236 119.726 40.636 119.726 33.046C119.726 25.594 125.384 20.856 132.514 20.856C135.78 20.856 139.23 22.098 141.024 23.938ZM157.58 27.25H152.198V35.99C152.198 38.106 152.888 39.21 155.05 39.21C155.786 39.21 156.706 39.072 157.258 38.842L157.35 44.362C156.338 44.73 154.59 45.052 152.98 45.052C146.862 45.052 144.838 41.786 144.838 36.91V27.25H141.158V21.592H144.792V15.566H152.198V21.592H157.58V27.25ZM170.234 33.598H162.506V11.932H170.234V33.598ZM170.878 40.59C170.878 43.028 168.854 44.96 166.37 44.96C163.978 44.96 161.908 43.074 161.908 40.636C161.908 38.244 163.886 36.266 166.37 36.266C168.854 36.266 170.878 38.198 170.878 40.59ZM209.997 44.5H189.481V11.932H197.393V37.646H209.997V44.5ZM218.543 30.424H228.249C228.249 28.032 226.731 26.054 223.741 26.054C220.843 26.054 218.727 28.078 218.543 30.424ZM235.195 33.322C235.195 33.92 235.195 34.564 235.149 35.116H218.543C218.773 37.646 221.303 39.44 224.017 39.44C226.409 39.44 228.065 38.428 229.077 37.048L234.321 40.36C232.159 43.488 228.571 45.236 223.925 45.236C217.025 45.236 211.321 40.866 211.321 33.138C211.321 25.64 216.749 20.856 223.695 20.856C230.457 20.856 235.195 25.502 235.195 33.322ZM253.444 27.25H248.062V35.99C248.062 38.106 248.752 39.21 250.914 39.21C251.65 39.21 252.57 39.072 253.122 38.842L253.214 44.362C252.202 44.73 250.454 45.052 248.844 45.052C242.726 45.052 240.702 41.786 240.702 36.91V27.25H237.022V21.592H240.656V15.566H248.062V21.592H253.444V27.25ZM267.036 11.932L262.85 24.398H257.054L260.366 11.932H267.036ZM287.32 24.076L283.18 28.354C281.984 27.204 280.236 26.284 278.396 26.284C276.97 26.284 275.544 26.79 275.544 28.124C275.544 29.412 276.786 29.78 279.73 30.424C283.226 31.206 287.044 32.954 287.044 37.416C287.044 43.212 281.938 45.236 277.246 45.236C273.52 45.236 269.656 43.994 267.264 41.694L271.496 37.232C272.83 38.704 274.9 39.808 277.108 39.808C278.35 39.808 279.822 39.302 279.822 37.83C279.822 36.404 278.396 35.944 275.268 35.208C272.094 34.472 268.598 32.862 268.598 28.538C268.598 23.064 273.75 20.856 278.12 20.856C281.524 20.856 285.066 21.96 287.32 24.076ZM316.469 27.25H311.087V35.99C311.087 38.106 311.777 39.21 313.939 39.21C314.675 39.21 315.595 39.072 316.147 38.842L316.239 44.362C315.227 44.73 313.479 45.052 311.869 45.052C305.751 45.052 303.727 41.786 303.727 36.91V27.25H300.047V21.592H303.681V15.566H311.087V21.592H316.469V27.25ZM335.194 21.132L334.872 27.756C334.182 27.572 333.538 27.526 332.94 27.526C328.892 27.526 327.558 30.838 327.558 32.724V44.5H320.014V21.592H327.282V24.904H327.374C328.524 22.604 330.778 20.948 333.584 20.948C334.182 20.948 334.826 20.994 335.194 21.132ZM351.058 35.3V34.518H350.092C346.78 34.518 343.054 34.932 343.054 37.646C343.054 39.394 344.802 39.992 346.32 39.992C349.356 39.992 351.058 38.152 351.058 35.3ZM341.03 28.814L337.212 24.72C339.88 22.19 343.698 20.856 347.424 20.856C355.106 20.856 357.958 24.628 357.958 32.954V44.5H351.058V42.062H350.92C349.77 43.948 347.148 45.052 344.434 45.052C340.8 45.052 336.108 43.258 336.108 37.876C336.108 31.252 344.158 30.148 350.828 30.148V29.78C350.828 27.526 349.034 26.468 346.688 26.468C344.526 26.468 342.41 27.526 341.03 28.814ZM383.737 23.938L379.367 28.998C378.539 27.894 376.883 27.158 375.365 27.158C372.191 27.158 370.075 29.872 370.075 33.046C370.075 36.22 372.145 38.888 375.457 38.888C376.975 38.888 378.631 38.29 379.551 37.186L383.737 42.292C381.851 44.132 378.631 45.236 375.273 45.236C368.051 45.236 362.439 40.636 362.439 33.046C362.439 25.594 368.097 20.856 375.227 20.856C378.493 20.856 381.943 22.098 383.737 23.938ZM402.133 31.942L411.333 44.5H401.995L394.497 33.506H394.359V44.5H386.769V9.724H394.359V30.884H394.497L401.811 21.592H410.965L402.133 31.942ZM439.105 35.3V34.518H438.139C434.827 34.518 431.101 34.932 431.101 37.646C431.101 39.394 432.849 39.992 434.367 39.992C437.403 39.992 439.105 38.152 439.105 35.3ZM429.077 28.814L425.259 24.72C427.927 22.19 431.745 20.856 435.471 20.856C443.153 20.856 446.005 24.628 446.005 32.954V44.5H439.105V42.062H438.967C437.817 43.948 435.195 45.052 432.481 45.052C428.847 45.052 424.155 43.258 424.155 37.876C424.155 31.252 432.205 30.148 438.875 30.148V29.78C438.875 27.526 437.081 26.468 434.735 26.468C432.573 26.468 430.457 27.526 429.077 28.814ZM459.363 44.5H451.727V9.724H459.363V44.5ZM473.065 44.5H465.429V9.724H473.065V44.5ZM27.128 77.592L16.87 103.95C15.03 108.734 12.546 111.54 6.796 111.54C5.37 111.54 3.76 111.31 2.656 111.034L3.484 104.686C4.22 104.916 5.186 105.1 5.922 105.1C8.268 105.1 9.05 103.996 9.786 102.018L10.522 100.132L0.954 77.592H9.326L14.432 92.312H14.57L19.124 77.592H27.128ZM54.3316 88.954C54.3316 96.452 48.5356 101.236 41.5896 101.236C34.6896 101.236 28.8936 96.452 28.8936 88.954C28.8936 81.456 34.6896 76.856 41.5896 76.856C48.5356 76.856 54.3316 81.456 54.3316 88.954ZM47.0636 88.954C47.0636 86.01 45.1316 83.112 41.5896 83.112C38.0476 83.112 36.2076 86.01 36.2076 88.954C36.2076 91.898 38.0936 94.888 41.6356 94.888C45.1776 94.888 47.0636 91.898 47.0636 88.954ZM81.4641 100.5H74.1961V97.326H74.1041C73.0461 99.35 70.4241 101.144 67.2041 101.144C61.0401 101.144 58.8781 96.36 58.8781 91.76V77.592H66.4681V90.012C66.4681 92.588 67.1121 94.888 69.8721 94.888C72.4941 94.888 73.9201 92.588 73.9201 89.966V77.592H81.4641V100.5ZM102.544 77.132L102.222 83.756C101.532 83.572 100.888 83.526 100.29 83.526C96.2419 83.526 94.9079 86.838 94.9079 88.724V100.5H87.3639V77.592H94.6319V80.904H94.7239C95.8739 78.604 98.1279 76.948 100.934 76.948C101.532 76.948 102.176 76.994 102.544 77.132ZM142.632 88.954C142.632 95.348 138.63 101.144 131.73 101.144C128.694 101.144 125.704 99.81 124.232 97.51H124.14V100.5H117.194V65.724H124.738V80.03H124.83C126.118 78.512 128.464 76.948 131.822 76.948C138.492 76.948 142.632 82.56 142.632 88.954ZM135.364 88.954C135.364 86.01 133.524 83.112 129.936 83.112C126.532 83.112 124.416 86.102 124.416 89C124.416 91.99 126.532 94.888 129.936 94.888C133.524 94.888 135.364 91.944 135.364 88.954ZM169.78 100.5H162.512V97.326H162.42C161.362 99.35 158.74 101.144 155.52 101.144C149.356 101.144 147.194 96.36 147.194 91.76V77.592H154.784V90.012C154.784 92.588 155.428 94.888 158.188 94.888C160.81 94.888 162.236 92.588 162.236 89.966V77.592H169.78V100.5ZM193.298 80.076L189.158 84.354C187.962 83.204 186.214 82.284 184.374 82.284C182.948 82.284 181.522 82.79 181.522 84.124C181.522 85.412 182.764 85.78 185.708 86.424C189.204 87.206 193.022 88.954 193.022 93.416C193.022 99.212 187.916 101.236 183.224 101.236C179.498 101.236 175.634 99.994 173.242 97.694L177.474 93.232C178.808 94.704 180.878 95.808 183.086 95.808C184.328 95.808 185.8 95.302 185.8 93.83C185.8 92.404 184.374 91.944 181.246 91.208C178.072 90.472 174.576 88.862 174.576 84.538C174.576 79.064 179.728 76.856 184.098 76.856C187.502 76.856 191.044 77.96 193.298 80.076ZM205.566 70.278C205.566 72.624 203.634 74.418 201.242 74.418C198.804 74.418 196.918 72.532 196.918 70.278C196.918 68.07 198.804 66.138 201.242 66.138C203.634 66.138 205.566 67.978 205.566 70.278ZM205.014 100.5H197.47V77.592H205.014V100.5ZM233.621 100.5H226.031V87.988C226.031 85.458 225.341 83.158 222.627 83.158C219.959 83.158 218.579 85.458 218.579 88.08V100.5H210.989V77.592H218.303V80.766H218.395C219.453 78.742 222.075 76.948 225.249 76.948C231.413 76.948 233.621 81.732 233.621 86.332V100.5ZM245.407 86.424H255.113C255.113 84.032 253.595 82.054 250.605 82.054C247.707 82.054 245.591 84.078 245.407 86.424ZM262.059 89.322C262.059 89.92 262.059 90.564 262.013 91.116H245.407C245.637 93.646 248.167 95.44 250.881 95.44C253.273 95.44 254.929 94.428 255.941 93.048L261.185 96.36C259.023 99.488 255.435 101.236 250.789 101.236C243.889 101.236 238.185 96.866 238.185 89.138C238.185 81.64 243.613 76.856 250.559 76.856C257.321 76.856 262.059 81.502 262.059 89.322ZM284.355 80.076L280.215 84.354C279.019 83.204 277.271 82.284 275.431 82.284C274.005 82.284 272.579 82.79 272.579 84.124C272.579 85.412 273.821 85.78 276.765 86.424C280.261 87.206 284.079 88.954 284.079 93.416C284.079 99.212 278.973 101.236 274.281 101.236C270.555 101.236 266.691 99.994 264.299 97.694L268.531 93.232C269.865 94.704 271.935 95.808 274.143 95.808C275.385 95.808 276.857 95.302 276.857 93.83C276.857 92.404 275.431 91.944 272.303 91.208C269.129 90.472 265.633 88.862 265.633 84.538C265.633 79.064 270.785 76.856 275.155 76.856C278.559 76.856 282.101 77.96 284.355 80.076ZM306.052 80.076L301.912 84.354C300.716 83.204 298.968 82.284 297.128 82.284C295.702 82.284 294.276 82.79 294.276 84.124C294.276 85.412 295.518 85.78 298.462 86.424C301.958 87.206 305.776 88.954 305.776 93.416C305.776 99.212 300.67 101.236 295.978 101.236C292.252 101.236 288.388 99.994 285.996 97.694L290.228 93.232C291.562 94.704 293.632 95.808 295.84 95.808C297.082 95.808 298.554 95.302 298.554 93.83C298.554 92.404 297.128 91.944 294 91.208C290.826 90.472 287.33 88.862 287.33 84.538C287.33 79.064 292.482 76.856 296.852 76.856C300.256 76.856 303.798 77.96 306.052 80.076ZM358.432 100.5H350.888V87.988C350.888 85.366 350.29 83.158 347.622 83.158C345.046 83.158 343.804 85.55 343.804 88.126V100.5H336.26V87.436C336.26 84.814 335.248 83.158 332.994 83.158C330.602 83.158 329.222 85.32 329.222 88.08V100.5H321.632V77.592H328.946V80.766H329.038C330.096 78.834 332.442 76.948 335.892 76.948C339.204 76.948 341.504 78.374 342.792 80.858C344.31 78.466 346.702 76.948 350.106 76.948C356.316 76.948 358.432 82.008 358.432 86.332V100.5ZM388.416 88.954C388.416 96.452 382.62 101.236 375.674 101.236C368.774 101.236 362.978 96.452 362.978 88.954C362.978 81.456 368.774 76.856 375.674 76.856C382.62 76.856 388.416 81.456 388.416 88.954ZM381.148 88.954C381.148 86.01 379.216 83.112 375.674 83.112C372.132 83.112 370.292 86.01 370.292 88.954C370.292 91.898 372.178 94.888 375.72 94.888C379.262 94.888 381.148 91.898 381.148 88.954ZM415.824 100.5H408.234V87.988C408.234 85.458 407.544 83.158 404.83 83.158C402.162 83.158 400.782 85.458 400.782 88.08V100.5H393.192V77.592H400.506V80.766H400.598C401.656 78.742 404.278 76.948 407.452 76.948C413.616 76.948 415.824 81.732 415.824 86.332V100.5ZM427.61 86.424H437.316C437.316 84.032 435.798 82.054 432.808 82.054C429.91 82.054 427.794 84.078 427.61 86.424ZM444.262 89.322C444.262 89.92 444.262 90.564 444.216 91.116H427.61C427.84 93.646 430.37 95.44 433.084 95.44C435.476 95.44 437.132 94.428 438.144 93.048L443.388 96.36C441.226 99.488 437.638 101.236 432.992 101.236C426.092 101.236 420.388 96.866 420.388 89.138C420.388 81.64 425.816 76.856 432.762 76.856C439.524 76.856 444.262 81.502 444.262 89.322ZM472.124 77.592L461.866 103.95C460.026 108.734 457.542 111.54 451.792 111.54C450.366 111.54 448.756 111.31 447.652 111.034L448.48 104.686C449.216 104.916 450.182 105.1 450.918 105.1C453.264 105.1 454.046 103.996 454.782 102.018L455.518 100.132L445.95 77.592H454.322L459.428 92.312H459.566L464.12 77.592H472.124ZM12.132 126.278C12.132 128.624 10.2 130.418 7.808 130.418C5.37 130.418 3.484 128.532 3.484 126.278C3.484 124.07 5.37 122.138 7.808 122.138C10.2 122.138 12.132 123.978 12.132 126.278ZM11.58 156.5H4.036V133.592H11.58V156.5ZM40.1873 156.5H32.5973V143.988C32.5973 141.458 31.9073 139.158 29.1933 139.158C26.5253 139.158 25.1453 141.458 25.1453 144.08V156.5H17.5553V133.592H24.8693V136.766H24.9613C26.0193 134.742 28.6413 132.948 31.8153 132.948C37.9793 132.948 40.1873 137.732 40.1873 142.332V156.5ZM81.689 144.954C81.689 152.452 75.893 157.236 68.947 157.236C62.047 157.236 56.251 152.452 56.251 144.954C56.251 137.456 62.047 132.856 68.947 132.856C75.893 132.856 81.689 137.456 81.689 144.954ZM74.421 144.954C74.421 142.01 72.489 139.112 68.947 139.112C65.405 139.112 63.565 142.01 63.565 144.954C63.565 147.898 65.451 150.888 68.993 150.888C72.535 150.888 74.421 147.898 74.421 144.954ZM109.097 156.5H101.507V143.988C101.507 141.458 100.817 139.158 98.1035 139.158C95.4355 139.158 94.0555 141.458 94.0555 144.08V156.5H86.4655V133.592H93.7795V136.766H93.8715C94.9295 134.742 97.5515 132.948 100.725 132.948C106.889 132.948 109.097 137.732 109.097 142.332V156.5ZM120.883 142.424H130.589C130.589 140.032 129.071 138.054 126.081 138.054C123.183 138.054 121.067 140.078 120.883 142.424ZM137.535 145.322C137.535 145.92 137.535 146.564 137.489 147.116H120.883C121.113 149.646 123.643 151.44 126.357 151.44C128.749 151.44 130.405 150.428 131.417 149.048L136.661 152.36C134.499 155.488 130.911 157.236 126.265 157.236C119.365 157.236 113.661 152.866 113.661 145.138C113.661 137.64 119.089 132.856 126.035 132.856C132.797 132.856 137.535 137.502 137.535 145.322ZM171.332 136.076L167.192 140.354C165.996 139.204 164.248 138.284 162.408 138.284C160.982 138.284 159.556 138.79 159.556 140.124C159.556 141.412 160.798 141.78 163.742 142.424C167.238 143.206 171.056 144.954 171.056 149.416C171.056 155.212 165.95 157.236 161.258 157.236C157.532 157.236 153.668 155.994 151.276 153.694L155.508 149.232C156.842 150.704 158.912 151.808 161.12 151.808C162.362 151.808 163.834 151.302 163.834 149.83C163.834 148.404 162.408 147.944 159.28 147.208C156.106 146.472 152.61 144.862 152.61 140.538C152.61 135.064 157.762 132.856 162.132 132.856C165.536 132.856 169.078 133.96 171.332 136.076ZM200.895 144.954C200.895 151.348 196.893 157.144 189.993 157.144C187.187 157.144 184.473 155.948 183.047 153.97H182.955V167.54H175.411V133.592H182.587V136.398H182.725C184.105 134.558 186.681 132.948 190.039 132.948C196.709 132.948 200.895 138.56 200.895 144.954ZM193.581 144.954C193.581 142.01 191.787 139.112 188.199 139.112C184.795 139.112 182.679 142.102 182.679 145C182.679 147.99 184.795 150.888 188.199 150.888C191.787 150.888 193.581 147.944 193.581 144.954ZM229.931 144.954C229.931 152.452 224.135 157.236 217.189 157.236C210.289 157.236 204.493 152.452 204.493 144.954C204.493 137.456 210.289 132.856 217.189 132.856C224.135 132.856 229.931 137.456 229.931 144.954ZM222.663 144.954C222.663 142.01 220.731 139.112 217.189 139.112C213.647 139.112 211.807 142.01 211.807 144.954C211.807 147.898 213.693 150.888 217.235 150.888C220.777 150.888 222.663 147.898 222.663 144.954ZM248.278 139.25H242.896V147.99C242.896 150.106 243.586 151.21 245.748 151.21C246.484 151.21 247.404 151.072 247.956 150.842L248.048 156.362C247.036 156.73 245.288 157.052 243.678 157.052C237.56 157.052 235.536 153.786 235.536 148.91V139.25H231.856V133.592H235.49V127.566H242.896V133.592H248.278V139.25ZM260.425 152.452C260.425 154.982 258.309 156.96 255.825 156.96C253.295 156.96 251.133 155.028 251.133 152.498C251.133 150.014 253.249 147.944 255.825 147.944C258.309 147.944 260.425 149.922 260.425 152.452Z" fill="black"/>
<path d="M14.62 191.88L13.62 192.88C12.64 191.84 11.28 191.24 9.52 191.24C5.88 191.24 3.64 194.12 3.64 197.42C3.64 200.72 5.88 203.58 9.52 203.58C11.12 203.58 12.52 203.2 13.34 202.66V198.36H10.04V197.1H14.78V203.48C13.24 204.4 11.42 204.86 9.5 204.86C5.22 204.86 2.12 201.72 2.12 197.42C2.12 193.12 5.28 189.98 9.5 189.98C11.74 189.98 13.42 190.7 14.62 191.88ZM19.1459 199.1H25.5259C25.4459 197.34 24.3659 196.04 22.4259 196.04C20.6059 196.04 19.2659 197.5 19.1459 199.1ZM26.9059 199.54C26.9059 199.72 26.9059 199.94 26.8859 200.18H19.1259C19.1659 202.06 20.6259 203.58 22.5459 203.58C23.9459 203.58 25.0259 202.8 25.5459 201.96L26.5659 202.76C25.4659 204.16 24.0859 204.74 22.5459 204.74C19.7659 204.74 17.7059 202.64 17.7059 199.82C17.7059 197 19.7659 194.9 22.4259 194.9C25.3659 194.9 26.9059 196.98 26.9059 199.54ZM34.0513 195.14V196.28H31.4113V201.74C31.4113 203.14 31.9913 203.46 32.8113 203.46C33.1913 203.46 33.6313 203.34 33.9913 203.16L34.0513 204.34C33.5713 204.52 33.0713 204.62 32.4513 204.62C31.4513 204.62 30.0513 204.18 30.0513 202.12V196.28H28.1113V195.14H30.0513V192.5H31.4113V195.14H34.0513ZM47.1989 196.58L46.1589 197.36C45.7589 196.58 44.8989 196.04 43.8589 196.04C42.8789 196.04 41.8789 196.46 41.8789 197.5C41.8789 198.38 42.5789 198.78 44.1189 199.1C46.3189 199.56 47.3589 200.38 47.3589 201.84C47.3589 203.98 45.5589 204.74 43.8389 204.74C42.4189 204.74 40.9989 204.18 40.1389 202.92L41.2189 202.12C41.6989 202.94 42.7189 203.58 43.8189 203.58C44.9789 203.58 46.0189 203.16 46.0189 201.94C46.0189 200.96 45.0389 200.56 43.2589 200.14C42.1589 199.88 40.5789 199.4 40.5789 197.62C40.5789 195.72 42.2189 194.9 43.9189 194.9C45.2189 194.9 46.5989 195.52 47.1989 196.58ZM50.8256 199.1H57.2056C57.1256 197.34 56.0456 196.04 54.1056 196.04C52.2856 196.04 50.9456 197.5 50.8256 199.1ZM58.5856 199.54C58.5856 199.72 58.5856 199.94 58.5656 200.18H50.8056C50.8456 202.06 52.3056 203.58 54.2256 203.58C55.6256 203.58 56.7056 202.8 57.2256 201.96L58.2456 202.76C57.1456 204.16 55.7656 204.74 54.2256 204.74C51.4456 204.74 49.3856 202.64 49.3856 199.82C49.3856 197 51.4456 194.9 54.1056 194.9C57.0456 194.9 58.5856 196.98 58.5856 199.54ZM65.7309 195.14V196.28H63.0909V201.74C63.0909 203.14 63.6709 203.46 64.4909 203.46C64.8709 203.46 65.3109 203.34 65.6709 203.16L65.7309 204.34C65.2509 204.52 64.7509 204.62 64.1309 204.62C63.1309 204.62 61.7309 204.18 61.7309 202.12V196.28H59.7909V195.14H61.7309V192.5H63.0909V195.14H65.7309ZM80.9586 204.5H79.6586C79.6186 204 79.5786 203.3 79.5786 202.9H79.5386C79.0186 203.98 77.6586 204.74 76.3386 204.74C73.9586 204.74 72.7786 203.2 72.7786 200.88V195.14H74.1386V200.32C74.1386 202.28 74.7186 203.6 76.6786 203.6C78.1186 203.6 79.5186 202.44 79.5186 199.94V195.14H80.8786V202.44C80.8786 202.94 80.8986 203.86 80.9586 204.5ZM85.8397 202.92V209.3H84.4797V195.14H85.8397V196.76H85.8997C86.6797 195.54 88.0797 194.9 89.4197 194.9C92.3397 194.9 94.2597 197.06 94.2597 199.82C94.2597 202.58 92.3397 204.74 89.4197 204.74C88.0797 204.74 86.6797 204.08 85.8997 202.92H85.8397ZM92.8197 199.82C92.8197 197.74 91.5397 196.04 89.2797 196.04C87.1797 196.04 85.6797 197.68 85.6797 199.82C85.6797 201.96 87.1797 203.58 89.2797 203.58C91.5397 203.58 92.8197 201.9 92.8197 199.82ZM103.555 195.14V204.5H102.195V195.14H103.555ZM103.835 191.54C103.835 192.1 103.355 192.5 102.875 192.5C102.395 192.5 101.915 192.1 101.915 191.54C101.915 190.98 102.395 190.58 102.875 190.58C103.355 190.58 103.835 190.98 103.835 191.54ZM107.095 195.14H108.395C108.435 195.64 108.475 196.34 108.475 196.74H108.515C109.035 195.66 110.395 194.9 111.715 194.9C114.095 194.9 115.275 196.44 115.275 198.76V204.5H113.915V199.32C113.915 197.36 113.335 196.04 111.375 196.04C109.935 196.04 108.535 197.2 108.535 199.7V204.5H107.175V197.2C107.175 196.7 107.155 195.78 107.095 195.14ZM129.696 198.76V198.46C129.696 196.84 128.816 196.04 127.196 196.04C126.096 196.04 125.076 196.48 124.416 197.14L123.656 196.24C124.416 195.48 125.736 194.9 127.336 194.9C129.356 194.9 130.976 196.02 130.976 198.3V202.4C130.976 203.12 131.036 203.98 131.136 204.5H129.916C129.836 204.04 129.776 203.48 129.776 202.98H129.736C128.876 204.22 127.836 204.74 126.336 204.74C124.916 204.74 123.096 203.98 123.096 201.9C123.096 199.02 126.276 198.76 129.696 198.76ZM129.696 199.82H129.296C127.076 199.82 124.496 200.06 124.496 201.84C124.496 203.18 125.636 203.62 126.696 203.62C128.616 203.62 129.696 202.18 129.696 200.52V199.82ZM135.92 202.92H135.88V204.5H134.52V189.38H135.88V196.76H135.92C136.72 195.54 138.12 194.9 139.46 194.9C142.38 194.9 144.3 197.06 144.3 199.82C144.3 202.58 142.38 204.74 139.46 204.74C138.12 204.74 136.72 204.1 135.92 202.92ZM142.86 199.82C142.86 197.74 141.58 196.04 139.32 196.04C137.22 196.04 135.72 197.68 135.72 199.82C135.72 201.96 137.22 203.58 139.32 203.58C141.58 203.58 142.86 201.9 142.86 199.82ZM156.514 199.82C156.514 202.64 154.434 204.74 151.514 204.74C148.614 204.74 146.534 202.64 146.534 199.82C146.534 197 148.614 194.9 151.514 194.9C154.434 194.9 156.514 197 156.514 199.82ZM155.074 199.82C155.074 197.72 153.694 196.04 151.514 196.04C149.354 196.04 147.974 197.72 147.974 199.82C147.974 201.92 149.354 203.58 151.514 203.58C153.694 203.58 155.074 201.92 155.074 199.82ZM167.541 204.5H166.241C166.201 204 166.161 203.3 166.161 202.9H166.121C165.601 203.98 164.241 204.74 162.921 204.74C160.541 204.74 159.361 203.2 159.361 200.88V195.14H160.721V200.32C160.721 202.28 161.301 203.6 163.261 203.6C164.701 203.6 166.101 202.44 166.101 199.94V195.14H167.461V202.44C167.461 202.94 167.481 203.86 167.541 204.5ZM175.282 195.14V196.28H172.642V201.74C172.642 203.14 173.222 203.46 174.042 203.46C174.422 203.46 174.862 203.34 175.222 203.16L175.282 204.34C174.802 204.52 174.302 204.62 173.682 204.62C172.682 204.62 171.282 204.18 171.282 202.12V196.28H169.342V195.14H171.282V192.5H172.642V195.14H175.282ZM190.109 190.34V191.62H184.209L184.109 196C184.709 195.78 185.429 195.68 186.069 195.68C188.729 195.68 190.669 197.48 190.669 200.12C190.669 202.86 188.769 204.86 185.969 204.86C183.929 204.86 182.509 203.84 181.729 202.28L183.029 201.7C183.529 202.86 184.649 203.62 185.889 203.62C187.809 203.62 189.209 202.18 189.209 200.26C189.209 198.16 187.709 196.86 185.689 196.86C184.669 196.86 183.649 197.16 182.749 197.64L182.889 190.34H190.109ZM200.351 196.74C200.891 195.66 202.091 194.9 203.431 194.9C204.451 194.9 205.691 195.28 206.311 196.88C206.951 195.6 208.091 194.9 209.591 194.9C211.971 194.9 213.151 196.44 213.151 198.76V204.5H211.791V199.32C211.791 197.36 211.131 196.04 209.371 196.04C207.411 196.04 206.711 197.78 206.711 199.52V204.5H205.351V199.04C205.351 197.22 204.911 196.04 203.091 196.04C201.791 196.04 200.371 197.2 200.371 199.7V204.5H199.011V197.2C199.011 196.7 198.991 195.78 198.931 195.14H200.231C200.271 195.64 200.311 196.34 200.311 196.74H200.351ZM218.047 195.14V204.5H216.687V195.14H218.047ZM218.327 191.54C218.327 192.1 217.847 192.5 217.367 192.5C216.887 192.5 216.407 192.1 216.407 191.54C216.407 190.98 216.887 190.58 217.367 190.58C217.847 190.58 218.327 190.98 218.327 191.54ZM221.587 195.14H222.887C222.927 195.64 222.967 196.34 222.967 196.74H223.007C223.527 195.66 224.887 194.9 226.207 194.9C228.587 194.9 229.767 196.44 229.767 198.76V204.5H228.407V199.32C228.407 197.36 227.827 196.04 225.867 196.04C224.427 196.04 223.027 197.2 223.027 199.7V204.5H221.667V197.2C221.667 196.7 221.647 195.78 221.587 195.14ZM241.388 204.5H240.088C240.048 204 240.008 203.3 240.008 202.9H239.968C239.448 203.98 238.088 204.74 236.768 204.74C234.388 204.74 233.208 203.2 233.208 200.88V195.14H234.568V200.32C234.568 202.28 235.148 203.6 237.108 203.6C238.548 203.6 239.948 202.44 239.948 199.94V195.14H241.308V202.44C241.308 202.94 241.328 203.86 241.388 204.5ZM249.129 195.14V196.28H246.489V201.74C246.489 203.14 247.069 203.46 247.889 203.46C248.269 203.46 248.709 203.34 249.069 203.16L249.129 204.34C248.649 204.52 248.149 204.62 247.529 204.62C246.529 204.62 245.129 204.18 245.129 202.12V196.28H243.189V195.14H245.129V192.5H246.489V195.14H249.129ZM252.017 199.1H258.397C258.317 197.34 257.237 196.04 255.297 196.04C253.477 196.04 252.137 197.5 252.017 199.1ZM259.777 199.54C259.777 199.72 259.777 199.94 259.757 200.18H251.997C252.037 202.06 253.497 203.58 255.417 203.58C256.817 203.58 257.897 202.8 258.417 201.96L259.437 202.76C258.337 204.16 256.957 204.74 255.417 204.74C252.637 204.74 250.577 202.64 250.577 199.82C250.577 197 252.637 194.9 255.297 194.9C258.237 194.9 259.777 196.98 259.777 199.54ZM268.722 196.58L267.682 197.36C267.282 196.58 266.422 196.04 265.382 196.04C264.402 196.04 263.402 196.46 263.402 197.5C263.402 198.38 264.102 198.78 265.642 199.1C267.842 199.56 268.882 200.38 268.882 201.84C268.882 203.98 267.082 204.74 265.362 204.74C263.942 204.74 262.522 204.18 261.662 202.92L262.742 202.12C263.222 202.94 264.242 203.58 265.342 203.58C266.502 203.58 267.542 203.16 267.542 201.94C267.542 200.96 266.562 200.56 264.782 200.14C263.682 199.88 262.102 199.4 262.102 197.62C262.102 195.72 263.742 194.9 265.442 194.9C266.742 194.9 268.122 195.52 268.722 196.58ZM273.469 203.54C273.469 204.1 273.029 204.62 272.389 204.62C271.749 204.62 271.309 204.1 271.309 203.54C271.309 202.98 271.749 202.46 272.389 202.46C273.029 202.46 273.469 202.98 273.469 203.54Z" fill="black"/>
</svg>
