<svg width="122" height="122" viewBox="0 0 122 122" fill="none" xmlns="http://www.w3.org/2000/svg">
<path d="M96.19 29.6602H81.53C80.2156 29.6602 79.15 30.7257 79.15 32.0402V92.3402C79.15 93.6546 80.2156 94.7202 81.53 94.7202H96.19C97.5045 94.7202 98.57 93.6546 98.57 92.3402V32.0402C98.57 30.7257 97.5045 29.6602 96.19 29.6602Z" fill="#82C341"/>
<g style="mix-blend-mode:multiply" opacity="0.3">
<path d="M68.1099 50.4297H53.4499C52.1355 50.4297 51.0699 51.4953 51.0699 52.8097V92.3397C51.0699 93.6541 52.1355 94.7197 53.4499 94.7197H68.1099C69.4244 94.7197 70.4899 93.6541 70.4899 92.3397V52.8097C70.4899 51.4953 69.4244 50.4297 68.1099 50.4297Z" fill="#00C1BF"/>
</g>
<g style="mix-blend-mode:multiply" opacity="0.3">
<path d="M40.03 67.5703H25.37C24.0556 67.5703 22.99 68.6359 22.99 69.9503V92.3403C22.99 93.6547 24.0556 94.7203 25.37 94.7203H40.03C41.3444 94.7203 42.41 93.6547 42.41 92.3403V69.9503C42.41 68.6359 41.3444 67.5703 40.03 67.5703Z" fill="#00C1BF"/>
</g>
<path fill-rule="evenodd" clip-rule="evenodd" d="M61.7957 24.9461C62.5768 24.1651 63.8431 24.1651 64.6242 24.9461L71.8842 32.2061C72.2592 32.5812 72.47 33.0899 72.47 33.6203C72.47 34.1508 72.2592 34.6595 71.8842 35.0346L64.6242 42.2946C63.8431 43.0756 62.5768 43.0756 61.7957 42.2946C61.0147 41.5135 61.0147 40.2472 61.7957 39.4661L67.6415 33.6203L61.7957 27.7746C61.0147 26.9935 61.0147 25.7272 61.7957 24.9461Z" fill="#008481"/>
<path fill-rule="evenodd" clip-rule="evenodd" d="M23.46 33.6201C23.46 32.5155 24.3554 31.6201 25.46 31.6201H68.49C69.5945 31.6201 70.49 32.5155 70.49 33.6201C70.49 34.7247 69.5945 35.6201 68.49 35.6201H25.46C24.3554 35.6201 23.46 34.7247 23.46 33.6201Z" fill="#008481"/>
</svg>
