<svg width="245" height="106" viewBox="0 0 245 106" fill="none" xmlns="http://www.w3.org/2000/svg">
<path d="M57.921 18.2669C56.3293 18.2669 55.5268 16.8564 55.5268 15.4926C55.5268 14.129 56.3975 12.7785 57.8446 12.7785C58.5223 12.7785 59.379 13.1156 59.7153 13.5895L61.4003 11.9245C60.5847 11.0722 59.2846 10.5634 57.8446 10.5634C54.9141 10.5634 52.7872 12.6491 52.7872 15.5226C52.7872 18.4427 54.8903 20.482 57.9018 20.482C59.3348 20.482 60.659 20.066 61.4441 19.2289L59.8052 17.4845C59.4266 17.9417 58.633 18.2669 57.921 18.2669ZM48.4973 20.2176H51.1116V10.8277H48.4973V20.2176ZM43.7433 15.9758C43.7433 17.0792 43.0181 18.2669 41.6665 18.2669C40.6245 18.2669 40.068 17.5298 40.068 16.0137V10.8277H37.4537V16.6555C37.4537 18.5946 38.4293 20.482 41.0383 20.482C42.2687 20.482 43.2992 19.5215 43.8185 18.8125H43.8576V20.2176H46.3577V10.8277H43.7433V15.9758V15.9758ZM32.7372 12.0199H32.6793C32.3099 11.6148 31.3093 10.5634 29.6846 10.5634C27.019 10.5634 24.9648 12.6332 24.9648 15.485C24.9648 18.3805 26.8603 20.482 29.5593 20.482C30.7847 20.482 31.9357 19.838 32.603 19.0889H32.6418V24.8415H35.2561V10.8277H32.7372V12.0199V12.0199ZM30.1987 18.2669C28.5821 18.2669 27.663 16.8674 27.663 15.485C27.663 14.1633 28.507 12.7407 30.1987 12.7407C31.7549 12.7407 32.7179 14.1847 32.7179 15.5226C32.7179 16.8715 31.7757 18.2669 30.1987 18.2669ZM89.7494 10.5634C86.7746 10.5634 84.6156 12.6332 84.6156 15.485C84.6156 18.436 86.8226 20.5073 89.7494 20.5073C92.6759 20.5073 94.883 18.4162 94.883 15.485C94.883 12.6332 92.724 10.5634 89.7494 10.5634ZM89.7494 18.2669C88.0446 18.2669 87.2679 16.8248 87.2679 15.485C87.2679 14.1633 88.0446 12.7407 89.7494 12.7407C91.4543 12.7407 92.2307 14.1633 92.2307 15.485C92.2307 16.8248 91.4543 18.2669 89.7494 18.2669ZM122.435 14.4383C121.089 14.1198 120.615 13.9484 120.615 13.408C120.615 12.6628 121.567 12.4993 121.998 12.4993C122.809 12.4993 123.726 12.9798 124.07 13.4359L125.612 11.9691C124.899 11.0809 123.497 10.5634 122.017 10.5634C120.125 10.5634 118.138 11.5072 118.138 13.6157C118.138 15.4262 119.569 15.9725 120.969 16.3052C122.445 16.6459 122.971 16.895 122.971 17.4845C122.971 18.3536 121.977 18.4955 121.635 18.4955C120.78 18.4955 119.788 18.0098 119.254 17.3805L117.667 18.9761C118.534 19.9297 120.018 20.5036 121.54 20.5036C124.095 20.5036 125.612 19.2952 125.612 17.3012C125.612 15.3934 123.756 14.7521 122.435 14.4383ZM117.492 10.8277H114.121L110.745 14.724H110.687V5.65332H108.073V20.2176H110.687V15.5863H110.745L114.247 20.2176H117.688L113.618 15.0861L117.492 10.8277ZM78.724 10.5634C77.5284 10.5634 76.6475 11.0817 75.8158 11.8548H75.7668V5.65332H73.1527V20.2176H75.6527V18.8904H75.6918C76.2813 19.8492 77.4524 20.482 78.6671 20.482C81.3659 20.482 83.4116 18.3805 83.4116 15.485C83.4116 12.6332 81.3899 10.5634 78.724 10.5634ZM78.2101 18.2669C76.633 18.2669 75.6907 16.8715 75.6907 15.5226C75.6907 14.1847 76.6539 12.7407 78.2101 12.7407C79.9019 12.7407 80.7434 14.1633 80.7434 15.485C80.7434 16.8674 79.8267 18.2669 78.2101 18.2669ZM72.1691 10.8277H68.7974L65.4219 14.724H65.3638V5.65332H62.7495V20.2176H65.3638V15.5863H65.422L68.9239 20.2176H72.3644L68.2943 15.0861L72.1691 10.8277ZM101.238 10.5634C98.2628 10.5634 96.1039 12.6332 96.1039 15.485C96.1039 18.436 98.3109 20.5073 101.238 20.5073C104.164 20.5073 106.371 18.4162 106.371 15.485C106.371 12.6332 104.212 10.5634 101.238 10.5634ZM101.238 18.2669C99.5328 18.2669 98.7561 16.8248 98.7561 15.485C98.7561 14.1633 99.5328 12.7407 101.238 12.7407C102.942 12.7407 103.719 14.1633 103.719 15.485C103.719 16.8248 102.942 18.2669 101.238 18.2669Z" fill="black"/>
<path d="M38.8442 6.1001C38.8442 7.32826 39.8354 8.22631 41.0933 8.22631C42.3512 8.22631 43.3449 7.33068 43.3449 6.1001V3.28213H42.1261V5.95686C42.1261 6.61948 41.6807 7.06366 41.0909 7.06366C40.5035 7.06366 40.0556 6.61948 40.0556 5.95686V3.28213H38.8369L38.8442 6.1001Z" fill="black"/>
<path d="M46.6047 4.41077H48.0585V8.12436H49.2772V4.41077H50.7309V3.27973H46.6047V4.41077Z" fill="black"/>
<path d="M45.8168 3.27973H44.598V8.12436H45.8168V3.27973Z" fill="black"/>
<path d="M35.3739 4.41077V8.12436H36.5927V4.41077H38.0464V3.27973H33.9178V4.41077H35.3739Z" fill="black"/>
<path d="M27.5254 3.27973H26.3066V8.12436H27.5254V3.27973Z" fill="black"/>
<path d="M33.279 5.30882C33.279 4.08066 32.2879 3.18262 31.0275 3.18262C29.7696 3.18262 28.776 4.07823 28.776 5.30882V8.12678H29.9947V5.45206C29.9947 4.78943 30.4426 4.34526 31.0299 4.34526C31.6173 4.34526 32.0652 4.78943 32.0652 5.45206V8.12678H33.2839L33.279 5.30882Z" fill="black"/>
<path d="M11.013 22.039C17.0953 22.039 22.0259 17.1489 22.0259 11.1167C22.0259 5.08443 17.0953 0.194336 11.013 0.194336C4.93067 0.194336 0 5.08443 0 11.1167C0 17.1489 4.93067 22.039 11.013 22.039Z" fill="white"/>
<path fill-rule="evenodd" clip-rule="evenodd" d="M22.0259 11.1167C22.0259 17.1489 17.0953 22.039 11.013 22.039C4.93067 22.039 0 17.1489 0 11.1167C0 5.08443 4.93067 0.194336 11.013 0.194336C17.0953 0.194336 22.0259 5.08443 22.0259 11.1167ZM7.34078 15.3639C4.97544 15.3639 3.05796 13.4622 3.05796 11.1164C3.05796 8.77057 4.97544 6.86882 7.34078 6.86882H10.4018V18.2765C9.52326 18.2765 8.81104 17.5702 8.81104 16.6989V8.44649H7.34078C5.85638 8.44649 4.64872 9.64416 4.64872 11.1164C4.64872 12.5885 5.85638 13.7863 7.34078 13.7863H7.95261V15.3639H7.34078ZM14.0731 6.86945H14.685C17.0503 6.86945 18.9678 8.77115 18.9678 11.117C18.9678 13.4628 17.0503 15.3645 14.685 15.3645H11.6239V3.95683C12.5025 3.95683 13.2147 4.66314 13.2147 5.5345V13.7869H14.685C16.1694 13.7869 17.377 12.5892 17.377 11.117C17.377 9.64484 16.1694 8.44712 14.685 8.44712H14.0731V6.86945Z" fill="#2CA01C"/>
<path d="M208.32 22.4082H203.213L206.407 2.65625H211.514L208.32 22.4082Z" fill="url(#paint0_linear_95_4619)"/>
<path d="M226.834 3.13877C225.827 2.73912 224.229 2.29785 222.253 2.29785C217.21 2.29785 213.658 4.98734 213.636 8.83249C213.594 11.6694 216.179 13.2452 218.112 14.1911C220.088 15.1577 220.76 15.7886 220.76 16.6502C220.74 17.9734 219.163 18.5834 217.693 18.5834C215.654 18.5834 214.561 18.2689 212.901 17.5327L212.228 17.2171L211.514 21.651C212.712 22.1967 214.918 22.681 217.21 22.7022C222.568 22.7022 226.057 20.0543 226.099 15.9567C226.119 13.7082 224.754 11.9853 221.812 10.5774C220.025 9.67369 218.931 9.0643 218.931 8.1396C218.952 7.29896 219.857 6.43793 221.873 6.43793C223.533 6.39576 224.753 6.79485 225.677 7.19423L226.139 7.40397L226.834 3.13877Z" fill="url(#paint1_linear_95_4619)"/>
<path d="M233.622 15.4108C234.043 14.2761 235.661 9.88435 235.661 9.88435C235.64 9.92652 236.081 8.72868 236.333 7.99333L236.69 9.69528C236.69 9.69528 237.657 14.4232 237.868 15.4108C237.069 15.4108 234.631 15.4108 233.622 15.4108ZM239.927 2.65625H235.976C234.758 2.65625 233.832 3.01317 233.307 4.29508L225.721 22.4079H231.08C231.08 22.4079 231.962 19.9701 232.151 19.445C232.739 19.445 237.952 19.445 238.709 19.445C238.855 20.1385 239.318 22.4079 239.318 22.4079H244.047L239.927 2.65625Z" fill="url(#paint2_linear_95_4619)"/>
<path d="M198.947 2.65625L193.946 16.1252L193.399 13.3935C192.474 10.2416 189.574 6.817 186.338 5.11421L190.919 22.3873H196.32L204.348 2.65625H198.947Z" fill="url(#paint3_linear_95_4619)"/>
<path d="M189.301 2.65625H181.084L181 3.05534C187.41 4.69445 191.655 8.64545 193.399 13.3944L191.613 4.31658C191.319 3.05506 190.415 2.69786 189.301 2.65625Z" fill="url(#paint4_linear_95_4619)"/>
<path d="M190.78 36V28.92H193.54C194.61 28.92 195.71 29.41 195.71 30.7C195.71 31.5 195.21 32.03 194.48 32.25V32.27C195.37 32.39 196.01 32.99 196.01 33.94C196.01 35.48 194.67 36 193.33 36H190.78ZM192.04 29.96V31.8H193.16C194 31.8 194.45 31.45 194.45 30.84C194.45 30.21 194 29.96 193.05 29.96H192.04ZM192.04 32.88V34.94H193.17C193.82 34.94 194.75 34.81 194.75 33.88C194.75 33.14 194.24 32.88 193.22 32.88H192.04ZM201.575 31.2V36H200.435V35.23H200.415C200.205 35.71 199.635 36.14 198.925 36.14C197.675 36.14 197.155 35.18 197.155 34.2V31.2H198.355V33.86C198.355 34.43 198.485 35.14 199.255 35.14C200.015 35.14 200.375 34.48 200.375 33.84V31.2H201.575ZM206.425 31.79L205.645 32.48C205.435 32.2 205.035 31.96 204.595 31.96C204.215 31.96 203.825 32.1 203.825 32.48C203.825 32.85 204.195 32.95 204.865 33.11C205.575 33.28 206.415 33.6 206.415 34.54C206.415 35.71 205.465 36.14 204.415 36.14C203.675 36.14 202.905 35.86 202.445 35.35L203.235 34.61C203.495 34.95 203.945 35.21 204.465 35.21C204.815 35.21 205.235 35.07 205.235 34.64C205.235 34.24 204.865 34.12 204.135 33.95C203.425 33.78 202.715 33.49 202.715 32.59C202.715 31.52 203.675 31.06 204.625 31.06C205.315 31.06 206.035 31.3 206.425 31.79ZM207.478 36V31.2H208.678V36H207.478ZM207.308 29.57C207.308 29.19 207.628 28.85 208.068 28.85C208.508 28.85 208.848 29.16 208.848 29.57C208.848 29.98 208.508 30.29 208.068 30.29C207.628 30.29 207.308 29.95 207.308 29.57ZM210.134 36V31.2H211.274V31.97H211.294C211.504 31.49 212.074 31.06 212.784 31.06C214.034 31.06 214.554 32.02 214.554 33V36H213.354V33.34C213.354 32.77 213.224 32.06 212.454 32.06C211.694 32.06 211.334 32.72 211.334 33.36V36H210.134ZM216.874 33.12H219.334C219.334 32.5 218.984 31.96 218.204 31.96C217.494 31.96 216.924 32.45 216.874 33.12ZM220.534 33.66C220.534 33.77 220.534 33.87 220.524 33.98H216.874C216.924 34.66 217.544 35.16 218.244 35.16C218.844 35.16 219.244 34.92 219.514 34.54L220.314 35.18C219.844 35.82 219.164 36.14 218.254 36.14C216.774 36.14 215.674 35.19 215.674 33.63C215.674 32.08 216.764 31.06 218.214 31.06C219.554 31.06 220.534 31.93 220.534 33.66ZM225.107 31.79L224.327 32.48C224.117 32.2 223.717 31.96 223.277 31.96C222.897 31.96 222.507 32.1 222.507 32.48C222.507 32.85 222.877 32.95 223.547 33.11C224.257 33.28 225.097 33.6 225.097 34.54C225.097 35.71 224.147 36.14 223.097 36.14C222.357 36.14 221.587 35.86 221.127 35.35L221.917 34.61C222.177 34.95 222.627 35.21 223.147 35.21C223.497 35.21 223.917 35.07 223.917 34.64C223.917 34.24 223.547 34.12 222.817 33.95C222.107 33.78 221.397 33.49 221.397 32.59C221.397 31.52 222.357 31.06 223.307 31.06C223.997 31.06 224.717 31.3 225.107 31.79ZM229.55 31.79L228.77 32.48C228.56 32.2 228.16 31.96 227.72 31.96C227.34 31.96 226.95 32.1 226.95 32.48C226.95 32.85 227.32 32.95 227.99 33.11C228.7 33.28 229.54 33.6 229.54 34.54C229.54 35.71 228.59 36.14 227.54 36.14C226.8 36.14 226.03 35.86 225.57 35.35L226.36 34.61C226.62 34.95 227.07 35.21 227.59 35.21C227.94 35.21 228.36 35.07 228.36 34.64C228.36 34.24 227.99 34.12 227.26 33.95C226.55 33.78 225.84 33.49 225.84 32.59C225.84 31.52 226.8 31.06 227.75 31.06C228.44 31.06 229.16 31.3 229.55 31.79ZM190.78 48V40.92H193.29C195.14 40.92 197.2 41.8 197.2 44.46C197.2 46.94 195.14 48 193.29 48H190.78ZM192.04 46.9H193.09C194.39 46.9 195.85 46.37 195.85 44.46C195.85 42.43 194.39 42 193.09 42H192.04V46.9ZM199.277 45.12H201.737C201.737 44.5 201.387 43.96 200.607 43.96C199.897 43.96 199.327 44.45 199.277 45.12ZM202.937 45.66C202.937 45.77 202.937 45.87 202.927 45.98H199.277C199.327 46.66 199.947 47.16 200.647 47.16C201.247 47.16 201.647 46.92 201.917 46.54L202.717 47.18C202.247 47.82 201.567 48.14 200.657 48.14C199.177 48.14 198.077 47.19 198.077 45.63C198.077 44.08 199.167 43.06 200.617 43.06C201.957 43.06 202.937 43.93 202.937 45.66ZM204.119 40.44H205.319V43.81H205.349C205.599 43.5 206.079 43.06 206.959 43.06C208.329 43.06 209.289 44.16 209.289 45.58C209.289 46.98 208.389 48.14 206.929 48.14C206.259 48.14 205.609 47.83 205.279 47.28H205.259V48H204.119V40.44ZM208.069 45.58C208.069 44.83 207.619 44.04 206.689 44.04C205.809 44.04 205.279 44.85 205.279 45.6C205.279 46.35 205.809 47.14 206.689 47.14C207.619 47.14 208.069 46.33 208.069 45.58ZM210.467 48V43.2H211.667V48H210.467ZM210.297 41.57C210.297 41.19 210.617 40.85 211.057 40.85C211.497 40.85 211.837 41.16 211.837 41.57C211.837 41.98 211.497 42.29 211.057 42.29C210.617 42.29 210.297 41.95 210.297 41.57ZM213.272 44.16H212.432V43.2H213.272V41.81H214.452V43.2H215.652V44.16H214.452V46.39C214.452 46.82 214.552 47.13 215.082 47.13C215.242 47.13 215.452 47.1 215.592 47.03L215.632 47.97C215.422 48.05 215.102 48.1 214.832 48.1C213.562 48.1 213.272 47.32 213.272 46.4V44.16Z" fill="#CCCCCC"/>
<path d="M196.004 93.8355C196.013 89.644 196.015 85.4525 196.042 81.261C196.068 77.0318 199.02 74.0458 203.22 74.0259C207.809 74.0038 212.398 74.0215 216.987 74.0192C221.43 74.0192 225.874 74.0812 230.317 74.0016C235.201 73.9153 238.123 77.4322 237.996 81.7697C237.843 87.0362 237.911 92.3115 237.983 97.5824C238.011 99.6572 237.66 101.615 236.482 103.265C235.376 104.815 233.726 105.773 231.814 105.917C229.902 106.061 227.972 105.974 226.051 105.974C218.512 105.979 210.973 105.979 203.434 105.974C198.865 105.972 196.048 103.101 196.035 98.4495C196.035 97.7129 196.013 96.9764 196.009 96.2398L196 93.8333L196.004 93.8355Z" fill="#C2C2C2"/>
<path d="M196.004 93.8355C196.013 89.644 196.015 85.4525 196.042 81.261C196.068 77.0318 199.02 74.0458 203.22 74.0259C207.809 74.0038 212.398 74.0215 216.987 74.0192C221.43 74.0192 225.874 74.0812 230.317 74.0016C235.201 73.9153 238.123 77.4322 237.996 81.7697C237.843 87.0362 237.911 92.3115 237.983 97.5824C238.011 99.6572 237.66 101.615 236.482 103.265C235.376 104.815 233.726 105.773 231.814 105.917C229.902 106.061 227.972 105.974 226.051 105.974C218.512 105.979 210.973 105.979 203.434 105.974C198.865 105.972 196.048 103.101 196.035 98.4495C196.035 97.7129 196.013 96.9764 196.009 96.2398L196 93.8333L196.004 93.8355Z" fill="url(#paint5_linear_95_4619)"/>
<path d="M196.964 96.2465C196.962 97.1688 196.933 98.089 196.944 99.0091C196.988 102.462 199.564 105.074 202.953 105.098C204.774 105.112 206.596 105.079 208.417 105.114C208.974 105.125 209.385 104.944 209.778 104.576C211.828 102.654 213.891 100.748 215.945 98.83C216.456 98.3522 216.819 96.085 216.484 95.5298C216.268 95.1715 215.908 95.271 215.597 95.271C210.171 95.2755 203.611 95.2976 198.185 95.2777C198.185 95.2777 196.964 95.041 196.964 96.2443V96.2465ZM196.004 93.8355C196.013 89.644 196.015 85.4525 196.042 81.261C196.068 77.0318 199.02 74.0458 203.22 74.0259C207.809 74.0038 212.398 74.0215 216.987 74.0192C221.43 74.0192 225.874 74.0812 230.317 74.0016C235.201 73.9153 238.123 77.4322 237.996 81.7697C237.843 87.0362 237.911 92.3115 237.983 97.5824C238.011 99.6572 237.66 101.615 236.482 103.265C235.376 104.815 233.726 105.773 231.814 105.917C229.902 106.061 227.972 105.974 226.051 105.974C218.512 105.979 210.973 105.979 203.434 105.974C198.865 105.972 196.048 103.101 196.035 98.4495C196.035 97.713 196.013 96.9764 196.009 96.2398L196 93.8333L196.004 93.8355ZM198.185 94.477C201.9 94.446 206.73 94.2757 210.442 94.3133C211.142 94.3199 211.397 94.1275 211.384 93.3865C211.343 91.1392 211.349 88.8897 211.382 86.6403C211.391 85.959 211.24 85.6538 210.482 85.6604C206.258 85.6936 202.033 85.6869 197.807 85.6626C197.139 85.6582 196.907 85.8749 196.933 86.5496C197.025 88.9495 197.06 91.8742 197.06 93.354C197.06 94.0175 197.42 94.4748 198.185 94.4748V94.477ZM229.911 84.7955C232.022 84.7955 234.133 84.7756 236.241 84.8066C236.892 84.8177 237.155 84.6319 237.118 83.9373C237.065 82.9464 237.128 81.9489 237.098 80.9557C236.986 77.4875 234.521 75.0323 231.104 74.9881C229.358 74.9659 227.61 75.0146 225.866 74.9681C225.127 74.9482 224.559 75.1407 224.015 75.6649C222.439 77.1822 220.881 78.7284 219.192 80.1086C217.94 81.1327 217.219 82.201 217.435 83.913C217.577 85.0322 216.856 85.6427 215.707 85.6715C214.87 85.6936 214.03 85.7091 213.196 85.667C212.52 85.6316 212.208 85.8108 212.221 86.5761C212.26 88.8588 212.254 91.1437 212.223 93.4263C212.215 94.0965 212.429 94.3221 213.097 94.3133C215.717 94.2823 218.338 94.2823 220.955 94.3133C221.62 94.3221 221.836 94.112 221.825 93.4352C221.79 91.2255 221.806 89.0158 221.816 86.8061C221.823 85.3773 222.385 84.8088 223.798 84.8C225.835 84.7889 227.874 84.7978 229.911 84.7978V84.7955ZM206.614 84.7933C209.527 84.7933 212.44 84.7955 215.355 84.7889C215.742 84.7889 216.17 84.8884 216.432 84.4461C216.788 83.8444 216.526 81.7409 215.991 81.2388C213.941 79.3145 211.876 77.4101 209.828 75.4835C209.426 75.1053 208.993 74.9637 208.449 74.9704C206.557 74.9969 204.662 74.9681 202.768 74.9858C200.294 75.0102 198.59 76.282 197.486 78.4452C196.603 80.1771 197.064 82.0617 196.935 83.882C196.883 84.6252 197.171 84.8155 197.875 84.8066C200.788 84.7712 203.701 84.7911 206.616 84.7911L206.614 84.7933ZM227.312 95.2688C224.364 95.2688 221.417 95.2644 218.469 95.2755C218.158 95.2755 217.796 95.145 217.549 95.448C217.219 95.8528 217.538 98.3832 217.964 98.7791C219.813 100.487 221.703 102.15 223.501 103.911C224.421 104.813 225.37 105.218 226.674 105.14C228.114 105.056 229.592 105.242 231.016 105.196C232.754 105.14 234.434 104.501 235.682 103.019C236.589 101.942 237.083 100.779 237.089 99.3829C237.094 98.4252 237.026 97.4586 237.124 96.5119C237.236 95.4347 236.785 95.2312 235.828 95.2489C232.99 95.3042 230.151 95.2688 227.312 95.2688ZM229.793 94.3C231.941 94.3 234.087 94.2801 236.235 94.3111C236.882 94.3199 237.131 94.1385 237.12 93.444C237.083 91.1614 237.08 88.8765 237.12 86.5938C237.133 85.8506 236.871 85.6604 236.174 85.6648C232.061 85.6914 227.948 85.6891 223.836 85.6692C222.992 85.6648 222.662 86.0032 222.673 86.8504C222.702 89.0225 222.719 91.199 222.662 93.3688C222.64 94.1961 222.962 94.3288 223.674 94.3155C225.711 94.2735 227.749 94.3 229.788 94.3H229.793ZM223.069 105.059C223.115 104.981 223.163 104.904 223.208 104.826C221.246 102.999 219.288 101.166 217.315 99.3497C216.924 98.9914 216.661 99.3807 216.401 99.6196C214.658 101.223 212.909 102.825 211.181 104.444C211.034 104.581 210.674 104.689 210.886 105.056H223.069V105.059ZM210.597 75.0301C212.704 76.9765 214.607 78.7195 216.491 80.4846C216.915 80.8805 217.175 80.8009 217.577 80.4204C219.087 78.9916 220.658 77.6313 222.168 76.2024C222.505 75.8839 222.972 75.6207 223.117 75.0323H210.6L210.597 75.0301Z" fill="#ABABAB"/>
<defs>
<linearGradient id="paint0_linear_95_4619" x1="204.45" y1="22.9786" x2="212.443" y2="22.5447" gradientUnits="userSpaceOnUse">
<stop stop-color="#D7D7D7"/>
<stop offset="0.485" stop-color="#B6B6B6"/>
<stop offset="1" stop-color="#E3E3E3"/>
</linearGradient>
<linearGradient id="paint1_linear_95_4619" x1="213.796" y1="23.2915" x2="228.453" y2="21.8699" gradientUnits="userSpaceOnUse">
<stop stop-color="#D7D7D7"/>
<stop offset="0.485" stop-color="#B6B6B6"/>
<stop offset="1" stop-color="#E3E3E3"/>
</linearGradient>
<linearGradient id="paint2_linear_95_4619" x1="228.451" y1="22.9783" x2="245.898" y2="20.8872" gradientUnits="userSpaceOnUse">
<stop stop-color="#D7D7D7"/>
<stop offset="0.485" stop-color="#B6B6B6"/>
<stop offset="1" stop-color="#E3E3E3"/>
</linearGradient>
<linearGradient id="paint3_linear_95_4619" x1="189.021" y1="22.9571" x2="206.174" y2="20.9345" gradientUnits="userSpaceOnUse">
<stop stop-color="#D7D7D7"/>
<stop offset="0.485" stop-color="#B6B6B6"/>
<stop offset="1" stop-color="#E3E3E3"/>
</linearGradient>
<linearGradient id="paint4_linear_95_4619" x1="182.847" y1="13.7045" x2="194.56" y2="11.9573" gradientUnits="userSpaceOnUse">
<stop stop-color="#D7D7D7"/>
<stop offset="0.485" stop-color="#B6B6B6"/>
<stop offset="1" stop-color="#E3E3E3"/>
</linearGradient>
<linearGradient id="paint5_linear_95_4619" x1="198.5" y1="106" x2="238" y2="77" gradientUnits="userSpaceOnUse">
<stop stop-color="#AFAFAF"/>
<stop offset="1" stop-color="#D6D6D6"/>
</linearGradient>
</defs>
</svg>
